<svg version="1.1" id="Layer_1" xmlns="http://www.w3.org/2000/svg" xmlns:xlink="http://www.w3.org/1999/xlink" x="0px" y="0px" viewBox="0 0 100 100" enable-background="new 0 0 100 100" xml:space="preserve"><path d="M23.4,73c-4.6,0-8.3,3.7-8.3,8.3c0,4.6,3.7,8.3,8.3,8.3c4.6,0,8.3-3.7,8.3-8.3C31.7,76.7,27.9,73,23.4,73z M23.4,84.3 c-1.6,0-3-1.3-3-3c0-1.7,1.3-3,3-3c1.6,0,3,1.3,3,3C26.3,82.9,25,84.3,23.4,84.3z"></path><path d="M56.6,73c-4.6,0-8.3,3.7-8.3,8.3c0,4.6,3.7,8.3,8.3,8.3s8.3-3.7,8.3-8.3C64.9,76.7,61.2,73,56.6,73z M56.6,84.3 c-1.6,0-3-1.3-3-3c0-1.7,1.3-3,3-3c1.6,0,3,1.3,3,3C59.6,82.9,58.3,84.3,56.6,84.3z"></path><path d="M77.6,10.4l-4,12H5.1l11.8,35.5h44.8l-1.8,5.5H19.3v5.3h44.4l17.7-53h13.5v-5.3H77.6z M68.2,36.9H56.7l1.6-9.1h12.9   L68.2,36.9z M50.4,42.2l-1.8,10.4H37.1l-1.8-10.4H50.4z M34.3,36.9l-1.6-9.1H53l-1.6,9.1H34.3z M55.8,42.2h10.6l-3.5,10.4H54    L55.8,42.2z M27.3,27.8l1.6,9.1H15.5l-3-9.1H27.3z M17.3,42.2h12.6l1.8,10.4H20.7L17.3,42.2z"></path></svg>