<?xml version="1.0" encoding="utf-8"?><!-- Generator: Adobe Illustrator 19.1.0, SVG Export Plug-In . SVG Version: 6.00 Build 0)  --><svg version="1.1" id="Layer_1" xmlns="http://www.w3.org/2000/svg" xmlns:xlink="http://www.w3.org/1999/xlink" x="0px" y="0px"	 viewBox="0 0 100 100" enable-background="new 0 0 100 100" xml:space="preserve"><path d="M50.1,94.2C25.8,94.2,6,74.4,6,50.1S25.8,5.9,50.1,5.9s44.1,19.8,44.1,44.1S74.4,94.2,50.1,94.2z M50.1,8.9	C27.4,8.9,9,27.4,9,50.1s18.4,41.1,41.1,41.1s41.1-18.4,41.1-41.1S72.8,8.9,50.1,8.9z"/><path d="M82.4,73.9c-4.3,0-8.4-1.5-10.7-4c-2.4,2.4-6.4,4-10.7,4c-4.4,0-8.5-1.6-10.9-4.1c-2.4,2.5-6.4,4.1-10.9,4.1	c-4.4,0-8.5-1.5-10.8-4c-2.4,2.5-6.4,4-10.8,4c-1.5,0-3.1-0.2-4.5-0.6l0.7-2.9c1.2,0.3,2.5,0.5,3.8,0.5c4.1,0,7.8-1.6,9.4-4l0.4-0.7	l2.1,0l0.4,0.7c1.5,2.4,5.3,4,9.3,4c4.1,0,7.8-1.6,9.4-4l0.4-0.7l2.1,0l0.4,0.7c1.5,2.4,5.3,4,9.3,4c4.1,0,7.8-1.6,9.4-4l0.5-0.7	l1.9,0l0.4,0.7c1.5,2.4,5.3,4,9.3,4c1.4,0,2.8-0.2,4-0.5l0.8,2.9C85.7,73.6,84.1,73.9,82.4,73.9z"/><path d="M67.8,71h-3c0-10.5,4.7-19.4,6.7-22.7L50.2,36.6L28.7,48.3c2,3.4,6.7,12.2,6.7,22.7h-3c0-12.1-7-22.3-7.1-22.4l-1-1.4	l25.8-14l25.6,14l-1,1.4C74.8,48.7,67.8,58.9,67.8,71z"/><rect x="48.6" y="20.6" width="3" height="8.2"/><polygon points="67.6,43.6 64.6,43.6 64.6,30.1 35.6,30.1 35.6,43.6 32.6,43.6 32.6,27.1 67.6,27.1 "/></svg>            <?xml version="1.0" encoding="utf-8"?><!-- Generator: Adobe Illustrator 19.1.0, SVG Export Plug-In . SVG Version: 6.00 Build 0)  --><svg version="1.1" id="Layer_1" xmlns="http://www.w3.org/2000/svg" xmlns:xlink="http://www.w3.org/1999/xlink" x="0px" y="0px"	 viewBox="0 0 100 100" enable-background="new 0 0 100 100" xml:space="preserve"><path d="M50.1,94.2C25.8,94.2,6,74.4,6,50.1S25.8,5.9,50.1,5.9s44.1,19.8,44.1,44.1S74.4,94.2,50.1,94.2z M50.1,8.9	C27.4,8.9,9,27.4,9,50.1s18.4,41.1,41.1,41.1s41.1-18.4,41.1-41.1S72.8,8.9,50.1,8.9z"/><polygon points="20.7,73 18,71.6 31,46.3 38.4,49.2 51.7,29.3 61,40.1 72.9,41.6 83.5,71.8 80.6,72.8 70.7,44.3 59.5,42.9 52,34.2 	39.6,52.9 32.5,50.1 "/><path d="M82.4,73.9c-4.3,0-8.4-1.5-10.7-4c-2.4,2.4-6.4,4-10.7,4c-4.4,0-8.5-1.6-10.9-4.1c-2.4,2.5-6.4,4.1-10.9,4.1	c-4.4,0-8.5-1.5-10.8-4c-2.4,2.5-6.4,4-10.8,4c-1.5,0-3.1-0.2-4.5-0.6l0.7-2.9c1.2,0.3,2.5,0.5,3.8,0.5c4.1,0,7.8-1.6,9.4-4l0.4-0.7	l2.1,0l0.4,0.7c1.5,2.4,5.3,4,9.3,4c4.1,0,7.8-1.6,9.4-4l0.4-0.7l2.1,0l0.4,0.7c1.5,2.4,5.3,4,9.3,4c4.1,0,7.8-1.6,9.4-4l0.5-0.7	l1.9,0l0.4,0.7c1.5,2.4,5.3,4,9.3,4c1.4,0,2.8-0.2,4-0.5l0.8,2.9C85.7,73.6,84.1,73.9,82.4,73.9z"/></svg>            <?xml version="1.0" encoding="utf-8"?><!-- Generator: Adobe Illustrator 19.1.0, SVG Export Plug-In . SVG Version: 6.00 Build 0)  --><svg version="1.1" id="Layer_1" xmlns="http://www.w3.org/2000/svg" xmlns:xlink="http://www.w3.org/1999/xlink" x="0px" y="0px"	 viewBox="0 0 100 100" enable-background="new 0 0 100 100" xml:space="preserve"><path d="M45.2,62.2h-17v-3h17c1.8,0,3.4-1.5,3.4-3.4V50h3v5.8C51.6,59.4,48.7,62.2,45.2,62.2z"/><path d="M45.2,53.4H32.5v-3h12.7c1.8,0,3.4-1.5,3.4-3.4v-3.5h3V47C51.6,50.5,48.7,53.4,45.2,53.4z"/><path d="M45.2,44.4h-8.8v-3h8.8c1.8,0,3.4-1.5,3.4-3.4v-0.9h3v0.9C51.6,41.6,48.7,44.4,45.2,44.4z"/><path d="M45.2,36.3h-4.7v-3h4.7c1.8,0,3.4-1.5,3.4-3.4h3C51.6,33.5,48.7,36.3,45.2,36.3z"/><path d="M45.2,28.7h-2.3v-3h2.3c1.8,0,3.4-1.5,3.4-3.4h3C51.6,25.8,48.7,28.7,45.2,28.7z"/><rect x="48.6" y="16.8" width="3" height="59.1"/><path d="M72,62.2H55c-3.5,0-6.4-2.9-6.4-6.4V50h3v5.8c0,1.8,1.5,3.4,3.4,3.4h17V62.2z"/><path d="M67.7,53.4H55c-3.5,0-6.4-2.9-6.4-6.4v-3.5h3V47c0,1.8,1.5,3.4,3.4,3.4h12.7V53.4z"/><path d="M63.8,44.4H55c-3.5,0-6.4-2.9-6.4-6.4v-0.9h3v0.9c0,1.8,1.5,3.4,3.4,3.4h8.8V44.4z"/><path d="M59.7,36.3H55c-3.5,0-6.4-2.9-6.4-6.4h3c0,1.8,1.5,3.4,3.4,3.4h4.7V36.3z"/><path d="M57.3,28.7H55c-3.5,0-6.4-2.9-6.4-6.4h3c0,1.8,1.5,3.4,3.4,3.4h2.3V28.7z"/><path d="M50.1,94.2C25.8,94.2,6,74.4,6,50.1S25.8,5.9,50.1,5.9s44.1,19.8,44.1,44.1S74.4,94.2,50.1,94.2z M50.1,8.9	C27.4,8.9,9,27.4,9,50.1s18.4,41.1,41.1,41.1s41.1-18.4,41.1-41.1S72.8,8.9,50.1,8.9z"/><rect x="11.6" y="67.7" width="76.4" height="3"/></svg>