<?xml version="1.0" encoding="utf-8"?>
<!-- Generator: Adobe Illustrator 19.2.0, SVG Export Plug-In . SVG Version: 6.00 Build 0)  -->
<svg version="1.1" id="BOS_Logo_-_dark_xA0_Image_1_"
	 xmlns="http://www.w3.org/2000/svg" xmlns:xlink="http://www.w3.org/1999/xlink" x="0px" y="0px" viewBox="0 0 989 989"
	 enable-background="new 0 0 989 989" xml:space="preserve">
<g>
	<path d="M408.6,415.6c-0.9-2.1-1.9-4.2-4.6-4.5c-3.2-0.4-4.7,1.7-5,4.3c-0.3,2.6,1.6,4.4,4.2,4.6
		C406.2,420.2,407.4,417.9,408.6,415.6z"/>
	<path d="M382.7,400.3c0.3-0.9-0.2-1.7-0.9-2.1c-1.3-0.6-2.8-1.1-4.2-1.6c-6.4,2.3-13.1,4-16.5,10.9c-1.1,2.2-1,4,1.1,5.1
		c2.1,1.1,3.3-0.9,3.7-2.3c2.4-7.6,8.8-8.5,15.2-9.5C381.7,400.8,382.4,401.1,382.7,400.3z"/>
	<path d="M407.4,396.3c-4.6-1.1-7.8,0.5-9.4,4.9c9.7-3.5,16.2,1.3,21.5,9.2C420.6,403.4,415.7,398.2,407.4,396.3z"/>
	<path d="M381.9,417.3c0-3.2-2.5-3.9-4.6-4.7c-3.1,0-4.7,1.8-4.8,4.2c-0.2,2.8,2.2,4.7,4.6,4.9C379.6,421.9,381.9,420.4,381.9,417.3
		z"/>
	<path d="M289.9,407c0,4.1,1.5,9.2-0.5,12c-1.6,2.2-7.4,1-11,2.3c-5,1.8-10.3,3.2-14.7,6.5c-2.3,1.7-3.1,0.8-3.7-1.4
		c-1.7-6.2-1.3-12.5-0.4-18.7c0.5-3.3,0.7-6.7,0.3-9.9c-0.8-6,1-8.5,7.2-8.6c1.5,0,3.1-0.2,4.5,0.2c4.3,1.5,8.5,0.7,12.6-0.8
		c3.1-1.1,4.5-0.3,5,3.1C289.8,396.8,289.8,401.9,289.9,407z"/>
	<path d="M232.4,747.1c3.2-0.8,5.8,1.2,8.3,5.1c2.3,3.5,5.5,6.8,9,9.2c8.3,5.8,13.6,14.8,22.1,20.3c3.2,2,4.5,4.9,2.8,8.6
		c-0.3,0.6-0.7,1.1-0.9,1.7c-0.7,1.9,1.2,4.9-1.6,5.7c-2.9,0.9-4.2-2.2-5.8-3.9c-13-12.9-25.9-25.8-38.8-38.8c-1.6-1.6-5-2.9-4-5.6
		C224.7,746,228.4,747.4,232.4,747.1z"/>
	<path d="M281.1,279.1c7.9-2.2,7.8-13.1,17.9-14c-4.5,5.5-6.3,11.1-9.7,15.8c-1.9,2.6-4,4.7-3.4,8.2c0.2,1.4-0.4,2.1-2.3,2.1
		c-6,0.2-12,0.9-18.5,1.4c0-9.7-0.1-19.4,0-29.2c0-3.3,3.6-5.2,6.9-3.8c2.1,0.9,4.1,2,6,3.2c1.6,1,3.3,1.6,2.3,4.7
		C278.9,271.1,281.1,274.9,281.1,279.1z"/>
	<path d="M218.8,448.7c-8.8,3.2-16.9,0.4-24.9-2.6c-1.3-0.5-3.4-0.8-3.5-2.3c-0.1-1.8,2.2-1.4,3.4-2.1c3.3-1.8,6.5-0.9,9.5,0.4
		c3.6,1.7,7.1,2.4,11,1.1c1.8-0.6,3.8-0.3,2-3.2c-0.9-1.5,0.6-2.3,1.8-2.9c7.3-3.6,9.1-3.4,15,2.6c1.5,1.5,4.6,2.6,3.7,5.4
		c-1.2,3.6-3.3,7-6.7,9c-1.5,0.9-3-1.3-4.3-2.3C223.6,450.3,221.8,448.3,218.8,448.7z"/>
	<path d="M398.9,776.1c-2.7,5.3-7.4,8.4-12.5,10.5c-5.7,2.3-11.6,4.2-17.5,5.9c-5.4,1.6-4.7-3.2-6.2-5.1c-1.8-2.3,1.1-3.1,2.8-3.9
		c4.6-2.1,9.4-3.8,13.7-6.5C385.6,773,391.9,772.2,398.9,776.1z"/>
	<path d="M290.9,750.1c-1.2,2.3-3.9,3.2-5.3,5.5c-0.8,1.3-2.4,0-3.3-1c-5.6-5.6-13.1-8.6-18.7-14.6c-3.4-3.6-3.7-3.8,0-6.2
		c1.4-0.9,2.5-2.7,3.3-4.3c2.3-4.6,4.2-2.1,5.2,0.5c2.3,6,7.1,9.4,12.1,12.7C287,744.6,289,747.1,290.9,750.1z"/>
	<path d="M426.4,760.1c-4.1-0.6-4.6-4.2-6-6.8c-1.4-2.7,1.6-2.5,3-3.3c7.8-4.3,16.8-5.9,24.1-11.1c2.6-1.8,3.4-0.5,4.3,1.5
		c2.7,6.3,2.3,5.6-3.4,9.1c-6.5,4-13.9,5.9-20.3,9.8C427.5,759.7,426.9,759.9,426.4,760.1z"/>
	<path d="M451.7,324.5c-5.6,2.9-11.1,5.7-16.5,8.7c-1.3,0.7-2.9,1.3-3.7,0.7c-4-3-8.8-1.7-13.1-2.9c-2.6-0.7-4.1-1.8-2.4-4.8
		c1.7-3.1,4-5.9,4.4-9.7c0.2-1.7,7.8-3.4,8.9-2c1.5,1.8,1,3.9-0.7,5.7c-0.8,0.8-1.2,1.9-1.7,3c-0.7,1.5-2,3.3-0.6,4.5
		c1.4,1.4,2.9-0.4,4.3-1.1c4.8-2.5,10.1-3.6,15.2-5.1C447.9,320.6,450.1,322.2,451.7,324.5z"/>
	<path d="M961,309.7c-0.1-0.5-0.1-1-0.1-1.5c-0.3-12.8-11-19.4-17.3-28.6c-0.2-0.2-0.6-0.4-0.9-0.3c-3.9,0.3-5.8-2.7-8.1-5
		c-8.5-8.3-15.2-18.3-23.3-27c-4.7-5.1-9.6-7.6-15.6-9.1c-13.1-3.1-25.5-8.3-36.9-15.2c-7.1-4.3-13.6-9.3-22.6-7
		c-2.2,0.6-4.6,0.6-6.8,1c-6.4,1.3-13.1,1.5-19.2,4.1c-9.3,4-18.6,8.1-27.6,13c-18.2,9.9-36.7,19.3-53.7,31.1
		c-12.2,8.5-23.6,17.9-35.3,27c-17.2,13.4-34.2,27.1-51.6,40.2c-10,7.5-19.2,16.1-30.4,21.8c-2.3,1.2-3.8,2.3-5.9-0.7
		c-1.9-2.6-2.2-4.2,0.2-6.3c1-0.9,1.5-2.2,2.3-3.2c1-1.2,1.2-2.6,0.5-3.7c-0.7-1-2.1-0.5-3.2-0.3c-4.5,1.1-8.6,3.2-12.2,6.2
		c-8.8,7.3-16.9,15.7-27.2,21c-1.6,0.8-3.2,3.1-5.1,0.8c-1.3-1.6-3.2-3.5-0.1-5.5c0.9-0.6,1.4-2.3,0.4-3.6c-1.1-1.4-2.2-0.5-3.5-0.3
		c-5.1,0.9-9.5,3.4-14,5.9c-7,3.9-12.2,10.3-19.9,13.2c-4.9,1.8-9.6,3.8-15.7,4.3c1.6-2.5,2.8-4.3,4-6c0.5-0.8,1.4-1.8,0.7-2.7
		c-1-1.2-2.1-0.2-3,0.5c-3.4,2.4-7.2,4.1-11.1,2.8c-11.5-3.6-22.5-0.8-33.6,1.5c-2.8,0.6-4.7,2.2-3,5.7c1.7,3.5,1.2,7.4,1.1,11.2
		c0,1.2-0.3,2.5-1.7,2.5c-1.1,0-1.5-1.2-1.4-2.3c0.3-3.4-1.5-6-2.9-8.8c-1.4-3-2.8-6-3.9-9c-0.4-1.1-1.1-3.2,0.4-3.5
		c2.6-0.6,1.6-1.8,0.9-2.9c-3.8-5.9-6.8-12.6-13.7-15.7c-2.8-1.2-2.3-2.7-0.7-4.6c1.7-2.1,4.7-2.4,6.5-4.4c-1.3-1.5-3-2-4.8-2.5
		c-2.6-0.7-5.3-1.1-7.7-2.8c-7.3-4.9-15.4-6.1-24.1-4.6c-2.5,0.4-6.2,1.7-7.3-0.7c-1.1-2.4,0.7-5.6,3.4-7.4c0.1-0.1-0.1-0.5-0.3-1.1
		c-1.5-0.4-3-0.2-4.6,0.1c-6.7,0.9-11.9,4.4-16.7,8.8c-1.4,1.3-2.5,2.6-4.7,1.2c-4.1-2.8-9.1-2.4-13.2-1.3
		c-13.3,3.5-25.3,9.8-36,18.3c2.7,3,4.3,5.2,4,5.5c-2,1.8-3.4,4.1-5.9,5.3c-0.1,0.1-0.3,0.2-0.4,0.3c-7,5.9-12.2,12.9-14.2,22
		c-1.7,7.9-2.7,16-7.3,23c8.3,2.1,8.1,2.1,8.7,10.6c0.5,7.3,2.9,13.8,8.4,19c2,1.8,3.6,3.8,4.5,6.4c0.4,1.1,1.4,2.1,0.4,3.1
		c-0.9,0.8-2,0.1-3.1-0.5c-6.5-3.6-11.7-8.2-14.7-15.3c-3.2-7.5-9.2-10.5-16.8-8.6c-9.2,2.3-18.1,5.4-26.8,9.5
		c-13.3,6.3-24.4,14.6-31.9,27.5c3.8,2.4,7.7,0,11.5,0.7c1,0.2,2.6-0.7,3,0.9c0.4,1.7-1.3,2-2.5,2.5c-0.9,0.3-1.9,0.4-2.8,0.7
		c-13.6,4.9-24.7,12.6-28.9,27.3c-2.7,9.7-3.1,20.1-11.7,28.6c3.8,0,6.1-0.1,8.4,0c0.9,0,2.1-0.5,2.7,0.6c0.7,1.2-0.6,1.7-1.2,2.4
		c-2.5,2.9-5,5.7-7.6,8.5c-2.6,2.8-4.1,6.1-4.8,9.9c3.9,0.6,7.3-2.4,11.8-0.7c-2.3,2.1-4.1,3.8-6,5.3c-8,6.3-13.6,14.1-16.2,24.1
		c-2.1,7.8-2.5,15.9-3.8,23.9c-0.2,1.2-0.7,3,0.7,3.6c1.9,0.9,2.4-1,3.2-2.2c0.7-0.9,1.5-1.8,2.4-2.6c2.6-2.3,8.9-2.8,11.1-0.9
		c3.7,3.2,2.4,6.2,0.3,10c-5.4,9.9-11.9,19.4-15.4,30.3c-3.7,11.8-6.2,23.6-3.3,36c0.4,1.7,0.6,4.1,2.6,4.4c2.1,0.3,2.5-2.1,3-3.5
		c1.7-5.3,6.2-7.2,10.6-9c4.2-1.8,6.1,0,7.1,4.4c0.7,3.4,0.4,6.6-0.3,9.8c-0.8,3.7-2.2,7.3-2.5,11c-0.5,4.9-2.9,10,0.3,15.8
		c0.8-1.2,1.8-2,1.7-2.6c-1-6.4,3.9-9.1,7.7-12.3c13.4-11.3,28.7-16.9,46.4-14.5c1,0.1,2.2,1.6,3.1,0.1c0.6-1.1,0-2.1-0.6-3.2
		c-3.1-5.5-4.9-11.7-9.2-16.7c-0.8-1-1.1-2.3-1.1-3.7c0.2-11.1-0.7-22.2,1.8-33.3c0.7-3,2.2-4.8,4.6-5.9c2.5-1.2,4.2,1.1,5.5,2.4
		c4.4,4.3,9.4,7.6,14.8,10.3c3.3,1.6,6.6,3.6,8.2,6.9c5.3,10.5,11,20.9,15.1,32c3.4,9.4,3.6,9.6,12.3,4.3c0.1-0.1,0.2-0.2,0.4-0.3
		c9.1-4.5,17.2-10.7,26.3-15.7c0.2,4.9-2.4,9-3,13.9c8.8-4.2,17.2-8.1,26-12.3c0,2.9,0,5.1,0,7.3c0,1.9,0.8,2.5,2.5,1.7
		c5.7-2.9,11.8-4.7,16.8-9.2c5.3-4.9,10.4-10.1,17-13.5c2.4-1.3,3.5-1.7,4.1,1.9c1,6.3,1.6,13.2,5.7,18.2c4.8,6,6.6,12,4.1,19.4
		c-0.6,1.8-0.9,3.5-2.9,4.1c-2.2,0.7-3.2-1.1-4.5-2.2c-0.7-0.6-1-1.7-1.6-2.5c-0.7-0.9-1.5-1.8-2.8-1.7c-1.7,0.2-1.7,1.6-2.3,2.8
		c-1.8,3.8-0.1,7.5,0.1,11.2c0.3,6.4,2.7,9.9,7.4,11.5c5,1.7,9.8,0.2,13.6-4.7c1.3-1.7,1.7-2.7,4-0.8c6,5.2,11.9,3,13.8-4.7
		c0.4-1.4,0.4-2.8,2.8-2c6.3,2.1,11.1-1.5,11.2-8.1c0.1-6.1,1.3-12.1,3-18c2.2-7.9,2.9-15.5-4.5-21.5c-4-3.3-6.5-7.7-8.7-12.4
		c-3.4-7.4-7.1-14.8-10.7-22.1c-4.5-9.3-16.7-14.6-26.6-11.4c-9.2,2.9-18.1,6.8-27.4,9c-18,4.4-36.3,7.9-54.8,10.2
		c-12.8,1.6-25.7,2.2-38.6,2.9c-2.8,0.2-5.4-0.3-6.9-2.9c-7.1-12.4-13.3-25-9-40c1.7-5.9,2.3-6.4,7.6-3.3c0.4,0.2,0.9,0.3,1.5,0.5
		c0.5-8.6-0.9-17.1,1-25.4c0.3-1.4-0.2-3.8,1.5-3.8c2.1,0,2.6,2.5,2.5,4.2c-0.3,9.6,2.5,18.6,4.8,27.7c1.3,4.9,0.3,5.8-4.6,6.6
		c-2.3,0.4-3.9-1.4-5.9-0.9c-0.9,6.3,0.1,12.4,1,18.4c1.4,9.4,4.1,11.4,13.9,11.6c6.7,0.1,13.3-0.4,19.9-1.3
		c34.5-4.8,68.3-13,101.8-22.8c1.9-0.6,3.5-0.8,5.6-0.3c9.6,2.4,14.5,10,18.8,17.6c6.9,12.3,11.8,25.7,21,36.6
		c4,4.7,4.7,10.7,3.7,16.9c-1.6,9.9-3.4,19.8-4.8,29.7c-0.7,5.1-6.5,10.7-11.6,10.7c-1.7,0-3.3-0.1-4.3,1.8
		c-2.1,3.9-6.3,5.1-9.7,7.3c-1.7,1.1-3.1,1.1-4.4-0.3c-3.3-3.4-6.3-3-9.8,0.2c-4.5,4.1-14.2,4.3-17.9,0.9c-6.4-6-10.4-24-7.1-32
		c1.7-4,7.2-6.6,11.2-5.2c1.2,0.4,2.6,1.3,3.4-0.4c0.8-1.6,0-3-1.3-3.8c-5.9-4-9.3-9.4-8.9-17.5c-6.3,4.9-9.8,11.5-17.1,14
		c-5.3,1.8-10.1,4.8-15.2,7.2c-2.9,1.4-6.4,4.4-9,2.4c-2.2-1.8,1.3-5.3,1.7-8.8c-11,3.2-20,10.8-31.5,13.1c0.3-1,0.4-1.6,0.6-2.2
		c0.7-2.1,1.4-5,0-6.2c-1.8-1.5-3.8,1-5.6,2c-4.5,2.6-8.5,6.2-14.4,5.5c-2.5-0.3-3,2.5-3.3,4.3c-0.3,2.4,0.2,4.9,0.5,7.3
		c0,0.1,1,0.2,1.4,0.1c4.9-1.3,10-0.2,14.9-1.2c7.7-1.6,15.4-0.4,22.8,0.9c14.2,2.4,27.2,8.1,39,16.6c10.9,7.9,21.6,15.4,26.3,29.1
		c2.4,7,9.1,9.3,16.4,7.5c5.3-1.3,10.1-3.4,13.3-7.9c3.9-5.4,9.1-3.5,14-2.6c4.2,0.8,3.1,4.4,3.7,7.2c0.2,1.1,0.6,2.2,0.6,3.4
		c0,7,6.2,8,10.6,10c3.3,1.5,3.9-3,5.4-5c1.4-1.8,2.6-2.2,4.5-0.6c5.7,4.8,9.3,4.2,13-2.4c1.4-2.5,2.6-2.8,5-1.5
		c4.8,2.4,9.1,0.8,10.4-3.5c1.9-6.6,2.8-7,8.7-3.5c4,2.3,8.2,0.5,9.4-3.7c3.3-11.5-1.2-21.2-8.7-28.7
		c-10.3-10.3-21.3-20.6-37.9-19.5c-1.9,0.1-3.9-0.8-4.5-3.1c-0.5-2.1-0.1-3.9,1.8-5.2c1.4-1,2.2-2.3,2.2-4.2c0.1-4.7,3-9.1,2-14
		c-0.2-1.1,0.6-2.1,1.4-2.4c2.6-0.9,2.3-2.7,1.9-4.8c-1.7-8.3,1.3-17.3-3.7-25.2c-0.9-1.5-0.4-4.3,1.6-5.3c1.7-0.9,3,1,4.2,2
		c1.1,0.9,1.8,2.3,2.7,3.5c0.6,0.8,1.1,1.9,2.3,1.4c0.9-0.4,1.5-1.5,1.3-2.5c-0.4-2.1-1-4.2-1.7-6.3c-3.5-9.8-7-19.6-10.6-29.4
		c3.6,2.5,9.1,1.3,10.8,6.3c0.3,1,0.1,2.7,1.6,2.7c1.5,0,2.1-1.5,2.7-2.6c0.7-1.4,0.6-2.9,0.2-4.4c-2.5-10.5-5.2-21-12.7-29.4
		c-2.5-2.9-4.7-6-6.9-9.2c-0.7-1-2.2-2.2-1-3.4c0.9-0.9,2.5-0.4,3.7,0.4c0.5,0.3,1.1,0.6,2.6,1.4c0-5.5-0.5-10.8-4.4-13
		c-10.3-5.8-14.1-15.2-16.7-25.6c-2.4-9.7,4.3-22,13.9-24.6c2.9-0.8,3.7-2.1,3.6-4.9c-0.2-4,0.1-8-0.1-12c-0.2-3.5,1.1-4.4,4.5-4.4
		c17.2,0.2,34.3-0.2,51.5,0.2c9.9,0.2,19.9,0.4,28.3,7.3c2.8,2.3,3.7-0.1,3.8-2.7c0-4,0.1-8-0.1-12c-0.3-4.3,1.9-4.7,5.1-3.7
		c8.6,2.8,15.3,8.1,20,15.8c1.7,2.8,3,5.9,4.6,9.3c4.5-7.8,8.3-15.2,10.4-23.4c1.1-4.1,2.6-8.1,4.6-12c1.7-3.3,3.6-4.1,7.1-2.8
		c8.2,2.9,15.3,7.6,22.3,12.5c2.4,1.7,3.8,1.6,5.3-1.1c2.1-3.7,4.8-7.1,6.9-10.8c4.3-7.7,9.9-14.8,10-24.3c0-1.7,1.5-3.3,3-3.6
		c1.5-0.4,3,0.8,4,2.2c1.3,1.8,1.6,3.8,2,6c0.5,3,0.4,6.2,2.3,9.3c2-2.6,3.9-4.9,5.6-7.3c5.9-7.9,10.6-16.6,15-25.4
		c0.7-1.4,1.5-2.9,2.9-3.1c1.8-0.3,2.2,1.9,2.8,3c1.6,2.8,2.7,5.8,2.5,9.8c10.7-12.4,19.3-24.9,24.3-39.8c1.3-3.8,2.3-7.9,4.8-11.3
		c1.9-2.6,3.1-2.4,4.8-0.1c2.1,2.8,3.6,5.8,3,9.9c6.3-3.9,8.8-9.9,11.7-15.6c6.4-12.5,12.4-25.1,22.6-35.1
		c8.7-8.5,15.5-18.3,22.6-28c5.5-7.6,9.4-16.6,19.4-20.3c4-1.5,7.2-1.9,11.1-0.2c3.8,1.7,7.9,4.7,12,3.8c9-2.1,15.5,1.3,21,7.6
		c2.4,2.8,4.8,5.3,8.6,6c2.6,0.4,4-0.7,3.3-3.3c-0.7-2.9-1.9-5.6-2.4-8.5c-0.4-2.2-1.4-5.1,0.9-6.5c2.1-1.2,4.8-1,7.2,0
		c0.9,0.4,1.7,1,2.5,1.6c5.7,3.8,10.9,8.3,17.8,10.2c4.7,1.3,6.1,5.2,5.9,10c-0.2,5.7,0.3,11.5,3.1,16.8c1.1,2,2.6,3,4.7,2.8
		c2-0.1,3.3-1.4,3.8-3.4c0.2-0.9,0.7-1.9,0.8-2.8c0.1-2.7,1.2-4.5,4-4.8c2.9-0.4,2.9,1.9,3.6,3.8c0.9,2.8,2.2,5.5,4,7.9
		c2.1,2.8,5.7,3.4,8.4,3.1c2.6-0.3,1.9-4,2.2-6.3c0-0.3,0-0.7,0-1c0.2-1.7-0.8-4.3,1.3-4.7c1.2-0.3,3,1.7,4.4,2.7
		c0.8,0.6,1.2,1.4,1.3,2.6c0.1,3.9,2.3,6.8,4.8,9.6c2.3,2.5,5.3,5.4,8.4,4.2C962.7,317.1,962,313,961,309.7z M438.5,436
		c-2.3,5.9-8.8,9.2-15.4,8.1c-1.9-0.3-4.1-1.4-5.4,0.9c-1.1,2,1.1,2.9,1.9,4.2c4.9,6.8,8.3,14,6.2,22.8c-0.8,3-0.8,6.3-1.2,9.4
		c-2.1,14.9-10,22.1-25.1,23.2c-12.6,1-24-2-33.9-10c-1.2-1-2.1-2.1-2.6-3.6c-2.9-7.7-5.1-15.4-5.3-23.7c-0.2-7.9,3.9-13,9.7-17.1
		c1.1-0.8,1.9-1.3,1.5-2.5c-0.4-1.2-1.6-1-2.5-0.7c-1.1,0.3-2.2,0.7-3.3,1c-13.2,4.7-13.4,0.7-18.2-6.7c-0.5-0.8-1-1.8-1.5-2.8
		c-0.5-1.1-1-2.2-1.5-3.5c-2.8-7.5-4.9-17.8-4.9-24.1c-0.5-9.5,2.8-17.8,7-25.8c0.7-1.3,1.4-2.6,2.1-3.9c0.7-1.3,1.5-2.6,2.2-3.9
		c4.7-8.4,11.8-15.2,21.7-16.9c6.9-1.1,13.9,1.1,20,4.6c2.3,1.3,3.6,1.1,5.7,0.3c7.3-3.2,14.7-5.6,22.8-3.1c3.1,1,6,2.4,7.8,5
		c4.4,6.4,9.2,12.7,11,20.5c1.8,7.8,3.6,15.5,4.9,23.4C443.6,420,441.6,428,438.5,436z"/>
	<path d="M391.4,484.3c-4.6-0.2-9.3-0.4-13.9-0.7c-1.9-0.2-3.8-1.1-3.6-3.3c0.3-2.6,2.7-1.4,4-1.4c11.4,0.5,22.8,1.8,34.2-0.4
		c1.5-0.3,3.7,0,3.8,2.1c0.2,2.4-2.1,1.5-3.3,1.8C405.6,484.3,398.5,484.5,391.4,484.3z"/>
	<path d="M377.5,396.6c1.5,0.5,2.9,1,4.2,1.6c0.8,0.4,1.3,1.2,0.9,2.1c-0.3,0.8-1,0.5-1.7,0.6c-6.4,1-12.8,1.8-15.2,9.5
		c-0.4,1.3-1.6,3.4-3.7,2.3c-2.1-1.1-2.2-3-1.1-5.1C364.4,400.6,371.1,398.9,377.5,396.6z"/>
	<path d="M398,401.2c1.5-4.4,4.8-6,9.4-4.9c8.3,1.9,13.2,7.2,12.2,14.2C414.2,402.5,407.7,397.8,398,401.2z"/>
	<path d="M377.3,412.6c2.2,0.8,4.6,1.5,4.6,4.7c0,3.2-2.3,4.6-4.9,4.4c-2.4-0.2-4.8-2.1-4.6-4.9
		C372.6,414.4,374.2,412.6,377.3,412.6z"/>
	<path d="M408.6,415.6c-1.2,2.3-2.4,4.6-5.4,4.4c-2.6-0.2-4.4-2-4.2-4.6c0.3-2.5,1.7-4.7,5-4.3C406.7,411.4,407.7,413.5,408.6,415.6
		z"/>
	<path d="M390.3,447c-2.3-0.9-5.4-0.6-6.4-3.5c-0.4-1.2,1.4-1.7,2.5-1.6c2.4,0.3,4.9,1,5.9,3.6C392.7,446.7,391.4,446.8,390.3,447z"
		/>
	<path d="M402,443.1c-1.5,1.6-3.4,3.2-5.9,3.7c-0.9,0.2-1.8-0.7-1.5-1.5c1.1-2.5,3.4-3.4,5.9-3.9C401.3,441.2,402.2,441.6,402,443.1
		z"/>
</g>
<g>
	<path fill="#020202" d="M147,706.9c9.4,3.2,18.5,5.6,28.9,3.5c9.8-1.9,16-6.8,21.1-14.4c1.6-2.4,2.3-4.8,1.7-7.4
		c-1.1-4.7-1.1-9.4,0.1-14.1c-0.4-0.1-0.8-0.3-1.2-0.4c-3.1,4.2-6.2,8.4-9.2,12.6c-0.6,0.9-0.9,2.5-2.2,2.1
		c-0.9-0.3-1.5-1.7-1.9-2.7c-0.9-2.4-1.2-5.2-2.4-7.4c-2.4-4.6-4.3-10.5-10.2-11.2c-8.4-1.1-17-0.2-24.8,2.8
		c-14.2,5.4-26.3,14.3-35.6,26.5c-4.4,5.7-8.8,11.5-9.7,19.9c4.3-3.8,9.3-4.5,13.6-6.9C125.1,704,135.9,703.1,147,706.9z"/>
	<path fill="#020202" d="M284.6,710.4c-1.2,3.6-5.1,6.3-3.9,10.6c1.8,6.8,0.9,15,8.8,19.1c0.5,0.3,0.4,1.6,0.8,2.2
		c1.2,1.9,2.6,2.4,4.4,0.4c4.9-5.6,9.1-11.9,17-14.1c1.9-0.5,3.5-2.5,5.1-3.8c0.9-0.7,1.9-1.9,1-3c-2.6-3-2.8-7.3-5.9-10.2
		c-4-3.7-8.4-6.8-13.7-8.7C293.4,705.2,286.7,704.1,284.6,710.4z"/>
	<path fill="#020202" d="M179.1,630.8c-2.6-2-5.2-4.2-8.1-5.7c-7.9-3.9-16.2-6.4-25.3-6.3c-8.8,0.1-8.8-0.4-8.8,8.4
		c1,12.9,9.9,23.1,20.5,32.3c0.7,0.6,2.2,0.3,3.4,0.4c4.3,0.6,8.6,0.9,12.8,1.7c4.6,0.9,6.6-0.4,6-5.1c-0.7-6.5-1-12.6,2-18.8
		C182.8,635.6,181.4,632.6,179.1,630.8z"/>
	<path fill="#020202" d="M183.1,715.8c-1.6-1.3-3-0.7-4.6,0.2c-9.9,5.8-19.8,6.3-29.7,0.1c-2.6-1.6-4.9-1.1-6.7,0.8
		c-4.9,4.9-9.7,9.9-14.3,15.1c-5.2,5.9-7.7,12.6-7.7,20.7c0,7,2.9,14.1-0.3,21c0,1.4-0.2,2.9,1.5,3.3c1.9,0.4,3-1.2,3.3-2.4
		c1.4-5.6,6.8-7.6,10.7-9.1c6-2.4,12.1-4.9,18.5-6.5c7.5-1.8,13.6-6.2,17-12.6c4.7-8.5,8.7-17.4,11.8-26.7
		C183,718.5,184.8,717.2,183.1,715.8z"/>
	<path fill="#020202" d="M368.6,766.3c-5-3.9-10.7-5.5-16.2-5.1c-1.3,0-1.8,0-2.3,0c-7.2,0-10.2,2.7-11.1,9.7
		c-0.2,2,1.5,2.7,2.3,2.3c6-3.2,11.9,0.4,17.8-0.3c4.2-0.5,8.2-1.9,12.5-0.1c0.9,0.4,4.1-0.2,4.2-2.1c0.1-1.9-1.7-3.4-3.9-3.7
		C370.8,766.9,369.6,767.1,368.6,766.3z"/>
	<path fill="#020202" d="M414.2,754.8c-3.3-7.7-7.4-14.9-11.1-22.3c-3.5-7.1-8.2-12.2-14.5-16.1c-11.2-7-21.9-15.1-35.2-18.1
		c-8.2-1.8-16.4-3.1-24.8-3.6c-8-0.5-15.9-2.3-23.5,0.5c0.4,3.3,4.3,2.4,5.5,5.6c2.7,7.2,10,10.8,14.4,16.8
		c4.1,5.6,9.4,10.3,13.1,16.4c4.9,8.1,10.9,15.5,19.5,19.9c11.5,6,23.7,10.3,35.8,14.9c7.4,2.9,15.7,3.3,22.7,7.5
		c1.3,0.8,2.2-0.3,3.2-0.6c1.6-0.5,1.2-2,0.6-2.9C416.4,767.3,416.7,760.6,414.2,754.8z"/>
	<path fill="#020202" d="M106.8,445c4.3-0.3,7.8-1,9.7-5.2c1.1-2.5,2.6-3.5,5.4-1.9c2.8,1.6,6,1.4,9.1,0.6c3.6-1,7-0.7,10.2,1.9
		c4.2,3.3,9.3,5.3,14.7,4.2c7.9-1.6,15.7-3.4,23-7c2.7-1.3,5.3-1.5,8.5-1c3.5,0.5,7.6,2.9,11,0.1c4.8-3.9,11.3-4.5,15.8-8.9
		c1.3-1.3,2.6-0.5,4.1-0.2c3.7,0.7,7.7,0.7,10-2.7c2.9-4.3,7.2-6.5,11.4-9.1c3.8-2.4,8.2-4.7,8.4-10.2c0.2-6.8-2.6-12.4-9.1-14.2
		c-5.8-1.6-8.9-5.6-12.3-9.8c-6.9-8.5-14.3-16.4-27-14.5c-3.6,0.6-5.9-1.4-8.1-3.8c-5.2-5.8-10.8-11.1-18.2-14.2
		c-8.8-3.6-16.8-0.8-24.8,2.2c-2.9,1.1-5.8,2.9-9,1.5c-3.1-1.4-6.4-1.2-9.3-0.4c-3.3,0.9-5.7,0.3-8.2-1.6c-8.4-6.2-17.7-9.2-28-5.6
		c-9.6,3.3-19.3,6.6-25.7,15.3c-2.3,3.1-3,7.2-5.9,10.1c-1.4-1-0.7-1.6-0.7-2.2c0.1-1.4,0.9-3.2-0.3-4.3c-1.6-1.4-2.5,0.8-3.7,1.2
		c-5.6,1.9-9,7.3-14.9,9.2c-4.7,1.5-8.6,5.1-7.7,11.3c0.2,1-0.4,2.3-1,3.2c-6.8,9.2-4.7,17.9,1.4,26.3c6.3,8.7,14.2,14,25.6,11.6
		c2.9-0.6,5,0.8,6.4,3.5c2.4,4.5,6.3,7.2,10.9,8.9C87.5,442.9,96.7,445.7,106.8,445z"/>
	<path fill="#020202" d="M327,346.9c5.3-3.7,11.7-5.3,17-8.8c6.7-4.5,13.5-8.2,22-7.1c0.9,0.1,2.1,0.4,2.7-0.7c0.7-1.3-0.3-2.1-1-3
		c-4-4.8-9.2-8-14.1-11.7c-1.2-0.9-3.1-1.9-5.1-1.1c-3.3,1.4-7.1,1.3-10.3,3.1c-2.1,1.2-3.5,0.4-5.2-1.2c-3.4-3.2-7.5-5.5-12.3-3.5
		c-5,2-7.8-0.1-9.5-4.5c-2-5.1-5.9-7.6-10.7-9.4c-7.9-2.9-16.1-2.7-24.4-3.2c-8.4-0.5-14.1,3.2-19,9.3c-2.5,3.2-5.5,6-9.9,6.5
		c-11.8,1.2-18.4,8.4-22.6,18.8c-0.4,0.9,0.2,2.5-1.6,2.7c-8.2,0.9-9.7,7.9-11.4,13.8c-3,10.3,11,25.1,20.9,21.6
		c5.6-1.9,7.2,0.9,10.1,3.3c9.7,8.1,20.7,13.4,33.5,11.6c9.2-1.3,18.1-2.8,26.9,1.3c2,0.9,3.3,0.3,3.9-2c2.3-8.2,7.2-14.6,14.8-19.1
		c-1-1.7-2.3-2.3-3.6-3.1c-0.9-0.5-1.6-1.5-0.6-2.5C320.9,354.6,322.7,349.8,327,346.9z"/>
	<path fill="#020202" d="M387.2,255.2c0.3,5-2.3,4-5.6,3.4c-9.3-1.9-18.4-2.6-25,6.4c-1.3,1.7-3.1,2-5.2,2.3c-5.7,0.8-10.4,3.5-13,9
		c-3,6.2,1.3,11.2,3,16.6c0.3,1,1.6,2.1,3.1,2.1c3.3,0.1,5.2,1.8,6.9,4.7c2.7,4.5,10.5,7,13.7,4.1c2.1-1.9,4.1-1.5,5.2-0.6
		c6.7,5.4,17,1.7,22.6,9.4c0.1,0.1,0.3,0.2,0.4,0.3c8.5,4.4,19.9,2.3,26.5-5.1c1-1.1,2.1-0.8,3.2-0.6c1.3,0.3,2.5,0.6,3.9,0.7
		c7.8,0.2,17-4.8,22.2,5.8c0.1,0.2,0.6,0.3,0.9,0.4c3.8,1.9,7.6,3.8,11.4,5.7c5.4,2.8,10.6,2.6,15.9-0.7c3-1.8,6.3-2,9.3,0.1
		c7.6,5.3,17.4,5.5,25.2,0.3c3.2-2.1,6.4-4.1,9.3-6.5c2.5-2,5.4-4.4,5.5-7.8c0-4.5-1.4-8.9-5.7-11.3c-3.1-1.8-3.7-4.3-3.1-7
		c0.2-9.3-10.1-23.7-19.1-26.5c-8.8-2.8-17.8-3.6-26.7-0.4c-2,0.7-3-0.3-4.4-1.4c-4.5-3.6-9.5-6.1-15.5-5.2
		c-3.1,0.5-4.9-1.2-6.7-3.2c-7.6-8.9-17.5-11.2-28.7-10.1c-10.7,1-18.9,7.2-27.4,12.8C388.4,253.2,387.2,254.4,387.2,255.2z"/>
	<path fill="#020202" d="M125,327c8,1.8,16,1.8,24,6.2c9.6,5.4,21.4,8,32.5,1.3c1-0.6,2.1-1.5,2.6,0.4c1.9,6.7,8.2,7.3,13.2,9.5
		c3.7,1.6,6.3,0.8,6.6-4.1c0.3-4.8,2.3-8.3,7.3-10.6c4.5-2.1,10.8-3.8,9.7-11.2c-0.1-0.6,0.1-1.2,0.8-1.6c6-4.2,9.4-13.5,19.4-10.3
		c0.2,0.1,0.7-0.2,0.9-0.4c3-3.8,8.2-5,11.3-9.8c-4.3-0.6-7.2-4.6-11.1-3.4c-5.5,1.7-6.1-2.1-8.4-5.4c-4.8-6.8-9.8-13.9-19.6-13.7
		c-1.5,0-3.1,0.4-3.6-1.7c-1.2-4.7-5.2-6.6-8.8-8.9c-10.7-6.9-29.5-9.5-41,2.4c-2.1,2.1-4.1,4.3-5.9,6.7c-2,2.7-4.4,3.7-7.7,3.3
		c-5.8-0.8-10.4,1.3-15,4.9c-4.4,3.5-7.4,8.3-12.9,10.6c-7.1,3-11.8,11.6-10.9,18C109.5,316.2,118.7,325.6,125,327z"/>
	<path fill="#020202" d="M150.9,224.6c-1,7.2,2.5,13.5,9.5,13.6c7.9,0.1,13,4.6,19,8.2c9.2,5.4,23.4,7.8,33.6-1.2
		c2.1-1.9,4.7-2.1,6.4-0.9c4.1,2.6,7.7,1.6,11.3-0.3c3-1.6,4.5-1.2,5.6,2.4c3.2,10.6,18.5,12.5,25.2,8c4-2.7,7.8-2.9,11.9-3.4
		c4.5-0.5,8.5,0.4,11.5,4.3c1.7,2.2,4.6,2.9,7.2,2.5c8.2-1.1,16.5,1.3,24.8-0.8c1.9-0.5,3.5-0.2,4.9-2.2c1.5-2.3,3.4-3.9,6.9-2.9
		c6.7,1.9,12.7-0.3,17-5.6c1.7-2.1,3.1-2.2,4.8-1.1c4.3,2.6,8.7,2.1,13.3,1c1.9-0.5,4.3-2.1,6.1-0.3c2.9,3,5.2,0.9,7.7-0.4
		c3.2-1.6,5.6-4.1,7.9-6.7c1.1-1.2,2-2.4,4-2.7c6.8-1.1,11.4-6.6,11.5-13.9c1.1-5.5-2.8-9.3-6.7-13c-3.1-3-4.4-6.3-4.4-10.5
		c0-5.6-0.4-11.4-4-15.9c-6.1-7.6-14.4-11.1-24.3-10.5c-3.2,0.2-5.3-0.2-5.7-4.1c-1.3-11.7-10.8-20-22.5-20c-2,0-4,0-6,0.1
		c-2.3,0.1-3.5-0.4-4.8-2.9c-3.4-6.3-7.8-12.3-15.3-13.9c-13.1-2.9-25.9-2.9-36.8,6.8c-1.3,1.2-2.9,2.2-4.3,3.3
		c-2.3,1.8-4.7,2.1-7.4,1.2c-7.5-2.5-15.1-2.3-22.8-0.6c-10.1,2.2-18.3,7.5-24.6,15.5c-2.1,2.7-3.5,5.3-7.5,4.6
		c-2.7-0.5-5.6-0.7-8.3-1.2c-11.5-2.3-22.5,2.7-28.3,12.5c-4,6.8-4.9,16.1-14.6,18.5c-0.1,0-0.2,0.2-0.4,0.3
		c-6.8,6.5-8.1,16-3.8,25.5C149.5,219.9,151.3,221.9,150.9,224.6z"/>
	<path fill="#020202" d="M218.6,743.2c14,0,25.6-6.3,37.1-12.7c9.5-5.3,15.7-14.1,21.9-22.9c3.6-5.1,7.6-9.9,14.5-10.4
		c1.6-0.1,3.3-0.1,4.9-0.4c0.9-0.2,2.3-1.4,1.4-1.9c-2.8-1.5-2.6-5.4-5-6.4c-5.9-2.4-11.9-5.3-18-6c-9.2-1-18.7-0.3-28-0.5
		c-5.3-0.1-10.1,1.6-14.2,4.7c-17.9,13.4-31.2,30.5-39.4,51.3c-2.9,7.2-8.3,14.1-5,23.8c3.8-4,6.7-7.9,10.6-11.1
		C205.2,745.8,211.7,743.2,218.6,743.2z"/>
	<path fill="#020202" d="M478.3,522.7c0-9.1,0-18.4,0-27.7c0-0.8-0.1-1.6-0.3-3.1C465.7,504.9,466.2,517,478.3,522.7z"/>
	<path fill="#020202" d="M538.3,727.8c-3.4-2.8-3.6-0.9-4.1,1.5c-0.5,3.1-0.7,6.1-2.6,8.8c-4.3,6.2-10.6,5.6-16.6,4.7
		c-3-0.5-3.9,0.9-3.7,2.7c0.3,5-2.6,5-6.1,4.6c-1.8-0.2-3.6-0.5-5.3-1.1c-1.6-0.5-2.4,0.2-3.5,1.1c-1.4,1.2-0.4,2.3-0.1,3.5
		c0.7,2.8,3.3,3.3,5.4,4.4c6.3,3.2,12.1,7.2,20,7.4c5.9,0.1,12.2-0.3,17.9,1.5c7.9,2.5,16.7,3.2,22.4,10.5c1.1,1.4,3.4,1.7,5.5,2.8
		c0.5-6.2,0.5-11-2.2-16.5C558.8,749.7,550.3,737.6,538.3,727.8z"/>
	<path fill="#020202" d="M267.5,624.4c-2-1-3.9-1.6-4.1,1.3c-0.7,7-2,14-0.8,21.2c0.8,4.9,4.5,8.5,5.3,13c1,5.1,2.9,8.7,6.8,12.5
		c7.5,7.2,17.1,9.3,26.3,13.7c0.3-6.8-0.8-12.7-2-18.4C295,648.5,285.5,633.3,267.5,624.4z"/>
	<path fill="#020202" d="M511.7,628.3c8-0.2,16,0.2,23.9-0.5c8.2-0.7,14.4-5.1,17-13.3c3-9.3,2.9-18.6-0.3-27.9
		c-2.7-8.1-8.8-12-16.9-12.5c-7.6-0.5-15.3-0.2-22.9-0.5c-3-0.1-3.6,1-3.5,3.7c0.2,7.8,0.1,15.6,0.1,23.4c0,8,0,16,0,23.9
		C509,626.7,508.9,628.4,511.7,628.3z"/>
	<path fill="#020202" d="M512.6,544c6.1-0.2,12.3-0.1,18.5-0.1c8.9,0.1,15.6-3.4,19.4-11.8c1.3-2.8,0.9-5.9,1.5-8.8
		c2.4-12.5-4.7-24.2-16.8-27.9c-7.8-2.3-15.8-0.6-23.8-1c-2-0.1-1.7,1.5-1.7,2.9c0,10.3,0,20.6,0,30.9c-0.2,0-0.4,0-0.7,0
		c0,4,0.1,8,0,12C508.8,543,509.6,544.1,512.6,544z"/>
	<path fill="#020202" d="M488.3,673.9c8.3,3.8,16.8,7.2,24.6,11.8c3.2,1.9,4,0.9,5.6-1c6.3-7.3,4.7-18,10.8-25.4
		c0.6-0.8,0.1-2.6-0.1-3.9c-0.5-4.5,1-8.1,4.7-10.8c1.6-1.1,3-2.6,5.1-4.4c-13.1-2-34.4,1.5-45.1,10.9c-3.2,2.8-5.2,5.9-6.8,9.6
		c-1.6,3.9,1.4,8.2-0.8,12.2C486,673.7,487.6,673.6,488.3,673.9z"/>
	<path fill="#020202" d="M491,758.9c-1.7-2.3-5.8-4-8.8-4.1c-3.4-0.1-7.1,1.4-10.1,3.3c-5.2,3.4-10,1.7-14.2-1
		c-3.4-2.2-7.1-1.6-8.9-0.2c-5.3,4.1-11.7,4-17.5,6c-7.2,2.5-8.6,7.7-4,14c3.3,4.5,9.2,6.1,11.6,11.4c1.3,2.7,4.1,4,6.4,5.8
		c6.8,5.3,16.2,3.9,22.7,9.5c0.6,0.5,2.1,0.5,2.9,0.1c3.3-1.7,6.4,0,9.6,0.3c7.4,0.7,14.9,0.4,20.1,7.4c1,1.4,2-0.3,2.2-1.9
		c0.6-4.3,0.9-8.5,0.6-14.3C505.5,782.2,499.4,770,491,758.9z"/>
	<path fill="#020202" d="M218.3,758c-2.1-1.6-5-2.3-6.3,1.5c-1.4,3.9-4.1,7.1-6.1,10.6c-4.5,7.9-7.1,16.4-8.9,24
		c0.1,3.6-0.3,6.7,2,7.4c2.3,0.8,1.3-2.9,2.8-3.9c0.4-0.3,0.8-0.5,1.2-0.8c5.9-5.4,13.4-5.3,20.5-4.7c4.3,0.4,8.5-0.1,12.7-0.4
		c5.4-0.4,9.2-6.2,6.6-10C236.2,772.1,227.2,765,218.3,758z"/>
	<path fill="#020202" d="M278.7,760.7c-7-5.7-15.2-8.7-25.1-9.8c-0.8-0.1-2.7,0-3.5,1.4c-0.8,1.3,1.1,2.4,1.7,3.6
		c1.8,3.4,5.6,4.9,8.2,7.5c2.2,2.2,4.1,4.8,6.7,6.3c4,2.4,5.2-2.4,7.8-3.7c1-0.5,2.1-0.8,3.3-1.1
		C281.3,764.3,280.6,762.3,278.7,760.7z"/>
	<path fill="#020202" d="M337.3,756.9c2.6-8.9-1.3-13.7-6.1-19.3c-1.5-1.7-2.6-3.8-4-5.6c-2.1-2.9-4.2-4.8-7.7-1.2
		c-2.8,2.9-6.6,5-9.4,7.9c-7.9,8.1-15.1,16.3-20,27.1c-3.8,8.3-5.7,16.6-8,25.1c-1.4,5.3-0.6,10.3-0.1,15.6
		c0.7,7.2-0.6,14.4-1.9,22.4c0,0.4-0.2,2.2,1.4,2.4c1.1,0.2,2.2-0.7,2.7-2.3c0.7-2.3,1.8-4.5,3.6-6.3c6.4-6.5,12.4-13.8,20.9-17.4
		c11.2-4.7,16.6-14.1,21.1-24.1C333.2,773.4,334.9,765,337.3,756.9z"/>
	<path fill="#020202" d="M429.7,791.3c-5.5-4.6-10.9-9.1-18.5-9.6c-6.1-0.3-11.7,0.1-15.1,6.3c-1.7,3.1-4.4,5.8-6.2,8.9
		c-2.6,4.4-4.8,8.8-4,14.6c1,7.1-0.4,14.5,1.7,19.8c0,8.6,3.2,14.3,6.7,19.8c1.3,2,3.5,1.2,4.7-0.8c1.1-2,2.3-3.9,3.4-5.8
		c3.5-6.3,9.7-10.1,13.4-16.2c1.5-2.5,1.4-6.2,4.2-7.5c4.2-2,6.6-5.5,8-9.4c1.2-3.3,2.6-6.5,4.3-9.6
		C434.5,797.4,433.2,794.3,429.7,791.3z"/>
	<path fill="#020202" d="M357.9,792.2c-2.3-2.9-5.4-5.8-5.2-10.3c0.1-1.3-1.3-2.7-3.1-2.7c-3.2-0.1-6.3-0.1-9.5-0.1
		c-1,0-2.1,0.1-2,1.5c0.1,2.6-1.9,4.1-3.1,6c-3.2,5.2-7.5,10.7-7.3,16.4c0.3,8,0.9,16.7,8.5,22.7c3.6,2.8,6.1,6.9,9.2,10.4
		c3.7,4.3,8,8.3,9.4,14.2c1,4.2,4.1,6.8,7.8,10.4c0.3-3.3,0-5.6,0.8-7.5c4.7-11,5.5-22.2,3.6-33.9
		C365.4,809.7,364.2,800.2,357.9,792.2z"/>
	<path fill="#020202" d="M924.6,506.4c-1.6-2.3-4.2-4-6.8-4.8c-5-1.6-8.9-4.8-13.2-7.4c-3.6-2.2-5.9-6-9.4-8
		c-5.4-3.2-8.6-7.7-11.1-13.2c-1.7-3.8-1.3-4.8,3.1-5c2.2-0.1,4.4,0.1,6.5-0.3c6.9-1,8.3-5,4-10.6c-3.9-5.1-9.8-8.8-10.8-16
		c-0.2-1.5-1.7-2.4-3.1-3.1c-4.2-1.9-7.7-5.2-12.4-5.9c-2.5-0.4-2.4-1.6-1.6-3.4c1.7-3.9,3.3-7.8,5.1-11.7c1.5-3.4,0.2-6.9-3.3-7.9
		c-1.4-0.4-2.5-0.8-2.6-2.4c-0.1-1.5-0.1-3.2,1.7-3.7c2.1-0.6,2.8-2.2,2.1-3.8c-1.8-4,0.2-7.8,1.7-10.8c2.4-4.8-1.1-7.8-2.9-9.8
		c-2.8-3.2-3-4.7,0.2-7.2c2.2-1.8,4.2-4.1,4.5-6.9c0.3-2.9,1.9-3,4-3c6-0.2,9.9,4.1,14.4,7c3.7,2.4,6.4,2.3,8.8-1.3
		c1.5-2.3,3.5-4.4,6.3-4.2c3.8,0.3,6.5-1.1,7-4.6c0.5-3.3-1.6-5.9-4.9-7.3c-3.8-1.6-7.5-3.4-11.3-5.1c-4.1-1.8-4.1-4.7-1.3-7.4
		c4.5-4.6,9.9-6.1,16.3-4.6c7.5,1.7,15.1,4,23,1.4c6.1-2.1,11-6.3,16.9-9.9c-3,0.4-4.6-1-6.1-2.6c-1.9-2-4-3.2-7-1.7
		c-7.2,3.6-16.4,2-22.2-3.7c-0.7-0.7-1.3-2.6-2.5-1.9c-5.6,3.1-10.2-0.5-15.1-1.9c-2.8-0.7-4.1-2.4-4.8-4.9
		c-1.7-5.5-1.8-11.1-1.4-16.8c0.2-2.8-0.7-4.6-3.4-5.9c-5.2-2.4-9.5-6.1-13.2-9.3c0,3.6,0.3,7.7-0.1,11.7c-0.3,3.3-2.1,6-6,4.8
		c-5.9-1.8-12.1-3.2-16.3-8.6c-3.1-4.1-7.5-5.6-12.7-5.3c-6.1,0.4-12-0.1-17.7-3.3c-2.4-1.4-6.2-1.9-8.2,2.3
		c-1.2,2.5-3.1,5.1-5.4,6.4c-4,2.2-6.5,5.3-9,8.9c-5.5,7.7-12.2,14.5-17,22.8c-7.6,12.9-19.6,22.5-26,36.5
		c-3.5,7.7-8.5,14.6-15,20.3c-2.3,2-3.7,5.1-5.7,7.4c-1.5,1.7-3.4,3.7-5.9,2.4c-2.3-1.3-0.9-3.5-0.4-5.3c0.1-0.5-0.4-1.1-0.7-1.6
		c-6.9,13.9-14.4,27-24.7,38.6c-2.8,3.2-7.2,5.1-8.1,10.2c-0.2,1.5-3.5,1.8-5.3-0.4c-1.4-1.8-0.9-3.9-1.2-6.2
		c-2.7,2.1-4,4.6-5.3,7.1c-4.2,8-10.6,14.3-16.2,21.2c-1.7,2-3.8,2.9-6.2,1.9c-2.1-0.9-1.4-3.1-1.2-4.8c0.2-2.8,0.6-5.6,1-8.4
		c-4.4,7.6-10.3,13.9-13.9,21.7c-1.4,2.9-3.8,5-6.2,7c-2.5,2.1-5,2.9-7.8-0.7c-3.9-5.1-9.5-8.7-14.8-12.5c-2.4-1.7-5.2-2.3-4.9,2.4
		c0.2,2.6-0.6,5.1-1.7,7.2c-5.6,10.6-11.9,20.8-18.7,30.7c-3.1,4.5-6.6,4-8.6-1c-1.8-4.4-2.9-9.1-4.2-13.6c-1.4-5.1-4.1-9-9.2-11.2
		c0.2,2.7,0.5,5.2-0.7,7.5c-0.7,1.4-0.6,2.9,0.7,4.1c8.9,8.6,10.6,19.9,11.5,31.4c0.8,10.2-0.3,20.2-4.3,29.7
		c-4.5,10.6-12.9,16.6-23.8,19.6c0.3,0.3,0.4,0.4,0.6,0.5c1.4,0.4,2.9,0.9,4.3,1.3c11.4,3.4,18.9,10.6,22.5,22
		c4.6,14.7,4.6,29.5,1.9,44.5c-2.5,13.8-10.8,22.9-24,27.4c-7.9,2.7-15.9,5.1-24.3,5.1c-2.9,0-4.2,1-5.1,3.5
		c-2.8,8.2-5.5,16.4-8.6,24.5c-1.4,3.5-0.1,5.4,2.3,7.6c3.1,2.9,6,6,8.8,9.1c0.8,0.9,1.6,2.3,2.7,1.8c8.3-4.6,13.3,4.1,20.3,5.1
		c1.9,0.3,5.2,1.3,6.3,3.2c2.7,4.6,6,3.5,9.2,1.6c7-4.2,14.6-6.8,22.1-9.7c1.3-0.5,2.8-1.8,4.1-0.3c1.1,1.2-0.3,2.5-0.8,3.6
		c-1.1,2.1-1.4,4.2,0.1,6c5,5.7,3.3,11.6,0.8,17.6c-2,4.7-1.1,10.2,2,12.2c5,3.2,7.4-1.2,10.3-3.8c0.4-0.3,0.8-0.7,1-1.1
		c1.9-4.3,6.2-4.8,9.6-4.5c4.7,0.4,9.2,0,13.8-0.7c7.9-1.1,16.9,0.3,21.7-8.6c0.2-0.4,0.8-0.6,1.3-0.7c3.4-0.3,3.5-2.5,3.4-5.2
		c-0.1-1.4-1.3-3.6,1-4.3c2.2-0.6,4.4,0.4,5.7,2.2c1.6,2.1,3.7,3.8,5.3,5.8c3.3,4.2,9.2,4.3,12.1,9c1.2-1.5,0.7-4.4,3.1-4
		c2.8,0.5,1.1,2.7,1.2,4.4c0.4,5.3,9.4,9.9,14.2,6.8c4.1-2.6,8.6-4.1,13.1-5.6c3.2-1.1,6.8-2.4,10.1,0.2c4.1,3.1,6.8,7.9,12.1,9.5
		c1,0.3,0.8,1.7,1.2,2.6c2.3,4.6,2,9.9,3.8,14.7c2.2,5.9,5.7,6.9,9.8,2.5c2.1-2.3,4.9-3.4,7.6-4.1c13.6-3.1,26.9-6.8,39.1-13.9
		c8.9-5.1,10.1-7.2,7.8-17.3c-0.6-2.6-1-5.1,2.5-6.5c10.3-4.3,14.7-12.5,14.3-23.4c-0.1-1.5-0.4-3.5,1.4-3.9c5.9-1.1,6.2-6.3,8-10.3
		c1.4-3.1,0-4.9-3.2-5.9c-5.6-1.7-6.8-4.8-4.5-10.3c1.1-2.6,2.6-5.1,3.1-8.3c-11.5,1.9-22.8,2.6-34.1,1.3
		c-11.3-1.4-21.7-4.5-28.5-14.4c-9-13.2-10.6-28.4-10.9-43.9c-0.1-2.6,1.7-2.4,3.3-2.4c9.8,0,19.7,0.1,29.5,0c2.7,0,3.5,1,3.5,3.5
		c0.1,5.1,0.3,10.3,1.4,15.4c2,9.7,6.9,13.7,18.2,14.1c9,0.4,15.6-4.3,18.1-12.6c3.8-12.4-0.6-22.1-9.8-30.3
		c-5.6-5-12.1-8.9-18.1-13.3c-8.8-6.3-18.2-11.9-26.2-19c-15.2-13.6-19.6-31.6-17.2-51.3c2-16,7.9-30.2,23.4-37.7
		c15.2-7.3,31.5-8.1,47.9-5.2c10.4,1.8,19.7,6.1,25.9,15.3c8.3,12.3,9.6,26.3,10,40.6c0.1,2.5-1.4,2.5-3.3,2.5
		c-9.5,0-19-0.1-28.5,0.1c-2.6,0-3.5-0.8-3.4-3.4c0.1-5.2-0.6-10.3-1.9-15.3c-1.4-5.1-3.5-9.7-9.4-11.3c-10.9-3-23.7,0.8-24.6,17.3
		c-0.5,9.4,4.7,16.1,11,22c11.5,11,25.6,18.5,38.2,28c10.4,7.8,21.6,14.9,22.8,31c1.1-3.4,3.6-4.2,4.1-6.4c0.5-2.2,1.9,2.2,2.8-0.4
		c1.5-4.2-2.7-9.6,2.9-12.8c0.1,0-0.4-0.8-0.5-1.3c-2.5-8.2-6.6-16.4,1.1-24.1c0.3-0.3,0.6-1,0.5-1.4c-2-6.2,2.3-4.7,5.3-4.2
		c4.5,0.7,7.5-2.3,7-6.8c-0.2-1.6-2.5-3.4-0.3-5c2-1.5,3.7,0.5,5.4,1.1c6.1,1.9,12.2,5.3,18.4,4.9c5.7-0.3,11.5-1.2,17.4-1.7
		c4.5-0.4,5.8-3.9,3.3-7.8C935.1,517.6,928.9,512.8,924.6,506.4z M733.7,618.8c-4.2,19.9-14.5,35.2-35.4,40.2
		c-14.8,3.6-29.9,3.7-44.5-0.8c-18.7-5.8-28.4-20.2-32.4-38.5c-3.3-15.2-3.4-30.7-3.5-46.2c-0.1-16.8,0.1-33.6,1-50.4
		c0.6-12.8,2.3-25.1,8.4-36.5c8.1-15.1,21.1-22.3,37.6-24.4c14.1-1.7,27.9-1.1,41.1,4.4c12.9,5.4,20.9,15.4,25.1,28.6
		c7,21.7,5.4,44.1,6.1,63.8C737,580.7,737.6,599.9,733.7,618.8z"/>
	<path fill="#020202" d="M401,222.1c0,7.3-4.6,12.8-11.5,13.9c-1.9,0.3-2.9,1.5-4,2.7c-2.3,2.6-4.7,5.1-7.9,6.7
		c-2.5,1.2-4.8,3.4-7.7,0.4c-1.8-1.9-4.2-0.2-6.1,0.3c-4.6,1.1-9,1.6-13.3-1c-1.8-1.1-3.1-1-4.8,1.1c-4.3,5.3-10.3,7.5-17,5.6
		c-3.5-1-5.5,0.7-6.9,2.9c-1.3,2-3,1.8-4.9,2.2c-8.2,2-16.5-0.3-24.8,0.8c-2.6,0.3-5.4-0.3-7.2-2.5c-3-3.9-7-4.8-11.5-4.3
		c-4.1,0.5-8,0.7-11.9,3.4c-6.7,4.5-22,2.6-25.2-8c-1.1-3.7-2.6-4-5.6-2.4c-3.7,1.9-7.3,2.9-11.3,0.3c-1.8-1.1-4.3-0.9-6.4,0.9
		c-10.2,9-24.4,6.7-33.6,1.2c-6-3.5-11.1-8-19-8.2c-7-0.1-10.5-6.4-9.5-13.6c0.4-2.8-1.4-4.7-2.4-6.9c-4.3-9.5-2.9-19.1,3.8-25.5
		c0.1-0.1,0.2-0.3,0.4-0.3c9.6-2.4,10.5-11.7,14.6-18.5c5.8-9.8,16.8-14.8,28.3-12.5c2.7,0.6,5.6,0.7,8.3,1.2c4,0.7,5.3-1.9,7.5-4.6
		c6.3-7.9,14.5-13.3,24.6-15.5c7.7-1.7,15.3-1.9,22.8,0.6c2.8,0.9,5.2,0.6,7.4-1.2c1.4-1.1,3-2.1,4.3-3.3
		c10.9-9.7,23.7-9.7,36.8-6.8c7.5,1.6,11.9,7.6,15.3,13.9c1.3,2.5,2.5,3,4.8,2.9c2-0.1,4-0.1,6-0.1c11.7,0,21.1,8.3,22.5,20
		c0.4,3.9,2.6,4.3,5.7,4.1c9.8-0.6,18.2,2.9,24.3,10.5c3.6,4.5,4.1,10.3,4,15.9c0,4.2,1.2,7.6,4.4,10.5
		C398.1,212.7,402,216.6,401,222.1z"/>
	<path fill="#020202" d="M62.3,370.6c2.9-2.9,3.6-7,5.9-10.1c6.4-8.7,16.1-12,25.7-15.3c10.4-3.6,19.6-0.6,28,5.6
		c2.6,1.9,5,2.5,8.2,1.6c2.9-0.8,6.2-1,9.3,0.4c3.2,1.4,6-0.4,9-1.5c8.1-3,16.1-5.9,24.8-2.2c7.4,3.1,13,8.4,18.2,14.2
		c2.2,2.5,4.5,4.4,8.1,3.8c12.6-2,20,5.9,27,14.5c3.4,4.2,6.5,8.2,12.3,9.8c6.5,1.8,9.3,7.4,9.1,14.2c-0.2,5.6-4.6,7.8-8.4,10.2
		c-4.2,2.6-8.4,4.8-11.4,9.1c-2.3,3.5-6.3,3.4-10,2.7c-1.5-0.3-2.8-1.1-4.1,0.2c-4.5,4.4-11,5-15.8,8.9c-3.4,2.8-7.5,0.4-11-0.1
		c-3.2-0.5-5.8-0.4-8.5,1c-7.3,3.6-15.1,5.5-23,7c-5.4,1.1-10.5-0.9-14.7-4.2c-3.3-2.6-6.6-2.9-10.2-1.9c-3.2,0.9-6.3,1-9.1-0.6
		c-2.8-1.7-4.3-0.6-5.4,1.9c-1.9,4.2-5.4,4.9-9.7,5.2c-10.1,0.7-19.3-2.1-28.4-5.6c-4.6-1.7-8.5-4.4-10.9-8.9
		c-1.4-2.7-3.6-4.1-6.4-3.5c-11.4,2.3-19.4-2.9-25.6-11.6c-6-8.4-8.2-17.1-1.4-26.3c0.6-0.9,1.1-2.2,1-3.2c-1-6.2,3-9.8,7.7-11.3
		c5.9-1.9,9.2-7.3,14.9-9.2c1.3-0.4,2.2-2.6,3.7-1.2c1.2,1.1,0.4,2.8,0.3,4.3C61.5,369.1,60.9,369.6,62.3,370.6z"/>
	<path fill="#020202" d="M517.8,286.6c-0.6,2.8,0,5.2,3.1,7c4.3,2.4,5.7,6.9,5.7,11.3c0,3.4-2.9,5.8-5.5,7.8
		c-2.9,2.4-6.1,4.4-9.3,6.5c-7.9,5.2-17.6,5-25.2-0.3c-3-2.1-6.3-1.9-9.3-0.1c-5.3,3.3-10.4,3.5-15.9,0.7c-3.8-2-7.6-3.8-11.4-5.7
		c-0.3-0.1-0.8-0.2-0.9-0.4c-5.1-10.5-14.3-5.6-22.2-5.8c-1.4,0-2.6-0.4-3.9-0.7c-1-0.2-2.1-0.5-3.2,0.6c-6.6,7.4-18,9.5-26.5,5.1
		c-0.1-0.1-0.3-0.1-0.4-0.3c-5.6-7.7-16-4-22.6-9.4c-1.1-0.9-3.2-1.2-5.2,0.6c-3.2,2.9-11.1,0.4-13.7-4.1c-1.7-2.9-3.7-4.6-6.9-4.7
		c-1.6,0-2.8-1.1-3.1-2.1c-1.7-5.4-6-10.3-3-16.6c2.6-5.5,7.3-8.2,13-9c2.1-0.3,3.9-0.5,5.2-2.3c6.6-9,15.7-8.3,25-6.4
		c3.3,0.7,5.9,1.7,5.6-3.4c0-0.8,1.2-2,2.1-2.6c8.5-5.6,16.8-11.8,27.4-12.8c11.2-1.1,21.1,1.3,28.7,10.1c1.8,2.1,3.6,3.7,6.7,3.2
		c6-0.9,11,1.6,15.5,5.2c1.4,1.1,2.4,2.1,4.4,1.4c8.9-3.2,17.9-2.4,26.7,0.4C507.7,262.9,518,277.3,517.8,286.6z"/>
	<path fill="#020202" d="M321.6,363.7c-7.6,4.5-12.5,10.8-14.8,19.1c-0.6,2.2-1.9,2.9-3.9,2c-8.8-4.1-17.7-2.6-26.9-1.3
		c-12.8,1.8-23.8-3.5-33.5-11.6c-2.9-2.4-4.6-5.3-10.1-3.3c-10,3.5-23.9-11.3-20.9-21.6c1.7-5.9,3.2-12.9,11.4-13.8
		c1.8-0.2,1.2-1.7,1.6-2.7c4.2-10.3,10.9-17.6,22.6-18.8c4.4-0.4,7.4-3.3,9.9-6.5c4.9-6.2,10.6-9.8,19-9.3
		c8.2,0.5,16.5,0.3,24.4,3.2c4.9,1.8,8.7,4.3,10.7,9.4c1.7,4.3,4.5,6.5,9.5,4.5c4.9-2,8.9,0.3,12.3,3.5c1.7,1.6,3.1,2.4,5.2,1.2
		c3.2-1.8,7-1.8,10.3-3.1c2-0.8,3.9,0.2,5.1,1.1c4.9,3.6,10.2,6.9,14.1,11.7c0.8,0.9,1.7,1.8,1,3c-0.6,1.1-1.8,0.8-2.7,0.7
		c-8.5-1-15.2,2.7-22,7.1c-5.3,3.5-11.7,5.1-17,8.8c-4.3,2.9-6.1,7.7-9.6,11.2c-1,1-0.2,2,0.6,2.5
		C319.3,361.4,320.7,362.1,321.6,363.7z"/>
	<path fill="#020202" d="M253.3,296.6c-3.1,4.8-8.3,6-11.3,9.8c-0.2,0.2-0.6,0.5-0.9,0.4c-10-3.2-13.3,6.1-19.4,10.3
		c-0.7,0.5-0.9,1-0.8,1.6c1.1,7.4-5.1,9.2-9.7,11.2c-5,2.3-7,5.8-7.3,10.6c-0.3,4.9-2.9,5.7-6.6,4.1c-5-2.2-11.4-2.8-13.2-9.5
		c-0.5-1.9-1.6-1-2.6-0.4c-11.1,6.7-22.9,4-32.5-1.3c-8-4.5-16-4.5-24-6.2c-6.3-1.4-15.5-10.8-16.5-17.5c-1-6.4,3.8-15,10.9-18
		c5.5-2.3,8.6-7.2,12.9-10.6c4.6-3.6,9.3-5.6,15-4.9c3.3,0.4,5.7-0.6,7.7-3.3c1.8-2.4,3.8-4.6,5.9-6.7c11.5-11.8,30.3-9.3,41-2.4
		c3.6,2.3,7.6,4.2,8.8,8.9c0.5,2.1,2.1,1.7,3.6,1.7c9.9-0.3,14.9,6.9,19.6,13.7c2.3,3.3,2.9,7.1,8.4,5.4
		C246.1,292,249,296,253.3,296.6z"/>
	<path fill="#020202" d="M305.1,695.2c7.6-2.8,15.5-1,23.5-0.5c8.4,0.5,16.6,1.8,24.8,3.6c13.3,3,24,11.1,35.2,18.1
		c6.3,3.9,11,9,14.5,16.1c3.7,7.4,7.8,14.7,11.1,22.3c2.5,5.8,2.3,12.5,5.8,18c0.5,0.9,1,2.4-0.6,2.9c-1,0.3-1.9,1.4-3.2,0.6
		c-7-4.2-15.3-4.6-22.7-7.5c-12.1-4.7-24.3-8.9-35.8-14.9c-8.6-4.5-14.6-11.8-19.5-19.9c-3.7-6.1-9-10.8-13.1-16.4
		c-4.4-6.1-11.7-9.7-14.4-16.8C309.4,697.6,305.6,698.5,305.1,695.2z"/>
	<path fill="#020202" d="M188.9,761.7c-3.3-9.7,2.1-16.5,5-23.8c8.2-20.8,21.5-37.9,39.4-51.3c4.1-3.1,8.9-4.8,14.2-4.7
		c9.4,0.1,18.8-0.6,28,0.5c6.2,0.7,12.2,3.6,18,6c2.5,1,2.3,4.9,5,6.4c0.9,0.5-0.6,1.7-1.4,1.9c-1.6,0.3-3.3,0.3-4.9,0.4
		c-7,0.5-11,5.3-14.5,10.4c-6.2,8.8-12.4,17.6-21.9,22.9c-11.5,6.5-23.1,12.8-37.1,12.7c-6.9,0-13.4,2.6-19.2,7.4
		C195.6,753.8,192.6,757.7,188.9,761.7z"/>
	<path fill="#020202" d="M280,828.9c1.3-8,2.6-15.3,1.9-22.4c-0.5-5.3-1.3-10.3,0.1-15.6c2.3-8.5,4.2-16.8,8-25.1
		c5-10.7,12.2-19,20-27.1c2.8-2.9,6.6-5,9.4-7.9c3.5-3.6,5.5-1.7,7.7,1.2c1.4,1.8,2.5,3.9,4,5.6c4.8,5.5,8.8,10.3,6.1,19.3
		c-2.4,8.1-4.2,16.5-7.6,24.2c-4.5,10-9.9,19.4-21.1,24.1c-8.5,3.6-14.5,10.9-20.9,17.4c-1.8,1.8-3,4-3.6,6.3
		c-0.5,1.7-1.6,2.5-2.7,2.3C279.8,831.1,280,829.3,280,828.9z"/>
	<path fill="#020202" d="M503.6,795.4c0.3,5.7,0,10-0.6,14.3c-0.2,1.6-1.2,3.2-2.2,1.9c-5.2-7-12.8-6.7-20.1-7.4
		c-3.2-0.3-6.3-2-9.6-0.3c-0.8,0.4-2.3,0.4-2.9-0.1c-6.5-5.6-15.9-4.2-22.7-9.5c-2.3-1.8-5.1-3.1-6.4-5.8
		c-2.5-5.3-8.4-6.9-11.6-11.4c-4.6-6.3-3.2-11.4,4-14c5.8-2,12.2-1.9,17.5-6c1.8-1.4,5.6-2,8.9,0.2c4.2,2.7,9,4.4,14.2,1
		c2.9-1.9,6.7-3.4,10.1-3.3c3,0.1,7,1.7,8.8,4.1C499.4,770,505.5,782.2,503.6,795.4z"/>
	<path fill="#020202" d="M198.8,674.3c-1.1,4.7-1.1,9.4-0.1,14.1c0.6,2.6-0.1,5-1.7,7.4c-5.2,7.7-11.4,12.5-21.1,14.4
		c-10.5,2.1-19.6-0.3-28.9-3.5c-11.1-3.7-21.8-2.8-31.9,2.7c-4.3,2.4-9.3,3.1-13.6,6.9c1-8.4,5.3-14.2,9.7-19.9
		c9.3-12.1,21.4-21,35.6-26.5c7.9-3,16.5-3.9,24.8-2.8c5.9,0.8,7.7,6.6,10.2,11.2c1.2,2.3,1.5,5,2.4,7.4c0.4,1,1.1,2.4,1.9,2.7
		c1.3,0.4,1.6-1.2,2.2-2.1c3-4.2,6.1-8.4,9.2-12.6C198,674.1,198.4,674.2,198.8,674.3z"/>
	<path fill="#020202" d="M509,600.8c0-7.8,0.1-15.6-0.1-23.4c-0.1-2.8,0.6-3.8,3.5-3.7c7.6,0.3,15.3-0.1,22.9,0.5
		c8.1,0.6,14.1,4.5,16.9,12.5c3.2,9.3,3.3,18.6,0.3,27.9c-2.6,8.1-8.8,12.6-17,13.3c-7.9,0.7-15.9,0.3-23.9,0.5
		c-2.8,0.1-2.7-1.6-2.7-3.6C509.1,616.8,509,608.8,509,600.8z"/>
	<path fill="#020202" d="M119.8,773.6c3.2-6.8,0.3-13.9,0.3-21c0-8.1,2.5-14.8,7.7-20.7c4.6-5.2,9.4-10.2,14.3-15.1
		c1.9-1.9,4.2-2.4,6.7-0.8c9.9,6.2,19.9,5.7,29.7-0.1c1.5-0.9,3-1.5,4.6-0.2c1.8,1.5-0.1,2.7-0.5,3.9c-3,9.3-7.1,18.2-11.8,26.7
		c-3.5,6.4-9.6,10.7-17,12.6c-6.4,1.5-12.5,4.1-18.5,6.5c-3.9,1.5-9.3,3.5-10.7,9.1c-0.3,1.2-1.5,2.8-3.3,2.4
		C119.5,776.5,119.8,775.1,119.8,773.6z"/>
	<path fill="#020202" d="M387.5,831.3c-2.1-5.3-0.7-12.6-1.7-19.8c-0.8-5.7,1.4-10.1,4-14.6c1.8-3.1,4.5-5.7,6.2-8.9
		c3.5-6.2,9-6.7,15.1-6.3c7.7,0.4,13,5,18.5,9.6c3.6,3,4.8,6.1,2.4,10.5c-1.7,3-3.1,6.2-4.3,9.6c-1.4,3.9-3.7,7.4-8,9.4
		c-2.8,1.3-2.7,5-4.2,7.5c-3.7,6.1-9.9,9.9-13.4,16.2c-1.1,1.9-2.3,3.8-3.4,5.8c-1.1,2-3.4,2.9-4.7,0.8
		C390.7,845.6,387.5,839.9,387.5,831.3z"/>
	<path fill="#020202" d="M509.7,528.3c0-10.3,0-20.6,0-30.9c0-1.3-0.4-3,1.7-2.9c7.9,0.3,16-1.3,23.8,1
		c12.1,3.6,19.2,15.3,16.8,27.9c-0.6,2.9-0.2,5.9-1.5,8.8c-3.8,8.4-10.5,11.9-19.4,11.8c-6.2-0.1-12.3-0.2-18.5,0.1
		c-2.9,0.1-3.7-0.9-3.6-3.7c0.2-4,0-8,0-12C509.2,528.3,509.5,528.3,509.7,528.3z"/>
	<path fill="#020202" d="M362.6,860.6c-3.7-3.6-6.8-6.2-7.8-10.4c-1.4-5.9-5.7-9.9-9.4-14.2c-3-3.5-5.6-7.6-9.2-10.4
		c-7.6-6-8.2-14.7-8.5-22.7c-0.2-5.7,4.1-11.2,7.3-16.4c1.2-1.9,3.2-3.4,3.1-6c-0.1-1.4,1-1.5,2-1.5c3.2,0,6.3,0,9.5,0.1
		c1.7,0,3.2,1.4,3.1,2.7c-0.3,4.6,2.8,7.4,5.2,10.3c6.4,8,7.5,17.5,9.1,27c1.9,11.7,1.1,22.9-3.6,33.9
		C362.5,855,362.9,857.3,362.6,860.6z"/>
	<path fill="#020202" d="M567.7,780.1c-2.2-1-4.5-1.4-5.5-2.8c-5.8-7.3-14.5-8-22.4-10.5c-5.8-1.8-12.1-1.5-17.9-1.5
		c-7.9-0.1-13.7-4.1-20-7.4c-2.1-1.1-4.7-1.6-5.4-4.4c-0.3-1.2-1.2-2.3,0.1-3.5c1-0.9,1.9-1.7,3.5-1.1c1.7,0.6,3.5,0.9,5.3,1.1
		c3.4,0.4,6.4,0.4,6.1-4.6c-0.1-1.8,0.7-3.1,3.7-2.7c6,0.9,12.3,1.5,16.6-4.7c1.9-2.8,2.1-5.8,2.6-8.8c0.4-2.4,0.6-4.3,4.1-1.5
		c12,9.8,20.5,21.9,27.2,35.8C568.2,769.1,568.2,774,567.7,780.1z"/>
	<path fill="#020202" d="M539.1,640.2c-2.1,1.8-3.5,3.3-5.1,4.4c-3.7,2.7-5.3,6.2-4.7,10.8c0.2,1.3,0.7,3.1,0.1,3.9
		c-6.1,7.4-4.5,18.1-10.8,25.4c-1.7,1.9-2.4,2.9-5.6,1c-7.8-4.6-16.4-8-24.6-11.8c-0.7-0.3-2.3-0.2-1.9-1c2.2-4-0.9-8.2,0.8-12.2
		c1.5-3.7,3.6-6.8,6.8-9.6C504.7,641.7,526,638.3,539.1,640.2z"/>
	<path fill="#020202" d="M137,627.3c0-8.8,0-8.3,8.8-8.4c9.1-0.1,17.3,2.4,25.3,6.3c2.9,1.4,5.5,3.7,8.1,5.7c2.3,1.8,3.7,4.7,2.6,7
		c-3,6.2-2.7,12.3-2,18.8c0.5,4.7-1.4,6-6,5.1c-4.2-0.8-8.5-1.2-12.8-1.7c-1.1-0.1-2.7,0.2-3.4-0.4C146.9,650.4,138,640.2,137,627.3
		z"/>
	<path fill="#020202" d="M300.9,686.1c-9.2-4.4-18.7-6.4-26.3-13.7c-3.9-3.8-5.8-7.4-6.8-12.5c-0.9-4.5-4.5-8.1-5.3-13
		c-1.2-7.2,0.1-14.2,0.8-21.2c0.3-2.9,2.2-2.3,4.1-1.3c18.1,8.9,27.5,24.1,31.5,43.3C300.1,673.5,301.2,679.3,300.9,686.1z"/>
	<path fill="#020202" d="M196.9,794.1c1.8-7.6,4.4-16.1,8.9-24c2-3.5,4.8-6.7,6.1-10.6c1.3-3.8,4.3-3.2,6.3-1.5
		c9,7,18,14.2,24.4,23.7c2.6,3.8-1.2,9.6-6.6,10c-4.2,0.3-8.3,0.8-12.7,0.4c-7.1-0.6-14.6-0.7-20.5,4.7c-0.4,0.3-0.8,0.5-1.2,0.8
		c-1.5,1-0.5,4.6-2.8,3.9C196.7,800.8,197.1,797.7,196.9,794.1z"/>
	<path fill="#020202" d="M298,702.9c5.4,1.9,9.7,5,13.7,8.7c3.1,2.8,3.3,7.1,5.9,10.2c0.9,1.1-0.1,2.2-1,3c-1.7,1.4-3.2,3.3-5.1,3.8
		c-7.8,2.2-12.1,8.5-17,14.1c-1.7,2-3.1,1.5-4.4-0.4c-0.4-0.7-0.3-2-0.8-2.2c-7.9-4.1-7-12.2-8.8-19.1c-1.1-4.3,2.7-7,3.9-10.6
		C286.7,704.1,293.4,705.2,298,702.9z"/>
	<path fill="#020202" d="M352.3,761.3c5.5-0.4,11.2,1.2,16.2,5.1c1.1,0.8,2.2,0.6,3.3,0.7c2.2,0.3,4,1.8,3.9,3.7
		c-0.1,1.9-3.3,2.5-4.2,2.1c-4.3-1.7-8.3-0.4-12.5,0.1c-5.9,0.8-11.9-2.8-17.8,0.3c-0.8,0.4-2.5-0.3-2.3-2.3c0.9-7,3.9-9.7,11.1-9.7
		C350.6,761.3,351.1,761.3,352.3,761.3z"/>
	<path fill="#020202" d="M253.6,750.9c9.9,1.1,18.1,4,25.1,9.8c1.9,1.6,2.7,3.6-0.9,4.4c-1.1,0.2-2.3,0.6-3.3,1.1
		c-2.6,1.3-3.8,6.1-7.8,3.7c-2.6-1.6-4.5-4.2-6.7-6.3c-2.6-2.6-6.4-4.1-8.2-7.5c-0.6-1.2-2.5-2.3-1.7-3.6
		C250.9,750.9,252.8,750.8,253.6,750.9z"/>
	<path fill="#020202" d="M478.1,491.9c0.1,1.5,0.3,2.3,0.3,3.1c0,9.3,0,18.6,0,27.7C466.2,517,465.7,504.9,478.1,491.9z"/>
	<path fill="#020202" d="M343.8,385.2c0.7-1.3,1.4-2.6,2.1-3.9C345.2,382.6,344.5,383.9,343.8,385.2z"/>
	<path fill="#020202" d="M697,510c-2.1-11.7-8.3-18.3-19-18.9c-9.5-0.6-15.9,4.8-18.9,16.3c-1.7,6.7-2.9,13.6-3.5,20.6
		c-1.4,16-1.3,32-0.9,47.9c0.4,14.8,0.4,29.6,5,43.9c2.5,7.6,7.8,11.9,15.7,12.6c7.2,0.6,13.4-1.4,17.6-7.9
		c2.4-3.7,3.5-7.9,4.3-12.1c2.9-16.8,3.5-33.7,3.3-51.8C700.8,544.4,700,527.2,697,510z"/>
</g>
</svg>
