<?xml version="1.0" encoding="utf-8"?>
<!-- Generator: Adobe Illustrator 19.2.0, SVG Export Plug-In . SVG Version: 6.00 Build 0)  -->
<svg version="1.1" id="Layer_1" xmlns="http://www.w3.org/2000/svg" xmlns:xlink="http://www.w3.org/1999/xlink" x="0px" y="0px"
	 viewBox="0 0 1190.6 841.9" style="enable-background:new 0 0 1190.6 841.9;" xml:space="preserve">
<style type="text/css">
	.st0{fill:#FFFFFF;}
</style>
<path class="st0" d="M337.6,337.1c-23.4,8-45.9,15.8-68.4,23.4c-1.2,0.4-3.8-0.4-4.4-1.5c-7.8-13.7-26.6-21-42.4-16.1
	c-19,5.9-33.3,17.2-35.2,38c-2.8,29.7,5.7,56.9,24.9,79.7c19.7,23.5,56.2,24.4,78.1,2.9c7.7-7.6,11.9-16.8,10.3-28.6
	c-10.9,3.7-21.4,7.2-32.7,11.1c-5.9-17.1-11.7-34.2-17.8-51.7c33.1-11.3,65.7-22.5,99.1-33.9c15.2,44.5,30.3,88.6,45.6,133.2
	c-15.8,5.4-31.2,10.7-47,16.1c-3.5-7.6-6.9-15-10.4-22.6c-0.6,0.3-1.2,0.5-1.3,0.8c-12.1,29.9-35.8,46-65.6,54.4
	c-56.6,15.9-112.1-9.2-140.2-63.3c-12.6-24.3-19.9-50-20-77.5c-0.1-53.1,32.2-98.1,83.5-116.1c29-10.2,58.2-13,87.5-0.9
	C306.3,294.7,323.9,313.3,337.6,337.1z"/>
<path d="M440.9,421.3c0.4,110.5-88.8,199.6-197.4,201.9C130.1,625.6,39.1,535,37,425.3c-2.2-114.1,91.3-208.1,206.3-205.7
	C351.9,221.8,441.2,310.8,440.9,421.3z M337.6,337.1c-13.7-23.8-31.3-42.4-56.4-52.8c-29.2-12.1-58.5-9.3-87.5,0.9
	c-51.3,18.1-83.6,63-83.5,116.1c0,27.5,7.3,53.2,20,77.5c28.1,54.1,83.6,79.2,140.2,63.3c29.8-8.4,53.5-24.4,65.6-54.4
	c0.1-0.3,0.8-0.5,1.3-0.8c3.5,7.6,6.9,14.9,10.4,22.6c15.8-5.4,31.2-10.7,47-16.1c-15.3-44.7-30.4-88.8-45.6-133.2
	c-33.3,11.4-66,22.6-99.1,33.9c6,17.5,11.9,34.6,17.8,51.7c11.3-3.8,21.8-7.4,32.7-11.1c1.6,11.8-2.6,21-10.3,28.6
	c-21.9,21.5-58.3,20.6-78.1-2.9c-19.2-22.9-27.6-50-24.9-79.7c1.9-20.8,16.2-32.1,35.2-38c15.8-4.9,34.5,2.4,42.4,16.1
	c0.6,1,3.2,1.9,4.4,1.5C291.8,352.9,314.3,345.1,337.6,337.1z"/>
<g>
	<g>
		<path d="M493.2,312.8v-11.6h8.7v-22.3H518v22.3h10.1v11.6H518v31.9c0,2.6,0.3,4.1,1,4.8c0.6,0.6,2.6,0.9,6,0.9c0.5,0,1,0,1.6,0
			c0.6,0,1.1,0,1.6-0.1v12.2l-7.7,0.3c-7.7,0.3-13-1.1-15.8-4c-1.8-1.9-2.7-4.8-2.7-8.6v-37.3H493.2z"/>
		<path d="M581.5,299.9c3.1,1.3,5.7,3.4,7.7,6.1c1.7,2.3,2.8,4.7,3.1,7.2c0.4,2.5,0.6,6.5,0.6,12.1v36.7h-16.7v-38
			c0-3.4-0.6-6.1-1.7-8.1c-1.5-2.9-4.3-4.4-8.4-4.4c-4.3,0-7.5,1.4-9.7,4.3c-2.2,2.9-3.3,7-3.3,12.3v33.8h-16.3v-86.3h16.3v31.9
			c2.4-3.6,5.1-6.2,8.2-7.6c3.1-1.4,6.4-2.1,9.8-2.1C574.9,297.9,578.4,298.6,581.5,299.9z"/>
		<path d="M626.3,450.3c-5.5,6.8-13.8,10.2-25,10.2c-11.2,0-19.5-3.4-25-10.2c-5.5-6.8-8.2-14.9-8.2-24.4c0-9.4,2.7-17.5,8.2-24.3
			c5.5-6.9,13.8-10.3,25-10.3c11.2,0,19.5,3.4,25,10.3c5.5,6.9,8.2,15,8.2,24.3C634.6,435.4,631.8,443.5,626.3,450.3z M612.8,440.9
			c2.7-3.5,4-8.5,4-15.1c0-6.5-1.3-11.5-4-15c-2.7-3.5-6.5-5.3-11.4-5.3c-5,0-8.8,1.8-11.5,5.3c-2.7,3.5-4,8.5-4,15
			c0,6.5,1.3,11.5,4,15.1c2.7,3.5,6.5,5.3,11.5,5.3C606.3,446.2,610.1,444.4,612.8,440.9z"/>
		<path d="M684.7,392.3c0.2,0,0.7,0,1.4,0.1v17.3c-1.1-0.1-2-0.2-2.8-0.2c-0.8,0-1.5-0.1-2-0.1c-6.8,0-11.3,2.2-13.7,6.6
			c-1.3,2.5-2,6.3-2,11.5v30.8h-18.1v-64.5h17.2v11.2c2.6-4.3,4.9-7.2,6.8-8.8c3.2-2.6,7.3-4,12.3-4
			C684.2,392.3,684.5,392.3,684.7,392.3z"/>
		<path d="M742.6,458.3H723v-87.6h19.6V458.3z"/>
		<path d="M775.1,458.3h-19.6v-87.6h19.6V458.3z"/>
		<path d="M814,418.7c3.2-0.4,5.4-0.9,6.8-1.5c2.4-1,3.7-2.6,3.7-4.8c0-2.7-0.9-4.5-2.8-5.5c-1.9-1-4.6-1.5-8.3-1.5
			c-4.1,0-7,1-8.6,3c-1.2,1.5-2,3.5-2.4,6h-16.4c0.4-5.7,2-10.4,4.8-14c4.5-5.7,12.3-8.6,23.2-8.6c7.1,0,13.5,1.4,19,4.2
			c5.5,2.8,8.3,8.2,8.3,16v29.8c0,2.1,0,4.6,0.1,7.5c0.1,2.2,0.5,3.7,1,4.5c0.6,0.8,1.4,1.5,2.5,2v2.5h-18.5
			c-0.5-1.3-0.9-2.5-1.1-3.7c-0.2-1.2-0.4-2.5-0.5-3.9c-2.4,2.5-5.1,4.7-8.2,6.5c-3.7,2.1-7.8,3.2-12.5,3.2c-5.9,0-10.8-1.7-14.7-5
			c-3.9-3.4-5.8-8.1-5.8-14.3c0-8,3.1-13.8,9.3-17.4c3.4-1.9,8.4-3.3,15-4.2L814,418.7z M822.9,426.6c-0.9,0.6-1.9,1.1-2.9,1.4
			c-1,0.4-2.3,0.7-4,1l-3.4,0.6c-3.2,0.6-5.4,1.2-6.8,2c-2.3,1.3-3.5,3.4-3.5,6.3c0,2.5,0.7,4.4,2.1,5.5c1.4,1.1,3.2,1.7,5.2,1.7
			c3.2,0,6.2-0.9,8.9-2.8s4.1-5.3,4.2-10.2V426.6z"/>
		<path d="M551.6,555.9c-5.3,6.5-13.3,9.7-24,9.7c-10.7,0-18.7-3.2-24-9.7c-5.3-6.5-7.9-14.3-7.9-23.5c0-9,2.6-16.8,7.9-23.4
			c5.3-6.6,13.3-9.9,24-9.9c10.7,0,18.7,3.3,24,9.9c5.3,6.6,7.9,14.4,7.9,23.4C559.5,541.5,556.9,549.4,551.6,555.9z M538.5,546.9
			c2.6-3.4,3.8-8.2,3.8-14.5c0-6.2-1.3-11.1-3.8-14.4c-2.6-3.4-6.2-5.1-11-5.1c-4.8,0-8.4,1.7-11,5.1c-2.6,3.4-3.9,8.2-3.9,14.4
			c0,6.2,1.3,11.1,3.9,14.5c2.6,3.4,6.2,5.1,11,5.1C532.3,551.9,536,550.2,538.5,546.9z"/>
		<path d="M603.6,499.7c0.2,0,0.7,0,1.4,0.1v16.7c-1-0.1-1.9-0.2-2.7-0.2c-0.8,0-1.4-0.1-1.9-0.1c-6.6,0-11,2.1-13.2,6.4
			c-1.3,2.4-1.9,6.1-1.9,11.1v29.8h-16.4v-62.4h15.6V512c2.5-4.2,4.7-7,6.6-8.5c3.1-2.6,7-3.8,11.9-3.8
			C603.2,499.6,603.4,499.6,603.6,499.7z"/>
		<path d="M707.1,525.6c3-0.4,5.2-0.9,6.5-1.4c2.3-1,3.5-2.5,3.5-4.6c0-2.6-0.9-4.3-2.7-5.3c-1.8-1-4.4-1.5-7.9-1.5
			c-3.9,0-6.7,1-8.3,2.9c-1.2,1.4-1.9,3.3-2.3,5.7h-15.7c0.3-5.5,1.9-9.9,4.6-13.4c4.3-5.5,11.8-8.2,22.3-8.2c6.9,0,13,1.4,18.3,4.1
			c5.3,2.7,8,7.8,8,15.3v28.6c0,2,0,4.4,0.1,7.2c0.1,2.1,0.4,3.6,1,4.3c0.5,0.8,1.3,1.4,2.4,1.9v2.4H719c-0.5-1.3-0.8-2.4-1-3.5
			c-0.2-1.1-0.3-2.4-0.5-3.8c-2.3,2.4-4.9,4.5-7.8,6.2c-3.5,2-7.5,3-12,3c-5.7,0-10.4-1.6-14.1-4.8c-3.7-3.2-5.6-7.8-5.6-13.7
			c0-7.7,3-13.2,8.9-16.7c3.3-1.9,8.1-3.2,14.4-4L707.1,525.6z M717,533.2c-1,0.6-2.1,1.2-3.2,1.6c-1.1,0.4-2.5,0.8-4.4,1.1
			l-3.7,0.7c-3.5,0.6-6,1.4-7.5,2.2c-2.6,1.5-3.9,3.8-3.9,6.9c0,2.8,0.8,4.8,2.4,6c1.6,1.2,3.5,1.9,5.7,1.9c3.6,0,6.8-1,9.9-3.1
			c3-2.1,4.6-5.8,4.7-11.3V533.2z"/>
		<path d="M795.8,504.7c4.1,3.4,6.1,9,6.1,16.8v42h-16.7v-37.9c0-3.3-0.4-5.8-1.3-7.6c-1.6-3.2-4.6-4.8-9.1-4.8
			c-5.5,0-9.3,2.3-11.3,7c-1.1,2.5-1.6,5.6-1.6,9.5v33.8h-16.3v-62.3h15.8v9.1c2.1-3.2,4.1-5.5,5.9-6.9c3.3-2.5,7.6-3.8,12.7-3.8
			C786.5,499.6,791.7,501.3,795.8,504.7z"/>
		<path d="M812.1,501.1h16.5v62.4h-16.5V501.1z"/>
		<path d="M841.5,514.4v-13.3h49.3v13.6l-30.6,35.4h31.7v13.4h-52.6v-12.7l30.9-36.4H841.5z"/>
		<path d="M926.5,525.6c3-0.4,5.2-0.9,6.5-1.4c2.3-1,3.5-2.5,3.5-4.6c0-2.6-0.9-4.3-2.7-5.3c-1.8-1-4.4-1.5-7.9-1.5
			c-3.9,0-6.7,1-8.3,2.9c-1.2,1.4-1.9,3.3-2.3,5.7h-15.7c0.3-5.5,1.9-9.9,4.6-13.4c4.3-5.5,11.8-8.2,22.3-8.2c6.9,0,13,1.4,18.3,4.1
			c5.3,2.7,8,7.8,8,15.3v28.6c0,2,0,4.4,0.1,7.2c0.1,2.1,0.4,3.6,1,4.3c0.5,0.8,1.3,1.4,2.4,1.9v2.4h-17.7c-0.5-1.3-0.8-2.4-1-3.5
			c-0.2-1.1-0.3-2.4-0.5-3.8c-2.3,2.4-4.9,4.5-7.8,6.2c-3.5,2-7.5,3-12,3c-5.7,0-10.4-1.6-14.1-4.8c-3.7-3.2-5.6-7.8-5.6-13.7
			c0-7.7,3-13.2,8.9-16.7c3.3-1.9,8.1-3.2,14.4-4L926.5,525.6z M936.5,533.2c-1,0.6-2.1,1.2-3.2,1.6c-1.1,0.4-2.5,0.8-4.4,1.1
			l-3.7,0.7c-3.5,0.6-6,1.4-7.5,2.2c-2.6,1.5-3.9,3.8-3.9,6.9c0,2.8,0.8,4.8,2.4,6c1.6,1.2,3.5,1.9,5.7,1.9c3.6,0,6.8-1,9.9-3.1
			c3-2.1,4.6-5.8,4.7-11.3V533.2z"/>
		<path d="M961.2,513.3v-11.6h8.7v-21.8H986v21.8h10.1v11.6H986v33c0,2.6,0.3,4.1,1,4.8c0.6,0.6,2.6,0.9,6,0.9c0.5,0,1,0,1.6,0
			c0.6,0,1.1,0,1.6-0.1v12.2l-7.7,0.3c-7.7,0.3-13-1.1-15.8-4c-1.8-1.9-2.7-4.8-2.7-8.6v-38.4H961.2z"/>
		<path d="M1005.3,501.1h16.5v62.4h-16.5V501.1z"/>
		<path d="M1084.6,555.9c-5.3,6.5-13.3,9.7-24,9.7c-10.7,0-18.7-3.2-24-9.7c-5.3-6.5-7.9-14.3-7.9-23.5c0-9,2.6-16.8,7.9-23.4
			c5.3-6.6,13.3-9.9,24-9.9c10.7,0,18.7,3.3,24,9.9c5.3,6.6,7.9,14.4,7.9,23.4C1092.5,541.5,1089.8,549.4,1084.6,555.9z
			 M1071.5,546.9c2.6-3.4,3.8-8.2,3.8-14.5c0-6.2-1.3-11.1-3.8-14.4c-2.6-3.4-6.2-5.1-11-5.1c-4.8,0-8.4,1.7-11,5.1
			c-2.6,3.4-3.9,8.2-3.9,14.4c0,6.2,1.3,11.1,3.9,14.5c2.6,3.4,6.2,5.1,11,5.1C1065.3,551.9,1069,550.2,1071.5,546.9z"/>
		<path d="M1152.1,504.7c4.1,3.4,6.1,9,6.1,16.8v42h-16.7v-37.9c0-3.3-0.4-5.8-1.3-7.6c-1.6-3.2-4.6-4.8-9.1-4.8
			c-5.5,0-9.3,2.3-11.3,7c-1.1,2.5-1.6,5.6-1.6,9.5v33.8h-16.3v-62.3h15.8v9.1c2.1-3.2,4.1-5.5,5.9-6.9c3.3-2.5,7.6-3.8,12.7-3.8
			C1142.8,499.6,1148,501.3,1152.1,504.7z"/>
	</g>
	<circle cx="820.4" cy="483.7" r="9.3"/>
	<circle cx="1013.9" cy="483.7" r="9.3"/>
	<path d="M540.8,394v5.5c-5-6.3-10.9-7-17.8-7c-8.5,0-15,3.2-19.6,9.5c-4.6,6.3-6.9,14.1-6.9,23.4c0,9.6,2.4,17.2,7.2,22.9
		c4.8,5.6,11.2,8.4,19.2,8.4c5.2,0,9.4-1.2,12.6-3.7c1.8-1.3,3.5-3.3,5-6v1.7c0,6-0.6,12.1-1.9,14.6c-1.6,3.2-4.6,5.1-8.8,5.7
		c-7.1,0-13.3-2.4-14.2-8.3l-0.1-1.6h-16.7v0h-1c0,0.1,0,0.6,0,3.8c0,3.2,2.8,9.1,7.3,13.5c0.2,0.2,0.4,0.3,0.6,0.5
		c0.2,0.2,0.4,0.4,0.6,0.6c0.4,0.3,0.8,0.6,1.2,0.9c0,0,0,0,0.1,0c0.3,0.2,0.6,0.5,1,0.7c5,3.1,9.4,4.7,17.3,4.7
		c13.2,0,24-3.5,28.7-10.5c2.7-4.1,4.1-10.1,4.1-18.2V394H540.8z M536.3,437c-2.5,2.7-5.5,4.1-9.1,4.1c-5.4,0-9.1-2.5-11.2-7.5
		c-1.2-2.7-1.7-5.7-1.7-9.1c0-4,0.5-7.3,1.6-10c2-5.1,5.8-7.6,11.2-7.6c4,0,7.1,1.5,9.5,4.4c2.4,2.9,3.5,7.2,3.5,12.8
		C540,429.9,538.8,434.3,536.3,437z"/>
	<path d="M652.4,500.7v5.5c-5-6.3-10.9-7-17.8-7c-8.5,0-15,3.2-19.6,9.5c-4.6,6.3-6.9,14.1-6.9,23.4c0,9.6,2.4,17.2,7.2,22.9
		c4.8,5.6,11.2,8.4,19.2,8.4c5.2,0,9.4-1.2,12.6-3.7c1.8-1.3,3.5-3.3,5-6v1.7c0,6-0.6,8.8-1.9,11.3c-1.6,3.2-4.6,5.1-8.8,5.7
		c-7.1,0-13.3-0.3-14.2-6.2l-0.1-0.5h-15.6v0h-1c0,0.1,0,0.6,0,3.8c0,3.2,1.7,9.1,6.2,13.5c0.2,0.2,0.4,0.3,0.6,0.5
		c0.2,0.2,0.4,0.4,0.6,0.6c0.4,0.3,0.8,0.6,1.2,0.9c0,0,0,0,0.1,0c0.3,0.2,0.6,0.5,1,0.7c5,3.1,9.4,4.7,17.3,4.7
		c13.2,0,24-3.5,28.7-10.5c2.7-4.1,4.1-10.1,4.1-18.2v-61.1H652.4z M647.8,543.6c-2.5,2.7-5.5,4.1-9.1,4.1c-5.4,0-9.1-2.5-11.2-7.5
		c-1.2-2.7-1.7-5.7-1.7-9.1c0-4,0.5-7.3,1.6-10c2-5.1,5.8-7.6,11.2-7.6c4,0,7.1,1.5,9.5,4.4c2.4,2.9,3.5,7.2,3.5,12.8
		C651.5,536.6,650.3,540.9,647.8,543.6z"/>
	<path d="M691.7,392.3H710v65.9h-18.3V392.3z"/>
	<circle cx="701.4" cy="372.8" r="9.6"/>
	<path d="M664,322.9c-0.8-4.9-2.4-9.2-5-12.9c-2.8-4.2-6.4-7.3-10.8-9.2c-4.4-1.9-9.2-2.9-14.7-2.9c-9.1,0-16.6,2.9-22.3,8.7
		c-5.7,5.8-8.6,14.1-8.6,24.9c0,11.5,3.2,19.9,9.5,25c6.3,5.1,13.7,7.7,22,7.7c1.9,0,3.7-0.1,5.5-0.3c10.2-1.2,18.8-6.5,23.6-15.1
		l-11.7-7.1c-1.3,2.6-3.3,4.8-5.6,6.5l0,0c-2.3,1.9-7.5,2.9-11.2,2.9c-3.5,0-6.5-0.8-9-2.3c-4.1-2.5-6.3-6.9-6.5-13.2h45.4
		C664.6,329.9,664.4,325.8,664,322.9z M619.5,324.6c0.6-4.1,2-7.3,4.3-9.7c2.3-2.4,5.5-3.6,9.7-3.6c3.8,0,7.1,1.1,9.7,3.4
		c2.6,2.2,4,5.5,4.3,9.9H619.5z"/>
</g>
</svg>
