<?xml version="1.0" encoding="utf-8"?>
<!-- Generator: Adobe Illustrator 19.2.0, SVG Export Plug-In . SVG Version: 6.00 Build 0)  -->
<svg version="1.1" id="Layer_1" xmlns="http://www.w3.org/2000/svg" xmlns:xlink="http://www.w3.org/1999/xlink" x="0px" y="0px"
	 viewBox="0 0 351.6 355.5" style="enable-background:new 0 0 351.6 355.5;" xml:space="preserve">
<style type="text/css">
	.st0{fill:none;}
</style>
<path d="M233.1,258.3c-0.2-1.1-0.2-2.1-0.6-2.8c-2.1-3.5-2.9-4-6.8-3.8c-5.3,0.3-10.4-0.2-15.4-2.6c-2.8-1.3-4.4-3.4-6.1-5.6
	c-0.8-1-0.7-1.9,0.5-2.7c3.2-2.1,6.6-3.5,10.4-4c4.3-0.6,8.6-1.3,12.9-2c2.7-0.4,5.5-0.8,8.2-1.3c2.8-0.5,5.5-1.1,8.2-1.9
	c1.8-0.5,3.3,0.5,3.5,2.3c0.5,5.6-2.7,9.2-6.8,12.3c-1.9,1.4-3.8,2.9-5.5,4.5c-0.6,0.5-0.9,1.6-1.1,2.4c-0.2,1.1,0,2.2-0.1,3.4
	C234.3,257.6,233.9,258.3,233.1,258.3z"/>
<g>
	<path class="st0" d="M72.8,137.6c-2.3,4.2-4.4,8.5-6.7,12.7c-2.1,3.9-4.6,7.6-6.4,11.7c-0.3,0.6-0.5,1.2-0.7,1.8
		c-1.5,5.2-2.4,10.6-3.5,16c-0.6,3-1.3,6.1-1.4,9.1c-0.2,10.6-0.1,21.3-0.1,31.9c0,2.3,0,4.5,0,6.8c0.6-1.7,1.2-3.5,1.6-5.3
		c1.9-7.6,3.7-15.3,6.4-22.7c3.1-8.7,5.7-17.7,8.2-26.6c2.6-9.1,4.5-18.3,5.1-27.8c0.1-1.7,0.3-3.5,0.7-5.2
		c1.3-5.4,2.1-10.9,2.3-16.5c0-1.2,0-2.3-0.2-3.5c-0.5-3.2-1.1-6.3-1.6-9.5c-0.2-1.3-0.3-2.5-0.5-3.8c-0.1,0-0.3,0.1-0.4,0.1
		c0,0.1-0.1,0.3-0.1,0.4c0,0.3,0,0.7,0.1,1c0.8,4.4,1.1,8.9,0.3,13.3c-0.6,4.3-0.5,8.6-2.1,12.7c-0.2,0.6-0.5,1.2-0.7,1.8
		C73.3,136.5,73.2,137,72.8,137.6z"/>
	<path class="st0" d="M116.2,189.8c-0.9,1.2-1.8,2.3-2.7,3.5c-0.2,0.2-0.4,0.5-0.6,0.7c-1.8,2.4-3.9,4.4-6.2,6.3
		c-1.2,1-2.5,2-3.9,2.9c-0.1,0-0.1,0.1-0.2,0.1c0,0-0.1,0.1-0.1,0.1c0,0,0,0,0,0c-0.5,0.2-0.9,0.3-1.3-0.4
		c-2.4-3.4-4.9-6.7-7.3-10.1c-1.3-1.8-2.5-3.8-3.8-5.7c-0.2-0.3-0.7-0.4-1.1-0.6c0,0.5-0.2,1,0,1.4c0.5,1,1.2,1.8,1.8,2.7
		c1.3,2.1,2.5,4.3,3.8,6.5c1.3,2.2,2.7,4.5,4.1,6.7c0.6,0.9,0.3,1.3-0.4,1.8c-2.2,1.1-4.4,2.2-6.6,3.3c-5.2,2.8-10.4,5.6-15.5,8.4
		c-1.3,0.8-2.7,1.5-4,2.3c-6.4,3.6-12.6,7.4-17.2,13.3c-0.4,0.5-0.7,1.3-0.7,1.9c0,5.1,0,10.3,0,15.4c0,0.4,0.1,0.7,0.2,1.3
		c1.7-1.1,3.1-2.1,4.6-3c4.3-2.7,8.8-5.2,12.9-8.3c6.6-5,12.5-10.9,17.8-17.5c3.2-4.1,7.4-7.4,11.2-11c0-0.1,0.1-0.1,0.1-0.2
		c0,0,0,0,0,0c0.2-0.1,0.3-0.3,0.5-0.4c0.1,0,0.2,0,0.5-0.1c0.2,0.3,0.3,0.5,0.4,0.7c1.3,4,2.4,8.1,3.8,12
		c2.5,7.1,2.9,14.5,3.2,21.9c0.2,3.9,0.4,7.8,0.7,11.7c0,0.5,0.7,1.3,1.1,1.3c4.2,0.1,8.4,0.1,12.6,0.1c0.9,0,1-0.5,0.7-1.3
		c-0.5-1.2-1-2.5-1.4-3.7c-1.2-4.1-2.5-8.2-3.6-12.4c-1.8-7.2-4.5-14-8.1-20.5c-1.4-2.5-2.8-5.1-4.2-7.6c-0.7-1.3-1.3-2.6-2.1-3.8
		c-0.6-0.9-0.7-1.7,0.1-2.6c4.4-5.5,8.8-11,13.2-16.5c0.7-0.9,1.1-2.1,1.6-3.1c1.2-2.5,2.6-4.9,3.8-7.3c0.2-0.3,0-0.7,0-1.1
		c-0.4,0.1-0.8,0.1-1.1,0.3c-0.2,0.1-0.4,0.4-0.5,0.7c-0.5,0.9-1,1.8-1.5,2.7c-1,2.2-2.2,4.1-3.6,6
		C116.8,189,116.5,189.4,116.2,189.8z"/>
	<path class="st0" d="M281.7,223.3c0-2.4,1.7-4.6,0.7-7.1c-0.1-0.4,0.3-1,0.5-1.5c0.2-0.4,0.5-0.7,0.6-1.1c0.7-2.7,1.3-5.3,1.9-7.9
		c0.1-0.4,0.2-0.9,0.2-1.4c-0.1-3.2-0.3-6.4-0.2-9.6c0-1.5,0.4-3,0.7-4.4c0.2-1,0.6-2,0.8-3c0.1-0.8,0.3-1.7,0.1-2.5
		c-0.7-2.3-0.8-4.4,0.2-6.6c0.3-0.6,0.2-1.5,0.1-2.2c-0.1-0.7-0.3-1.4-0.6-2c-0.9-2.3-1.6-4.8-3-6.9c-1-1.5-1.7-2.9-2.3-4.5
		c0.3,0.3,0.6,0.6,0.8,1c0.6,0.9,1.1,1.9,1.7,2.9c0.3,0.6,0.7,1.2,1,1.8c0.7,1.6,1.4,3.2,1.9,4.9c0.6,2,1.6,4,0.3,6.3
		c-0.8,1.4-0.5,3.3,0.2,4.8c0.6,1.2,0.3,2.1-0.1,3.2c-0.7,1.9-1.5,3.8-1.6,5.8c-0.1,3.3,0.3,6.7,0.4,10c0,0.6,0,1.3,0,1.9
		c0.8-0.6,1.3-1.4,1.7-2.1c3.1-5.3,6.3-10.6,9.4-15.9c0.2-0.3,0.3-0.7,0.3-1c0.1-2,0.1-3.9,0.1-5.9c0-0.4-0.3-0.8-0.5-1.2
		c-2-3.2-4.3-6.2-5.8-9.5c-2.4-5.3-5.3-10.6-6.5-16.4c-0.5-2.4-0.8-4.8-1.1-7.2c-0.2-1.1-0.1-2.3-0.1-3.5c0-4.1,0-8.3,0.1-12.4
		c0-0.4,0.4-0.8,0.7-1c0.1,0,0.6,0.4,0.9,0.6c2.3,2.2,4.1,4.8,5.4,7.7c1.9,4.1,3.7,8.1,5.6,12.2c0.4,1,0.8,1.9,1.2,2.9
		c0.2-0.5,0.2-1,0.2-1.5c0-7.4,0-14.8,0-22.2c0-3.9-0.2-4.1-4.1-3.2c-2.8,0.7-5.5,1.5-8.2,2.3c-0.7,0.2-1.5,0.6-2,1.1
		c-3.5,3.6-5.4,8.2-7.2,12.7c-1.2,3-2.2,6.1-4.6,8.8c1.2,1.3,2.3,2.6,3.5,3.9c0.7,0.9,1.5,1.7,2.3,2.6c-1.5-1.4-3.2-2.6-4.4-4.2
		c-1.7-2.2-4.3-3.8-5-6.7c-0.1-0.3-0.5-0.4-0.7-0.7c-0.5-0.7-0.8-1.4-1.2-2.1c-0.2-0.3-0.1-0.8-0.3-1.1c-1.7-3.3-3.5-6.6-5.2-10
		c-0.4-0.7-0.6-1.5-0.9-2.3c-0.1-0.2-0.2-0.6-0.4-0.7c-1.9-1.3-3.1-3.2-3.8-5.2c-0.8-2.3-3-2.9-4.4-4.4c-1.1-1.2-2.5-2.2-3.5-3.4
		c-0.9-1.2-1.6-2.7-2.4-4c-0.1-0.1-0.2-0.3-0.4-0.4c-1.7-1.4-3.5-2.8-5.3-4.2c0-0.3,0.1-0.7,0.2-1.3c-0.5,0-0.9,0.1-1.2,0.1
		c0.1-0.3,0.3-0.6,0.4-0.8c-0.5-0.1-1.1-0.3-1.7-0.5c-0.1-0.2-0.2-0.7-0.5-0.8c-1.3-0.5-2.4-1.2-3.2-2.4c-0.3-0.3-0.8-0.3-1.2-0.5
		c-0.4-0.1-0.9-0.2-1-0.5c-0.9-1.5-2.8-1.6-3.8-2.9c-0.3-0.4-0.6-0.9-1-1.1c-1.5-0.7-3.1-1.3-4.6-2c-0.2-0.1-0.3-0.4-0.4-0.6
		c-0.8-1.2-1.2-2.7-2.3-3.5c-1.2-0.8-1.4-2-1.9-3.1c-0.4-0.8-0.7-0.8-1.5-0.7c-0.9,0.1-1.9-0.1-2.8-0.2c-1-0.1-1.9-0.4-2.9-0.5
		c-1.3-0.2-2.5-0.3-3.8-0.5c-1.9-0.3-3.7-0.7-5.6-1c-1.1-0.2-2.3-0.3-3.5-0.4c-3-0.4-5.4-3-8.7-2.3c-0.1,0-0.3,0-0.4-0.1
		c-2.5-1.1-4.9-2.2-7.3-3.4c-1-0.4-1.6-1.4-2.9-0.9c-0.2,0.1-0.8-0.2-0.9-0.4c-0.9-1.8-2.8-2.1-4.3-2.8c-3.1-1.4-6.2-2.8-9.4-4
		c-0.9-0.3-2.1-0.5-3-0.3c-1.5,0.4-2.6,0-3.7-0.8c-1.2-0.8-2.4-1.9-3.7-2.4c-4.1-1.6-8.3-3-12.5-4.5c-1.9-0.7-3.7-1.3-5.6-1.9
		c0.1,0,0.1-0.1,0.1-0.2c8.3,0,16.6,0,25.2,0c-0.5,0.7-0.8,1.3-1.2,1.7c-1.3,1.3-2.6,2.6-3.9,3.8c-0.7,0.6-0.9,1.1,0,1.7
		c0.9,0.5,1.7,1.2,2.6,1.6c0.7,0.3,1.5,0.6,2.2,0.4c1.7-0.5,3.2-0.2,4.7,0.8c1.4,1,2.3,0.7,3.1-0.8c1.4-2.5,2.8-5,4.3-7.5
		c0.6-1,1.2-1.9,2.7-1.9c6.5,0.1,13,0.1,19.5,0.1c0.4,0,0.9,0,1.7,0.1c-0.7,0.5-1,0.8-1.3,1.1c-2,1.5-4,3-6,4.6
		c-1.5,1.2-3.1,2.5-4.6,3.8c-2.1,1.7-4.1,3.5-6.1,5.3c-0.3,0.3-0.3,0.9-0.5,1.3c0.4,0.1,0.9,0.1,1.3,0.2c0.4,0.1,0.8,0.1,1,0.3
		c2.4,2.1,5.4,3.1,8.3,4.2c1.3,0.4,2.4,0,3.2-1.2c1.2-1.7,2.5-3.5,3.9-5.1c1.3-1.5,2.7-2.8,4-4.3c2.7-3.2,5.3-6.3,7.9-9.5
		c0.6-0.7,1.2-0.9,2.1-0.9c4.8,0,9.5,0,14.3,0c0.6,0,1.4-0.2,1.7-0.6c0.7-1.1,1.2-2.4,1.9-3.9c-0.9,0-1.4,0-2,0
		c-56.1,0-112.3,0-168.4,0c-0.4,0-0.8,0-1.2,0c-0.8,0-1.2,0.4-1.2,1.3c-0.1,1.7-0.3,3.4,0.2,6c0,39.5,0,79.1,0,118.6
		c0,0.5,0.1,1,0.1,1.5c0.4-0.2,0.5-0.4,0.5-0.6c0.7-3.4,1.2-6.9,2-10.3c0.7-2.8,1.2-5.7,2.2-8.4c0,0,0,0,0,0c0.9-3,2.7-5.8,4.2-8.7
		c2.6-4.8,5.3-9.5,7.8-14.3c0.8-1.5,1.4-3.2,2.1-4.8c-0.1-0.3-0.2-0.6-0.5-0.9c-2.3-2.7-3.6-5.7-3.3-9.5c0.4-5.5,0.4-10.9,0.6-16.4
		c0.1-0.3,0.1-0.7,0.2-1c1-2.5,2-4.9,3-7.4c0.6-1.6,1.5-3.2,2.1-4.8c0.9-2.2,1.6-4.6,2.4-6.9c0.2-0.4,0.7-0.7,1.1-1.1
		c0.7-0.6,1.7-1.2,2.1-2c2-4.5,6.2-6.5,10.2-8c5.8-2.2,11.9-3.3,18-4.5c2.9-0.6,6.1-0.4,9.1,0.5c1.4,0.4,2.8,0.5,4.2,0.8
		c0.4,0,0.7,0.3,1.1,0.5c0.3,0.1,0.6,0.4,0.8,0.4c0.8-0.2,1.1,0.2,1.3,0.9c0.1,0.4,0.4,0.9,0.6,1.4c0.8-0.6,2.2-0.4,2.6,0.4
		c0.7,1.4,1.3,2.9,1.9,4.4c1.1-0.5,1.4,0.5,1.5,1.3c0.2,1.6,0.8,2.9,2,4.1c0.8,0.8,1,2.3,1.4,3.5c0.2,0.5,0.3,1.1,0.3,1.6
		c0.1,2.1,2,3.4,2.5,5.4c0.4,1.6,0.8,3.1,0.8,4.7c-0.1,4.2-2.7,7.3-5,10.5c-0.1,0.2-0.5,0.2-0.7,0.4c-0.3,0.2-0.6,0.4-0.8,0.7
		c-0.5,0.9-0.8,1.8-1.4,2.6c-2.6,3.6-6.6,5.4-9.5,8.7c-2.3,2.7-5.9,4.3-9,6.1c-1.2,0.7-2,1.2-1.6,2.1c-1.5,1.5-2.8,3.2-4.1,4.9
		c-0.7,0.9-2,1.8-0.9,3.4c0.1,0.2-0.3,0.7-0.6,1c-1,0.9-2,1.7-3,2.5c-0.3,0.2-0.6,0.3-0.9,0.5c-2.4,1.3-4.9,2.5-7.4,3.8
		c-0.1,0-0.1,0.1-0.2,0.2c-1.4,1.5-1.6,1.4-3-0.2c-1.5-1.8-3.1-3.8-5.1-5.1c-2.6-1.8-5.7-3-8.6-4.5c-0.1,0.7-0.3,1.3-0.4,1.9
		c-0.4,3.5-0.6,7.1-1.1,10.6c-0.7,4.6-1.6,9.3-2.7,13.9c-1.6,6.6-3.4,13.1-5.4,19.6c-1.6,5.1-3.5,10.1-5.2,15.2
		c-0.1,0.4-0.1,1-0.2,1.5c3.1,0,4,0.7,5,3.6c0.1,0.5,0,1.2,0.3,1.5c1.2,1,0.5,2.1,0.3,3.2c-0.2,0.9-0.5,1.8-0.8,2.8
		c1.6-0.3,3.1,1.2,4-0.4c0.5,0.3,0.9,0.5,1.3,0.7c-0.7,1.2-1.4,2.3-2,3.3c0.8,0.4,1.5,0.7,2,1c1.2-0.7,2.5-1.3,3.7-2
		c2.2-1.3,4.4-2.6,6.7-3.8c1.3-0.7,2.7-1.4,4-2.1c1.6-0.8,3.2-1.6,4.9-2.5c2.4-1.3,4.8-2.6,7.2-3.9c-2.2-3.6-4.5-7.3-6.8-11
		c-1.2-2-2.5-3.9-3.6-5.9c-0.2-0.4,0.1-1.6,0.5-1.8c0.4-0.3,1.5,0,1.8,0.4c2.2,3,4.3,6.1,6.4,9.1c1.8,2.5,3.5,5,5.3,7.5
		c0,0,0.1-0.1,0.1-0.1c1.4-1,2.7-2,4-3c2.5-2.1,4.7-4.5,6.8-7.1c1.2-1.6,2.4-3.1,3.6-4.7c1.3-1.9,2.5-3.9,3.6-6
		c0-0.1,0.1-0.2,0.1-0.3c0.5-1.2,1.2-2.3,1.9-3.3c0.5-0.7,1.4-1,2-0.3c0.3,0.4,0.5,1.4,0.2,1.9c-2,3.8-4,7.6-6.2,11.3
		c-1.1,1.9-2.3,3.6-3.7,5.3c-2.8,3.4-5.7,6.6-8.5,9.9c-1.3,1.5-1.2,1.5,0.2,3.1c0.3,0.3,0.5,0.7,0.7,1.1c1.6,3.2,3.1,6.5,4.9,9.6
		c3.5,6.2,5.9,12.7,7.9,19.4c1.8,6,2.7,12.3,5.5,18c0.4,0.8,0.7,1.1,1.6,1.1c9.9,0,19.9,0,29.8,0c13.7,0,27.5,0,41.2,0
		c12.6,0,25.1,0,37.6,0c9.2,0,18.5,0,27.7,0c1,0,1.8-0.3,2.2-1.3c0.5-1.5,1.2-2.9,1.8-4.3c0.9-2.3,3-3.8,3.7-6.3
		c0.5-2,1.9-3.8,3.2-5.4c1.6-2.1,2.4-4.3,2.9-6.8c0.1-0.3,0.1-0.7,0.3-0.8c1.6-1,1.6-3,2.3-4.4C281,228.1,281.8,225.6,281.7,223.3z"
		/>
	<path class="st0" d="M99.2,213.9c-1.7,1.6-3.6,3.1-5.3,4.8c-1.8,1.9-3.4,4.1-5.2,6.1c-2.3,2.6-4.6,5.2-7,7.7
		c-0.8,0.8-0.7,1.6-0.2,2.8c0.5-0.6,0.8-1.2,1.2-1.7c0.2,0.3,0.4,0.6,0.6,0.9c1.1-0.4,2.1-0.8,3.3-1.3c0,0.4,0,0.7-0.1,0.9
		c-0.8,1.2,0.5,1.6,0.9,2.3c0.1,0.1,1.1-0.1,1.6-0.2c0.9-0.3,1.7-0.6,2.7-0.9c-0.1,0.7-0.1,1-0.2,1.5c1.1-0.8,1.9-1.4,2.8-2.1
		c0.1,0.1,0.2,0.2,0.2,0.2c-0.5,1.6-0.9,3.3-1.4,4.9c0.2,0.1,0.4,0.1,0.6,0.2c0.6-1.3,1.3-2.6,1.9-3.9c0.7,0.1,1.2,0.1,1.6,0.2
		c0.8,0.3,1.6,0.6,2.4,1c1,0.6,1.9,1.2,2.8,1.9c0.5,0.3,1.3,0.8,1.4,1.3c0.3,1.3,1.2,1.9,2.2,1.9c1.6,0,1.8,1,1.9,2.2
		c0,0.5,0.1,1.1,0.1,1.7c1-12.1-2.5-23.2-7-34.7c0,0-0.1,0.1-0.1,0.1C100.4,212.6,99.9,213.3,99.2,213.9z"/>
	<path class="st0" d="M294,146.3c-1.5-3.6-3.6-7.1-5.3-10.6c-1-2-2.4-3.7-4.1-5c-2.9,17.6,2.9,32.8,12.7,47c0-0.5,0-1,0-1.5
		c0-5.2-0.3-10.5,0.2-15.8C297.8,155.2,295.8,150.8,294,146.3z"/>
	<path class="st0" d="M297.4,76.7c0,0-0.1,0-0.2,0c-1.3,2.9-3,5.7-4,8.7c-1.4,4.1-3.4,7.9-5.5,11.6c-2.4,4.2-4.8,8.5-7.3,12.6
		c-1.3,2.2-2.9,4.2-4.4,6.3c-0.6,0.8-0.6,1.7,0.2,2.3c1,0.7,2.2,1.3,3.4,1.9c1.2,0.7,2.5,1.3,3.7,1.9c0.9,0.5,1.5,0.1,1.7-0.4
		c0.4-0.7,0.6-1.4,1-2.1c3.2-5.3,6.3-10.6,9.5-15.9c1.2-1.9,1.9-3.8,1.9-6.1c-0.1-4.7,0-9.4,0-14.1
		C297.4,81.1,297.4,78.9,297.4,76.7z"/>
	<path class="st0" d="M276.7,122.2c-0.5-0.5-1.2-0.7-1.9-1.2c-0.5,0.4-1.1,0.7-1.4,1.2c-0.7,1.2-1.3,2.4-2,3.6
		c-1.7,2.7-3.5,5.4-5.1,8.2c-1.4,2.5-1.7,5.1-0.2,7.8c0.7,1.2,0.6,2.9,2.2,3.7c0.3,0.2,0.3,0.8,0.5,1.2c0.2,0.5,0.4,1,0.6,1.5
		c0.7,1.3,1.7,1.4,2.4,0.1c0.9-1.5,1.6-3,2.3-4.6c1-2.2,1.6-4.6,2.8-6.7c2-3.4,4.2-6.7,6.3-10c1.1-1.6,0.8-2.3-1.3-2.6
		C280,124.2,278.1,123.8,276.7,122.2z"/>
	<path class="st0" d="M265.4,60.5c9.3,0,18.7-0.1,28-0.1c0.2,0,0.4,0.1,0.9,0.3c-1.1,0.5-1.8,0.9-2.6,1.3c-3.3,1.5-6.7,2.9-10,4.6
		c-3.5,1.8-6.9,3.8-10.4,5.7c-1,0.5-1.1,1.1-0.6,2.1c1.3,2.8,2.4,5.7,3.6,8.6c0.1,0.5,0.3,0.9,0.6,1.5c0.3-0.4,0.4-0.6,0.5-0.8
		c2.3-4.1,5-7.9,8.7-10.8c3.2-2.6,6.2-5.3,9.7-7.4c3.4-2,4.2-4.6,3.8-8.1c-0.2-1.3-0.6-1.7-1.8-1.7c-11.3,0-22.6,0-33.9,0
		c-0.4,0-0.9,0.2-1.4,0.4c0.7,1.1,1.6,1.8,1.9,2.7C263,60.3,264,60.5,265.4,60.5z"/>
	<path d="M32.4,33c0,96.6,0,193.3,0,289.9c95.7,0,191.4,0,287.1,0c0-96.6,0-193.3,0-289.9C223.8,33,128.1,33,32.4,33z M261.9,55.7
		c11.3,0,22.6,0,33.9,0c1.2,0,1.6,0.4,1.8,1.7c0.4,3.5-0.4,6.1-3.8,8.1c-3.5,2.1-6.5,4.8-9.7,7.4c-3.7,2.9-6.4,6.7-8.7,10.8
		c-0.1,0.2-0.2,0.4-0.5,0.8c-0.3-0.6-0.5-1-0.6-1.5c-1.2-2.9-2.3-5.8-3.6-8.6c-0.5-1-0.4-1.6,0.6-2.1c3.5-1.9,6.9-3.9,10.4-5.7
		c3.3-1.7,6.7-3.1,10-4.6c0.8-0.4,1.5-0.8,2.6-1.3c-0.5-0.2-0.7-0.3-0.9-0.3c-9.3,0-18.7,0.1-28,0.1c-1.4,0-2.4-0.2-3-1.7
		c-0.3-0.9-1.2-1.6-1.9-2.7C261,55.9,261.5,55.7,261.9,55.7z M297.4,97.5c0,2.3-0.7,4.2-1.9,6.1c-3.2,5.3-6.3,10.6-9.5,15.9
		c-0.4,0.7-0.6,1.4-1,2.1c-0.2,0.5-0.8,0.9-1.7,0.4c-1.2-0.6-2.5-1.2-3.7-1.9c-1.2-0.6-2.4-1.2-3.4-1.9c-0.8-0.6-0.8-1.5-0.2-2.3
		c1.5-2.1,3.1-4.1,4.4-6.3c2.5-4.1,4.9-8.4,7.3-12.6c2.1-3.7,4.1-7.5,5.5-11.6c1-3,2.7-5.8,4-8.7c0.1,0,0.2,0,0.2,0
		c0,2.2,0,4.4,0,6.7C297.4,88.1,297.3,92.8,297.4,97.5z M283.2,127c-2.1,3.3-4.3,6.6-6.3,10c-1.2,2.1-1.8,4.5-2.8,6.7
		c-0.7,1.6-1.4,3.1-2.3,4.6c-0.7,1.3-1.7,1.2-2.4-0.1c-0.2-0.5-0.4-1-0.6-1.5c-0.2-0.4-0.2-1-0.5-1.2c-1.6-0.8-1.5-2.5-2.2-3.7
		c-1.5-2.7-1.2-5.3,0.2-7.8c1.6-2.8,3.4-5.5,5.1-8.2c0.7-1.2,1.3-2.4,2-3.6c0.3-0.5,0.9-0.8,1.4-1.2c0.7,0.5,1.4,0.7,1.9,1.2
		c1.4,1.6,3.3,2,5.2,2.2C284,124.7,284.3,125.4,283.2,127z M77.1,301.7c-1.3,1.2-3.3,0.9-4.2-0.4c-0.2-0.3-0.4-0.7-0.6-1.2
		c-0.4,0.5-0.7,0.8-1,1.1c-1.6,1.8-4.4,1.6-5.8-0.3c-2.3-3.4-0.6-7.2,4.1-8.8c2.7-0.9,3.3-2,2.3-4.1c-0.8-1.7-2.6-2.1-4.4-0.9
		c-0.5,0.3-0.9,0.7-1.4,1.1c-0.1-0.5-0.3-0.9-0.4-1.3c-1.4,2.9-4,4.3-8.2,4c0,3.7,0,7.2,0,10.9c-1.4,0-2.8,0-4.2,0
		c0-8.3,0-16.7,0-25.2c2.4,0,4.8,0,7.2,0c2.1,0,3.5,0.8,4.4,2.2c1.2,1.8,1.2,3.8,1,5.7c-0.1,0.7-0.2,1.1-0.3,1.7
		c0.9-0.6,1.6-1.1,2.3-1.5c2.8-1.5,6.2-0.8,7.2,1.6c0.6,1.4,0.7,2.9,0.8,4.3c0.1,2.6-0.1,5.3-0.1,7.9c0,0.9-0.2,1.9,1.3,2.3
		C77.2,300.8,77.3,301.5,77.1,301.7z M91.7,302.1c-1.2,0-2.4,0-3.6,0c0-2.7,0-5.3,0-7.9c0-1.3,0.1-2.6-0.1-3.9
		c-0.1-0.8-0.3-1.5-0.7-2.2c-0.2-0.4-1-0.9-1.5-0.8c-0.6,0-1.5,0.5-1.6,0.9c-0.5,1.2-0.9,2.4-0.9,3.6c-0.1,3.2,0.1,6.3,0.1,9.5
		c0,0.2,0,0.5,0,0.8c-1.3,0-2.5,0-3.8,0c0-5.9,0-11.7,0-17.5c1.2,0,2.4,0,3.6,0c0,0.7,0,1.4,0,2.1c0.1,0,0.2,0,0.3,0.1
		c0.4-0.5,0.8-1,1.3-1.5c1.8-1.8,4.7-1.7,6,0.4c0.5,0.8,0.9,1.7,0.9,2.5C91.8,292.8,91.7,297.4,91.7,302.1z M107.3,302
		c-1.2,0-2.3,0-3.6,0c0-0.7,0-1.4,0-2.1c-0.1,0-0.1,0-0.2,0c-0.3,0.4-0.5,0.9-0.8,1.3c-1.3,1.8-4.1,2-5.7,0.4
		c-0.9-1-1.6-2.2-1.9-3.4c-1-3.5-1-7,0.4-10.5c0.4-0.9,1-1.9,1.7-2.6c1.6-1.6,3.8-1.5,5.3,0.1c0.3,0.3,0.5,0.6,1,1.1
		c0-4.1,0-8,0-11.9c1.3,0,2.5,0,3.8,0C107.3,283.6,107.3,292.8,107.3,302z M122.1,302.1c-1.4,1.1-3.3,0.9-4.2-0.5
		c-0.2-0.5-0.4-0.9-0.6-1.3c-0.4,0.5-0.7,0.9-1.1,1.3c-1.5,1.5-4,1.5-5.4-0.1c-2.7-3.1-0.9-7.6,3.5-9c3-1,3.6-2.1,2.6-4.2
		c-0.8-1.7-2.6-2-4.4-0.8c-0.5,0.3-0.9,0.7-1.3,1c-1.2-1.8-0.2-2.8,2.7-4c2.1-0.9,4.8-0.3,5.8,1.3c0.7,1.2,1.1,2.5,1.2,3.8
		c0.2,3,0,6,0,9c0,0.9-0.3,2.1,1.4,2.6C122.4,301.2,122.4,301.9,122.1,302.1z M131.8,300.5c-1.1,1.6-3.3,2.4-5.4,1.9
		c-2-0.5-2.7-1.1-2.4-2.7c0.1-0.7,0.2-1.4,0.3-2c0.2,0.1,0.3,0,0.4,0c0.2,0.5,0.5,0.9,0.7,1.4c0.8,1.3,2.3,1.9,3.6,1.4
		s1.7-2.3,0.7-3.3c-0.6-0.6-1.4-1.1-2.2-1.6c-3.9-2.2-5-7.2-2.2-10.2c1.7-1.9,4.8-2,6.7-0.2c0.2,0.2,0.4,0.4,0.4,0.6
		c-0.2,1-0.4,2-0.6,3c-0.1,0-0.3,0-0.4,0c-0.2-0.3-0.3-0.7-0.5-1c-0.3-0.5-0.6-1-1-1.5c-1-0.9-2.4-0.8-3.1,0.2s-0.5,2.4,0.5,3.2
		c0.6,0.5,1.3,0.9,2.1,1.2c2,0.9,3.1,2.3,3.4,4C133.1,296.8,133,298.7,131.8,300.5z M148.4,302c-1.3,0-2.7,0-4.2,0
		c0-8.3,0-16.7,0-25.1c1.4,0,2.7,0,4.2,0C148.4,285.2,148.4,293.6,148.4,302z M164.6,302c-1.2,0-2.4,0-3.7,0c0-1.6,0-3.1,0-4.7
		c0-2.5,0-5-0.1-7.5c0-0.7-0.3-1.4-0.8-2c-0.7-0.9-2.2-0.9-2.8,0c-0.5,0.8-0.9,1.7-0.9,2.5c-0.1,3.4-0.1,6.8-0.1,10.2
		c0.2,0.5,0.2,1,0.2,1.5c-1.3,0-2.5,0-3.8,0c0-2.9,0-5.8,0-8.7s0-5.8,0-8.8c1,0,2.2,0,3.5,0c0,0.7,0,1.3,0,2c0.1,0,0.2,0.1,0.3,0.1
		c0.3-0.4,0.6-0.8,1-1.2c0.8-0.9,1.8-1.7,3.4-1.5c1.7,0.1,2.6,1,3.1,2.1c0.4,0.9,0.7,1.9,0.7,2.8C164.7,293.2,164.6,297.5,164.6,302
		z M174.3,302.2c-1.6,0.5-3.1,0.4-3.9-0.5c-0.6-0.7-1.1-1.5-1.2-2.3c-0.2-2.6-0.2-5.2-0.2-7.8c0-1.3,0-2.6,0.1-4
		c0.1-1-0.2-1.6-1.8-1.4c0-0.6,0-1.1,0-1.7c0.5,0,1.1,0,1.8-0.1c0-0.9,0.1-1.9,0-2.7c-0.2-1.2,0.2-2.1,1.7-2.7
		c0.7-0.3,1.3-0.8,2.1-1.3c0,2.5,0,4.7,0,6.9c0.8,0,1.5,0,2.2,0c0,0.6,0,1.1,0,1.6c-0.1,0-0.1,0.1-0.2,0.1c-2.1,0.1-2.2,0.1-2.2,1.8
		c0,3,0,6.1,0,9.1c0,0.6,0,1.2,0.1,1.8c0.3,1.5,0.6,1.6,2.5,1.6C175.7,301.4,175.3,301.9,174.3,302.2z M188.8,293.3
		c-2.7,0-5.2,0-7.9,0c-0.1,2.3,0,4.4,1.6,6.2c1,1.1,2.6,1.2,4.1,0.4c0.5-0.3,0.9-0.6,1.5-1c0.1,1.8-0.7,2.9-2.5,3.4
		c-2,0.6-4.7,0.3-5.9-1c-1.1-1.2-2-2.6-2.4-3.9c-0.9-3-0.8-6,0.2-8.9c0.3-1,0.9-2,1.6-2.8c2.3-2.5,6.5-2.3,8.2,0.4
		C188.8,288.3,188.9,290.7,188.8,293.3z M199.6,289.1c-2.5-0.4-3.5,0-4,1.9c-0.2,0.7-0.3,1.5-0.3,2.3c0,2.9,0,5.7,0,8.7
		c-1.2,0-2.4,0-3.7,0c0-5.8,0-11.6,0-17.4c1.1,0,2.2,0,3.5,0c0,1.2,0,2.4,0,3.6c1.3-1.5,1.3-3.7,4.5-4.2
		C199.6,285.8,199.6,287.5,199.6,289.1z M214.6,301.6c0,0.1-0.1,0.2-0.1,0.4c-1.2,0-2.4,0-3.8,0c0-0.4,0-0.7,0-1.1
		c0-3.7,0.1-7.3,0-11c0-0.6-0.3-1.3-0.7-1.9c-0.3-0.4-1-0.8-1.6-0.8c-0.5,0-1.2,0.4-1.4,0.8c-0.4,0.8-0.8,1.7-0.8,2.5
		c-0.1,3.3,0,6.7,0,10c0,0.5,0,0.9,0,1.5c-1.3,0-2.5,0-3.8,0c-0.1-5.8-0.1-11.6-0.1-17.4c1.2,0,2.3,0,3.6,0c0,0.7,0,1.4,0,2.1
		c0.1,0,0.2,0.1,0.3,0.1c0.4-0.5,0.7-1,1.2-1.4c1.9-2,5-1.8,6.2,0.4c0.7,1.4,1,2.9,1,4.4C214.7,294,214.6,297.8,214.6,301.6z
		 M229.6,302c-1,1.1-3.3,1.1-4.2-0.1c-0.5-0.6-0.7-1.1-1-1.6c-0.4,0.5-0.7,0.9-1.1,1.3c-1.5,1.5-4,1.4-5.4-0.2
		c-2.6-3.1-0.9-7.5,3.6-9c2.9-1,3.5-1.9,2.6-4c-0.8-1.8-2.7-2.2-4.6-0.9c-0.4,0.3-0.8,0.6-1.2,0.9c-1-1.9-0.2-2.8,2.7-4
		c2-0.9,4.6-0.4,5.7,1.1c0.7,1,1.2,2.1,1.3,3.2c0.2,3.2,0,6.3,0.1,9.5c0,1.1-0.5,2.4,1.5,3C229.7,301.2,229.7,301.8,229.6,302z
		 M237.5,302.5c-1.6,0.4-3.1,0.3-3.7-0.8c-0.6-1-1.1-2.2-1.1-3.4c-0.1-3.3,0-6.7,0-10c0-0.5,0-1.1,0-1.7c-0.6-0.1-1.1-0.2-1.7-0.2
		c0-0.5,0-1,0-1.6c0.5,0,1-0.1,1.7-0.1c0-1.2-0.1-2.4,0-3.5c0.1-0.5,0.4-1.1,0.9-1.4c0.8-0.6,1.8-1.1,2.9-1.7c0,2.3,0,4.5,0,6.7
		c0.7,0,1.4,0.1,2.2,0.1c0,0.5,0,1,0,1.5c-0.1,0.1-0.2,0.1-0.3,0.1c-2,0.1-2.1,0.1-2.1,1.7c0,3.6,0,7.3,0.1,10.9
		c0.1,1.4,0.6,1.7,2.5,1.6C239.4,301.8,238.6,302.2,237.5,302.5z M245.2,302c-1.3,0-2.5,0-3.8,0c0-5.8,0-11.6,0-17.4
		c1.2,0,2.4,0,3.8,0C245.2,290.4,245.2,296.1,245.2,302z M244.8,279.7c-0.8,1-2,1.1-2.7,0c-0.6-0.8-0.8-1.8-1.1-2.7
		c0.3-0.9,0.5-1.9,1-2.7c0.7-1.2,1.9-1.1,2.8,0C245.8,275.7,245.8,278.4,244.8,279.7z M261.1,297.7c-0.2,0.6-0.4,1.1-0.7,1.7
		c-1,1.8-2.5,3.3-5.4,3.3c-2.5,0-4.6-1.1-5.6-3.4c-0.8-1.9-1.1-3.7-1.6-5.6c0.5-2,0.9-3.9,1.6-5.8c0.3-0.8,0.9-1.6,1.5-2.2
		c2.3-2.3,6.4-2.3,8.5,0.2c0.9,1.1,1.5,2.3,1.9,3.5C262.1,292.2,261.9,294.9,261.1,297.7z M276.5,302.1c-1.2,0-2.5,0-3.8,0
		c0-0.5,0-0.9,0-1.4c0.1-3.3,0.1-6.7,0.1-10c0-0.8-0.2-1.6-0.6-2.2c-0.3-0.5-1.2-1.1-1.7-1.1c-0.7,0.1-1.6,0.7-1.8,1.2
		c-0.4,1-0.7,2.2-0.7,3.2c-0.1,3.4,0,6.8,0,10.3c-1.2,0-2.4,0-3.7,0c0.1-5.9,0.1-11.7,0.1-17.5c1.2,0,2.4,0,3.7,0c0,0.7,0,1.3,0,2
		c0.1,0,0.2,0,0.3,0c0.4-0.5,0.8-1,1.2-1.4c1.8-1.8,4.6-1.6,5.9,0.4c0.6,1,1,2.1,1,3.2C276.6,293.2,276.5,297.6,276.5,302.1z
		 M277.7,234.5c-0.2,0.1-0.2,0.5-0.3,0.8c-0.5,2.5-1.3,4.7-2.9,6.8c-1.3,1.6-2.7,3.4-3.2,5.4c-0.7,2.5-2.8,4-3.7,6.3
		c-0.6,1.4-1.3,2.8-1.8,4.3c-0.4,1-1.2,1.3-2.2,1.3c-9.2,0-18.5,0-27.7,0c-12.5,0-25,0-37.6,0c-13.7,0-27.5,0-41.2,0
		c-9.9,0-19.9,0-29.8,0c-0.9,0-1.2-0.3-1.6-1.1c-2.8-5.7-3.7-12-5.5-18c-2-6.7-4.4-13.2-7.9-19.4c-1.8-3.1-3.3-6.4-4.9-9.6
		c-0.2-0.4-0.4-0.8-0.7-1.1c-1.4-1.6-1.5-1.6-0.2-3.1c2.8-3.3,5.7-6.5,8.5-9.9c1.4-1.7,2.6-3.4,3.7-5.3c2.2-3.7,4.2-7.5,6.2-11.3
		c0.3-0.5,0.1-1.5-0.2-1.9c-0.6-0.7-1.5-0.4-2,0.3c-0.7,1-1.4,2.1-1.9,3.3c0,0.1-0.1,0.2-0.1,0.3c0.5-0.9,1-1.8,1.5-2.7
		c0.1-0.3,0.3-0.6,0.5-0.7c0.3-0.2,0.7-0.2,1.1-0.3c0,0.4,0.2,0.8,0,1.1c-1.2,2.4-2.6,4.8-3.8,7.3c-0.5,1-0.9,2.2-1.6,3.1
		c-4.4,5.5-8.8,11-13.2,16.5c-0.8,0.9-0.7,1.7-0.1,2.6c0.8,1.2,1.4,2.5,2.1,3.8c1.4,2.5,2.8,5.1,4.2,7.6c3.6,6.5,6.3,13.3,8.1,20.5
		c1.1,4.2,2.4,8.3,3.6,12.4c0.4,1.2,0.9,2.5,1.4,3.7c0.3,0.8,0.2,1.3-0.7,1.3c-4.2,0-8.4,0-12.6-0.1c-0.4,0-1.1-0.8-1.1-1.3
		c-0.3-3.9-0.5-7.8-0.7-11.7c-0.3-7.4-0.7-14.8-3.2-21.9c-1.4-3.9-2.5-8-3.8-12c-0.1-0.2-0.2-0.4-0.4-0.7c-0.3,0.1-0.4,0.1-0.5,0.1
		c-0.2,0.2-0.3,0.3-0.5,0.4c4.5,11.5,8,22.6,7,34.7c0-0.6-0.1-1.2-0.1-1.7c-0.1-1.2-0.3-2.2-1.9-2.2c-1,0-1.9-0.6-2.2-1.9
		c-0.1-0.5-0.9-1-1.4-1.3c-0.9-0.7-1.8-1.3-2.8-1.9c-0.8-0.4-1.6-0.7-2.4-1c-0.4-0.1-0.9-0.1-1.6-0.2c-0.6,1.3-1.3,2.6-1.9,3.9
		c-0.2-0.1-0.4-0.1-0.6-0.2c0.5-1.6,0.9-3.3,1.4-4.9c0,0-0.1-0.1-0.2-0.2c-0.9,0.7-1.7,1.3-2.8,2.1c0.1-0.5,0.1-0.8,0.2-1.5
		c-1,0.3-1.8,0.6-2.7,0.9c-0.5,0.1-1.5,0.3-1.6,0.2c-0.4-0.7-1.7-1.1-0.9-2.3c0.1-0.2,0.1-0.5,0.1-0.9c-1.2,0.5-2.2,0.9-3.3,1.3
		c-0.2-0.3-0.4-0.6-0.6-0.9c-0.4,0.5-0.7,1.1-1.2,1.7c-0.5-1.2-0.6-2,0.2-2.8c2.4-2.5,4.7-5.1,7-7.7c1.8-2,3.4-4.2,5.2-6.1
		c1.7-1.7,3.6-3.2,5.3-4.8c0.7-0.6,1.1-1.3,1.7-2.1c-3.8,3.6-8,6.9-11.2,11c-5.3,6.6-11.2,12.5-17.8,17.5c-4.1,3.1-8.6,5.6-12.9,8.3
		c-1.5,0.9-2.9,1.9-4.6,3c-0.1-0.6-0.2-0.9-0.2-1.3c0-5.1,0-10.3,0-15.4c0-0.6,0.3-1.4,0.7-1.9c4.6-5.9,10.8-9.7,17.2-13.3
		c1.4-0.8,2.7-1.5,4-2.3c-1.2,0.7-2.5,1.3-3.7,2c-0.5-0.3-1.2-0.6-2-1c0.6-1,1.3-2.1,2-3.3c-0.4-0.2-0.8-0.4-1.3-0.7
		c-0.9,1.6-2.4,0.1-4,0.4c0.3-1,0.6-1.9,0.8-2.8c0.2-1.1,0.9-2.2-0.3-3.2c-0.3-0.3-0.2-1-0.3-1.5c-1-2.9-1.9-3.6-5-3.6
		c0.1-0.5,0.1-1.1,0.2-1.5c1.7-5.1,3.6-10.1,5.2-15.2c2-6.5,3.8-13,5.4-19.6c1.1-4.6,2-9.3,2.7-13.9c0.5-3.5,0.7-7.1,1.1-10.6
		c0.1-0.6,0.3-1.2,0.4-1.9c2.9,1.5,6,2.7,8.6,4.5c2,1.3,3.6,3.3,5.1,5.1c1.4,1.6,1.6,1.7,3,0.2c0.1-0.1,0.1-0.2,0.2-0.2
		c2.5-1.3,5-2.5,7.4-3.8c0.3-0.2,0.6-0.3,0.9-0.5c1-0.8,2-1.6,3-2.5c0.3-0.3,0.7-0.8,0.6-1c-1.1-1.6,0.2-2.5,0.9-3.4
		c1.3-1.7,2.6-3.4,4.1-4.9c-0.4-0.9,0.4-1.4,1.6-2.1c3.1-1.8,6.7-3.4,9-6.1c2.9-3.3,6.9-5.1,9.5-8.7c0.6-0.8,0.9-1.7,1.4-2.6
		c0.2-0.3,0.5-0.5,0.8-0.7c0.2-0.2,0.6-0.2,0.7-0.4c2.3-3.2,4.9-6.3,5-10.5c0-1.6-0.4-3.1-0.8-4.7c-0.5-2-2.4-3.3-2.5-5.4
		c0-0.5-0.1-1.1-0.3-1.6c-0.4-1.2-0.6-2.7-1.4-3.5c-1.2-1.2-1.8-2.5-2-4.1c-0.1-0.8-0.4-1.8-1.5-1.3c-0.6-1.5-1.2-3-1.9-4.4
		c-0.4-0.8-1.8-1-2.6-0.4c-0.2-0.5-0.5-1-0.6-1.4c-0.2-0.7-0.5-1.1-1.3-0.9c-0.2,0-0.5-0.3-0.8-0.4c-0.4-0.2-0.7-0.5-1.1-0.5
		c-1.4-0.3-2.8-0.4-4.2-0.8c-3-0.9-6.2-1.1-9.1-0.5c-6.1,1.2-12.2,2.3-18,4.5c-4,1.5-8.2,3.5-10.2,8c-0.4,0.8-1.4,1.4-2.1,2
		c-0.4,0.4-0.9,0.7-1.1,1.1c-0.8,2.3-1.5,4.7-2.4,6.9c-0.6,1.6-1.5,3.2-2.1,4.8c-1,2.5-2,4.9-3,7.4c-0.1,0.3-0.1,0.7-0.2,1
		c-0.2,5.5-0.2,10.9-0.6,16.4c-0.3,3.8,1,6.8,3.3,9.5c0.3,0.3,0.4,0.6,0.5,0.9c0.2-0.6,0.5-1.2,0.7-1.8c1.6-4.1,1.5-8.4,2.1-12.7
		c0.8-4.4,0.5-8.9-0.3-13.3c-0.1-0.3-0.1-0.7-0.1-1c0-0.1,0.1-0.3,0.1-0.4c0.1,0,0.3-0.1,0.4-0.1c0.2,1.3,0.3,2.5,0.5,3.8
		c0.5,3.2,1.1,6.3,1.6,9.5c0.2,1.2,0.2,2.3,0.2,3.5c-0.2,5.6-1,11.1-2.3,16.5c-0.4,1.7-0.6,3.5-0.7,5.2c-0.6,9.5-2.5,18.7-5.1,27.8
		c-2.5,8.9-5.1,17.9-8.2,26.6c-2.7,7.4-4.5,15.1-6.4,22.7c-0.4,1.8-1,3.6-1.6,5.3c0-2.3,0-4.5,0-6.8c0-10.6-0.1-21.3,0.1-31.9
		c0.1-3,0.8-6.1,1.4-9.1c1.1-5.4,2-10.8,3.5-16c-1,2.7-1.5,5.6-2.2,8.4c-0.8,3.4-1.3,6.9-2,10.3c0,0.2-0.1,0.4-0.5,0.6
		c0-0.5-0.1-1-0.1-1.5c0-39.5,0-79.1,0-118.6c-0.5-2.6-0.3-4.3-0.2-6c0-0.9,0.4-1.3,1.2-1.3c0.4,0,0.8,0,1.2,0
		c56.1,0,112.3,0,168.4,0c0.6,0,1.1,0,2,0c-0.7,1.5-1.2,2.8-1.9,3.9c-0.3,0.4-1.1,0.6-1.7,0.6c-4.8,0-9.5,0-14.3,0
		c-0.9,0-1.5,0.2-2.1,0.9c-2.6,3.2-5.2,6.3-7.9,9.5c-1.3,1.5-2.7,2.8-4,4.3c-1.4,1.6-2.7,3.4-3.9,5.1c-0.8,1.2-1.9,1.6-3.2,1.2
		c-2.9-1.1-5.9-2.1-8.3-4.2c-0.2-0.2-0.6-0.2-1-0.3c-0.4-0.1-0.9-0.1-1.3-0.2c0.2-0.4,0.2-1,0.5-1.3c2-1.8,4-3.6,6.1-5.3
		c1.5-1.3,3.1-2.6,4.6-3.8c2-1.6,4-3.1,6-4.6c0.3-0.3,0.6-0.6,1.3-1.1c-0.8-0.1-1.3-0.1-1.7-0.1c-6.5,0-13,0-19.5-0.1
		c-1.5,0-2.1,0.9-2.7,1.9c-1.5,2.5-2.9,5-4.3,7.5c-0.8,1.5-1.7,1.8-3.1,0.8c-1.5-1-3-1.3-4.7-0.8c-0.7,0.2-1.5-0.1-2.2-0.4
		c-0.9-0.4-1.7-1.1-2.6-1.6c-0.9-0.6-0.7-1.1,0-1.7c1.3-1.2,2.6-2.5,3.9-3.8c0.4-0.4,0.7-1,1.2-1.7c-8.6,0-16.9,0-25.2,0
		c0,0.1,0,0.2-0.1,0.2c1.9,0.6,3.7,1.2,5.6,1.9c4.2,1.5,8.4,2.9,12.5,4.5c1.3,0.5,2.5,1.6,3.7,2.4c1.1,0.8,2.2,1.2,3.7,0.8
		c0.9-0.2,2.1,0,3,0.3c3.2,1.2,6.3,2.6,9.4,4c1.5,0.7,3.4,1,4.3,2.8c0.1,0.2,0.7,0.5,0.9,0.4c1.3-0.5,1.9,0.5,2.9,0.9
		c2.4,1.2,4.8,2.3,7.3,3.4c0.1,0.1,0.3,0.1,0.4,0.1c3.3-0.7,5.7,1.9,8.7,2.3c1.2,0.1,2.4,0.2,3.5,0.4c1.9,0.3,3.7,0.7,5.6,1
		c1.3,0.2,2.5,0.3,3.8,0.5c1,0.1,1.9,0.4,2.9,0.5c0.9,0.1,1.9,0.3,2.8,0.2c0.8-0.1,1.1-0.1,1.5,0.7c0.5,1.1,0.7,2.3,1.9,3.1
		c1.1,0.8,1.5,2.3,2.3,3.5c0.1,0.2,0.2,0.5,0.4,0.6c1.5,0.7,3.1,1.3,4.6,2c0.4,0.2,0.7,0.7,1,1.1c1,1.3,2.9,1.4,3.8,2.9
		c0.1,0.3,0.6,0.4,1,0.5c0.4,0.2,0.9,0.2,1.2,0.5c0.8,1.2,1.9,1.9,3.2,2.4c0.3,0.1,0.4,0.6,0.5,0.8c0.6,0.2,1.2,0.4,1.7,0.5
		c-0.1,0.2-0.3,0.5-0.4,0.8c0.3,0,0.7-0.1,1.2-0.1c-0.1,0.6-0.2,1-0.2,1.3c1.8,1.4,3.6,2.8,5.3,4.2c0.2,0.1,0.3,0.3,0.4,0.4
		c0.8,1.3,1.5,2.8,2.4,4c1,1.2,2.4,2.2,3.5,3.4c1.4,1.5,3.6,2.1,4.4,4.4c0.7,2,1.9,3.9,3.8,5.2c0.2,0.1,0.3,0.5,0.4,0.7
		c0.3,0.8,0.5,1.6,0.9,2.3c1.7,3.4,3.5,6.7,5.2,10c0.2,0.3,0.1,0.8,0.3,1.1c0.4,0.7,0.7,1.4,1.2,2.1c0.2,0.3,0.6,0.4,0.7,0.7
		c0.7,2.9,3.3,4.5,5,6.7c1.2,1.6,2.9,2.8,4.4,4.2c-0.8-0.9-1.6-1.7-2.3-2.6c-1.2-1.3-2.3-2.6-3.5-3.9c2.4-2.7,3.4-5.8,4.6-8.8
		c1.8-4.5,3.7-9.1,7.2-12.7c0.5-0.5,1.3-0.9,2-1.1c2.7-0.8,5.4-1.6,8.2-2.3c3.9-0.9,4.1-0.7,4.1,3.2c0,7.4,0,14.8,0,22.2
		c0,0.5,0,1-0.2,1.5c-0.4-1-0.8-1.9-1.2-2.9c-1.9-4.1-3.7-8.1-5.6-12.2c-1.3-2.9-3.1-5.5-5.4-7.7c-0.3-0.2-0.8-0.6-0.9-0.6
		c-0.3,0.2-0.7,0.6-0.7,1c-0.1,4.1-0.1,8.3-0.1,12.4c0,1.2-0.1,2.4,0.1,3.5c0.3,2.4,0.6,4.8,1.1,7.2c1.2,5.8,4.1,11.1,6.5,16.4
		c1.5,3.3,3.8,6.3,5.8,9.5c0.2,0.4,0.5,0.8,0.5,1.2c0,2,0,3.9-0.1,5.9c0,0.3-0.1,0.7-0.3,1c-3.1,5.3-6.3,10.6-9.4,15.9
		c-0.4,0.7-0.9,1.5-1.7,2.1c0-0.6,0-1.3,0-1.9c-0.1-3.3-0.5-6.7-0.4-10c0.1-2,0.9-3.9,1.6-5.8c0.4-1.1,0.7-2,0.1-3.2
		c-0.7-1.5-1-3.4-0.2-4.8c1.3-2.3,0.3-4.3-0.3-6.3c-0.5-1.7-1.2-3.3-1.9-4.9c-0.3-0.6-0.7-1.2-1-1.8c-0.6-1-1.1-2-1.7-2.9
		c-0.2-0.4-0.5-0.7-0.8-1c0.6,1.6,1.3,3,2.3,4.5c1.4,2.1,2.1,4.6,3,6.9c0.3,0.6,0.5,1.3,0.6,2c0.1,0.7,0.2,1.6-0.1,2.2
		c-1,2.2-0.9,4.3-0.2,6.6c0.2,0.8,0,1.7-0.1,2.5c-0.2,1-0.6,2-0.8,3c-0.3,1.4-0.7,2.9-0.7,4.4c-0.1,3.2,0.1,6.4,0.2,9.6
		c0,0.5-0.1,1-0.2,1.4c-0.6,2.6-1.2,5.2-1.9,7.9c-0.1,0.4-0.4,0.7-0.6,1.1c-0.2,0.5-0.6,1.1-0.5,1.5c1,2.5-0.7,4.7-0.7,7.1
		c0.1,2.3-0.7,4.8-1.7,6.8C279.3,231.5,279.3,233.5,277.7,234.5z M297.3,176.2c0,0.5,0,1,0,1.5c-9.8-14.2-15.6-29.4-12.7-47
		c1.7,1.3,3.1,3,4.1,5c1.7,3.5,3.8,7,5.3,10.6c1.8,4.5,3.8,8.9,3.5,14.1C297,165.7,297.3,171,297.3,176.2z M291.4,301.8
		c-1.3,1.1-3.3,0.9-4.2-0.4c-0.2-0.3-0.4-0.7-0.7-1.2c-0.4,0.5-0.7,0.8-1,1.2c-1.5,1.6-4.2,1.6-5.5-0.1c-2.6-3.2-0.8-7.4,3.7-9
		c2.8-1,3.5-2.1,2.4-4.2c-0.8-1.7-2.6-2-4.4-0.9c-0.4,0.4-0.8,0.8-1.3,1.2c-0.7-2.1,0.6-3.6,3.4-4.3c2.3-0.6,4.7,0.2,5.5,2.1
		c0.5,1.1,0.8,2.4,0.8,3.5c0.1,3,0,6,0,9c0,0.8-0.2,1.8,1.3,2.2C291.5,300.9,291.6,301.6,291.4,301.8z M298,302c-1.3,0-2.5,0-3.8,0
		c0-9.2,0-18.3,0-27.5c1.3,0,2.5,0,3.8,0C298,283.7,298,292.8,298,302z"/>
	<path d="M100.9,211.8c0,0,0.1-0.1,0.1-0.1c0,0,0,0,0,0C101,211.7,101,211.7,100.9,211.8z"/>
	<path d="M112.9,194c0.2-0.2,0.4-0.5,0.6-0.7c-2.1,2.5-4.3,4.9-6.8,7.1C109,198.4,111.1,196.4,112.9,194z"/>
	<path d="M98.7,203.9c-1.4-2.2-2.8-4.5-4.1-6.7c-1.3-2.2-2.5-4.4-3.8-6.5c-0.6-0.9-1.3-1.7-1.8-2.7c-0.2-0.4,0-0.9,0-1.4
		c0.4,0.2,0.9,0.3,1.1,0.6c1.3,1.9,2.5,3.9,3.8,5.7c2.4,3.4,4.9,6.7,7.3,10.1c0.4,0.7,0.8,0.6,1.3,0.4c-1.8-2.5-3.5-5-5.3-7.5
		c-2.1-3-4.2-6.1-6.4-9.1c-0.3-0.4-1.4-0.7-1.8-0.4c-0.4,0.2-0.7,1.4-0.5,1.8c1.1,2,2.4,3.9,3.6,5.9c2.3,3.7,4.6,7.4,6.8,11
		c-2.4,1.3-4.8,2.6-7.2,3.9c2.2-1.1,4.4-2.2,6.6-3.3C99,205.2,99.3,204.8,98.7,203.9z"/>
	<path d="M106.7,200.3c-1.3,1-2.6,2-4,3c0.1,0,0.1-0.1,0.2-0.1C104.2,202.3,105.5,201.4,106.7,200.3z"/>
	<path d="M102.7,203.3c0,0-0.1,0.1-0.1,0.1c0,0,0,0,0,0C102.6,203.4,102.6,203.3,102.7,203.3z"/>
	<path d="M120.7,182.6c-1.2,2.1-2.3,4.1-3.6,6C118.5,186.7,119.7,184.7,120.7,182.6z"/>
	<path d="M86.8,211.5c-1.3,0.7-2.7,1.4-4,2.1c-2.2,1.2-4.4,2.5-6.7,3.8c5.2-2.8,10.3-5.5,15.5-8.4C90.1,209.9,88.4,210.7,86.8,211.5
		z"/>
	<path d="M63.2,155.1c-1.5,2.9-3.3,5.7-4.2,8.7c0,0,0,0,0,0c0.2-0.6,0.4-1.2,0.7-1.8c1.8-4.1,4.3-7.8,6.4-11.7
		c2.3-4.2,4.4-8.5,6.7-12.7c0.3-0.6,0.4-1.1,0.3-1.6c-0.6,1.6-1.3,3.3-2.1,4.8C68.5,145.6,65.8,150.3,63.2,155.1z"/>
	<path d="M117.1,188.6c-1.2,1.6-2.4,3.1-3.6,4.7c0.9-1.1,1.8-2.3,2.7-3.5C116.5,189.4,116.8,189,117.1,188.6z"/>
</g>
<path d="M187.5,184.9c-0.7,3.4-1.5,7-2.3,10.7c-0.1,0.3-0.2,0.6-0.3,1c-0.8,2.2-1.5,4.5-2.3,6.7c-0.4,1.1-0.9,2.2-1.2,3.4
	c-0.6,2.2-1.2,4.4-1.8,6.7c-0.8,3.2-2,6.1-5.1,8c-1.5,0.9-2.9,1.9-4.6,2.4c-4.1,1.2-7.8,0.9-11.1-2c-1.3-1.1-3.1-1.9-4.3-3.1
	c-1.5-1.5-2.8-3.3-3.8-5.2c-1.3-2.4-1.5-5.2-1.4-8c0-1-1.1-2,0.1-3c1.3-1.1,0.7-2.2,0.1-3.4c-0.7-1.3-1.2-2.5,0.2-3.7
	c0.1-0.1,0-0.4,0-0.7s-0.1-0.8,0-0.8c1.6-0.7,2.6-2.6,4.6-2.7c0.6,0,1.2-0.4,1.7-0.8c1.1-1,1.9-1.9,1.7-3.8
	c-0.1-1.5,0.7-3.3,1.4-4.8c1-2,2.2-3.9,3.4-5.8c0.3-0.5,0.8-0.8,1.2-1.2c0.2-0.2,0.6-0.4,0.7-0.7c1.1-3.3,3.9-4.5,6.9-5.3
	c3.9-1,8.6,1.4,11.3,4.6c2.6,3,3.3,6.5,4.6,9.9C187.3,183.9,187.3,184.3,187.5,184.9z M177.1,184.8c-0.7,0.3-1.4,0.7-2.2,1
	c-0.4,0.1-0.8,0.1-1.1,0.2c-0.3,0.1-0.5,0.5-0.7,0.7c0.3,0.1,0.6,0.2,0.8,0.2c1,0,2.1,0,3.1-0.1c1.6-0.2,2.6,0.2,2.8,2
	c0,0,0.1,0.1,0.2,0.1C180.5,187.2,179.2,185.2,177.1,184.8z M176.7,193.9c-1.8-0.7-3.4-1.1-4.7-1.9c-1.4-0.9-2.4-2.2-3.4-3.1
	C168.9,191.6,172.6,194.1,176.7,193.9z"/>
<path d="M234,159.9c1.5,0.5,3.4,0.2,4.5,2.1c0.4,0.6,1.6,0.9,2.4,1.7c1.9,1.9,2.9,4.3,4,6.6c0.3,0.7,0.8,1.3,1.1,2
	c0.5,1.1,1,2.2,1.5,3.2c0.4,0.7,0.7,1.6,1.3,2c1.8,1.3,3.8,2.5,5.7,3.7c0.9,0.6,1.9,1.1,2.9,1.6c0.6,0.3,1.1,0.6,0.7,1.6
	c-0.3,0.7,0.3,1.7,0.2,2.5c-0.1,1.2,0.7,1.4,1.4,1.7c1.3,0.4,1,1.5,0.8,2.3c-0.2,0.7-0.3,1.2,0.5,1.6c0.2,0.1,0.4,0.7,0.3,1
	c-0.4,2-0.9,4-1.4,6.1c-0.1,0.3,0,0.7-0.2,0.8c-1.3,0.9-1.5,2.3-2.1,3.5c-1.1,2-2.4,3.8-3.8,5.6c-0.9,1.1-2,2.2-3.2,2.7
	c-1,0.4-2.3-0.3-3.5-0.6c-0.4-0.1-0.8-0.5-1-0.8c-1.3-2.8-2.9-5.5-3.8-8.5c-0.5-1.5-1.4-2.7-1.9-4c-1.2-3.4-3.5-6-5.8-8.7
	c-1-1.1-2.1-2.1-3.3-3c-1.3-1-1.5-2.5-1.9-4c-0.2-0.8-0.3-1.7-0.5-2.6c-0.4-2,0-3.9,0.1-5.9c0.1-1.3-0.5-2.7-0.7-4.1
	c-0.1-0.4-0.2-0.7-0.2-1.1c0-0.8,0.4-1.7-0.7-2.1c-0.1-0.1-0.3-0.6-0.2-0.8c1.2-2.9,3.1-5.2,6.2-6.2
	C233.6,159.9,233.8,159.9,234,159.9z M240.8,179.9c0.1,3.3-1.7,5.4-4.9,6.7C239.3,186.6,241.8,183.1,240.8,179.9z M237.3,178.4
	c0.1-1.3-0.1-1.7-1.3-1.9c-0.4-0.1-0.8,0.3-1.1,0.4C235.8,177.5,236.6,177.9,237.3,178.4z"/>
<path d="M57.4,279c0,3.5,0,6.9,0,10.3c1.8,0,2.8-0.4,3.4-1.7c1.2-2.4,1.1-4.8,0.1-7.2C60.4,279.1,59.4,278.8,57.4,279z"/>
<path d="M71.6,293.1c-2.1,1-3.3,2.6-3.2,4.4c0,0.6,0.3,1.2,0.7,1.8c0.2,0.4,0.7,0.8,1.1,0.8c0.5,0,1.1-0.3,1.4-0.6
	c0.4-0.4,0.7-1,0.7-1.6c0-1.7,0-3.3,0-5C72,293,71.8,293.1,71.6,293.1z"/>
<path d="M257.1,287.7c-0.2-0.9-0.5-2-2.1-2c-0.6,0-1,0.2-1.3,0.4c-0.4,0.4-0.6,1-0.7,1.5c-0.5,2-0.7,4-1,6c0.3,1.9,0.5,3.8,1,5.6
	c0.2,0.9,0.6,1.9,2.1,1.9c0.5,0,0.9-0.1,1.2-0.4c0.4-0.4,0.5-0.9,0.6-1.3C258,295.5,258,291.6,257.1,287.7z"/>
<path d="M282.8,297.3c0,0.5,0.1,1.1,0.2,1.7c0.1,0.5,0.9,0.9,1.4,1.3c0.6-0.4,1.5-0.8,1.6-1.2c0.4-2.1,0.5-4.1,0.7-6.2
	C283.8,293.8,282.7,295.1,282.8,297.3z"/>
<path d="M113.8,295.7c-0.2,0.8-0.2,1.8,0,3c0.1,0.5,0.8,1.3,1.4,1.4c0.5,0.1,1,0,1.3-0.3c0.2-0.3,0.4-0.6,0.4-0.9
	c0.3-2,0.4-4,0.6-6.1C115.3,293.5,114.2,294.4,113.8,295.7z"/>
<path d="M220.5,297.5c0,0.6,0.2,1.3,0.6,1.9c0.2,0.3,0.8,0.8,1.2,0.8c0.1,0,0.3,0,0.4-0.1c0,0,0,0,0,0c0.4-0.1,0.8-0.4,1-0.6
	c0.3-0.4,0.6-0.9,0.6-1.3c0-1.7,0-3.5,0-5.3C221.9,293.8,220.5,295.6,220.5,297.5z"/>
<path d="M183.1,285.6c-0.4,0-1.1,0.4-1.3,0.7c-1,1.7-1,3.5-1,5.3c1.5,0,2.8,0,4.6,0c-0.4-1.8-0.7-3.5-1.1-5.2
	C184.2,286.1,183.5,285.6,183.1,285.6z"/>
<path d="M103.3,289.7c-0.2-0.9-0.5-1.8-1-2.6c-0.6-0.9-1.6-0.9-2.4-0.1c-0.2,0.2-0.4,0.5-0.5,0.8c-1.2,3.7-1.3,7.4-0.1,11.1
	c0.1,0.6,1,1,1.6,1.5c0.6-0.5,1.2-0.9,1.7-1.3c0.3-0.3,0.4-0.7,0.4-1c0.3-1.7,0.5-3.3,0.7-4.6c0-0.4-0.1-0.8-0.1-1.2
	C103.6,291.3,103.5,290.5,103.3,289.7z"/>
</svg>
