<?xml version="1.0" encoding="utf-8"?>
<!-- Generator: Adobe Illustrator 19.2.0, SVG Export Plug-In . SVG Version: 6.00 Build 0)  -->
<svg version="1.1" xmlns="http://www.w3.org/2000/svg" xmlns:xlink="http://www.w3.org/1999/xlink" x="0px" y="0px"
	 viewBox="0 0 1615.8 2182.7" style="enable-background:new 0 0 1615.8 2182.7;" xml:space="preserve">
<style type="text/css">
	.st0{fill:#FFFFFF;}
	.st1{fill:#70355C;}
	.st2{fill:#84C5B2;}
	.st3{fill:#2C7D53;}
	.st4{fill:#D4BDA7;}
	.st5{fill:#54988E;}
	.st6{fill:#0D473C;}
	.st7{fill:#70C7E0;}
	.st8{fill:#CBC7B5;}
	.st9{fill:#77A869;}
	.st10{opacity:0.5;}
	.st11{fill:#020202;}
	.st12{fill:#F8E31B;}
	.st13{fill:#3B3F3C;}
	.st14{fill:#F3F3F3;}
	.st15{fill:#DDDDDC;}
	.st16{fill:#CDCBCB;}
	.st17{fill:#D2D3D3;}
	.st18{fill:#F1F1F2;}
	.st19{fill:#202521;}
	.st20{fill:#0C0D0D;}
	.st21{fill:#C55E30;}
	.st22{fill:#BE9489;}
	.st23{fill:#DA6931;}
	.st24{fill:none;}
	.st25{fill:#D38E71;}
	.st26{fill:#E57D41;}
	.st27{fill:#D3A687;}
	.st28{fill:#D8AA8A;}
	.st29{opacity:0.12;}
	.st30{fill:#BBC8B8;}
	.st31{fill:#BBBCC0;}
	.st32{fill:#E7E5E5;}
	.st33{opacity:0.1;}
	.st34{fill:#AFD296;}
	.st35{opacity:0.4;}
	.st36{fill:#2E2D2E;}
	.st37{fill:#343434;}
	.st38{opacity:7.000000e-02;}
	.st39{fill:#919292;}
	.st40{fill:#7C8386;}
	.st41{fill:#99A3A8;}
	.st42{fill:#999FA2;}
	.st43{fill:#818282;}
	.st44{opacity:0.7;}
	.st45{fill:#010101;}
	.st46{fill:#A77859;}
	.st47{fill:#C18963;}
	.st48{opacity:0.15;}
	.st49{fill:#000100;}
	.st50{opacity:0.12;fill:#000100;enable-background:new    ;}
	.st51{fill:#C5A192;}
	.st52{fill:#D5AC9F;}
	.st53{fill:#D8DEDC;}
	.st54{fill:#BE9F8E;}
	.st55{fill:none;stroke:#1D1E1C;stroke-width:0.5;stroke-miterlimit:10;}
	.st56{fill:#DCB8A3;}
	.st57{fill:#AB9181;}
	.st58{fill:#C0A194;}
	.st59{fill:#1D1E1C;}
	.st60{fill:#E0DEE0;}
	.st61{fill:#2F303A;}
	.st62{fill:#E5556B;}
	.st63{fill:#AE8B4D;}
	.st64{fill:#AFAFAF;}
	.st65{fill:#909090;}
	.st66{fill:#6E6E6E;}
	.st67{fill:#020303;}
	.st68{fill:#785D30;}
	.st69{fill:#B9984A;}
	.st70{fill:#DDAC43;}
	.st71{opacity:0.5;fill:#C5A14E;enable-background:new    ;}
	.st72{fill:#92763D;}
	.st73{fill:#CC853F;}
	.st74{fill:#544E31;}
	.st75{fill:#49473D;}
	.st76{fill:#B69948;}
	.st77{fill:#2B2B29;}
	.st78{opacity:0.2;}
	.st79{fill:#A3AF94;}
	.st80{opacity:0.49;}
	.st81{opacity:8.000000e-02;fill:#ABC5A5;}
	.st82{fill:#87CC62;}
	.st83{display:none;}
</style>
<g id="Paper_BG">
	<g>
		<g>
			<rect x="0" y="0" class="st0" width="1615.8" height="2182.7"/>
		</g>
	</g>
</g>
<g id="Print_BG">
	<g>
		<g>
			<rect x="129" y="134.1" class="st7" width="1360.1" height="1919.4"/>
		</g>
	</g>
</g>
<g id="Animals">
	<g>
		<path class="st0" d="M603.3,1735.4h18.6c10.3,0,14.9,7.4,14.9,14.8c0,7.5-4.6,14.8-14.9,14.8H613v15.6h-9.6L603.3,1735.4
			L603.3,1735.4z M612.9,1743.9v12.7h8.5c3.7,0,5.7-3.4,5.7-6.4c0-2.8-1.8-6.4-5.4-6.4h-8.8V1743.9z"/>
		<path class="st0" d="M666.4,1734.9c12.9,0,23,10.4,23,23.2c0,12.7-10.1,23.2-23,23.2c-12.8,0-22.9-10.4-22.9-23.2
			S653.6,1734.9,666.4,1734.9z M666.4,1771.8c7.5,0,13.4-6.1,13.4-13.6s-5.9-13.7-13.4-13.7s-13.3,6.2-13.3,13.7
			S658.9,1771.8,666.4,1771.8z"/>
		<path class="st0" d="M699.6,1735.4h9.6v36.7h16.9v8.5h-26.6v-45.2H699.6z"/>
		<path class="st0" d="M746.2,1769.9l-4,10.7H732l16.8-45.2h10.4l16.7,45.2h-10.1l-4-10.7H746.2z M758.7,1761.6l-4.8-15.7l-4.6,15.7
			H758.7z"/>
		<path class="st0" d="M816.8,1780.6h-11.5l-10.1-15.6H793v15.6h-9.6v-45.2h18.5c10.2,0,15,7.4,15,14.8c0,6.4-3.5,12.7-11.3,14.4
			L816.8,1780.6z M792.9,1743.9v12.7h8.1c3.7,0,5.7-3.4,5.7-6.4c0-2.8-1.8-6.4-5.4-6.4h-8.4V1743.9z"/>
		<path class="st0" d="M873,1756.5c6,1.5,8.5,6.6,8.5,10.3c0,7.5-5.4,13.8-14.4,13.8h-19.4v-45.2h18.1c8.1,0,13.4,4.9,13.4,12.6
			C879.2,1751,877.6,1754.7,873,1756.5z M864.9,1753.3c2.5,0,4.2-2,4.2-4.7c0-2.8-1.4-4.7-4.3-4.7h-7.5v9.4H864.9L864.9,1753.3z
			 M857.3,1761.2v11h9.3c3.2,0,4.9-2.9,4.9-5.6c0-2.6-1.6-5.4-5.1-5.4H857.3z"/>
		<path class="st0" d="M892,1735.4h28.6v8.5h-19v10.3h16.7v8.3h-16.7v9.6h19.6v8.5H892V1735.4L892,1735.4z"/>
		<path class="st0" d="M941.9,1769.9l-4,10.7h-10.2l16.8-45.2h10.4l16.7,45.2h-10.1l-4-10.7H941.9z M954.4,1761.6l-4.8-15.7
			l-4.6,15.7H954.4z"/>
		<path class="st0" d="M1012.5,1780.6H1001l-10.1-15.6h-2.2v15.6h-9.6v-45.2h18.4c10.2,0,15,7.4,15,14.8c0,6.4-3.5,12.7-11.3,14.4
			L1012.5,1780.6z M988.7,1743.9v12.7h8.1c3.7,0,5.7-3.4,5.7-6.4c0-2.8-1.8-6.4-5.4-6.4h-8.4V1743.9z"/>
	</g>
	<g class="st10">
		<path class="st11" d="M698.3,1845c-2.6,8.3-6.6,13.2-13.6,13.2c-6,0-10.5-2.7-10.5-8.2c0-1.9,0.7-4.7,0.9-5.6l3.8-12.6
			c0.7-2,0.2-2.8-1.3-2.8H676c-0.2,0-0.4-0.1-0.3-0.4l0.2-0.9c0-0.3,0.1-0.4,0.6-0.4s2.1,0.1,5.4,0.1c3.6,0,5.2-0.1,5.6-0.1
			c0.4,0,0.5,0.1,0.4,0.5l-0.2,0.9c0,0.2-0.2,0.4-0.5,0.4h-1.4c-1.1,0-2.2,0.2-2.9,2.6l-3.7,12c-0.3,1-1.3,4.3-1.3,6.3
			c0,5.7,5.5,6.3,7.1,6.3c2,0,4.4-0.9,5.8-2.2c2.1-1.8,3.5-4.3,5-9.3l4-13c0.7-2.2-0.3-2.7-1.7-2.7h-1.7c-0.4,0-0.5-0.1-0.4-0.4
			l0.1-0.9c0.1-0.3,0.2-0.5,0.6-0.5c0.5,0,2.2,0.1,5.5,0.1c2.6,0,3.6-0.1,4.1-0.1c0.4,0,0.5,0.1,0.4,0.5l-0.1,0.9
			c0,0.2-0.1,0.4-0.5,0.4h-0.9c-1.4,0-2.1,0.9-2.6,2.1L698.3,1845z"/>
		<path class="st11" d="M703.5,1857.6c-0.3,0-0.5-0.2-0.4-0.4l2.5-7.3c0.8-2.5,2.2-7.2,2.2-7.9c0-0.4-0.4-0.7-0.8-0.7
			c-0.9,0-2.9,2-3.6,2.8c-0.1,0.1-0.3,0.1-0.4,0l-0.4-0.5c-0.1-0.1-0.1-0.2,0-0.4c0.9-1.4,3.6-4.5,6.7-4.5c0.9,0,1.3,0.8,1.3,1.6
			c0,0.9-0.7,3.4-1.6,6.4l0.2,0.1c1.2-2.5,4.8-8.1,7.3-8.1c1.3,0,2.1,0.8,2.1,2c0,1.2-0.9,2.1-1.8,2.1c-0.4,0-0.8-0.1-1.1-0.5
			c-0.4-0.4-0.6-0.5-1.2-0.5c-1.2,0-3.7,3.9-5.5,6.8c-0.5,0.9-1.1,1.9-1.8,3.9l-1.5,4.5c-0.1,0.3-0.2,0.3-0.6,0.3h-1.6V1857.6z"/>
		<path class="st11" d="M716.5,1855.5c0-0.6,0.6-1.5,1.5-1.5c1,0,1.6,0.7,1.8,1.4c0.3,0.8,0.5,1.3,1.6,1.3c1.3,0,2.5-1.2,2.5-2.7
			c0-1.9-1.4-3.8-1.9-5.2c-0.3-0.8-1.3-2.3-1.3-4.4c0-2.6,2.5-5.5,5.7-5.5c1.4,0,3.2,0.5,3.2,2.3c0,0.8-0.7,1.4-1.4,1.4
			c-0.5,0-1.2-0.3-1.5-1.1c-0.2-0.5-0.3-1.3-1.2-1.3c-0.9,0-2.2,1.2-2.2,2.8c0,1.7,1.3,3.6,1.6,4.2c0.3,0.5,1.7,2.7,1.7,5.1
			c0,3.5-2.8,5.6-5.9,5.6C718.1,1858,716.5,1857,716.5,1855.5z"/>
		<path class="st11" d="M749.9,1839.3c0.4,0,0.5,0.1,0.4,0.4l-3.5,9.4c-1.3,3.5-1.9,5.6-1.9,5.8c0,0.4,0,0.4,0.4,0.5
			c0.7,0,3.1-2.2,3.5-2.8c0.1-0.1,0.3-0.2,0.4,0l0.4,0.5c0.1,0.1,0.1,0.2,0,0.4c-0.1,0.2-4.3,4.5-7.4,4.5c-0.6,0-0.9-0.5-0.9-1
			s2.3-6.2,2.9-7.7l-0.3-0.1c-1.9,2.7-6.7,8.9-11.1,8.9c-0.9,0-1.6-0.8-1.7-1.8c0-1.4,1.4-4.2,3.2-8.4c1.2-2.8,2.2-4.9,2.2-5.7
			c0-0.4-0.3-0.6-0.7-0.6c-0.8,0-3.1,2-3.5,2.6c-0.1,0.1-0.3,0.1-0.4,0l-0.4-0.4c-0.1-0.1-0.1-0.2,0-0.4c0.3-0.4,4-4.3,6.9-4.3
			c0.9,0,1.3,0.9,1.3,1.6c0,1.1-1.1,3.8-2.9,7.8c-1.2,2.7-2.4,5.5-2.4,6.5c0,0.5,0.3,0.8,0.8,0.8c2.4,0,7.2-5.9,8.5-7.8
			c0.9-1.3,1.6-2.5,2.1-3.8l1.6-4.3c0.1-0.3,0.3-0.3,0.6-0.3h1.9V1839.3z"/>
		<path class="st11" d="M751.1,1855.5c0-0.6,0.6-1.5,1.5-1.5c1,0,1.6,0.7,1.8,1.4c0.3,0.8,0.5,1.3,1.6,1.3c1.3,0,2.5-1.2,2.5-2.7
			c0-1.9-1.4-3.8-1.9-5.2c-0.3-0.8-1.3-2.3-1.3-4.4c0-2.6,2.5-5.5,5.7-5.5c1.4,0,3.2,0.5,3.2,2.3c0,0.8-0.7,1.4-1.4,1.4
			c-0.5,0-1.2-0.3-1.5-1.1c-0.2-0.5-0.3-1.3-1.2-1.3c-0.9,0-2.2,1.2-2.2,2.8c0,1.7,1.3,3.6,1.6,4.2c0.3,0.5,1.7,2.7,1.7,5.1
			c0,3.5-2.8,5.6-5.9,5.6C752.7,1858,751.1,1857,751.1,1855.5z"/>
		<path class="st11" d="M776.9,1857.6c-0.2,0-0.4-0.1-0.3-0.5l3.4-8.1c1.2-2.8,2.5-5.9,2.6-6.8c0-0.4-0.1-0.7-0.5-0.7
			c-0.6,0-3.4,2.7-3.8,3.2c-0.1,0.2-0.4,0.1-0.5,0l-0.4-0.4c-0.1-0.1-0.2-0.3,0-0.4c1-1.2,4.5-5,7.4-5c0.6,0,1.1,0.5,1.1,1.3
			c0,1.1-2.7,7-3.2,8.2h0.2c2.1-3.2,6.7-9.5,10.5-9.5c1.5,0,2,1.1,2,1.9c0,1.7-1.8,6-2.6,7.8h0.2c2.5-3.8,6.5-9.8,10.3-9.8
			c1.4,0,2.2,1.2,2.2,2.2c0,1.5-0.9,3.4-2.7,8c-1,2.6-1.9,4.5-1.9,5.3c0,0.3,0.1,0.6,0.5,0.6c0.8,0,3.3-2.9,3.6-3.2
			c0.1-0.2,0.4-0.2,0.5,0l0.4,0.4c0.1,0.1,0.2,0.3,0.1,0.5c-0.1,0.3-4.9,5.5-7.8,5.5c-0.5,0-0.8-0.4-0.8-1.1c0-1.1,1.3-4.1,3.1-8.5
			c1.3-3.2,2.2-5.1,2.2-6.4c0-0.5-0.4-0.9-0.9-0.9c-1.5,0-5.9,5-8.7,9c-0.3,0.5-1.3,1.6-1.8,3.2l-1.5,4c-0.1,0.2-0.3,0.3-0.6,0.3
			h-1.8c-0.4,0-0.5-0.1-0.4-0.4l3.1-7.5c1.3-3.1,2.6-6.3,2.6-7.6c0-0.6-0.4-0.9-0.9-0.9c-1.5,0-5.8,4.6-8.4,8.2
			c-0.7,0.9-1.6,2.2-2.2,3.8l-1.6,4c-0.2,0.3-0.3,0.3-0.7,0.3H776.9z"/>
		<path class="st11" d="M827.2,1838.8c0.2,0,0.2,0.2,0.1,0.4c-0.9,1.8-3.1,8.1-3.4,8.8c-0.3,0.8-2.2,6.3-2.2,6.8s0.2,0.5,0.5,0.5
			c0.5,0,2.8-2.3,3.1-2.7c0.1-0.1,0.3-0.2,0.4-0.1l0.4,0.5c0.1,0.1,0.2,0.2,0.1,0.4c-0.5,0.9-4.4,4.7-7,4.7c-0.5,0-0.9-0.2-0.9-0.8
			c0-0.7,0.5-2.1,2.2-6.8l-0.2-0.1c-1.9,2.9-6.4,7.7-9.6,7.7c-1,0-2.4-0.9-2.4-2.9c0-6.6,7.4-16.3,12.9-16.3c1.9,0,2.7,0.8,3.2,1.5
			l0.9-1.2c0.1-0.2,0.3-0.3,0.5-0.3h1.4V1838.8z M821.6,1846.7c0.6-1.3,1.1-2.4,1.1-3.7c0-1.2-0.4-2.7-2.1-2.7c-4.1,0-9,9.5-9,13.8
			c0,1,0.4,1.6,1.2,1.6C815,1855.6,820.8,1848.3,821.6,1846.7z"/>
		<path class="st11" d="M829.9,1857.6c-0.3,0-0.5-0.2-0.4-0.4l2.5-7.3c0.8-2.5,2.2-7.2,2.2-7.9c0-0.4-0.4-0.7-0.8-0.7
			c-0.9,0-2.9,2-3.6,2.8c-0.1,0.1-0.3,0.1-0.4,0l-0.4-0.5c-0.1-0.1-0.1-0.2,0-0.4c0.9-1.4,3.6-4.5,6.7-4.5c0.9,0,1.3,0.8,1.3,1.6
			c0,0.9-0.7,3.4-1.6,6.4l0.2,0.1c1.2-2.5,4.8-8.1,7.3-8.1c1.3,0,2.1,0.8,2.1,2c0,1.2-0.9,2.1-1.8,2.1c-0.4,0-0.8-0.1-1.1-0.5
			c-0.4-0.4-0.6-0.5-1.2-0.5c-1.2,0-3.7,3.9-5.5,6.8c-0.5,0.9-1.1,1.9-1.8,3.9l-1.5,4.5c-0.1,0.3-0.2,0.3-0.6,0.3h-1.6V1857.6z"/>
		<path class="st11" d="M846.2,1856.9c0-1,0.8-3.1,2.7-8.1l1.3-3.5c0.5-1.2,0.8-2.1,0.8-2.7c0-0.4-0.3-0.6-0.6-0.6
			c-0.8,0-2.9,2.4-3.6,3.1c-0.2,0.2-0.4,0.2-0.5,0l-0.4-0.4c-0.2-0.1-0.3-0.2-0.1-0.4c0.2-0.3,4.8-5.7,7.6-5.5
			c0.5,0,1.1,0.4,1.1,1.1c0,0.8-0.7,2.8-1.5,5l-2.6,6.8c-0.6,1.7-0.8,2.7-0.8,3c0,0.4,0.1,0.7,0.5,0.8c0.9-0.2,3.4-2.7,3.6-3.1
			c0.1-0.1,0.3-0.1,0.5,0.1l0.4,0.3c0.2,0.2,0.2,0.3,0.1,0.5c-0.3,0.4-3.9,4.7-7.6,4.7C846.5,1858,846.2,1857.6,846.2,1856.9z
			 M851.9,1830.6c0-1.2,0.9-2.2,2.3-2.2c1.6,0,2.4,1.1,2.4,2.2c0,0.7-0.5,2.2-2.4,2.2C852.2,1832.8,851.9,1831.1,851.9,1830.6z"/>
		<path class="st11" d="M862.8,1841.7h-3.1c-0.3,0-0.4-0.1-0.3-0.4l0.4-1c0.1-0.2,0.2-0.3,0.5-0.3h3.2l2.3-5.2
			c0.2-0.5,0.4-0.5,0.7-0.7c0.5-0.1,1.7-0.6,2-0.8c0.3-0.1,0.5-0.3,0.7-0.3c0.3,0,0.4,0.3,0,0.9l-3,6h4.6c0.2,0,0.3,0.1,0.2,0.5
			l-0.4,0.9c0,0.1-0.2,0.2-0.4,0.2h-4.6l-4.4,10.1c-0.5,1.3-1,2.4-1,2.9s0.2,0.8,0.6,0.8c1.3,0,4.2-2.6,4.5-2.9
			c0.1-0.2,0.3-0.1,0.4,0l0.5,0.5c0.1,0.1,0.1,0.2,0,0.4c-0.6,0.7-4.8,4.5-8.2,4.5c-1.1,0-1.4-0.5-1.4-1.1c0-0.7,0.2-1.4,0.5-2.1
			L862.8,1841.7z"/>
		<path class="st11" d="M871.8,1856.9c0-1,0.8-3.1,2.7-8.1l1.3-3.5c0.5-1.2,0.8-2.1,0.8-2.7c0-0.4-0.3-0.6-0.6-0.6
			c-0.8,0-2.9,2.4-3.6,3.1c-0.2,0.2-0.4,0.2-0.5,0l-0.4-0.4c-0.2-0.1-0.3-0.2-0.1-0.4c0.2-0.3,4.8-5.7,7.6-5.5
			c0.5,0,1.1,0.4,1.1,1.1c0,0.8-0.7,2.8-1.5,5l-2.6,6.8c-0.6,1.7-0.8,2.7-0.8,3c0,0.4,0.1,0.7,0.5,0.8c0.9-0.2,3.4-2.7,3.6-3.1
			c0.1-0.1,0.3-0.1,0.5,0.1l0.4,0.3c0.2,0.2,0.2,0.3,0.1,0.5c-0.3,0.4-3.9,4.7-7.6,4.7C872.1,1858,871.8,1857.6,871.8,1856.9z
			 M877.4,1830.6c0-1.2,0.9-2.2,2.3-2.2c1.6,0,2.4,1.1,2.4,2.2c0,0.7-0.5,2.2-2.4,2.2C877.8,1832.8,877.4,1831.1,877.4,1830.6z"/>
		<path class="st11" d="M883.1,1857.6c-0.2,0-0.4-0.1-0.3-0.5l3.4-8.1c1.2-2.8,2.5-5.9,2.6-6.8c0-0.4-0.1-0.7-0.5-0.7
			c-0.6,0-3.4,2.7-3.8,3.2c-0.1,0.2-0.4,0.1-0.5,0l-0.4-0.4c-0.1-0.1-0.2-0.3,0-0.4c1-1.2,4.5-5,7.4-5c0.6,0,1.1,0.5,1.1,1.3
			c0,1.1-2.7,7-3.2,8.2h0.2c2.1-3.2,6.7-9.5,10.5-9.5c1.5,0,2,1.1,2,1.9c0,1.7-1.8,6-2.6,7.8h0.2c2.5-3.8,6.5-9.8,10.3-9.8
			c1.4,0,2.2,1.2,2.2,2.2c0,1.5-0.9,3.4-2.7,8c-1,2.6-1.9,4.5-1.9,5.3c0,0.3,0.1,0.6,0.5,0.6c0.8,0,3.3-2.9,3.6-3.2
			c0.1-0.2,0.4-0.2,0.5,0l0.4,0.4c0.1,0.1,0.2,0.3,0.1,0.5c-0.1,0.3-4.9,5.5-7.8,5.5c-0.5,0-0.8-0.4-0.8-1.1c0-1.1,1.3-4.1,3.1-8.5
			c1.3-3.2,2.2-5.1,2.2-6.4c0-0.5-0.4-0.9-0.9-0.9c-1.5,0-5.9,5-8.7,9c-0.3,0.5-1.3,1.6-1.8,3.2l-1.5,4c-0.1,0.2-0.3,0.3-0.6,0.3
			h-1.8c-0.4,0-0.5-0.1-0.4-0.4l3.1-7.5c1.3-3.1,2.6-6.3,2.6-7.6c0-0.6-0.4-0.9-0.9-0.9c-1.5,0-5.8,4.6-8.4,8.2
			c-0.7,0.9-1.6,2.2-2.2,3.8l-1.6,4c-0.2,0.3-0.3,0.3-0.7,0.3H883.1z"/>
		<path class="st11" d="M933.9,1839.3c0.4,0,0.5,0.1,0.4,0.4l-3.5,9.4c-1.3,3.5-1.9,5.6-1.9,5.8c0,0.4,0,0.4,0.4,0.5
			c0.7,0,3.1-2.2,3.5-2.8c0.1-0.1,0.3-0.2,0.4,0l0.4,0.5c0.1,0.1,0.1,0.2,0,0.4c-0.1,0.2-4.3,4.5-7.4,4.5c-0.6,0-0.9-0.5-0.9-1
			s2.3-6.2,2.9-7.7l-0.3-0.1c-1.9,2.7-6.7,8.9-11.1,8.9c-0.9,0-1.6-0.8-1.7-1.8c0-1.4,1.4-4.2,3.2-8.4c1.2-2.8,2.2-4.9,2.2-5.7
			c0-0.4-0.3-0.6-0.7-0.6c-0.8,0-3.1,2-3.5,2.6c-0.1,0.1-0.3,0.1-0.4,0l-0.4-0.4c-0.1-0.1-0.1-0.2,0-0.4c0.3-0.4,4-4.3,6.9-4.3
			c0.9,0,1.3,0.9,1.3,1.6c0,1.1-1.1,3.8-2.9,7.8c-1.2,2.7-2.4,5.5-2.4,6.5c0,0.5,0.3,0.8,0.8,0.8c2.4,0,7.2-5.9,8.5-7.8
			c0.9-1.3,1.6-2.5,2.1-3.8l1.6-4.3c0.1-0.3,0.3-0.3,0.6-0.3h1.9V1839.3z"/>
		<path class="st11" d="M935.1,1855.5c0-0.6,0.6-1.5,1.5-1.5c1,0,1.6,0.7,1.8,1.4c0.3,0.8,0.5,1.3,1.6,1.3c1.3,0,2.5-1.2,2.5-2.7
			c0-1.9-1.4-3.8-1.9-5.2c-0.3-0.8-1.3-2.3-1.3-4.4c0-2.6,2.5-5.5,5.7-5.5c1.4,0,3.2,0.5,3.2,2.3c0,0.8-0.7,1.4-1.4,1.4
			c-0.5,0-1.2-0.3-1.5-1.1c-0.2-0.5-0.3-1.3-1.2-1.3c-0.9,0-2.2,1.2-2.2,2.8c0,1.7,1.3,3.6,1.6,4.2c0.3,0.5,1.7,2.7,1.7,5.1
			c0,3.5-2.8,5.6-5.9,5.6C936.7,1858,935.1,1857,935.1,1855.5z"/>
	</g>
	<g>
		<g>
			<g>
				<path class="st31" d="M594.6,948.4l-171.8,234.3l60.7,91.3l11.4-7.7l-6.5-39.5L616,1181l139.6-112.8v129.1h-30.4v13.7l74.1,33.4
					c22.2,0,40.1-18,40.1-40.1v-188.7L594.6,948.4z"/>
			</g>
			<g>
				<path class="st32" d="M849.2,1163.4l-16.4,17.9v-17.9h-0.2l-16.4,17.9v-17.9h-0.3l-16.4,17.9v-17.9h-0.2l-16.4,17.9v-17.9l0,0
					l-16.5,17.9v-17.9l0,0l-16.4,17.9v-17.9h-1l-16.4,17.9v-17.9h-1l-16.4,17.9v-17.9h-1l-16.4,17.9v-17.9h-1l-16.4,17.9v-17.9h-1
					l-16.4,17.9v-17.9h-1l-16.4,17.9v-17.9h-0.4l-29.8,88.1l36.4,16.6v13.7h-109l-91.5-253.5c-6.7-15-10.3-32.7-10.3-50.1
					c0-66.6,54-120.6,120.6-120.6h297.8c0,0,84.6-1,148.6,35.2l138.3,76.6v10.5l46.7,35.8v12.1l-24.5,13.6h-10.8l-8.2,10.8h-47.6
					l-16.1,17.5v-19l-17.4,19v-19l-17.4,19v-19l-17.4,19v-17.3l-25.1,26.2v-19l-17.4,19v-19l-17.4,19v-19l-24.1,27.3l57.8,160.1
					l43.2,21.2v13.7H941.7l-92.2-118.5H849.2L849.2,1163.4z"/>
			</g>
		</g>
		<g>
			<polygon class="st11" points="1192.9,1021.2 1192.9,1027.8 1179,1035.5 1179,1021.2 			"/>
		</g>
		<g>
			<ellipse class="st11" cx="1127.6" cy="977.1" rx="5.6" ry="5.6"/>
		</g>
	</g>
	<g class="st33">
		<path class="st34" d="M814.9,905.5c-2.2-3.5-1.8-5.5-0.2-8.4c0.2-0.3,0.3-0.6,0.5-1c-0.7-2.3-1.4-4.1-1-7.9c0.9-8-1.3-9.1-4.1-9.8
			c-2.8-0.7-6.7-0.3-7.6,4.8c-0.8,5.1-0.3,4.1,1.4,6.8c1.2,1.9-1.1,7.2-2,12.3c-0.8,5.1,5.7,6.8,6.9,8.8c1.2,1.9,5.5,7.7,6.7-3.3
			c0.1-0.5,0.1-0.9,0.1-1.3C815.5,906.3,815.2,905.9,814.9,905.5z"/>
		<path class="st34" d="M558.7,1020.8c-5.8-14.2-7.4-10.9-11.5-17.4c-4.1-6.6-8.2-9.8-6.5-14.4c1.7-4.7,8.3,0.9,7.4-5.3
			c-1-6.2,3.6-5.6,3.3-8.2c-0.3-2.6,1.1-6.4,5.9-0.7c4.8,5.7,6.2,28.6,13.6,37.7c7.4,9.1,8.7,17.8,18.2,35.3
			c9.5,17.4,1.9,26,15.6,44.4c9.5,11.1,3.2,21.1-6.6,22.3c-9.9,1.2-21.1-1.2-21-9c0.1-7.8,7.2-13.8,3.2-25.2
			c-3.9-11.4-11.2-32.7-14.7-40.4C561.8,1032.1,558.7,1020.8,558.7,1020.8z"/>
		<path class="st34" d="M457.6,1179.3c-4.8-5.4-1.9-9.9,3.9-12.5c5.8-2.6,17-11.8,26.8-22.4s24.9-20,30.7-35.2c0,0-3.8-1.9-1.7-5
			c2.1-3.2,2.4-3.3,8.6-0.4c6.2,2.9,2.8,6.2,8.8,7.4s7,5.4,3.4,10.4c-3.6,5-7.1,5.7-10,11.6c-3,5.9-5.9,4-15.3,8.5
			s-15.6,9.2-27.7,19.4c-12,10.3-18.3,15.8-19.1,18.6C465.3,1182.4,461.5,1183.6,457.6,1179.3z"/>
		<path class="st34" d="M531.1,1084.7c0,0-13.1,3.9-6.1,13.3c7.1,9.5-0.9,2.4,12.5,4.5c6,1.5,10.6,4.4,12.8-1.1s6.1-10.3,1-17.7
			c-5.2-7.4-14-33.2-19-43.8c-5-10.6-18.6-34.9-18.6-34.9s-5.1-3.3-8.6-3.1c-3.4,0.2-12.3-3-14.1-4.7c0,0,17.1,19.3,23.8,40.8
			C521.5,1059.6,526.4,1080.3,531.1,1084.7z"/>
		<path class="st34" d="M557,1101.6c0,0,2.8-0.4,4.4,2.2c1.6,2.6,2.7,9.1-4.2,11.4c-6.8,2.4-9,2.8-10.9,0.6
			c-1.9-2.2-1.3-4.9,1.6-6.9C550.9,1107,555,1101.3,557,1101.6z"/>
		<path class="st34" d="M443,1192.8c-3,0.7-3.7-1.1-4-5.3c-0.3-4.2-4.5-7.7-4.3-11.7c0.2-4,2.5-3.3,4.7-4c2.2-0.7,4-0.8,5.4,2.7
			c1.3,3.5,0,4.7,0,4.7s-0.7,2.9,0.9,5.7C447.5,1187.6,448.9,1191.5,443,1192.8z"/>
		<path class="st34" d="M611,1112.8c0.2-5.8,3.5-7.6,6.6-7.8c3-0.2,5.2,3.5,5,8.1c-0.1,4.7-4.2,11.5-6.1,11.4
			C614.6,1124.5,610.9,1119.5,611,1112.8z"/>
		<path class="st34" d="M527,914.3c-0.3-9.3,2.4-8.4,6.3-10.9c9.3-5.9,11.6-31.2,23.5-31.3c11.9-0.1,25.3,4.7,36.3,10.7
			s15.1,14.4,15.7,21.9c0.7,7.5-1.3,21.5-11.1,21.4c-9.9-0.2-27.9-6.6-33.3-8c-5.3-1.4-11.5-2.4-11,3.6s-2.9,11.2-7.5,7.4
			c-3.8-3.1-3.5-9.2-7.5-8.8c-4,0.4-0.6-2.8-1.2-4.7c-0.6-2-5.3-3-5.5-0.5C531.7,917.5,527.1,918,527,914.3z"/>
		<path class="st34" d="M596.9,1140.4c-2.1,11-4,7.3-5.9,22.7c-2,15.4-11.7,31.2-13.4,48.4c-1.6,17.2,0.1,28.3-2,31.9
			c-2.1,3.6-0.2,5.7,4,6.2c4.2,0.4,5.1-4,5.2-10.6c0.1-6.5-2.5-15.8-1-21.2c1.5-5.4,6.7-28,13.3-39.6c6.6-11.7,9.8-21.4,14.1-27.3
			c4.3-5.9,6.3-9.7,4.1-15.7c-2.2-6-5.3-15.3-7.6-9.2c-2.3,6-3.3,10.1-6.1,10.3C598.3,1136.5,597.5,1137.3,596.9,1140.4z"/>
		<path class="st34" d="M585.8,1119.4c-3.8,3.8-7.8,9.5-0.2,12.5c4.2,1.6,7.3-0.2,9.4-0.7c4.1-0.9,4-1.1,7.5-7
			c3.5-5.9,0.9-7.2-3.3-6C595,1119.5,587.5,1117.9,585.8,1119.4z"/>
		<path class="st34" d="M570.1,1246.8c-2.9,2.8-7.1,0.6-6.9-3.9c0.2-4.5,3.2-4.5,3.6-14.5s1.4-17.2,4.1-28.9
			c2.8-11.8,7.5-19.6,6.8-33.7c-0.7-14.1,5.6-30.3,5.6-30.3s3.7,0.8,8.2,0.8l-12.4,59.5C579.2,1195.8,571.7,1245.2,570.1,1246.8z"/>
		<path class="st34" d="M562.4,1263.2c-1.6-2.2-7.4,0.9-11.6,1.3c-4.2,0.4-4.5,2.8-3.8,4.7c0.7,1.9,1.7,3.1,8,3.5
			c6.2,0.5,12.3,0.7,13.7-0.4c1.5-1.1-1.8-4.6-3.4-4.8C565.2,1267.6,564.6,1266.2,562.4,1263.2z"/>
		<path class="st34" d="M562.2,1254.7c0,0,2.7,8.1,9.3,7.5c6.6-0.6,5.6-6.2,5.6-6.2s-4.2,0.4-8.2-1.8s-3,0.2-3,0.2L562.2,1254.7z"/>
		<path class="st34" d="M518.5,939.3c-5.9-2.8-13.9,1.8-22.1,1.2c-8.1-0.6-12.7,2.8-16.5,7.7c-3.8,4.9-2.7,15.6-1.5,25.2
			c1.2,9.6,16.6,12,20.8,9.5c3.7-2.3,5.1-6.4,7.3-10.9c2.2-4.4,5.4-9.3,11.7-9.8c6.3-0.5,8.4-4.5,7.7-10.3
			C525.2,946.2,524.5,942.1,518.5,939.3z"/>
		<path class="st34" d="M535.4,984.1c-3.1-2.5-4.3-5.7-4.8-10.1c-0.5-4.4-0.9-5.5,3.6-9.1c4.6-3.6,2.5-7.5,7.7-3.4
			c5.2,4.1,4.9,5.8,3.8,8.3c-1.1,2.5-2.1,8.3-4.7,11.6C539.8,982.9,535.4,984.1,535.4,984.1z"/>
		<path class="st34" d="M540.7,955.3c0,0-6.1-16.3,2.1-17.4c8.2-1.1,15.5-2.9,16,5.9c0.5,8.8,0.9,15-2.9,18c-3.8,3-5.5,4.9-5.5,4.9
			s-2.2-7-4.1-6.5S540.7,955.3,540.7,955.3z"/>
		<path class="st34" d="M491.8,988.9c-4.1,3.9,14.1,3.5,14.5,7.2c0.3,3.7,12.9,5.3,17.8,0.9c8.4-7.4,6.3-9.1,6.3-9.1
			s-1.9,0.1-4.2-5.7c-2.2-5.8-3.4-10.5-1.4-14.4c0,0-4.9-6.3-9.1,7.5C510.9,991.1,493.5,987.3,491.8,988.9z"/>
		<path class="st34" d="M1132.7,974.6v11.9l17.4,12.5v8.3l5.7,5.2v13.6h-5.7c0,0-4.1-5-6.5-5c-2.4,0-4.5,3.2-4.5,3.2
			c-2.5,3.5-6.8,1.5-8.3-2.5c-1.5-4-7.3-10.3-13.3-7.3s-10.5-4.3-11-8.8s-1.2-8-5.5-11.3s-20.3-14.2-19.8-6.4
			c0.2,3.2-4.7,5.1-10.2-0.1c-4.8-4.6-1.8-14.1,4.5-14c6.3,0,13.8,2.5,21.1,7.6c7.3,5,12,8.3,16.3,5.8c4.3-2.5,3.5,4.1,8,4.7
			c4.5,0.6,2.5-5.4,0-11.5c-2.5-6-8.7-8.1-8.7-11.9C1112.2,964.6,1132.7,974.6,1132.7,974.6z"/>
		<path class="st34" d="M1048.1,985.8c-3.6,1.2-7.8,0-6.3-10.6c1.5-10.5,4.8-10.1,4.1-21.4c-0.7-11.3-3.5-18.4,8.8-18.4
			c12.3,0,22.6,3.9,31.4,9.9c8.8,6,16,7.4,19,16.3c3,8.9,3.5,15.9-7.6,17.2c0,0-13.8-9.8-26.6-9.8c-12.8,0-13.3,14.1-2.1,20.9
			C1068.9,989.9,1054.6,983.6,1048.1,985.8z"/>
		<path class="st34" d="M1136.3,1031.5c-6-0.8-9.3-4-10-5.8c-0.8-1.8-3,5.1-13.8-1.5c-10.8-6.6-9.7-13.9-13-19.9s-12-21-20-10.5
			c0,0,1.6,10,8.9,12c7.3,2,7.8,6.5,4,10.3c-3.8,3.8-14.6,7-22.8-0.3c-8.3-7.3-14.8-14.6-14.8-14.6c1.5,10.8,7.3,16.6,11.5,20.6
			c4.3,4,10,3.1,10.5,8.1s1.3,6.1,9.6,7.9c8.3,1.8,15.3,0.5,21.8,3.6c8.5,4,14.3,1.6,14.3,1.6s9.6,0,14.4,0c4.8,0,7.2-4.9,7.2-4.9
			s3.1-2.3,3.1-7.8s-6.4-4.3-6.4-4.3S1139.7,1031.9,1136.3,1031.5z"/>
		<path class="st34" d="M613.6,1263.2c-1.2-2.4-15.3-1.8-20.6-2.2c-5.3-0.4-11.7-1-11.7-1s-0.6,1.7-1.1,3.6c0,0,6.5,2.7,12.1,2.1
			c5.6-0.6,18.5,1.9,18.7,3.9C611,1269.5,615.8,1267.7,613.6,1263.2z"/>
		<path class="st34" d="M580.3,1273.9c-2.9,0.7-6.7,1.1-6.7-2.5s2.2-2.4,5.7-2.3c3.6,0.1,28.2-0.4,29,1.4c0.7,1.8-2.3,6.4-4.1,5.9
			C602.4,1276.1,587.8,1272.1,580.3,1273.9z"/>
		<path class="st34" d="M601.9,1256.8c4.9-0.9,8.9-3.9,15.2-1.3c6.2,2.5,3.9,7.8,3.9,7.8s-3.5-5.8-7.6-5.4
			C609.3,1258.3,601.9,1256.8,601.9,1256.8z"/>
		<path class="st34" d="M621.1,1270.1c2-3.2,3.9-3.8,8.2-4c4.2-0.1,10.8-0.2,11.5,6c0,0,2.4,4.6-3,3c-5.4-1.5-11.3-3-13.3-2.7
			S621.1,1270.1,621.1,1270.1z"/>
		<path class="st34" d="M564.5,958.6c-2.3,3,4.6-0.8,5.6-4.8c0.9-4,6.7-4.3,8.3-12.3c1.6-8,0.1-13,0.1-13s-1.6,9.9-10,6.8
			c-8.4-3.1-3.3,4.7-3.3,4.7S567.2,955.1,564.5,958.6z"/>
		<path class="st34" d="M516.9,936.6l-6.1-3.3c0,0,3.7-3.5,6-7.6c2.2-4.2,8.7-5.3,8.7-5.3s4.3,2.6,6-0.7c1.8-3.3,1.3,3.9,2.5,4.6
			c1.2,0.7-0.7,7.3-6.5,5.9C520.7,928.4,517,934.7,516.9,936.6z"/>
		<path class="st34" d="M1002.6,946.7c-4.9-4.2-5.1-3.2-3.1-10.1c2.1-6.9,6.4-2.5,9.8,2.1c3.4,4.6,7.5,5.7,10.7,5
			c3.3-0.7,9.5,4.4,8.5,7.8c-1,3.4-3.7,2-7.7,0.2c-4-1.8-3.2,3.1-5.4,6.5c-2.2,3.4-5.3,3.3-8.9,3.4c-3.6,0.1-8.2-0.9-5.5-5.1
			C1003.8,952.3,1004.4,948.3,1002.6,946.7z"/>
		<path class="st34" d="M1033.6,959.2c0,0-6.9,0.4-3.3-5.3c3.6-5.6,9-7.2,8-2.3C1037.2,956.5,1036.6,959.7,1033.6,959.2z"/>
		<path class="st34" d="M935.6,899c1.5-3.8,6.6-11.5,8.9-10.5s6.4,3.6,4.1,6.8c-2.4,3.2-6.2,8.9-6.2,8.9L935.6,899z"/>
		<path class="st34" d="M947.9,910.3c-3.6-2.2-3.4-4.3,0-5.5c3.4-1.2,4.8,1,8.7-4.7c2.5-3.5-0.5-3.8-0.5-3.8
			c8.1-5.8,15.2,0.5,15.2,0.5s9.9,5.3-7.3,10.8C955.4,910.2,953.5,913.7,947.9,910.3z"/>
		<path class="st34" d="M961.3,923.3c-4.2-2.2,0.4-9.4,6.4-11.2c6-1.8,5.6-4,11-5.8c3.8-1.3,5.2-0.4,5.5,4.8
			c0.3,4.9,5.4,2.1,6.2,4.8c0.8,2.6-3.9,7.2-8.3,5.3c-4.4-2-5.5-5.6-10-1.5C967.6,923.7,963.7,924.6,961.3,923.3z"/>
		<path class="st34" d="M981.2,932c5.4-2,10.1,4.7,13.5,3.3c3.4-1.5,1-4.1,3.3-6s5.4-0.7,4.6-4.4c-0.8-3.6-14.8-3.7-28,3.6
			c0,0,0,4.2,1.9,4.4C978.4,933.2,981.2,932,981.2,932z"/>
		<path class="st34" d="M1013.3,966.3c3.8-1.8,6.6-3.3,6.6-5.9c0,0,0.7,4.9,2.2,7.1c1.5,2.2,2.2,4.3-1.7,4.6
			c-3.8,0.2-6.1-1.2-8.6-1.8C1009.4,969.8,1010.2,967.8,1013.3,966.3z"/>
		<path class="st34" d="M1029.3,972.3c0,0,6.3,2.4,7.8-5.3c1.5-7.6-6.5,1.2-6.2-2.3c0.3-3.5-1.4-5.7-3.6-5.6
			c-2.2,0.1-4.3,2.6-4.3,2.6S1024.5,968.1,1029.3,972.3z"/>
		<path class="st34" d="M602.2,882c0,0-2.4-5.7,2.7-6.7c5.1-1,6.9,2.4,6.9,5.7c0,3.3-2.1,4.6-3.7,4.1
			C606.5,884.6,602.2,882,602.2,882z"/>
		<path class="st34" d="M614.6,890.7c1.4-4.7,4-8.5,1.9-11c-2.1-2.5,0.1-6,4.2-5.7c4,0.3,9.4-1.6,7.9,2.6c-1.5,4.2-4.3,9.3-2.8,13.1
			l1.4,3.1c0,0-2.8,2.7-3.9,5.5c0,0-4.2-5.1-6.4-6.3C614.6,890.7,614.6,890.7,614.6,890.7z"/>
		<path class="st34" d="M650.4,899.6c-3.3,1.6-7.4,6.4-15.7-2.5c-2.6-2.8-1.6-6.1,0.8-10.7c2.4-4.6,1.9-3.8,0.9-8.1
			c-1.1-4.2-1.8-6.4,3.6-6.8c5.3-0.4,5.1-2.1,8.7-1.8c3.6,0.4,1.3,2.6,1.3,5.6s-2.3,7.3,0.3,9.8c0,0-3.3,7.7,1.1,12l1.5,1.9
			L650.4,899.6z"/>
		<path class="st34" d="M906.5,905.6l10.9-6.2c-0.6-1.9-1.6-6.3-0.1-12.4c1.4-6.1-2-9-5.1-9.8c-3.1-0.7-5.7,2.5-5.5,6.8
			c0.1,4.3,0,11.4-1.7,12.9C904.9,896.9,906.3,899.2,906.5,905.6z"/>
		<path class="st34" d="M931,898.1c-0.2-1.6-0.7-2,1-7.1c1.7-5.1,0.1-8.8-2-9.6c-2.1-0.8-4.7,2.8-5.2,6.5c-0.4,3.7-1.4,9.7-2.8,10.8
			L931,898.1z"/>
		<path class="st34" d="M654.8,882.3c0,0,3.1-3.8,3.9-6.2c0.8-2.3,1.9-1.4,0.3-2.9c-1.5-1.5-2.2-1.6,0.3-3.9
			c2.5-2.3,3.5-0.2,6.9-1.5c3.3-1.3,4.8,0.3,3.4,4.6c-1.3,4.3-2.5,7.3-0.4,9.4c0,0-2.7,3.5-3.3,9.2c-0.1,1.4,2.6,5.5,2.6,5.5
			c-9.8,2.8-12.6-1.3-12.6-1.3C653.2,893.2,652.3,885.9,654.8,882.3z"/>
		<path class="st34" d="M690.3,892.5c0,0,1.1-1.9-0.9-6.2c-2-4.2-0.8-8.5-0.5-10.6c0.3-2.1,2.2-1.9,0.7-4.9
			c-1.5-3.1-3.9-0.6-7.3-1.5s-5.7-1.4-6.7,3.3c-1,4.7,2.8,0.2,2.9,3.4c0.1,3.2-0.3,7.4-2,9.8c-1.8,2.4-4.1,7.5-2.3,11.1
			c0,0-0.1,3.8,3.9,3.7C682.1,900.5,685.8,892.4,690.3,892.5z"/>
		<path class="st34" d="M795.9,904.2c0,0,1-1.8-0.9-5.6c-1.9-3.9-0.7-7.8-0.5-9.7c0.2-1.9,2-4.2,0.6-7c-1.4-2.8-3.5-0.5-6.7-1.3
			c-3.2-0.8-5.2-1.2-6.1,3.1c-0.9,4.3,2.6,2.7,2.7,5.6c0.1,2.9-0.2,6.8-1.8,9c-1.6,2.2-3.7,6.9-2.1,10.2c0,0,0,3.4,3.6,3.4
			C788.5,911.6,791.8,904.2,795.9,904.2z"/>
		<path class="st34" d="M722.9,899.9c0,0,1-1.8-0.8-5.6c-1.8-3.9-0.7-7.8-0.5-9.7c0.2-1.9,2-4.2,0.6-7c-1.4-2.8-3.5-0.5-6.7-1.3
			c-3.1-0.8-5.2-1.3-6.1,3c-0.9,4.3,2.6,2.7,2.6,5.6c0,2.9-0.3,6.8-1.9,8.9c-1.6,2.1-3.8,6.8-2.1,10.2c0,0-0.1,3.4,3.6,3.4
			C715.4,907.3,718.7,899.9,722.9,899.9z"/>
		<path class="st34" d="M883.2,892.8c1.5-7.2,2.5-10.1,1.5-13.9s-0.1-7,3.8-6.6c3.9,0.4,7,3.4,6.4,9.3c-0.6,5.9,2.7,12.9,2.7,12.9
			c2.1,3.6,4.3,6.8,2.8,11.4c-1.6,4.6-5.1,5.8-7.4,3.4c-2.3-2.4-2.4-8-6.7-8.7c0,0-1.1-4.9-2.1-6.3
			C883.2,892.8,883.2,892.8,883.2,892.8z"/>
		<path class="st34" d="M875.9,894c-2.6-2.9-2.4-7.7-2.1-13.3c0.3-5.7-1.8-8.4-5.9-9c-4.1-0.6-5.3,2.2-5.1,5.8
			c0.2,3.6,1,7.1,0.2,11.7c-0.2,0.9-0.4,1.8-0.6,2.7c1.7,2.2,4,4.6,3.8,8.1c0.1,0.1,0.2,0.1,0.3,0.2c3.5,1.7,5.9,5,8.2,9.3
			c2.2,4.3,5.9-0.3,6.5-4.1C881.9,901.3,878.6,896.9,875.9,894z"/>
		<path class="st34" d="M847.1,901.2c-3.7-1.1-4.4-4.1-3.4-8.4c1-4.2,0.9-8-0.1-12.1c-1-4.1,0.2-4.9,4-4.9c3.7,0,6.7,2.5,6.6,8.2
			c-0.1,5.7,0.4,7.6,2.5,10.9c2.1,3.2,6.6,6.4,4.2,12.5c-2.4,6.1-4.4-2-6.7-3C851.9,903.4,847.1,901.2,847.1,901.2z"/>
		<path class="st34" d="M822.7,886.2c-1.7-3.7-1.3-8.9,5.1-8.5c6.4,0.4,8.5,3.4,8.1,8.2c-0.5,4.8-2,3.3-3,9.6
			c0.9,4.7,4.6,8,3.6,13.6c-1,5.6-1.9,0.6-5.6-2.6c-3.7-3.2-6.2,0.2-8.7-3.2c-2.5-3.3-2.3-6.5-0.8-9.5
			C822.8,890.9,822.7,886.2,822.7,886.2z"/>
		<path class="st34" d="M738.1,905.6c0.3-2.8-0.1-3.9,1.2-7.1c0.2-0.5,0.4-0.9,0.6-1.3c-1-3.7-0.2-7.2,0-9.1c0.2-2.2,1.9-4.9,0.5-8
			c-1.4-3.1-3.5-0.3-6.7-1c-3.1-0.7-5.2-1-6,3.9c-0.8,4.9,2.6,2.9,2.7,6.2c0.1,3.3-0.1,7.7-1.7,10.3c-1.6,2.6-3.1,4.2-1.4,7.9
			c0,0,0,3.9,3.6,3.6c2.6-0.2,4.7-2.7,7.1-4.2C738.1,906.3,738.1,906,738.1,905.6z"/>
		<path class="st34" d="M703.9,896.9c0.3-2.8-0.1-3.9,1.2-7.1c0.2-0.5,0.4-0.9,0.6-1.3c-1-3.7-0.2-7.2,0-9.1
			c0.2-2.2,1.9-2.2,0.5-5.3c-1.4-3.1-3.5-0.3-6.7-1c-3.1-0.7-5.2-3.8-6,1.1c-0.8,4.9,2.6,2.9,2.7,6.2c0.1,3.3-0.1,7.7-1.7,10.3
			c-1.6,2.6-3.1,4.2-1.4,7.9c0,0,0,3.9,3.6,3.6c2.6-0.2,4.7-2.7,7.1-4.2C703.9,897.6,703.9,897.3,703.9,896.9z"/>
		<path class="st34" d="M452.9,1171.4c0,0-2.3-2.2-4.6-1.6c-2.3,0.5-0.4,5-0.4,5s3.7,6.3,3,9.2c-0.8,2.9-1.5,3.3,2.1,4.2
			c3.6,0.9,7.4,7.5,9.7,2.2c2.3-5.3-0.9-5.8-0.9-5.8S449.3,1182.9,452.9,1171.4z"/>
		<path class="st34" d="M447.8,1198.3c0,0-2.1-5.1,1.9-5.9s5.8,1.4,7.5,2.8c1.7,1.4,3.6,3.4,6.5,2.1c0,0,3.2,1.1,1.6,4.7
			c-1.6,3.7-10.2,1.4-11.9-1.1c-1.7-2.6-4,0.3-5.4-1.9C446.6,1196.8,447.8,1198.3,447.8,1198.3z"/>
		<path class="st34" d="M468.3,1205c-0.7-0.6,1.9-0.5,2.9-1.1c0,0,4.2,3.2,5.2,5.8c1,2.6,4.4,5,4.4,7.5c0,2.4,3,6.9-2.7,6.7
			C478.1,1223.9,475.5,1211.2,468.3,1205z"/>
		<path class="st34" d="M474.8,1227.9c0,0-0.6,3.6-6.2,1.3c-5.6-2.3-3.3,0.2-4-6.4c-0.6-6.6-2.9-9.1-5-9.6
			c-2.1-0.5-11.5-1.4-10.1-7.2c1.4-5.8,5.8-0.9,5.8-0.9s4.2,5.1,9.3,4.6C464.6,1209.6,472.9,1216.7,474.8,1227.9z"/>
		<path class="st34" d="M479.3,1251.1c0.4-0.8,0.4,3.8,0.2,5.3c-0.6,3-2.5-0.7-4-3.6C475.5,1252.8,478.8,1252.1,479.3,1251.1z"/>
		<path class="st34" d="M478.4,1248.5c-0.5-1.1-1-1.9-1.2-3c-0.6-2.3-3.4-9.7-6.4-10.4s-4.4-3.2-4.4-3.2l-1,4c0,0,4.5,4,6.5,8.7
			c0.7,1.7,1.6,4,2.6,6.1C474.4,1250.8,478.8,1249.5,478.4,1248.5z"/>
		<path class="st34" d="M486.8,1263.4c-3.8,1.7-1.1-2.9-2.7-6.6c-1.6-3.7-2.3-2.5,2.2-4.1c4.5-1.5,2,1.7,2.3,4.6
			C488.9,1260.2,490.3,1261.9,486.8,1263.4z"/>
		<path class="st34" d="M485,1250c-1,0.1-1.3,1.9-2.8-2c-1.6-3.9-3.3-8.7-5-10.5c-1.7-1.8-3.7-4.1-2.9-5.2c0.8-1.2,2.8-0.9,4.7-2.3
			c2-1.4,1.4,2.8,2.2,3.5c0.8,0.7,3.8,6.8,4.8,10.4C487,1247.4,489.2,1249.4,485,1250z"/>
		<path class="st34" d="M758.3,909.3c-0.9-2.2-0.2-4.9,0.9-7c-1.3-3.1-2.9-6.5-1.7-13.4c1.4-8.1-2.5-8.8-6-9.1
			c-3.6-0.4-4.9,5.4-4.1,9.4c0.8,4-1,5.8-2.1,9.1c-1.1,3.3-0.6,4.4-0.7,7.2c-0.3,5.7,6.4,2.3,11,3.8c1.1,0.4,2.1,0.5,2.8,0.3
			C758.3,909.4,758.3,909.3,758.3,909.3z"/>
		<path class="st34" d="M777.2,911c-1.1-2.3-0.8-5.2,0.1-7.7c-1.7-3.2-3.6-6.7-3.3-14.3c0.4-9-3.5-9.2-7.1-9.1
			c-3.6,0.1-4.2,6.5-2.9,10.7s-0.3,6.4-1,10.1c-0.7,3.7,0,4.8,0.2,7.9c0.4,6.2,6.7,1.6,11.3,2.7c1.2,0.3,2.1,0.2,2.8,0
			C777.2,911.1,777.2,911,777.2,911z"/>
		<path class="st34" d="M466.6,944.2c0,0-3-1.1-4.8-1.3s1.7-2.7,1.9-3.7c0.2-1,2.8-9.9,4.5-10.9c1.6-1,3.6-0.9,5.6,0.6
			c2,1.6,2.9,2.8-0.6,5.8C469.6,937.6,469.3,946.1,466.6,944.2z"/>
		<path class="st34" d="M456.7,987.3c-1.9,6.6-5,4.8-3.4-5.7c1.1-7.4-4.2-13.7,5.2-10.5c3.6,1.2,0.7,3.8,0.7,3.8L456.7,987.3z"/>
		<path class="st34" d="M460,965.1c0,0-3.2-0.8-5-0.7c-1.8,0,1.3-2.9,1.4-3.9c0.1-1,1.6-10.2,3.1-11.4c1.5-1.2,3.5-1.4,5.6,0
			c2.1,1.3,3.2,2.5,0.1,5.8C462.2,958.1,462.9,966.6,460,965.1z"/>
		<path class="st34" d="M491.9,908.7c0,0-1.3-3.6-5.2-4.5c-1.9-0.4,2.7-1.9,3.3-2.8c0.6-0.9,6.9-9.2,9-9.6c2.1-0.3,3.7,1.6,5.1,3.8
			c1.4,2.2,1.9,3.7-2.7,5.2C496.7,902.3,493.9,911.5,491.9,908.7z"/>
		<path class="st34" d="M480.4,921.5c-1.7,3-1.2,4.5-3.8,1.7c-2.6-2.8-8.7,0.8-3.8-4.5c4.9-5.3,6.8-7.2,7.6-8.9
			c0.8-1.7,1.2-1.2,3.5-0.4c2.3,0.8,5.5,3.9,2.9,5.4C484,916.3,481,920.4,480.4,921.5z"/>
		<path class="st34" d="M510,895.2c0,0-1.7-4.2-3.1-6.6c-1.4-2.3,3.5-1,5.4-3.9c1.9-3,6.7-6.9,9.2-4.4s4.3,5.9,3.2,8.8
			c-1.1,2.9-6.7,1.3-8.3,3.4C514.8,894.6,509.9,897.9,510,895.2z"/>
		<path class="st34" d="M526.4,876.4c2.7-0.5,3.6-2.1,7.6-3c4-0.8,10.1-1.4,10.1-1.4s-0.8,5.7-3.4,8.2c-2.6,2.5-6.7,5.5-6.4,6.6
			c0.4,1.1-5.3,2.3-5.3,2.3s1.7-5.4-1.6-7.8C524,878.9,526.4,876.4,526.4,876.4z"/>
		<path class="st34" d="M724,989.5c-4.7,0.4-8.6,1.8-6.5-8.5c2.1-10.3,6.6-22.9,9.8-30.4c3.2-7.6,26.7-39.4,35.9-34.2
			c5.4,4.7,1,7.7-4.4,8.7c-5.5,1.1-15.3,8.9-20.1,16.5c-4.8,7.6-12.5,29.6-13.1,36.9C725.2,985.7,726.4,989.3,724,989.5z"/>
		<path class="st34" d="M799,1028c-0.1,4.2,1.2,8.7-3.3,8.8c-6,0-5.9-6.2-5.7-13.9c0.1-7.7,1.5-32.2,5.4-44.8
			c3.9-12.6,14.7-38.1,32.6-56.2c8.5-7.1,11.2-4.4,14-2.4s1.1,3.8-4.1,5.3c-5.2,1.4-17.7,17-20.8,23c-3.2,6.1-13.9,25.4-15.8,44.2
			C799.3,1010.8,799,1028,799,1028z"/>
		<path class="st34" d="M976.9,1019.5c-3.8-1.7-1.8-4.8,2.3-6.7c4.1-1.9-0.2-11.5-0.1-15.5c0-3.9,1.5-8.1-1.1-16.6
			c-5.8-7.9-9-22.2-12.6-26.8c-6.6-8.5-8.3,7.1-11.2,2.3c-2.9-4.8-10.5-7.1-6.3,1.2c4.2,8.3,9.1,20.5,18.9,54.6
			c3.2,7.1,6.9,8.8,8.7,13c0.6,1.5,1,1.3,1.1,3.6l0.1,2.3C981.6,1027.2,980.6,1021.2,976.9,1019.5z"/>
		<path class="st34" d="M876.9,984.6c-3.5-4.6-3.7-9.5-1.7-15.5c1.9-6,3.4-28,15.4-40.7c11.9-12.7,19.1-24,34.9-25.2
			c15.8-1.3,17.8,10.7,25.9,18.6c9.8,9.6,15.7,31.9,6.8,20.3c-3.4-4.4-3.8,12.9-7.7,6.4c-3.9-6.5-14.8-4.1-9.2,7.2
			c5.7,11.3,1.8,6.3,15,52.5c4.2,9.6,9.3,11.9,11.8,17.7c2.5,5.7,1.9,19.8-0.4,21.6c-2.2,1.9-8.8-2.4-12-6.3
			c-3.2-3.9-5-6.2-4.9-14.5c0.1-8.4-3.7-21-6.5-30.1c-2.8-9.1,0.3-8.8-4.3-16.9c-4.6-8.1-7.6-2.1-12.4-2.2
			c-4.8-0.1-5.9-3.7-13.8-7.6c-7.8-3.9-13,6-13,6c-2.6,4.9-9.6,3.6-14,12C883.6,994.2,880.8,989.8,876.9,984.6z"/>
		<path class="st34" d="M936.9,1182.6c-1.7-3.8-4.6-10.9-8-13.2c-3.4-2.2-3.9-9.4,3.3-9.9c7.2-0.5,10.2-1.5,10.3,7.8
			c0.2,9.3,2.4,11.4,8.3,21.2c5.9,9.8,7.7,16.9,12.7,27.1c5,10.2,7.6,19.8,12.8,28.5c5.2,8.7-1.3,5.3-2.6,5.8
			c-1.3,0.5-6.8,3.3-6.9-2.3c0-5.7-3-14.1-4.9-17.9c-1.9-3.8-10.7-20.5-15.8-28.8C941.1,1192.7,936.9,1182.6,936.9,1182.6z"/>
		<path class="st34" d="M910,1149.2c-5.2,0.9-7.8,6.2-6.6,9.4c1.2,3.2,0.7,6.1,7.4,10.1c6.7,4.1,4.3,10.1,20.7,41.1
			c16.3,31.1,19.4,36.9,19.5,38.3c0.1,1.4,2.7,2.2,4.6-0.2c1.9-2.4,2.4-3.9,5.1-3.8c2.6,0.1-0.5-1.1-3.3-6.6
			c-2.9-5.5-9.6-25.8-13-34.6c-3.4-8.8-17.7-28.6-19.4-35.3s-3.7-5.5-6.1-6.3c-2.4-0.8-3.9-5.3-3.8-7.7
			C915.1,1151.4,910,1149.2,910,1149.2z"/>
		<path class="st34" d="M818.5,1022.1c0.4,8.3,0.4,12.9,5.7,13.8c5.4,0.9,5.4-4.1,5.5-6.8c0-2.7-0.1-22.3,0.5-31.4
			c0.6-9.1,15.6-53,18.7-60c3.1-7,8.6-18.2,13.2-19.7c4.5-1.6,0.5-1.3-4.5-2.6c-4.9-1.3-9.9,9.5-13.7,15.2
			c-6.9,10.3-21.1,55.8-23.1,68.6C818.8,1012.1,818.5,1022.1,818.5,1022.1z"/>
		<path class="st34" d="M904,1020.5l-6.9-0.1c0,0-0.9,3.5-0.2,13.1c0.6,9.7,4,16,10.3,17.7c6.4,1.7,12.9-9.1,12.9-9.1
			s-2.6-2.5-2.6-4.2s-2.2,0.5-6.4,3.1c-4.3,2.6-6.8-3.1-6.8-7.3C904.4,1029.4,904,1020.5,904,1020.5z"/>
		<path class="st34" d="M883.7,1036.1c-3.9-10-2.8-22.6-2.6-28.4c0.2-6.2,0.2-9.8,0.2-9.8l-7.4-6.9c-1.6,15.3-6.3,28.2-1.7,43.1
			c1.1,3.6,5.2,8.6,11.6,4L883.7,1036.1z"/>
		<path class="st34" d="M885.7,1041.5c4.4,9.7,12.2,1.7,12.2,1.7c-1,3,5.8,5.1,5.8,5.1s-18,12-26.3-4.1c0,0,2.8,0.8,4.7,0.1
			C884,1043.6,885.7,1041.5,885.7,1041.5z"/>
		<path class="st34" d="M855.1,1033.7c-4.6,0.8-8.1-5.2-8.3-11.5c-0.2-6.3-0.1-34.7,6.1-56.5c6.2-21.8,18-40.2,21.9-44
			c3.9-3.8,6.1-6.6,8.5-5.1s-2.4,6.5-5.5,10.4c-3,3.9-12.5,23-15.7,38.2c-3.1,15.2-4.2,46.8-3.4,54.5
			C859.6,1027.3,860.9,1032.6,855.1,1033.7z"/>
		<path class="st34" d="M814.4,924.5c-3.7-1.7-8-2.9-11.3,3.2c-3.3,6.1-27.3,37.2-29.7,71.9c-2,17.5,1,26.7-4.4,26.2
			c-5.4-0.5-6.7,0.6-6.3-12.2c0.4-12.9,1.9-22.5,8.7-39c6.8-16.5,18.3-36.8,24.2-45.7c5.9-8.9,10.1-14.6,18.9-10.1
			C816.6,921,815.9,925.3,814.4,924.5z"/>
		<path class="st34" d="M786.2,924.5c-2.9,1.9-3.3-3.7-10.5,7.1c-7.2,10.8-29.1,48.8-29.7,67.2c-0.4,8.9-1.3,11.2-7.7,7.1
			c-6.4-4,0.5-11.2,3.2-21.2s9.1-22.7,15.7-34.5c6.6-11.8,16.4-27.1,19.2-29.3c2.8-2.2,8.9-3.8,9.3-1.5
			C786.3,921.7,788.7,922.9,786.2,924.5z"/>
		<path class="st34" d="M723.8,997.7l-5.1-0.1c-2.3,0.1-0.4,3.7,0.8,6.4s4.6,12.5,8.9,17.2c4.4,4.7,9.4,8.5,9.4,8.5
			s-4.2-5.4-6.4-10.8c-2.2-5.4-1.8-5.7-3.6-9.5C726.1,1005.7,726,997.7,723.8,997.7z"/>
		<path class="st34" d="M703.8,975.1c-4.2,0.1-7.8,1.1-5.3-8.1c2.5-9.3,7.2-20.5,10.6-27.2c3.3-6.8,19.9-31.6,27.9-26.4
			c4.6,4.6,0.5,7.1-4.5,7.7c-5,0.7-9.3,7.9-14.1,14.6c-4.7,6.6-11.6,22.9-12.4,29.5C705.1,971.7,706,975.1,703.8,975.1z"/>
		<path class="st34" d="M703.4,983.3l-4.7-0.4c-2.2,0-0.6,3.5,0.4,6c1,2.6,2.7,8,6.5,12.6c3.8,4.6,8.4,8.5,8.4,8.5
			s-3.6-5.3-5.4-10.4c-1.8-5.1-1-3.7-2.5-7.4C704.5,988.6,705.5,983.4,703.4,983.3z"/>
		<path class="st34" d="M849.9,1040.2c2.4,2.5,4.4,3.4,5.8,2.6c1.4-0.7,3.3-4.1,3.3-4.1s0,11.6,10.1,13.5c6,0.6,8.4-1.5,8.4-1.5
			s1.4,3.4,12.9,3.6c0,0-12.5,6.2-23.3,4C856.2,1056.2,849.9,1040.2,849.9,1040.2z"/>
		<path class="st34" d="M821.7,1040.4c2.1,2,5.9,1.6,8,0.3c0,0,5.8,11.9,14.6,13.3c8.7,1.4,10.5,0.2,10.5,0.2s1.8,2.9,7.6,4.4
			c0,0-16.5,2.9-25-0.4c-8.5-3.4-14.5-13.9-14.5-13.9L821.7,1040.4z"/>
		<path class="st34" d="M791.2,1039.7c3.1,2.9,3.9,3,8.5,1.2c0,0,2.9,5.4,10.7,9.5c7.7,4.1,10.5,4.5,13,4.9c0,0,2.8,3.8,8.2,4.9
			c0,0-17.6,1.8-26.7-3.7C795.8,1051.1,791.2,1039.7,791.2,1039.7z"/>
		<path class="st34" d="M762.7,1030c3,2.3,6.2,1.4,9.4,0.2c0,0,1.9,4,8.3,9.9c6.5,5.9,7.8,6.5,11.4,7.9c0,0,2.2,5.1,8.5,8.2
			c0,0-18.8,0-34.4-20.5C763.4,1032.8,762.7,1030,762.7,1030z"/>
		<path class="st34" d="M744.4,1013.1c-2.5,1.4-5.5,2.4-9.8-1.9c0,0-1.2,3.9,3.5,10.3c4.7,6.5,9.5,12.7,17.6,18.2
			c8.1,5.6,11.6,6.9,11.6,6.9s-8.6-8.3-11.5-13.5c0,0-8.7-8.7-10.8-12.9C742.9,1015.9,744.4,1013.1,744.4,1013.1z"/>
		<path class="st34" d="M960.9,1260.5c-2-1.6-4.4-2.2-3.7-6.4c0.7-4.2,1.8-3.4,5.6-2.4c3.7,0.9,9.2,5.7,6.1,6.3
			C965.9,1258.6,963.5,1262.5,960.9,1260.5z"/>
		<path class="st34" d="M953.1,1260.2c-5,0.2-7.3,2.9-11.3,3.3c-4,0.4-8.5-2-4.4-3.9c4.1-1.9,9.3-2.5,11.6-4.8
			c2.3-2.4,4.1-0.4,3.9,0.7C952.8,1256.5,953.1,1260.2,953.1,1260.2z"/>
		<path class="st34" d="M825.5,1196.5c1.9-2.2,4,5.2,2.8,6.9c-2.1,2.9-1,7.1-4.4,6.6c-3.4-0.4-4.8,9.5-4.8,9.5
			c0.5,5.3-2.2,7.6-6.8,5.4c-4.5-2.2-4.9-4.8-2.5-7.5c4.9-5.6,7.7-20,6.7-24C816.5,1193.4,822.1,1200.5,825.5,1196.5z"/>
		<path class="st34" d="M794.9,1220c6.9,4.8,7.8,9.9,7.8,9.9s1.2,2.6-1.3,0.1s-10-9.7-13.7-10.7c-3.7-1-3.7-4.7-3.3-5.5
			c0.5-0.8,4.5-3.6,5.8-0.4c0,0,0.2,2.9,1.5,4.2C793,1218.7,794.9,1220,794.9,1220z"/>
		<path class="st34" d="M800.8,1234.8c0,0-7-7-9-8.1c-2-1.1-7.7-2.8-8.3-6.4c-0.6-3.6-6.3-0.9-6.5,0.7c-0.2,1.5,2.3,4.3,5,5.5
			c2.6,1.2,7.2,3.6,9.8,5.8c2.6,2.2,6.7,4.3,7.8,4.7C800.5,1237.4,802.2,1236.2,800.8,1234.8z"/>
		<path class="st34" d="M770.8,1223.9c0,0-5.1-0.8-7.4-1.9c-2.3-1.2-4.2-2.8-5.9-2.8c-1.6,0-3.7-2.4-0.9-3.2
			c2.8-0.8,3.5-0.9,4.4,0.6c0.9,1.4,0.2,0,0.9,1.4C762.7,1219.5,769.6,1222,770.8,1223.9z"/>
		<path class="st34" d="M788,1208.3c0,0-3.4,3-10.7,0.4c-7.3-2.6-6.4-11-6.4-11s2.2-2,5.4,2.4c3.2,4.5,8.3,1.6,10.4,3.4
			c2.1,1.8,1.4,4.3,1.4,4.3L788,1208.3z"/>
		<path class="st34" d="M774,1211c0,0-1.6,3.4-9.1,1.8c-7.5-1.6-10.3-6.3-9.9-11.4c0.3-5.1,2.3-3.4,4.5,0.7c2.1,4.1,6.1,5.4,6.1,5.4
			S774.6,1207.3,774,1211z"/>
		<path class="st34" d="M752.3,1209.4c0,0-3.2,3.5-9.8,1.8c-6.6-1.7-9.4-7.3-9.3-9.9c0.1-2.6,0.9-3.2,2.6-0.4
			c1.7,2.8,6.9,4.4,6.9,4.4S752.2,1207.4,752.3,1209.4z"/>
		<path class="st34" d="M973.1,1267.1c-3.7-0.9-7.7-1.1-5.5-3.5c2.2-2.4,4.7-4.6,6.7-2.5c2,2.1,10,5.1,10,5.1s3.2-0.5,3,2.2
			c-0.2,2.7-1.1,6.6-3.7,4.7C980.9,1271.2,975.9,1267.8,973.1,1267.1z"/>
		<path class="st34" d="M991.2,1264.2c-7-0.8-9.2-4-9.2-4s-1.7-1.3,1.1-0.6c2.8,0.8,10.9,3.1,14.3,2.4c3.3-0.6,4.4,1.9,4.3,2.6
			c-0.1,0.7-2.7,4.1-4.6,2.4c0,0-1-1.9-2.4-2.3C993,1264.4,991.2,1264.2,991.2,1264.2z"/>
		<path class="st34" d="M984.8,1256.4c0,0,7.6,2.6,9.5,2.7c1.9,0.1,7.1-0.6,8.5,1.7c1.4,2.3,5.4-1.5,5.2-2.6c-0.2-1.2-3-2.3-5.5-2.2
			c-2.5,0.1-6.9-0.2-9.6-0.8c-2.7-0.6-6.6-0.8-7.6-0.7C984.3,1254.5,983.3,1255.9,984.8,1256.4z"/>
		<path class="st34" d="M992.6,1271.7c0,0,2.3-2.9,9.2-2.6c6.9,0.3,8,6.5,8,6.5s-1.5,1.9-5.2-0.6c-3.8-2.5-7.5,0.6-9.7-0.2
			c-2.2-0.8-2.2-2.8-2.2-2.8L992.6,1271.7z"/>
		<path class="st34" d="M1008,1268.5c0,0,1-2.7,7.8-2.1c6.8,0.6,9.8,3.9,10.1,7.7c0.3,3.8-1.7,2.7-4-0.2c-2.3-2.9-6-3.5-6-3.5
			S1007.9,1271.3,1008,1268.5z"/>
		<path class="st34" d="M1010.1,1262.2c0,0,2-3.2,8-3.4c6.1-0.2,9.7,3.2,10.2,5.1c0.5,1.9-0.1,2.5-2.2,0.8c-2.1-1.7-6.9-1.7-6.9-1.7
			S1010.7,1263.6,1010.1,1262.2z"/>
		<path class="st34" d="M973.9,1274.8c-6.6-1.7-11.3-1.9-16.7-3.5c-5.4-1.6-1.5-6-1.2-7.6c0.4-1.5,4.5,2.5,9.1,3.5
			C969.7,1268.1,973.9,1274.8,973.9,1274.8z"/>
		<path class="st34" d="M932.6,1146.7c4.7-2.7,7.5-1.4,8.9,0.5c1.4,1.9-0.6,5.1-4.3,7.3c-3.7,2.2-10.8,2.9-11.5,1.6
			C924.8,1154.7,927.3,1149.8,932.6,1146.7z"/>
		<path class="st34" d="M815.4,1065c-4.2-3.1-7-10.7,0.1-14.5c7.1-3.7,10.8-2.2,13.7,2.1c4.8,7.2-1.9,10.1,0.2,15.5
			c2.1,5.3,0.3,33.2-0.6,43.3c-0.9,10.1-10.3,50.4-14,59.7c-3.7,9.4,0.8,19.1-2.1,20.3c-2.8,1.2-15.6,7.1-11.5-3.3
			c4.1-10.4,9.7-34.1,10.1-50.3c0.4-16.2,5.4-43.8,4.9-54C815.6,1073.6,815.4,1065,815.4,1065z"/>
		<path class="st34" d="M816.9,1183.1c3.9-12.1,7.8-33.1,7-41.1c-0.8-8,2.2-33.3,3.1-38.3c0.4-2.7-4.1-21.6-3.6-29.2
			c0.5-6.5,3.9-4.2,3.9-4.2s4.9,9.7,10.7,14.1c0,0-2.5,5.6-0.5,30.6s-10.1,54-8.4,61.9c1.7,8,1.3,8.4-2.1,12.3
			c-3.4,3.8-6,4.2-6.7,0.5C819.6,1186,815.5,1187.5,816.9,1183.1z"/>
		<path class="st34" d="M924.4,1012c0,0,7.8,3.2,9-6.1c0,0-2.3-2.6,1.2-4.1c3.4-1.5,6.3,0.4,8.7,12.4c2.4,12,2.9,14.6,0,17.6
			s-15.9-8.9-23.3-5.2c-7.4,3.7-0.5-2.1-2.4-8.4C915.7,1012,924.4,1012,924.4,1012z"/>
		<path class="st34" d="M935.3,1140.2c-2,0.2-4.7,0.2-8.1,2c-2.8,1.5-3.5,5.4-3.6,7.2l-1.1,0.4c-2.9,0.5-6.6-3.4-7.5-5.8
			c-1-2.5-7.1-1.6-7.1-1.6s-0.4-5.4,0.2-10.3c0.6-4.9,1.5-12.3-2-23.6c-3.5-11.3-5.2-35.3-12.5-49.8c-7.3-14.5-12.4-30.3-12.6-30.9
			c-0.1-0.6,1.6-0.2,2.4-5.1l0.7-1.8c0,0,5.2,2.7,11.4,0.1c3.2-1.2-0.2-8.3-1.3-10c0,0,1.9-0.6,3.2-0.8c1.4-0.2,6.4-0.7,12.5,5.2
			c6.2,5.9,2.9,7.1,2.6,11.8c-0.2,4.8-3.7,22.5,2.6,35.4c6.3,12.9,9.5,22.2,8.8,34.7c-0.7,12.6-0.6,25.7,1.8,30
			c2.4,4.3,4.6,0.6,7.9,8.2L935.3,1140.2z"/>
		<path class="st34" d="M899.9,984.3c0,0,11.7-19,23.2-3c3.8,5.3,8.8,1.4,8.8,1.4s7,2.2,5.4,8.1c-1.7,5.9-8.5,3.6-8.8,7.4
			c-0.3,3.8,3.6,7.7-2.4,9.3c-9.2,2.4,2.5-2.6-17.1,5.4c-16,11.5-19,17.4-31.5,21.8c-12.5,4.3-19.8,11.2-25.6,31.2
			c-1.5,9.2-8.2,13.6-11.7,9.3s-5.2-9.8-2.6-12c2.6-2.2-2.3-3.4,0.2-7.3c2.4-4,7.6-4.8,3.9-13.1c0,0-4.7-5.3-1.6-9.9
			c3.2-4.6,5-7.2,12.2-11.6c7.2-4.4,28.8-13.4,36.3-27.8C895.7,984.4,899.9,984.3,899.9,984.3z"/>
	</g>
</g>
<g id="Layer_7">
</g>
<g id="Darkness">
	<g class="st44">
		<g>
			<rect x="0" y="0" width="1615.8" height="2182.7"/>
		</g>
	</g>
</g>
<g id="Skeletons">
	<g>
		<path class="st82" d="M814.9,905.5c-2.2-3.5-1.8-5.5-0.2-8.4c0.2-0.3,0.3-0.6,0.5-1c-0.7-2.3-1.4-4.1-1-7.9c0.9-8-1.3-9.1-4.1-9.8
			c-2.8-0.7-6.7-0.3-7.6,4.8c-0.8,5.1-0.3,4.1,1.4,6.8c1.2,1.9-1.1,7.2-2,12.3c-0.8,5.1,5.7,6.8,6.9,8.8c1.2,1.9,5.5,7.7,6.7-3.3
			c0.1-0.5,0.1-0.9,0.1-1.3C815.5,906.3,815.2,905.9,814.9,905.5z"/>
		<path class="st82" d="M558.7,1020.8c-5.8-14.2-7.4-10.9-11.5-17.4c-4.1-6.6-8.2-9.8-6.5-14.4c1.7-4.7,8.3,0.9,7.4-5.3
			c-1-6.2,3.6-5.6,3.3-8.2c-0.3-2.6,1.1-6.4,5.9-0.7c4.8,5.7,6.2,28.6,13.6,37.7c7.4,9.1,8.7,17.8,18.2,35.3
			c9.5,17.4,1.9,26,15.6,44.4c9.5,11.1,3.2,21.1-6.6,22.3c-9.9,1.2-21.1-1.2-21-9c0.1-7.8,7.2-13.8,3.2-25.2
			c-3.9-11.4-11.2-32.7-14.7-40.4C561.8,1032.1,558.7,1020.8,558.7,1020.8z"/>
		<path class="st82" d="M457.6,1179.3c-4.8-5.4-1.9-9.9,3.9-12.5c5.8-2.6,17-11.8,26.8-22.4s24.9-20,30.7-35.2c0,0-3.8-1.9-1.7-5
			c2.1-3.2,2.4-3.3,8.6-0.4c6.2,2.9,2.8,6.2,8.8,7.4s7,5.4,3.4,10.4c-3.6,5-7.1,5.7-10,11.6c-3,5.9-5.9,4-15.3,8.5
			s-15.6,9.2-27.7,19.4c-12,10.3-18.3,15.8-19.1,18.6C465.3,1182.4,461.5,1183.6,457.6,1179.3z"/>
		<path class="st82" d="M531.1,1084.7c0,0-13.1,3.9-6.1,13.3c7.1,9.5-0.9,2.4,12.5,4.5c6,1.5,10.6,4.4,12.8-1.1s6.1-10.3,1-17.7
			c-5.2-7.4-14-33.2-19-43.8c-5-10.6-18.6-34.9-18.6-34.9s-5.1-3.3-8.6-3.1c-3.4,0.2-12.3-3-14.1-4.7c0,0,17.1,19.3,23.8,40.8
			C521.5,1059.6,526.4,1080.3,531.1,1084.7z"/>
		<path class="st82" d="M557,1101.6c0,0,2.8-0.4,4.4,2.2c1.6,2.6,2.7,9.1-4.2,11.4c-6.8,2.4-9,2.8-10.9,0.6
			c-1.9-2.2-1.3-4.9,1.6-6.9C550.9,1107,555,1101.3,557,1101.6z"/>
		<path class="st82" d="M443,1192.8c-3,0.7-3.7-1.1-4-5.3c-0.3-4.2-4.5-7.7-4.3-11.7c0.2-4,2.5-3.3,4.7-4c2.2-0.7,4-0.8,5.4,2.7
			c1.3,3.5,0,4.7,0,4.7s-0.7,2.9,0.9,5.7C447.5,1187.6,448.9,1191.5,443,1192.8z"/>
		<path class="st82" d="M611,1112.8c0.2-5.8,3.5-7.6,6.6-7.8c3-0.2,5.2,3.5,5,8.1c-0.1,4.7-4.2,11.5-6.1,11.4
			C614.6,1124.5,610.9,1119.5,611,1112.8z"/>
		<path class="st82" d="M527,914.3c-0.3-9.3,2.4-8.4,6.3-10.9c9.3-5.9,11.6-31.2,23.5-31.3c11.9-0.1,25.3,4.7,36.3,10.7
			s15.1,14.4,15.7,21.9c0.7,7.5-1.3,21.5-11.1,21.4c-9.9-0.2-27.9-6.6-33.3-8c-5.3-1.4-11.5-2.4-11,3.6s-2.9,11.2-7.5,7.4
			c-3.8-3.1-3.5-9.2-7.5-8.8c-4,0.4-0.6-2.8-1.2-4.7c-0.6-2-5.3-3-5.5-0.5C531.7,917.5,527.1,918,527,914.3z"/>
		<path class="st82" d="M596.9,1140.4c-2.1,11-4,7.3-5.9,22.7c-2,15.4-11.7,31.2-13.4,48.4c-1.6,17.2,0.1,28.3-2,31.9
			c-2.1,3.6-0.2,5.7,4,6.2c4.2,0.4,5.1-4,5.2-10.6c0.1-6.5-2.5-15.8-1-21.2c1.5-5.4,6.7-28,13.3-39.6c6.6-11.7,9.8-21.4,14.1-27.3
			c4.3-5.9,6.3-9.7,4.1-15.7c-2.2-6-5.3-15.3-7.6-9.2c-2.3,6-3.3,10.1-6.1,10.3C598.3,1136.5,597.5,1137.3,596.9,1140.4z"/>
		<path class="st82" d="M585.8,1119.4c-3.8,3.8-7.8,9.5-0.2,12.5c4.2,1.6,7.3-0.2,9.4-0.7c4.1-0.9,4-1.1,7.5-7
			c3.5-5.9,0.9-7.2-3.3-6C595,1119.5,587.5,1117.9,585.8,1119.4z"/>
		<path class="st82" d="M570.1,1246.8c-2.9,2.8-7.1,0.6-6.9-3.9c0.2-4.5,3.2-4.5,3.6-14.5s1.4-17.2,4.1-28.9
			c2.8-11.8,7.5-19.6,6.8-33.7c-0.7-14.1,5.6-30.3,5.6-30.3s3.7,0.8,8.2,0.8l-12.4,59.5C579.2,1195.8,571.7,1245.2,570.1,1246.8z"/>
		<path class="st82" d="M562.4,1263.2c-1.6-2.2-7.4,0.9-11.6,1.3c-4.2,0.4-4.5,2.8-3.8,4.7c0.7,1.9,1.7,3.1,8,3.5
			c6.2,0.5,12.3,0.7,13.7-0.4c1.5-1.1-1.8-4.6-3.4-4.8C565.2,1267.6,564.6,1266.2,562.4,1263.2z"/>
		<path class="st82" d="M562.2,1254.7c0,0,2.7,8.1,9.3,7.5c6.6-0.6,5.6-6.2,5.6-6.2s-4.2,0.4-8.2-1.8s-3,0.2-3,0.2L562.2,1254.7z"/>
		<path class="st82" d="M518.5,939.3c-5.9-2.8-13.9,1.8-22.1,1.2c-8.1-0.6-12.7,2.8-16.5,7.7c-3.8,4.9-2.7,15.6-1.5,25.2
			c1.2,9.6,16.6,12,20.8,9.5c3.7-2.3,5.1-6.4,7.3-10.9c2.2-4.4,5.4-9.3,11.7-9.8c6.3-0.5,8.4-4.5,7.7-10.3
			C525.2,946.2,524.5,942.1,518.5,939.3z"/>
		<path class="st82" d="M535.4,984.1c-3.1-2.5-4.3-5.7-4.8-10.1c-0.5-4.4-0.9-5.5,3.6-9.1c4.6-3.6,2.5-7.5,7.7-3.4
			c5.2,4.1,4.9,5.8,3.8,8.3c-1.1,2.5-2.1,8.3-4.7,11.6C539.8,982.9,535.4,984.1,535.4,984.1z"/>
		<path class="st82" d="M540.7,955.3c0,0-6.1-16.3,2.1-17.4c8.2-1.1,15.5-2.9,16,5.9c0.5,8.8,0.9,15-2.9,18c-3.8,3-5.5,4.9-5.5,4.9
			s-2.2-7-4.1-6.5S540.7,955.3,540.7,955.3z"/>
		<path class="st82" d="M491.8,988.9c-4.1,3.9,14.1,3.5,14.5,7.2c0.3,3.7,12.9,5.3,17.8,0.9c8.4-7.4,6.3-9.1,6.3-9.1
			s-1.9,0.1-4.2-5.7c-2.2-5.8-3.4-10.5-1.4-14.4c0,0-4.9-6.3-9.1,7.5C510.9,991.1,493.5,987.3,491.8,988.9z"/>
		<path class="st82" d="M1132.7,974.6v11.9l17.4,12.5v8.3l5.7,5.2v13.6h-5.7c0,0-4.1-5-6.5-5c-2.4,0-4.5,3.2-4.5,3.2
			c-2.5,3.5-6.8,1.5-8.3-2.5c-1.5-4-7.3-10.3-13.3-7.3s-10.5-4.3-11-8.8s-1.2-8-5.5-11.3s-20.3-14.2-19.8-6.4
			c0.2,3.2-4.7,5.1-10.2-0.1c-4.8-4.6-1.8-14.1,4.5-14c6.3,0,13.8,2.5,21.1,7.6c7.3,5,12,8.3,16.3,5.8c4.3-2.5,3.5,4.1,8,4.7
			c4.5,0.6,2.5-5.4,0-11.5c-2.5-6-8.7-8.1-8.7-11.9C1112.2,964.6,1132.7,974.6,1132.7,974.6z"/>
		<path class="st82" d="M1048.1,985.8c-3.6,1.2-7.8,0-6.3-10.6c1.5-10.5,4.8-10.1,4.1-21.4c-0.7-11.3-3.5-18.4,8.8-18.4
			c12.3,0,22.6,3.9,31.4,9.9c8.8,6,16,7.4,19,16.3c3,8.9,3.5,15.9-7.6,17.2c0,0-13.8-9.8-26.6-9.8c-12.8,0-13.3,14.1-2.1,20.9
			C1068.9,989.9,1054.6,983.6,1048.1,985.8z"/>
		<path class="st82" d="M1136.3,1031.5c-6-0.8-9.3-4-10-5.8c-0.8-1.8-3,5.1-13.8-1.5c-10.8-6.6-9.7-13.9-13-19.9s-12-21-20-10.5
			c0,0,1.6,10,8.9,12c7.3,2,7.8,6.5,4,10.3c-3.8,3.8-14.6,7-22.8-0.3c-8.3-7.3-14.8-14.6-14.8-14.6c1.5,10.8,7.3,16.6,11.5,20.6
			c4.3,4,10,3.1,10.5,8.1s1.3,6.1,9.6,7.9c8.3,1.8,15.3,0.5,21.8,3.6c8.5,4,14.3,1.6,14.3,1.6s9.6,0,14.4,0c4.8,0,7.2-4.9,7.2-4.9
			s3.1-2.3,3.1-7.8s-6.4-4.3-6.4-4.3S1139.7,1031.9,1136.3,1031.5z"/>
		<path class="st82" d="M613.6,1263.2c-1.2-2.4-15.3-1.8-20.6-2.2c-5.3-0.4-11.7-1-11.7-1s-0.6,1.7-1.1,3.6c0,0,6.5,2.7,12.1,2.1
			c5.6-0.6,18.5,1.9,18.7,3.9C611,1269.5,615.8,1267.7,613.6,1263.2z"/>
		<path class="st82" d="M580.3,1273.9c-2.9,0.7-6.7,1.1-6.7-2.5s2.2-2.4,5.7-2.3c3.6,0.1,28.2-0.4,29,1.4c0.7,1.8-2.3,6.4-4.1,5.9
			C602.4,1276.1,587.8,1272.1,580.3,1273.9z"/>
		<path class="st82" d="M601.9,1256.8c4.9-0.9,8.9-3.9,15.2-1.3c6.2,2.5,3.9,7.8,3.9,7.8s-3.5-5.8-7.6-5.4
			C609.3,1258.3,601.9,1256.8,601.9,1256.8z"/>
		<path class="st82" d="M621.1,1270.1c2-3.2,3.9-3.8,8.2-4c4.2-0.1,10.8-0.2,11.5,6c0,0,2.4,4.6-3,3c-5.4-1.5-11.3-3-13.3-2.7
			S621.1,1270.1,621.1,1270.1z"/>
		<path class="st82" d="M564.5,958.6c-2.3,3,4.6-0.8,5.6-4.8c0.9-4,6.7-4.3,8.3-12.3c1.6-8,0.1-13,0.1-13s-1.6,9.9-10,6.8
			c-8.4-3.1-3.3,4.7-3.3,4.7S567.2,955.1,564.5,958.6z"/>
		<path class="st82" d="M516.9,936.6l-6.1-3.3c0,0,3.7-3.5,6-7.6c2.2-4.2,8.7-5.3,8.7-5.3s4.3,2.6,6-0.7c1.8-3.3,1.3,3.9,2.5,4.6
			c1.2,0.7-0.7,7.3-6.5,5.9C520.7,928.4,517,934.7,516.9,936.6z"/>
		<path class="st82" d="M1002.6,946.7c-4.9-4.2-5.1-3.2-3.1-10.1c2.1-6.9,6.4-2.5,9.8,2.1c3.4,4.6,7.5,5.7,10.7,5
			c3.3-0.7,9.5,4.4,8.5,7.8c-1,3.4-3.7,2-7.7,0.2c-4-1.8-3.2,3.1-5.4,6.5c-2.2,3.4-5.3,3.3-8.9,3.4c-3.6,0.1-8.2-0.9-5.5-5.1
			C1003.8,952.3,1004.4,948.3,1002.6,946.7z"/>
		<path class="st82" d="M1033.6,959.2c0,0-6.9,0.4-3.3-5.3c3.6-5.6,9-7.2,8-2.3C1037.2,956.5,1036.6,959.7,1033.6,959.2z"/>
		<path class="st82" d="M935.6,899c1.5-3.8,6.6-11.5,8.9-10.5s6.4,3.6,4.1,6.8c-2.4,3.2-6.2,8.9-6.2,8.9L935.6,899z"/>
		<path class="st82" d="M947.9,910.3c-3.6-2.2-3.4-4.3,0-5.5c3.4-1.2,4.8,1,8.7-4.7c2.5-3.5-0.5-3.8-0.5-3.8
			c8.1-5.8,15.2,0.5,15.2,0.5s9.9,5.3-7.3,10.8C955.4,910.2,953.5,913.7,947.9,910.3z"/>
		<path class="st82" d="M961.3,923.3c-4.2-2.2,0.4-9.4,6.4-11.2c6-1.8,5.6-4,11-5.8c3.8-1.3,5.2-0.4,5.5,4.8
			c0.3,4.9,5.4,2.1,6.2,4.8c0.8,2.6-3.9,7.2-8.3,5.3c-4.4-2-5.5-5.6-10-1.5C967.6,923.7,963.7,924.6,961.3,923.3z"/>
		<path class="st82" d="M981.2,932c5.4-2,10.1,4.7,13.5,3.3c3.4-1.5,1-4.1,3.3-6s5.4-0.7,4.6-4.4c-0.8-3.6-14.8-3.7-28,3.6
			c0,0,0,4.2,1.9,4.4C978.4,933.2,981.2,932,981.2,932z"/>
		<path class="st82" d="M1013.3,966.3c3.8-1.8,6.6-3.3,6.6-5.9c0,0,0.7,4.9,2.2,7.1c1.5,2.2,2.2,4.3-1.7,4.6
			c-3.8,0.2-6.1-1.2-8.6-1.8C1009.4,969.8,1010.2,967.8,1013.3,966.3z"/>
		<path class="st82" d="M1029.3,972.3c0,0,6.3,2.4,7.8-5.3c1.5-7.6-6.5,1.2-6.2-2.3c0.3-3.5-1.4-5.7-3.6-5.6
			c-2.2,0.1-4.3,2.6-4.3,2.6S1024.5,968.1,1029.3,972.3z"/>
		<path class="st82" d="M602.2,882c0,0-2.4-5.7,2.7-6.7c5.1-1,6.9,2.4,6.9,5.7c0,3.3-2.1,4.6-3.7,4.1
			C606.5,884.6,602.2,882,602.2,882z"/>
		<path class="st82" d="M614.6,890.7c1.4-4.7,4-8.5,1.9-11c-2.1-2.5,0.1-6,4.2-5.7c4,0.3,9.4-1.6,7.9,2.6c-1.5,4.2-4.3,9.3-2.8,13.1
			l1.4,3.1c0,0-2.8,2.7-3.9,5.5c0,0-4.2-5.1-6.4-6.3C614.6,890.7,614.6,890.7,614.6,890.7z"/>
		<path class="st82" d="M650.4,899.6c-3.3,1.6-7.4,6.4-15.7-2.5c-2.6-2.8-1.6-6.1,0.8-10.7c2.4-4.6,1.9-3.8,0.9-8.1
			c-1.1-4.2-1.8-6.4,3.6-6.8c5.3-0.4,5.1-2.1,8.7-1.8c3.6,0.4,1.3,2.6,1.3,5.6s-2.3,7.3,0.3,9.8c0,0-3.3,7.7,1.1,12l1.5,1.9
			L650.4,899.6z"/>
		<path class="st82" d="M906.5,905.6l10.9-6.2c-0.6-1.9-1.6-6.3-0.1-12.4c1.4-6.1-2-9-5.1-9.8c-3.1-0.7-5.7,2.5-5.5,6.8
			c0.1,4.3,0,11.4-1.7,12.9C904.9,896.9,906.3,899.2,906.5,905.6z"/>
		<path class="st82" d="M931,898.1c-0.2-1.6-0.7-2,1-7.1c1.7-5.1,0.1-8.8-2-9.6c-2.1-0.8-4.7,2.8-5.2,6.5c-0.4,3.7-1.4,9.7-2.8,10.8
			L931,898.1z"/>
		<path class="st82" d="M654.8,882.3c0,0,3.1-3.8,3.9-6.2c0.8-2.3,1.9-1.4,0.3-2.9c-1.5-1.5-2.2-1.6,0.3-3.9
			c2.5-2.3,3.5-0.2,6.9-1.5c3.3-1.3,4.8,0.3,3.4,4.6c-1.3,4.3-2.5,7.3-0.4,9.4c0,0-2.7,3.5-3.3,9.2c-0.1,1.4,2.6,5.5,2.6,5.5
			c-9.8,2.8-12.6-1.3-12.6-1.3C653.2,893.2,652.3,885.9,654.8,882.3z"/>
		<path class="st82" d="M690.3,892.5c0,0,1.1-1.9-0.9-6.2c-2-4.2-0.8-8.5-0.5-10.6c0.3-2.1,2.2-1.9,0.7-4.9
			c-1.5-3.1-3.9-0.6-7.3-1.5s-5.7-1.4-6.7,3.3c-1,4.7,2.8,0.2,2.9,3.4c0.1,3.2-0.3,7.4-2,9.8c-1.8,2.4-4.1,7.5-2.3,11.1
			c0,0-0.1,3.8,3.9,3.7C682.1,900.5,685.8,892.4,690.3,892.5z"/>
		<path class="st82" d="M795.9,904.2c0,0,1-1.8-0.9-5.6c-1.9-3.9-0.7-7.8-0.5-9.7c0.2-1.9,2-4.2,0.6-7c-1.4-2.8-3.5-0.5-6.7-1.3
			c-3.2-0.8-5.2-1.2-6.1,3.1c-0.9,4.3,2.6,2.7,2.7,5.6c0.1,2.9-0.2,6.8-1.8,9c-1.6,2.2-3.7,6.9-2.1,10.2c0,0,0,3.4,3.6,3.4
			C788.5,911.6,791.8,904.2,795.9,904.2z"/>
		<path class="st82" d="M722.9,899.9c0,0,1-1.8-0.8-5.6c-1.8-3.9-0.7-7.8-0.5-9.7c0.2-1.9,2-4.2,0.6-7c-1.4-2.8-3.5-0.5-6.7-1.3
			c-3.1-0.8-5.2-1.3-6.1,3c-0.9,4.3,2.6,2.7,2.6,5.6c0,2.9-0.3,6.8-1.9,8.9c-1.6,2.1-3.8,6.8-2.1,10.2c0,0-0.1,3.4,3.6,3.4
			C715.4,907.3,718.7,899.9,722.9,899.9z"/>
		<path class="st82" d="M883.2,892.8c1.5-7.2,2.5-10.1,1.5-13.9s-0.1-7,3.8-6.6c3.9,0.4,7,3.4,6.4,9.3c-0.6,5.9,2.7,12.9,2.7,12.9
			c2.1,3.6,4.3,6.8,2.8,11.4c-1.6,4.6-5.1,5.8-7.4,3.4c-2.3-2.4-2.4-8-6.7-8.7c0,0-1.1-4.9-2.1-6.3
			C883.2,892.8,883.2,892.8,883.2,892.8z"/>
		<path class="st82" d="M875.9,894c-2.6-2.9-2.4-7.7-2.1-13.3c0.3-5.7-1.8-8.4-5.9-9c-4.1-0.6-5.3,2.2-5.1,5.8
			c0.2,3.6,1,7.1,0.2,11.7c-0.2,0.9-0.4,1.8-0.6,2.7c1.7,2.2,4,4.6,3.8,8.1c0.1,0.1,0.2,0.1,0.3,0.2c3.5,1.7,5.9,5,8.2,9.3
			c2.2,4.3,5.9-0.3,6.5-4.1C881.9,901.3,878.6,896.9,875.9,894z"/>
		<path class="st82" d="M847.1,901.2c-3.7-1.1-4.4-4.1-3.4-8.4c1-4.2,0.9-8-0.1-12.1c-1-4.1,0.2-4.9,4-4.9c3.7,0,6.7,2.5,6.6,8.2
			c-0.1,5.7,0.4,7.6,2.5,10.9c2.1,3.2,6.6,6.4,4.2,12.5c-2.4,6.1-4.4-2-6.7-3C851.9,903.4,847.1,901.2,847.1,901.2z"/>
		<path class="st82" d="M822.7,886.2c-1.7-3.7-1.3-8.9,5.1-8.5c6.4,0.4,8.5,3.4,8.1,8.2c-0.5,4.8-2,3.3-3,9.6
			c0.9,4.7,4.6,8,3.6,13.6c-1,5.6-1.9,0.6-5.6-2.6c-3.7-3.2-6.2,0.2-8.7-3.2c-2.5-3.3-2.3-6.5-0.8-9.5
			C822.8,890.9,822.7,886.2,822.7,886.2z"/>
		<path class="st82" d="M738.1,905.6c0.3-2.8-0.1-3.9,1.2-7.1c0.2-0.5,0.4-0.9,0.6-1.3c-1-3.7-0.2-7.2,0-9.1c0.2-2.2,1.9-4.9,0.5-8
			c-1.4-3.1-3.5-0.3-6.7-1c-3.1-0.7-5.2-1-6,3.9c-0.8,4.9,2.6,2.9,2.7,6.2c0.1,3.3-0.1,7.7-1.7,10.3c-1.6,2.6-3.1,4.2-1.4,7.9
			c0,0,0,3.9,3.6,3.6c2.6-0.2,4.7-2.7,7.1-4.2C738.1,906.3,738.1,906,738.1,905.6z"/>
		<path class="st82" d="M703.9,896.9c0.3-2.8-0.1-3.9,1.2-7.1c0.2-0.5,0.4-0.9,0.6-1.3c-1-3.7-0.2-7.2,0-9.1
			c0.2-2.2,1.9-2.2,0.5-5.3c-1.4-3.1-3.5-0.3-6.7-1c-3.1-0.7-5.2-3.8-6,1.1c-0.8,4.9,2.6,2.9,2.7,6.2c0.1,3.3-0.1,7.7-1.7,10.3
			c-1.6,2.6-3.1,4.2-1.4,7.9c0,0,0,3.9,3.6,3.6c2.6-0.2,4.7-2.7,7.1-4.2C703.9,897.6,703.9,897.3,703.9,896.9z"/>
		<path class="st82" d="M452.9,1171.4c0,0-2.3-2.2-4.6-1.6c-2.3,0.5-0.4,5-0.4,5s3.7,6.3,3,9.2c-0.8,2.9-1.5,3.3,2.1,4.2
			c3.6,0.9,7.4,7.5,9.7,2.2c2.3-5.3-0.9-5.8-0.9-5.8S449.3,1182.9,452.9,1171.4z"/>
		<path class="st82" d="M447.8,1198.3c0,0-2.1-5.1,1.9-5.9s5.8,1.4,7.5,2.8c1.7,1.4,3.6,3.4,6.5,2.1c0,0,3.2,1.1,1.6,4.7
			c-1.6,3.7-10.2,1.4-11.9-1.1c-1.7-2.6-4,0.3-5.4-1.9C446.6,1196.8,447.8,1198.3,447.8,1198.3z"/>
		<path class="st82" d="M468.3,1205c-0.7-0.6,1.9-0.5,2.9-1.1c0,0,4.2,3.2,5.2,5.8c1,2.6,4.4,5,4.4,7.5c0,2.4,3,6.9-2.7,6.7
			C478.1,1223.9,475.5,1211.2,468.3,1205z"/>
		<path class="st82" d="M474.8,1227.9c0,0-0.6,3.6-6.2,1.3c-5.6-2.3-3.3,0.2-4-6.4c-0.6-6.6-2.9-9.1-5-9.6
			c-2.1-0.5-11.5-1.4-10.1-7.2c1.4-5.8,5.8-0.9,5.8-0.9s4.2,5.1,9.3,4.6C464.6,1209.6,472.9,1216.7,474.8,1227.9z"/>
		<path class="st82" d="M479.3,1251.1c0.4-0.8,0.4,3.8,0.2,5.3c-0.6,3-2.5-0.7-4-3.6C475.5,1252.8,478.8,1252.1,479.3,1251.1z"/>
		<path class="st82" d="M478.4,1248.5c-0.5-1.1-1-1.9-1.2-3c-0.6-2.3-3.4-9.7-6.4-10.4s-4.4-3.2-4.4-3.2l-1,4c0,0,4.5,4,6.5,8.7
			c0.7,1.7,1.6,4,2.6,6.1C474.4,1250.8,478.8,1249.5,478.4,1248.5z"/>
		<path class="st82" d="M486.8,1263.4c-3.8,1.7-1.1-2.9-2.7-6.6c-1.6-3.7-2.3-2.5,2.2-4.1c4.5-1.5,2,1.7,2.3,4.6
			C488.9,1260.2,490.3,1261.9,486.8,1263.4z"/>
		<path class="st82" d="M485,1250c-1,0.1-1.3,1.9-2.8-2c-1.6-3.9-3.3-8.7-5-10.5c-1.7-1.8-3.7-4.1-2.9-5.2c0.8-1.2,2.8-0.9,4.7-2.3
			c2-1.4,1.4,2.8,2.2,3.5c0.8,0.7,3.8,6.8,4.8,10.4C487,1247.4,489.2,1249.4,485,1250z"/>
		<path class="st82" d="M758.3,909.3c-0.9-2.2-0.2-4.9,0.9-7c-1.3-3.1-2.9-6.5-1.7-13.4c1.4-8.1-2.5-8.8-6-9.1
			c-3.6-0.4-4.9,5.4-4.1,9.4c0.8,4-1,5.8-2.1,9.1c-1.1,3.3-0.6,4.4-0.7,7.2c-0.3,5.7,6.4,2.3,11,3.8c1.1,0.4,2.1,0.5,2.8,0.3
			C758.3,909.4,758.3,909.3,758.3,909.3z"/>
		<path class="st82" d="M777.2,911c-1.1-2.3-0.8-5.2,0.1-7.7c-1.7-3.2-3.6-6.7-3.3-14.3c0.4-9-3.5-9.2-7.1-9.1
			c-3.6,0.1-4.2,6.5-2.9,10.7s-0.3,6.4-1,10.1c-0.7,3.7,0,4.8,0.2,7.9c0.4,6.2,6.7,1.6,11.3,2.7c1.2,0.3,2.1,0.2,2.8,0
			C777.2,911.1,777.2,911,777.2,911z"/>
		<path class="st82" d="M466.6,944.2c0,0-3-1.1-4.8-1.3s1.7-2.7,1.9-3.7c0.2-1,2.8-9.9,4.5-10.9c1.6-1,3.6-0.9,5.6,0.6
			c2,1.6,2.9,2.8-0.6,5.8C469.6,937.6,469.3,946.1,466.6,944.2z"/>
		<path class="st82" d="M456.7,987.3c-1.9,6.6-5,4.8-3.4-5.7c1.1-7.4-4.2-13.7,5.2-10.5c3.6,1.2,0.7,3.8,0.7,3.8L456.7,987.3z"/>
		<path class="st82" d="M460,965.1c0,0-3.2-0.8-5-0.7c-1.8,0,1.3-2.9,1.4-3.9c0.1-1,1.6-10.2,3.1-11.4c1.5-1.2,3.5-1.4,5.6,0
			c2.1,1.3,3.2,2.5,0.1,5.8C462.2,958.1,462.9,966.6,460,965.1z"/>
		<path class="st82" d="M491.9,908.7c0,0-1.3-3.6-5.2-4.5c-1.9-0.4,2.7-1.9,3.3-2.8c0.6-0.9,6.9-9.2,9-9.6c2.1-0.3,3.7,1.6,5.1,3.8
			c1.4,2.2,1.9,3.7-2.7,5.2C496.7,902.3,493.9,911.5,491.9,908.7z"/>
		<path class="st82" d="M480.4,921.5c-1.7,3-1.2,4.5-3.8,1.7c-2.6-2.8-8.7,0.8-3.8-4.5c4.9-5.3,6.8-7.2,7.6-8.9
			c0.8-1.7,1.2-1.2,3.5-0.4c2.3,0.8,5.5,3.9,2.9,5.4C484,916.3,481,920.4,480.4,921.5z"/>
		<path class="st82" d="M510,895.2c0,0-1.7-4.2-3.1-6.6c-1.4-2.3,3.5-1,5.4-3.9c1.9-3,6.7-6.9,9.2-4.4s4.3,5.9,3.2,8.8
			c-1.1,2.9-6.7,1.3-8.3,3.4C514.8,894.6,509.9,897.9,510,895.2z"/>
		<path class="st82" d="M526.4,876.4c2.7-0.5,3.6-2.1,7.6-3c4-0.8,10.1-1.4,10.1-1.4s-0.8,5.7-3.4,8.2c-2.6,2.5-6.7,5.5-6.4,6.6
			c0.4,1.1-5.3,2.3-5.3,2.3s1.7-5.4-1.6-7.8C524,878.9,526.4,876.4,526.4,876.4z"/>
		<path class="st82" d="M724,989.5c-4.7,0.4-8.6,1.8-6.5-8.5c2.1-10.3,6.6-22.9,9.8-30.4c3.2-7.6,26.7-39.4,35.9-34.2
			c5.4,4.7,1,7.7-4.4,8.7c-5.5,1.1-15.3,8.9-20.1,16.5c-4.8,7.6-12.5,29.6-13.1,36.9C725.2,985.7,726.4,989.3,724,989.5z"/>
		<path class="st82" d="M799,1028c-0.1,4.2,1.2,8.7-3.3,8.8c-6,0-5.9-6.2-5.7-13.9c0.1-7.7,1.5-32.2,5.4-44.8
			c3.9-12.6,14.7-38.1,32.6-56.2c8.5-7.1,11.2-4.4,14-2.4s1.1,3.8-4.1,5.3c-5.2,1.4-17.7,17-20.8,23c-3.2,6.1-13.9,25.4-15.8,44.2
			C799.3,1010.8,799,1028,799,1028z"/>
		<path class="st82" d="M976.9,1019.5c-3.8-1.7-1.8-4.8,2.3-6.7c4.1-1.9-0.2-11.5-0.1-15.5c0-3.9,1.5-8.1-1.1-16.6
			c-5.8-7.9-9-22.2-12.6-26.8c-6.6-8.5-8.3,7.1-11.2,2.3c-2.9-4.8-10.5-7.1-6.3,1.2c4.2,8.3,9.1,20.5,18.9,54.6
			c3.2,7.1,6.9,8.8,8.7,13c0.6,1.5,1,1.3,1.1,3.6l0.1,2.3C981.6,1027.2,980.6,1021.2,976.9,1019.5z"/>
		<path class="st82" d="M876.9,984.6c-3.5-4.6-3.7-9.5-1.7-15.5c1.9-6,3.4-28,15.4-40.7c11.9-12.7,19.1-24,34.9-25.2
			c15.8-1.3,17.8,10.7,25.9,18.6c9.8,9.6,15.7,31.9,6.8,20.3c-3.4-4.4-3.8,12.9-7.7,6.4c-3.9-6.5-14.8-4.1-9.2,7.2
			c5.7,11.3,1.8,6.3,15,52.5c4.2,9.6,9.3,11.9,11.8,17.7c2.5,5.7,1.9,19.8-0.4,21.6c-2.2,1.9-8.8-2.4-12-6.3
			c-3.2-3.9-5-6.2-4.9-14.5c0.1-8.4-3.7-21-6.5-30.1c-2.8-9.1,0.3-8.8-4.3-16.9c-4.6-8.1-7.6-2.1-12.4-2.2
			c-4.8-0.1-5.9-3.7-13.8-7.6c-7.8-3.9-13,6-13,6c-2.6,4.9-9.6,3.6-14,12C883.6,994.2,880.8,989.8,876.9,984.6z"/>
		<path class="st82" d="M936.9,1182.6c-1.7-3.8-4.6-10.9-8-13.2c-3.4-2.2-3.9-9.4,3.3-9.9c7.2-0.5,10.2-1.5,10.3,7.8
			c0.2,9.3,2.4,11.4,8.3,21.2c5.9,9.8,7.7,16.9,12.7,27.1c5,10.2,7.6,19.8,12.8,28.5c5.2,8.7-1.3,5.3-2.6,5.8
			c-1.3,0.5-6.8,3.3-6.9-2.3c0-5.7-3-14.1-4.9-17.9c-1.9-3.8-10.7-20.5-15.8-28.8C941.1,1192.7,936.9,1182.6,936.9,1182.6z"/>
		<path class="st82" d="M910,1149.2c-5.2,0.9-7.8,6.2-6.6,9.4c1.2,3.2,0.7,6.1,7.4,10.1c6.7,4.1,4.3,10.1,20.7,41.1
			c16.3,31.1,19.4,36.9,19.5,38.3c0.1,1.4,2.7,2.2,4.6-0.2c1.9-2.4,2.4-3.9,5.1-3.8c2.6,0.1-0.5-1.1-3.3-6.6
			c-2.9-5.5-9.6-25.8-13-34.6c-3.4-8.8-17.7-28.6-19.4-35.3s-3.7-5.5-6.1-6.3c-2.4-0.8-3.9-5.3-3.8-7.7
			C915.1,1151.4,910,1149.2,910,1149.2z"/>
		<path class="st82" d="M818.5,1022.1c0.4,8.3,0.4,12.9,5.7,13.8c5.4,0.9,5.4-4.1,5.5-6.8c0-2.7-0.1-22.3,0.5-31.4
			c0.6-9.1,15.6-53,18.7-60c3.1-7,8.6-18.2,13.2-19.7c4.5-1.6,0.5-1.3-4.5-2.6c-4.9-1.3-9.9,9.5-13.7,15.2
			c-6.9,10.3-21.1,55.8-23.1,68.6C818.8,1012.1,818.5,1022.1,818.5,1022.1z"/>
		<path class="st82" d="M904,1020.5l-6.9-0.1c0,0-0.9,3.5-0.2,13.1c0.6,9.7,4,16,10.3,17.7c6.4,1.7,12.9-9.1,12.9-9.1
			s-2.6-2.5-2.6-4.2s-2.2,0.5-6.4,3.1c-4.3,2.6-6.8-3.1-6.8-7.3C904.4,1029.4,904,1020.5,904,1020.5z"/>
		<path class="st82" d="M883.7,1036.1c-3.9-10-2.8-22.6-2.6-28.4c0.2-6.2,0.2-9.8,0.2-9.8l-7.4-6.9c-1.6,15.3-6.3,28.2-1.7,43.1
			c1.1,3.6,5.2,8.6,11.6,4L883.7,1036.1z"/>
		<path class="st82" d="M885.7,1041.5c4.4,9.7,12.2,1.7,12.2,1.7c-1,3,5.8,5.1,5.8,5.1s-18,12-26.3-4.1c0,0,2.8,0.8,4.7,0.1
			C884,1043.6,885.7,1041.5,885.7,1041.5z"/>
		<path class="st82" d="M855.1,1033.7c-4.6,0.8-8.1-5.2-8.3-11.5c-0.2-6.3-0.1-34.7,6.1-56.5c6.2-21.8,18-40.2,21.9-44
			c3.9-3.8,6.1-6.6,8.5-5.1s-2.4,6.5-5.5,10.4c-3,3.9-12.5,23-15.7,38.2c-3.1,15.2-4.2,46.8-3.4,54.5
			C859.6,1027.3,860.9,1032.6,855.1,1033.7z"/>
		<path class="st82" d="M814.4,924.5c-3.7-1.7-8-2.9-11.3,3.2c-3.3,6.1-27.3,37.2-29.7,71.9c-2,17.5,1,26.7-4.4,26.2
			c-5.4-0.5-6.7,0.6-6.3-12.2c0.4-12.9,1.9-22.5,8.7-39c6.8-16.5,18.3-36.8,24.2-45.7c5.9-8.9,10.1-14.6,18.9-10.1
			C816.6,921,815.9,925.3,814.4,924.5z"/>
		<path class="st82" d="M786.2,924.5c-2.9,1.9-3.3-3.7-10.5,7.1c-7.2,10.8-29.1,48.8-29.7,67.2c-0.4,8.9-1.3,11.2-7.7,7.1
			c-6.4-4,0.5-11.2,3.2-21.2s9.1-22.7,15.7-34.5c6.6-11.8,16.4-27.1,19.2-29.3c2.8-2.2,8.9-3.8,9.3-1.5
			C786.3,921.7,788.7,922.9,786.2,924.5z"/>
		<path class="st82" d="M723.8,997.7l-5.1-0.1c-2.3,0.1-0.4,3.7,0.8,6.4s4.6,12.5,8.9,17.2c4.4,4.7,9.4,8.5,9.4,8.5
			s-4.2-5.4-6.4-10.8c-2.2-5.4-1.8-5.7-3.6-9.5C726.1,1005.7,726,997.7,723.8,997.7z"/>
		<path class="st82" d="M703.8,975.1c-4.2,0.1-7.8,1.1-5.3-8.1c2.5-9.3,7.2-20.5,10.6-27.2c3.3-6.8,19.9-31.6,27.9-26.4
			c4.6,4.6,0.5,7.1-4.5,7.7c-5,0.7-9.3,7.9-14.1,14.6c-4.7,6.6-11.6,22.9-12.4,29.5C705.1,971.7,706,975.1,703.8,975.1z"/>
		<path class="st82" d="M703.4,983.3l-4.7-0.4c-2.2,0-0.6,3.5,0.4,6c1,2.6,2.7,8,6.5,12.6c3.8,4.6,8.4,8.5,8.4,8.5
			s-3.6-5.3-5.4-10.4c-1.8-5.1-1-3.7-2.5-7.4C704.5,988.6,705.5,983.4,703.4,983.3z"/>
		<path class="st82" d="M849.9,1040.2c2.4,2.5,4.4,3.4,5.8,2.6c1.4-0.7,3.3-4.1,3.3-4.1s0,11.6,10.1,13.5c6,0.6,8.4-1.5,8.4-1.5
			s1.4,3.4,12.9,3.6c0,0-12.5,6.2-23.3,4C856.2,1056.2,849.9,1040.2,849.9,1040.2z"/>
		<path class="st82" d="M821.7,1040.4c2.1,2,5.9,1.6,8,0.3c0,0,5.8,11.9,14.6,13.3c8.7,1.4,10.5,0.2,10.5,0.2s1.8,2.9,7.6,4.4
			c0,0-16.5,2.9-25-0.4c-8.5-3.4-14.5-13.9-14.5-13.9L821.7,1040.4z"/>
		<path class="st82" d="M791.2,1039.7c3.1,2.9,3.9,3,8.5,1.2c0,0,2.9,5.4,10.7,9.5c7.7,4.1,10.5,4.5,13,4.9c0,0,2.8,3.8,8.2,4.9
			c0,0-17.6,1.8-26.7-3.7C795.8,1051.1,791.2,1039.7,791.2,1039.7z"/>
		<path class="st82" d="M762.7,1030c3,2.3,6.2,1.4,9.4,0.2c0,0,1.9,4,8.3,9.9c6.5,5.9,7.8,6.5,11.4,7.9c0,0,2.2,5.1,8.5,8.2
			c0,0-18.8,0-34.4-20.5C763.4,1032.8,762.7,1030,762.7,1030z"/>
		<path class="st82" d="M744.4,1013.1c-2.5,1.4-5.5,2.4-9.8-1.9c0,0-1.2,3.9,3.5,10.3c4.7,6.5,9.5,12.7,17.6,18.2
			c8.1,5.6,11.6,6.9,11.6,6.9s-8.6-8.3-11.5-13.5c0,0-8.7-8.7-10.8-12.9C742.9,1015.9,744.4,1013.1,744.4,1013.1z"/>
		<path class="st82" d="M960.9,1260.5c-2-1.6-4.4-2.2-3.7-6.4c0.7-4.2,1.8-3.4,5.6-2.4c3.7,0.9,9.2,5.7,6.1,6.3
			C965.9,1258.6,963.5,1262.5,960.9,1260.5z"/>
		<path class="st82" d="M953.1,1260.2c-5,0.2-7.3,2.9-11.3,3.3c-4,0.4-8.5-2-4.4-3.9c4.1-1.9,9.3-2.5,11.6-4.8
			c2.3-2.4,4.1-0.4,3.9,0.7C952.8,1256.5,953.1,1260.2,953.1,1260.2z"/>
		<path class="st82" d="M825.5,1196.5c1.9-2.2,4,5.2,2.8,6.9c-2.1,2.9-1,7.1-4.4,6.6c-3.4-0.4-4.8,9.5-4.8,9.5
			c0.5,5.3-2.2,7.6-6.8,5.4c-4.5-2.2-4.9-4.8-2.5-7.5c4.9-5.6,7.7-20,6.7-24C816.5,1193.4,822.1,1200.5,825.5,1196.5z"/>
		<path class="st82" d="M794.9,1220c6.9,4.8,7.8,9.9,7.8,9.9s1.2,2.6-1.3,0.1s-10-9.7-13.7-10.7c-3.7-1-3.7-4.7-3.3-5.5
			c0.5-0.8,4.5-3.6,5.8-0.4c0,0,0.2,2.9,1.5,4.2C793,1218.7,794.9,1220,794.9,1220z"/>
		<path class="st82" d="M800.8,1234.8c0,0-7-7-9-8.1c-2-1.1-7.7-2.8-8.3-6.4c-0.6-3.6-6.3-0.9-6.5,0.7c-0.2,1.5,2.3,4.3,5,5.5
			c2.6,1.2,7.2,3.6,9.8,5.8c2.6,2.2,6.7,4.3,7.8,4.7C800.5,1237.4,802.2,1236.2,800.8,1234.8z"/>
		<path class="st82" d="M770.8,1223.9c0,0-5.1-0.8-7.4-1.9c-2.3-1.2-4.2-2.8-5.9-2.8c-1.6,0-3.7-2.4-0.9-3.2
			c2.8-0.8,3.5-0.9,4.4,0.6c0.9,1.4,0.2,0,0.9,1.4C762.7,1219.5,769.6,1222,770.8,1223.9z"/>
		<path class="st82" d="M788,1208.3c0,0-3.4,3-10.7,0.4c-7.3-2.6-6.4-11-6.4-11s2.2-2,5.4,2.4c3.2,4.5,8.3,1.6,10.4,3.4
			c2.1,1.8,1.4,4.3,1.4,4.3L788,1208.3z"/>
		<path class="st82" d="M774,1211c0,0-1.6,3.4-9.1,1.8c-7.5-1.6-10.3-6.3-9.9-11.4c0.3-5.1,2.3-3.4,4.5,0.7c2.1,4.1,6.1,5.4,6.1,5.4
			S774.6,1207.3,774,1211z"/>
		<path class="st82" d="M752.3,1209.4c0,0-3.2,3.5-9.8,1.8c-6.6-1.7-9.4-7.3-9.3-9.9c0.1-2.6,0.9-3.2,2.6-0.4
			c1.7,2.8,6.9,4.4,6.9,4.4S752.2,1207.4,752.3,1209.4z"/>
		<path class="st82" d="M973.1,1267.1c-3.7-0.9-7.7-1.1-5.5-3.5c2.2-2.4,4.7-4.6,6.7-2.5c2,2.1,10,5.1,10,5.1s3.2-0.5,3,2.2
			c-0.2,2.7-1.1,6.6-3.7,4.7C980.9,1271.2,975.9,1267.8,973.1,1267.1z"/>
		<path class="st82" d="M991.2,1264.2c-7-0.8-9.2-4-9.2-4s-1.7-1.3,1.1-0.6c2.8,0.8,10.9,3.1,14.3,2.4c3.3-0.6,4.4,1.9,4.3,2.6
			c-0.1,0.7-2.7,4.1-4.6,2.4c0,0-1-1.9-2.4-2.3C993,1264.4,991.2,1264.2,991.2,1264.2z"/>
		<path class="st82" d="M984.8,1256.4c0,0,7.6,2.6,9.5,2.7c1.9,0.1,7.1-0.6,8.5,1.7c1.4,2.3,5.4-1.5,5.2-2.6c-0.2-1.2-3-2.3-5.5-2.2
			c-2.5,0.1-6.9-0.2-9.6-0.8c-2.7-0.6-6.6-0.8-7.6-0.7C984.3,1254.5,983.3,1255.9,984.8,1256.4z"/>
		<path class="st82" d="M992.6,1271.7c0,0,2.3-2.9,9.2-2.6c6.9,0.3,8,6.5,8,6.5s-1.5,1.9-5.2-0.6c-3.8-2.5-7.5,0.6-9.7-0.2
			c-2.2-0.8-2.2-2.8-2.2-2.8L992.6,1271.7z"/>
		<path class="st82" d="M1008,1268.5c0,0,1-2.7,7.8-2.1c6.8,0.6,9.8,3.9,10.1,7.7c0.3,3.8-1.7,2.7-4-0.2c-2.3-2.9-6-3.5-6-3.5
			S1007.9,1271.3,1008,1268.5z"/>
		<path class="st82" d="M1010.1,1262.2c0,0,2-3.2,8-3.4c6.1-0.2,9.7,3.2,10.2,5.1c0.5,1.9-0.1,2.5-2.2,0.8c-2.1-1.7-6.9-1.7-6.9-1.7
			S1010.7,1263.6,1010.1,1262.2z"/>
		<path class="st82" d="M973.9,1274.8c-6.6-1.7-11.3-1.9-16.7-3.5c-5.4-1.6-1.5-6-1.2-7.6c0.4-1.5,4.5,2.5,9.1,3.5
			C969.7,1268.1,973.9,1274.8,973.9,1274.8z"/>
		<path class="st82" d="M932.6,1146.7c4.7-2.7,7.5-1.4,8.9,0.5c1.4,1.9-0.6,5.1-4.3,7.3c-3.7,2.2-10.8,2.9-11.5,1.6
			C924.8,1154.7,927.3,1149.8,932.6,1146.7z"/>
		<path class="st82" d="M815.4,1065c-4.2-3.1-7-10.7,0.1-14.5c7.1-3.7,10.8-2.2,13.7,2.1c4.8,7.2-1.9,10.1,0.2,15.5
			c2.1,5.3,0.3,33.2-0.6,43.3c-0.9,10.1-10.3,50.4-14,59.7c-3.7,9.4,0.8,19.1-2.1,20.3c-2.8,1.2-15.6,7.1-11.5-3.3
			c4.1-10.4,9.7-34.1,10.1-50.3c0.4-16.2,5.4-43.8,4.9-54C815.6,1073.6,815.4,1065,815.4,1065z"/>
		<path class="st82" d="M816.9,1183.1c3.9-12.1,7.8-33.1,7-41.1c-0.8-8,2.2-33.3,3.1-38.3c0.4-2.7-4.1-21.6-3.6-29.2
			c0.5-6.5,3.9-4.2,3.9-4.2s4.9,9.7,10.7,14.1c0,0-2.5,5.6-0.5,30.6s-10.1,54-8.4,61.9c1.7,8,1.3,8.4-2.1,12.3
			c-3.4,3.8-6,4.2-6.7,0.5C819.6,1186,815.5,1187.5,816.9,1183.1z"/>
		<path class="st82" d="M924.4,1012c0,0,7.8,3.2,9-6.1c0,0-2.3-2.6,1.2-4.1c3.4-1.5,6.3,0.4,8.7,12.4c2.4,12,2.9,14.6,0,17.6
			s-15.9-8.9-23.3-5.2c-7.4,3.7-0.5-2.1-2.4-8.4C915.7,1012,924.4,1012,924.4,1012z"/>
		<path class="st82" d="M935.3,1140.2c-2,0.2-4.7,0.2-8.1,2c-2.8,1.5-3.5,5.4-3.6,7.2l-1.1,0.4c-2.9,0.5-6.6-3.4-7.5-5.8
			c-1-2.5-7.1-1.6-7.1-1.6s-0.4-5.4,0.2-10.3c0.6-4.9,1.5-12.3-2-23.6c-3.5-11.3-5.2-35.3-12.5-49.8c-7.3-14.5-12.4-30.3-12.6-30.9
			c-0.1-0.6,1.6-0.2,2.4-5.1l0.7-1.8c0,0,5.2,2.7,11.4,0.1c3.2-1.2-0.2-8.3-1.3-10c0,0,1.9-0.6,3.2-0.8c1.4-0.2,6.4-0.7,12.5,5.2
			c6.2,5.9,2.9,7.1,2.6,11.8c-0.2,4.8-3.7,22.5,2.6,35.4c6.3,12.9,9.5,22.2,8.8,34.7c-0.7,12.6-0.6,25.7,1.8,30
			c2.4,4.3,4.6,0.6,7.9,8.2L935.3,1140.2z"/>
		<path class="st82" d="M899.9,984.3c0,0,11.7-19,23.2-3c3.8,5.3,8.8,1.4,8.8,1.4s7,2.2,5.4,8.1c-1.7,5.9-8.5,3.6-8.8,7.4
			c-0.3,3.8,3.6,7.7-2.4,9.3c-9.2,2.4,2.5-2.6-17.1,5.4c-16,11.5-19,17.4-31.5,21.8c-12.5,4.3-19.8,11.2-25.6,31.2
			c-1.5,9.2-8.2,13.6-11.7,9.3s-5.2-9.8-2.6-12c2.6-2.2-2.3-3.4,0.2-7.3c2.4-4,7.6-4.8,3.9-13.1c0,0-4.7-5.3-1.6-9.9
			c3.2-4.6,5-7.2,12.2-11.6c7.2-4.4,28.8-13.4,36.3-27.8C895.7,984.4,899.9,984.3,899.9,984.3z"/>
	</g>
</g>
<g id="Rulers" class="st83">
</g>
</svg>
