<?xml version="1.0" encoding="utf-8"?>
<!-- Generator: Adobe Illustrator 19.2.0, SVG Export Plug-In . SVG Version: 6.00 Build 0)  -->
<svg version="1.1" id="Layer_1" xmlns="http://www.w3.org/2000/svg" xmlns:xlink="http://www.w3.org/1999/xlink" x="0px" y="0px"
	 viewBox="0 0 360 186" style="enable-background:new 0 0 360 186;" xml:space="preserve">
<style type="text/css">
	.st0{opacity:0.75;fill:#FFFFFF;}
	.st1{opacity:0.5;}
	.st2{opacity:0.75;}
	.st3{fill:#FFFFFF;}
	.st4{opacity:0.5;fill:#FFFFFF;}
</style>
<g>
	<g>
		<path class="st0" d="M159.1,89.9c0.7,0,1.1,0,1.6,0c5.4,0,10.7-0.1,16.1,0c6.5,0.1,12.6-1.4,18.5-4.2c2.1-1,4.4-1.9,6.6-2.6
			c3.2-1,5.4,0.1,6.3,2.7c0.5,1.4-0.2,2.4-1.7,2.6c-0.4,0-0.9,0.6-0.9,1c-0.1,1,0.6,1.5,1.6,1.7c1.5,0.2,3.2-1.1,3.8-3
			c1.1,2,2.3,3.9,3.6,6.2c-2.6,0-4.8,0.1-7,0c-1.2-0.1-1.7,0.3-2.1,1.5c-3.2,9.3-6.4,18.6-9.6,27.8c-0.3,1-0.6,1.9-1,2.9
			c0.3,0.1,0.4,0.2,0.5,0.2c4.3,0,8.6,0,12.9,0c0.4,0,0.9-0.5,1.1-0.9c0.5-1.2,0.8-2.5,1.3-3.7c0.2-0.4,0.8-0.9,1.2-0.9
			c1.7-0.1,3.3-0.1,5,0c1.5,0,3.4-0.5,4.3,0.3c1,0.8,1.3,2.7,1.7,4.1c0.3,0.9,0.7,1.2,1.6,1.2c3.9-0.1,7.9,0,11.8,0
			c0.4,0,0.8-0.1,1.2-0.1c-3.7-10.6-7.3-21.1-11-31.5c-0.1-0.3-0.7-0.7-1.1-0.7c-1.8-0.1-3.6,0-5.4,0c-1.8,0-3.3-1-3.8-2.8
			c-0.5-1.4-0.9-2.7-1.3-4.1c-0.3-1.1,0.2-2.3,1.3-2.6c1.5-0.4,3-0.8,4.5-0.8c2.4-0.1,4.9,0.1,7.3,0.2c0.4,0,0.8,0,1.2,0.1
			c2.3,0.7,4.5,1.5,6.8,2.1c1,0.3,2.1,0.5,3.1-0.1c-1.8-1.7-3.5-3.4-5.2-5c-0.7-0.7-1.3-1.3-0.3-2.3c-0.5,0-0.9-0.1-1.2-0.1
			c-0.1-0.4-0.1-0.7-0.2-1.3c-0.6,0.3-1.1,0.4-1.4,0.7c-0.8,0.8-1.7,0.9-2.7,0.7c-0.6-0.1-1.3-0.2-1.9-0.2c-2.4,0.2-4.5-0.6-6.6-1.5
			c-1.7-0.7-3.6-1.1-5.3-1.9c-5.8-3-11.7-3.7-17.7-0.5c-2.1,1.2-4.2,2.5-6.2,3.8c-2.4,1.6-4.8,3-7.7,3.2c-3.1,0.2-6.3,0-9.5,0
			c-0.1,0-0.1-0.1-0.2-0.2c0-1.3,0-2.6,0-4c2.9,0,5.7,0,8.5,0c0-2.7,0-5.2,0-8c-2.9,0-5.7,0-8.6,0c0-1.1,0-2.1,0-3
			c-0.1-0.9,0.4-1.2,1.2-1.1c2.9,0,5.9,0,8.8,0c0.8,0,1.6,0,2.4,0c0-2.8,0-5.3,0-7.9c-8.9,0-17.7,0-26.5,0
			C159.1,68.4,159.1,79.1,159.1,89.9z M81.9,59.3c-0.6-0.2-1.1-0.4-1.6-0.6c-4.3-1.2-8.7-1.7-13.2-1.5c-3,0.1-5.9,0.6-8.6,2
			c-3.1,1.6-4.6,4.3-4.9,7.8c-0.2,3.7,1,6.6,4.3,8.4c1.5,0.8,3,1.4,4.5,2.1c0.9,0.4,2,0.8,2.7,1.4c0.5,0.4,1.2,1.5,1,1.9
			c-0.3,0.7-1.2,1.4-1.9,1.6c-0.9,0.2-1.9-0.1-2.7-0.4c-4.3-1.6-7.3-4.6-9.5-8.5c-2.6-4.7-2.4-9.8-1.5-14.9c0.1-0.7,0.9-1.4,1.5-2
			c1.2-1.2,2.5-2.4,3.9-3.5c0.7-0.6,1.5-1.3,2.4-1.6c1.6-0.6,3.2-1,4.8-1.2c1.9-0.3,3.9-0.4,5.8,0.5c0.9,0.4,2.1,0.2,3.1-0.2
			c0.8-0.3,1.5-0.4,2.3-0.1c4,1.6,7.6,3.8,10.6,6.8c0.3,0.3,0.5,0.5,0.8,0.7c-0.6-1.1-1.3-2.2-2.2-2.9c-2.8-2-5.7-3.8-8.5-5.7
			c-0.4-0.3-0.9-0.5-1.2-0.8c-2.1-2.7-3-2.9-6.2-1.6c-1.2,0.5-2.6,0.7-3.9,0.6c-1.7-0.2-3.2-1.2-4.9-1.4c-2.8-0.3-4-2-4.6-4.5
			c-0.3-1.2-0.5-2.2,0.3-3.3c0.6-0.8,0.8-1.8,1.4-2.6c0.9-1.6,1.8-3.2,3-4.6c1.6-1.7,2.4-3.4,1.9-5.6c-0.9-3.8-2.6-7.2-5.1-10.2
			c-0.4-0.4-1-0.7-1.5-1c-0.2,0.5-0.5,1-0.7,1.4c-0.4,0-0.8,0-1.3,0c-0.1,0.5-0.1,0.9-0.2,1.4c-1.6-0.2-1.6-0.2-1.9,1.3
			c-1.8-0.1-1.9,0-2.2,1.8c-1.1-0.3-1.8,0.1-1.7,1.4c-0.5,0.5-0.7,1-1,1.6c-0.1,0.3-0.3,0.6-0.5,0.8c-0.2,0.3-0.6,0.6-0.8,0.9
			c-0.6,1.6-0.9,3.4-1.8,4.9c-0.9,1.7-1,3.8-2.7,5.1c-0.3,0.2-0.5,0.6-0.5,0.9c0.1,2.6-2,4.7-1.6,7.4c0.2,1.4,0.1,2.9-0.1,4.3
			c-0.2,1.5-0.6,3-1.3,4.3c-0.3,0.5-1.5,0.7-2.3,0.7c-4.7,0.3-6,2.8-6.3,7.3c0,0.8,0.1,1.6-1,2c-1.6,0.6-3,1.5-4.3,2.1
			c0.4-0.1,1-0.2,1.5-0.4c-0.1,0.1-0.2,0.2-0.2,0.3c0.3,0.3,0.6,0.7,0.8,1c-0.6,0.2-1.3,0.4-2,0.7c0,0.1,0,0.2,0.1,0.2
			c2.3-0.7,4.7-1.4,7.1-2.1c0,0.2,0,0.4,0.1,0.6c0.3,1,0.5,2.4,1.2,2.8c1,0.7,1.7-0.7,2.5-1.3c0.7-0.5,1.4-0.9,2.4-1.6
			c0.1,1.4,0,2.3,0.2,3.2C38,77.7,44,84.3,53,88.2c4.9,2.1,10.3,2.4,15.7,2.2c3.2-0.1,6.4-0.7,9.4-2.3c5.7-3.2,6.2-12.9,0-15.9
			c-2-0.9-4-1.8-6-2.7c-1.1-0.5-2.3-1-3.4-1.7c-0.4-0.3-0.8-1.1-0.7-1.6c0.1-0.5,0.7-1.1,1.2-1.4c0.5-0.3,1.2-0.2,1.9-0.2
			c2.6,0.2,4.6,1.5,6.3,3.3c0.3,0.3,0.6,0.8,1,1.4c0.3-0.7,0.5-1.1,0.6-1.4C79.9,65.1,80.8,62.3,81.9,59.3z M68.3,141.1
			c-1.2-3.4-2.3-6.3-3.3-9.3c-0.3-1-0.8-1.3-1.8-1.3c-3.7,0.1-7.3,0-11,0c-1.7,0-3.3,0.3-4.9,0.6c-1.8,0.4-3.5,1.3-5.3,1.4
			c-3,0.2-5.6,1-7.7,3.2c-1,1-1.8,0.8-2.6-0.3c-0.2-0.3-0.3-0.7-0.4-0.9c-1.8,1-1.5,3.3-3.8,3.1c-1.6-0.1-3.1,0-4.3-1.5
			c0,2.1,0.3,4.1-1.3,5.4c0.4,0.4,0.6,0.7,0.9,1c-0.4,0.3-0.8,0.5-1.1,0.8c-0.3,0.9-0.5,1.9-0.7,2.8c-0.1,0.4-0.1,0.9,0.1,1.2
			c1.2,2,3,2.6,5.2,1.7c0.3-0.1,0.9-0.2,1.1,0c0.2,0.2,0.2,0.8,0.1,1.1c-1.8,4-4,7.5-8.6,8.8c-0.9,0.2-1.5,0.7-1.1,1.9
			c2.1-0.2,4.2,0.6,6.1-1c1.4-1.1,2.9-2.2,4.4-3.1c2-1.2,3.7-2.6,5.3-4.3c0.9-1,2.2-1.6,3.5-2.2c1.6-0.7,2.3-0.1,2,1.6
			c-0.5,2.4-1.2,4.7-2.1,6.9c-0.3,0.8-1.4,1.3-2.3,1.9c-0.6,0.4-1.2,0.6-0.9,1.5c0.7,0,1.4,0.1,2.1,0.1c2.3,0,4-0.8,5.1-3
			c1-2.1,2.4-4,3.5-6.1c0.6-1,0.9-2.1,1.4-3.2c0.2-0.5,0.5-1,1-1.2c4.5-1.9,10-2.5,12.1,4.2c0.9,3,2.1,5.8,3.1,8.8
			c0.3,0.8,0.7,1,1.5,1c2.8,0,5.6-0.1,8.4,0c0.9,0,1.3-0.4,1.5-1.1c1.2-3.3,2.4-6.5,3.6-9.8c0.2-0.5,0.4-1,0.7-1.7
			c0.3,0.6,0.5,1,0.6,1.5c1.3,3.3,2.7,6.7,4,10.1c0.3,0.9,0.8,1.1,1.7,1.1c2.7-0.1,5.3-0.1,8,0c1.1,0,1.6-0.3,1.9-1.4
			c3-9.2,6.2-18.4,9.2-27.5c0.4-1.1,0.7-2.2,1.1-3.5c-4.5,0-8.9,0-13.3,0c-0.3,0-0.8,0.5-0.9,0.9c-0.5,1.3-0.9,2.7-1.4,4.1
			c-0.6,1.7-1.2,3.4-1.9,5.5c-1.3-3.4-2.5-6.3-3.6-9.3c-0.3-0.9-0.8-1.3-1.8-1.2c-2.5,0.1-5,0.1-7.4,0c-1,0-1.4,0.3-1.8,1.2
			C70.7,134.8,69.6,137.7,68.3,141.1z M344.2,106.1c0.2,0.2,0.3,0.4,0.4,0.5c0-0.9,0.9-0.3,1.3-0.8c0.7-0.7,1.1-2.5,0.5-3.2
			c-3.4-3.6-9.8-2.9-12,1.6c-2.1,4.4-3.7,9.2-3,14.2c0.8,6.3,1,12.7,0.6,19c-0.3,5.9-1.7,11.6-5.6,16.4c-2.9,3.7-6.2,6.8-11.1,7.2
			c-3.9,0.3-7.8-0.3-9.9-3.9c-1.3-2.3-2.7-2.5-4.8-2.4c-2.5,0.1-5.1,0-7.6,0c-0.4,0-0.9,0-1.4-0.1c0-1.3,0-2.6,0-4
			c2.9,0,5.7,0,8.5,0c0-2.8,0-5.4,0-8.1c-2.9,0-5.7,0-8.5,0c0-1.4,0-2.6,0-4c4.2,0,8.2,0,12.3,0c0-2.8,0-5.4,0-8c-9,0-17.8,0-26.6,0
			c0,10.8,0,21.4,0,32.2c0.7,0,1.2,0,1.8,0c8.7,0,17.3,0,26,0c4.5,0,9,0,13.5-0.4c4.9-0.4,9.4-2,13.3-5.1c0.5-0.4,1-0.9,1.8-1.5
			c1,3.3,3.4,4.9,6.4,5.8c2.7,0.8,5.6,2,8.5,0.1c-1.1-1.6-2.8-1.3-4.2-1.7c0.1-1.3-0.9-0.8-1.5-0.9c-0.5-0.1-1.6,0-0.9-0.8
			c1.1-1.3,0.9-2.7,1-4.1c0-2.4,0.3-4.7,1.1-7c0.7-2.1,1.3-4.4,1.3-6.6c0.1-4.9-0.3-9.8-0.3-14.7c0-2.5,0.2-5,3.1-6.1
			c1.1-0.4,1-1.1-0.2-1.9c0.2-0.5,0.3-1,0.4-1.4c-0.6-0.4-1.1-0.6-1.6-0.9c-0.2,0.1-0.5,0.4-0.8,0.4c-0.9,0.2-1.9,0.1-2.7,0.4
			c-0.6,0.2-0.7,0.2-1-0.2c-1.9-3-1.6-6.3-0.1-9.3c0.2-0.4,0.9-0.6,1.5-0.9c0.1,0.4,0.1,0.8,0.2,1.3
			C344.1,106.8,344.1,106.5,344.2,106.1z M283.2,83c-0.1-0.1-0.3-0.1-0.4-0.2c-0.1-0.4-0.5-1-0.3-1.3c0.6-1.3,1.4-2.6,2.1-3.8
			c0.3-0.6,0.9-1.2,1-1.8c0.1-1.2,0.8-1.6,1.8-1.8c0.6-0.1,1.2-0.2,1.7-0.3c5.1-0.7,10.1,2.6,11.4,7.4c1.7,6-2.2,11.5-6.2,13.9
			c0,0-0.1-0.1-0.3-0.1c0.3-0.4,0.6-0.8,0.9-1.2c1.6-2.2,2.7-4.6,2.6-7.4c-0.1-4.5-3.2-7.6-7.6-7.5c-4.3,0.2-7.3,3.6-6.9,8.1
			c0.3,3,2.2,5.5,4.8,6c0.1-1.4,0.2-2.8,0.3-4.2c0.6,2.7,0.3,5.2-0.7,6.8c-1,1.6-2.6,2.2-4.5,2.6c1.5,0.5,3,0.7,4.5,1
			c8,1.4,16-5.5,18.6-10.8c0.9-1.9,1.8-4.2,1.5-6.5c-0.1-0.4,0.1-1.1,0.1-1.1c1.2,0,0.6-0.9,0.6-1.3c0-1-0.3-2-0.4-3.1
			c0-0.3-0.2-0.9-0.1-0.9c1.2-0.6,0.4-1.5,0.3-2.2c-0.2-0.9-0.6-1.8-0.9-2.7c-0.1-0.2-0.2-0.6-0.2-0.6c1.1-0.6,0.2-1.2,0-1.6
			c-0.5-0.9-1.2-1.7-1.8-2.5c-0.1-0.1-0.1-0.2-0.2-0.4c0.3,0,0.5,0,1.1-0.1c-1.6-1.7-3-3.1-4.4-4.6c0.2,0,0.5-0.1,0.7-0.1
			c0-0.1,0.1-0.2,0.1-0.3c-1.8-0.9-3.6-1.9-5.4-2.9c0.2-0.1,0.5-0.2,0.7-0.3c-2-1.3-4.3-0.7-6.4-1.8c-1.8-0.9-4,0.1-6.1-0.3
			c-1.9-0.3-3.6,1.1-5.6,1.4c-1.8,0.3-3.3,1.9-5,3c-1.2,0.7-1.3,2.2-2.5,3.1c-1.1,0.8-1.2,2.7-1.9,4.1c-1,1.9-1.2,4.1-1.5,6.3
			c-0.2,1.8-0.1,3.7,0.3,5.4c0.5,2,1.5,3.8,2.4,5.7c0.3,0.7,0.9,1.5,1.5,1.9c3.1,2,6.2,3.8,9.3,5.7c0.4,0.2,0.8,0.4,1.3,0.5
			c0.1-0.1,0.2-0.2,0.3-0.3c-0.2-0.4-0.4-0.7-0.6-1.1c-1-1.7-2.2-3.3-3.1-5.1c-0.8-1.4-0.7-2.8-0.1-4.2c0.7,0.9,1.3,1.6,1.9,2.4
			C282.3,83.8,282.7,83.4,283.2,83z M265.7,126.3c4.8,0,9.5,0,14.2,0c0-10.8,0-21.4,0-32.2c-0.6,0-1,0-1.5,0c-3.5,0-7,0.1-10.6,0
			c-1.2,0-2.1,0.3-2.9,1.3c-1.5,1.9-3.1,3.6-4.8,5.5c-1.8-2.1-3.4-4-5.2-5.9c-0.4-0.5-1.2-0.8-1.8-0.8c-2.3-0.1-4.6,0-6.9,0
			c-1.9,0-3.8,0-5.7,0c0,10.8,0,21.5,0,32.3c0.5,0,0.9,0.1,1.3,0.1c3.8,0,7.7,0,11.5,0c1.1,0,1.4-0.3,1.4-1.4c-0.1-4.3,0-8.7,0-13
			c0-0.5,0-0.9,0.1-1.8c1.9,2.2,3.6,4.1,5.4,6.1c1.8-2,3.5-4,5.2-6c0.1,0.1,0.2,0.1,0.3,0.2C265.7,115.8,265.7,121,265.7,126.3z
			 M176.8,104.6c-0.1,0-0.2,0.1-0.3,0.1c-0.3-0.4-0.6-0.7-0.8-1.1c-2-2.9-3.9-5.7-5.9-8.6c-0.3-0.4-0.7-0.8-1.1-0.8
			c-3.2-0.1-6.4,0-9.6,0c0,10.8,0,21.5,0,32.2c4.7,0,9.4,0,14.2,0c0-3.2,0-6.3,0-9.7c0.5,0.7,0.8,1,1.1,1.4c1.7,2.5,3.4,5,5.1,7.5
			c0.6,0.9,1.1,1.2,2.2,1.2c2.7-0.1,5.3,0,8,0c0.5,0,1-0.1,1.4-0.1c0-10.9,0-21.7,0-32.4c-4.7,0-9.4,0-14.2,0
			C176.8,97.7,176.8,101.1,176.8,104.6z M159,162.9c4.3,0,8.5,0,12.7,0c2.6,0,5.2,0,7.7-0.4c9.3-1.4,15-9.9,13.1-19
			c-1.6-7.6-7.7-12.6-15.6-12.8c-5.6-0.1-11.3-0.1-16.9-0.1c-0.3,0-0.6,0.1-0.9,0.1C159,141.4,159,152,159,162.9z M125.5,89.9
			c-0.1-0.4-0.1-0.5-0.1-0.6c-3.6-10.2-7.1-20.5-10.7-30.7c-0.3-0.8-0.8-1-1.5-0.9c-5.9,0-11.8,0-17.7,0c-1.1,0-1.5,0.4-1.9,1.4
			c-2.8,8.3-5.7,16.6-8.6,24.9c-0.7,2-1.4,4-2.1,6.1c4.6,0,9.1,0,13.5,0c0.3,0,0.8-0.5,1-0.8c0.5-1.2,0.9-2.4,1.2-3.6
			c0.2-0.8,0.6-1.1,1.4-1.1c2.8,0,5.7,0,8.5,0c0.8,0,1.2,0.3,1.4,1.1c0.5,1.5,0.7,3.5,1.8,4.2c1.1,0.7,3,0.2,4.6,0.2
			C119.4,89.9,122.4,89.9,125.5,89.9z M38.2,94.1c0.6,1.7,1.1,3.2,1.6,4.7c3,8.8,6,17.6,8.9,26.3c0.3,0.8,0.5,1.3,1.5,1.3
			c3.9-0.1,7.8,0,11.8,0c0.8,0,1.1-0.3,1.3-1c3.4-10.1,6.9-20.3,10.3-30.4c0.1-0.3,0.1-0.6,0.1-0.9c-4.5,0-8.9,0-13.2,0
			c-0.4,0-0.9,0.5-1.1,0.9c-1,2.6-1.8,5.3-2.7,7.9c-0.2,0.6-0.4,1.1-0.7,1.9c-0.3-0.7-0.4-1-0.5-1.3c-1-2.8-1.9-5.6-2.9-8.4
			c-0.1-0.4-0.6-0.9-0.9-1C47.4,94.1,42.9,94.1,38.2,94.1z M155.8,57.6c-4.6,0-9,0-13.4,0c-0.4,0-0.9,0.4-1,0.8
			c-0.5,1.1-0.8,2.2-1.1,3.3c-0.7,2.2-1.5,4.3-2.3,6.8c-0.3-0.8-0.5-1.3-0.7-1.7c-0.9-2.7-1.8-5.5-2.8-8.2c-0.1-0.4-0.6-1-1-1
			c-4.4-0.1-8.8,0-13.3,0c0.1,0.4,0.1,0.7,0.2,1c3.4,10.1,6.9,20.2,10.3,30.3c0.3,0.8,0.6,1,1.4,1c3.8,0,7.6-0.1,11.4,0
			c1.1,0,1.5-0.4,1.8-1.3c2.2-6.7,4.5-13.3,6.8-19.9C153.3,65.1,154.5,61.4,155.8,57.6z M326.1,95.7c-5.4-1.6-10.6-2.5-16-1.9
			c-2.5,0.3-5.1,0.9-7.4,1.9c-3.5,1.5-4.9,4.6-5.1,8.3c-0.1,3.6,1.4,6.4,4.6,8.1c1.2,0.7,2.5,1.2,3.8,1.8c0.9,0.4,1.9,0.8,2.8,1.3
			c1,0.5,1.8,1.3,1.4,2.5c-0.4,1.1-1.5,1.6-2.5,1.3c-1.4-0.3-2.9-0.7-4.1-1.5c-1.4-0.9-2.6-2.2-3.9-3.3c-1,3.1-1.9,6.2-3,9.3
			c-0.3,1,0,1.2,0.9,1.5c4.2,1.4,8.5,1.9,12.9,2c3.7,0.1,7.3-0.2,10.7-1.8c3.6-1.7,5.4-4.6,5.5-8.6c0.1-3.7-1.5-6.5-4.9-8.2
			c-1.8-0.8-3.6-1.6-5.4-2.4c-1.2-0.6-2.5-1.1-3.6-1.8c-1.1-0.8-0.9-2.3,0.4-2.8c0.7-0.3,1.6-0.4,2.2-0.2c1.5,0.4,3,1,4.3,1.8
			c1.1,0.6,1.9,1.7,3,2.7C323.8,102.4,324.9,99.1,326.1,95.7z M123,102.1c0-2.8,0-5.4,0-8c-9,0-17.8,0-26.7,0c0,0.5-0.1,0.8-0.1,1.2
			c0,9.9,0,19.8,0,29.8c0,1.1,0.4,1.3,1.4,1.3c8,0,16.1,0,24.1,0c0.4,0,0.9-0.1,1.3-0.1c0-2.7,0-5.2,0-7.9c-0.6,0-1,0-1.5,0
			c-3.2,0-6.5,0-9.7,0c-0.4,0-1.2-0.4-1.2-0.7c-0.2-1-0.1-2.1-0.1-3.3c3,0,5.8,0,8.7,0c0-2.7,0-5.3,0-8c-2.1,0-4.2,0-6.2,0
			c-2.8,0-2.4,0.5-2.5-2.5c-0.1-1.3,0.4-1.7,1.7-1.6C115.7,102.2,119.3,102.1,123,102.1z M126.8,108.4c1.9,0,3.7,0.1,5.5,0
			c1.3-0.1,1.8,0.3,1.8,1.7c-0.1,4.6,0,9.1,0,13.7c0,0.8,0,1.7,0,2.6c4.8,0,9.5,0,14.3,0c0-6,0-11.9,0-18c2.5,0,4.7,0,7.1,0
			c0-4.8,0-9.5,0-14.2c-9.6,0-19.1,0-28.6,0C126.8,98.9,126.8,103.5,126.8,108.4z M273.4,130.7c-8.9,0-17.7,0-26.5,0
			c0,10.8,0,21.4,0,32.1c4.8,0,9.4,0,14.3,0c0-3.4,0-6.7,0-10.1c3.1,0,6.1,0,9,0c0-2.8,0-5.4,0-8c-2.7,0-5.2,0-7.8,0
			c-0.4,0-1.1-0.4-1.1-0.7c-0.1-1.7-0.1-3.4-0.1-5.3c4.2,0,8.2,0,12.3,0C273.4,135.9,273.4,133.3,273.4,130.7z M142.3,154.9
			c0-8.2,0-16.1,0-24.2c-4.9,0-9.6,0-14.3,0c0,10.8,0,21.4,0,32.1c9,0,17.9,0,26.8,0c0-2.7,0-5.2,0-7.9
			C150.6,154.9,146.6,154.9,142.3,154.9z M211,154.8c0-8.2,0-16.2,0-24.1c-4.8,0-9.5,0-14.1,0c0,10.8,0,21.4,0,32.1
			c9,0,17.8,0,26.7,0c0-2.7,0-5.2,0-8C219.4,154.8,215.3,154.8,211,154.8z M91.4,94.2c-4.8,0-9.4,0-14.1,0c0,10.7,0,21.4,0,32.2
			c4.7,0,9.4,0,14.1,0C91.4,115.6,91.4,104.9,91.4,94.2z M122.1,130.7c-4.8,0-9.5,0-14.1,0c0,10.8,0,21.4,0,32.1c4.8,0,9.4,0,14.1,0
			C122.1,152,122.1,141.4,122.1,130.7z M227.8,162.8c4.8,0,9.5,0,14.1,0c0-10.8,0-21.4,0-32.1c-4.8,0-9.4,0-14.1,0
			C227.8,141.4,227.8,152.1,227.8,162.8z"/>
		<path class="st1" d="M159.1,89.9c0-10.8,0-21.5,0-32.2c8.8,0,17.6,0,26.5,0c0,2.6,0,5.1,0,7.9c-0.8,0-1.6,0-2.4,0
			c-2.9,0-5.9,0-8.8,0c-0.8,0-1.3,0.2-1.2,1.1c0.1,0.9,0,1.9,0,3c2.9,0,5.7,0,8.6,0c0,2.7,0,5.3,0,8c-2.8,0-5.6,0-8.5,0
			c0,1.4,0,2.7,0,4c0.1,0,0.1,0.2,0.2,0.2c3.2,0,6.3,0.2,9.5,0c2.8-0.2,5.3-1.6,7.7-3.2c2-1.3,4.1-2.7,6.2-3.8
			c6-3.2,11.8-2.5,17.7,0.5c1.7,0.9,3.6,1.2,5.3,1.9c2.1,0.9,4.3,1.7,6.6,1.5c0.6-0.1,1.3,0,1.9,0.2c1,0.2,1.9,0.1,2.7-0.7
			c0.3-0.3,0.8-0.4,1.4-0.7c0.1,0.6,0.1,0.9,0.2,1.3c0.3,0,0.7,0,1.2,0.1c-1,1-0.4,1.7,0.3,2.3c1.7,1.6,3.4,3.2,5.2,5
			c-1,0.7-2.1,0.4-3.1,0.1c-2.3-0.7-4.5-1.4-6.8-2.1c-0.4-0.1-0.8-0.1-1.2-0.1c-2.4-0.1-4.9-0.3-7.3-0.2c-1.5,0.1-3,0.4-4.5,0.8
			c-1.1,0.3-1.6,1.5-1.3,2.6c0.4,1.4,0.8,2.8,1.3,4.1c0.6,1.7,2,2.7,3.8,2.8c1.8,0,3.6,0,5.4,0c0.4,0,1,0.4,1.1,0.7
			c3.7,10.4,7.3,20.9,11,31.5c-0.5,0-0.9,0.1-1.2,0.1c-3.9,0-7.9,0-11.8,0c-0.9,0-1.3-0.3-1.6-1.2c-0.5-1.4-0.7-3.3-1.7-4.1
			c-1-0.7-2.9-0.2-4.3-0.3c-1.7,0-3.3-0.1-5,0c-0.4,0-1,0.5-1.2,0.9c-0.5,1.2-0.8,2.5-1.3,3.7c-0.2,0.4-0.7,0.9-1.1,0.9
			c-4.3,0.1-8.6,0-12.9,0c-0.1,0-0.2-0.1-0.5-0.2c0.3-1,0.6-1.9,1-2.9c3.2-9.3,6.5-18.5,9.6-27.8c0.4-1.1,0.9-1.5,2.1-1.5
			c2.2,0.1,4.3,0,7,0c-1.3-2.2-2.5-4.2-3.6-6.2c-0.7,1.9-2.3,3.2-3.8,3c-1-0.1-1.7-0.6-1.6-1.7c0-0.4,0.6-0.9,0.9-1
			c1.5-0.2,2.2-1.2,1.7-2.6c-1-2.6-3.2-3.7-6.3-2.7c-2.3,0.7-4.5,1.6-6.6,2.6c-5.9,2.8-12,4.4-18.5,4.2c-5.4-0.1-10.7,0-16.1,0
			C160.2,89.9,159.7,89.9,159.1,89.9z M216.5,105.7c-0.1,0-0.2,0-0.3,0c-0.8,2.5-1.6,5-2.5,7.6c1.9,0,3.5,0,5.3,0
			C218.1,110.6,217.3,108.1,216.5,105.7z"/>
		<path class="st1" d="M81.9,59.3c-1,3-2,5.8-3,8.7c-0.1,0.3-0.3,0.6-0.6,1.4c-0.4-0.6-0.7-1-1-1.4c-1.7-1.8-3.7-3.1-6.3-3.3
			c-0.6,0-1.3-0.1-1.9,0.2c-0.5,0.3-1.1,0.9-1.2,1.4c-0.1,0.5,0.3,1.3,0.7,1.6c1,0.7,2.2,1.2,3.4,1.7c2,0.9,4,1.8,6,2.7
			c6.3,3,5.7,12.7,0,15.9c-2.9,1.6-6.1,2.2-9.4,2.3c-5.3,0.2-10.7,0-15.7-2.2c-9-3.9-15-10.5-17.1-20.3c-0.2-0.9-0.1-1.9-0.2-3.2
			c-1,0.7-1.7,1.1-2.4,1.6c-0.8,0.6-1.5,2-2.5,1.3c-0.7-0.5-0.8-1.8-1.2-2.8c-0.1-0.2-0.1-0.4-0.1-0.6c-2.4,0.7-4.7,1.4-7.1,2.1
			c0-0.1,0-0.2-0.1-0.2c0.7-0.2,1.4-0.5,2-0.7c-0.3-0.3-0.6-0.7-0.8-1c0.1-0.1,0.2-0.2,0.2-0.3c-0.6,0.1-1.2,0.3-1.5,0.4
			c1.3-0.7,2.8-1.6,4.3-2.1c1.1-0.4,1-1.2,1-2c0.2-4.5,1.6-7,6.3-7.3c0.8-0.1,2-0.2,2.3-0.7c0.7-1.3,1.1-2.8,1.3-4.3
			c0.2-1.4,0.3-2.9,0.1-4.3c-0.4-2.7,1.6-4.8,1.6-7.4c0-0.3,0.2-0.8,0.5-0.9c1.7-1.3,1.7-3.4,2.7-5.1c0.8-1.5,1.2-3.3,1.8-4.9
			c0.1-0.3,0.5-0.6,0.8-0.9c0.2-0.3,0.4-0.5,0.5-0.8c0.3-0.6,0.5-1.1,1-1.6c-0.1-1.3,0.5-1.7,1.7-1.4c0.3-1.9,0.4-2,2.2-1.8
			c0.2-1.5,0.2-1.5,1.9-1.3c0.1-0.4,0.1-0.9,0.2-1.4c0.5,0,0.9,0,1.3,0c0.3-0.5,0.5-1,0.7-1.4c0.5,0.3,1.2,0.5,1.5,1
			c2.5,3,4.2,6.4,5.1,10.2c0.5,2.2-0.3,4-1.9,5.6c-1.2,1.3-2.1,3-3,4.6c-0.5,0.8-0.8,1.9-1.4,2.6c-0.8,1.1-0.7,2-0.3,3.3
			c0.7,2.5,1.8,4.2,4.6,4.5c1.7,0.2,3.2,1.2,4.9,1.4c1.3,0.2,2.7-0.1,3.9-0.6c3.2-1.3,4.1-1.1,6.2,1.6c0.3,0.4,0.8,0.6,1.2,0.8
			c2.8,1.9,5.7,3.7,8.5,5.7c1,0.7,1.6,1.8,2.2,2.9c-0.3-0.2-0.5-0.5-0.8-0.7c-3-3-6.6-5.3-10.6-6.8c-0.8-0.3-1.5-0.2-2.3,0.1
			c-0.9,0.3-2.2,0.5-3.1,0.2c-2-0.8-3.9-0.7-5.8-0.5c-1.6,0.2-3.3,0.7-4.8,1.2c-0.9,0.3-1.7,1-2.4,1.6c-1.3,1.1-2.6,2.3-3.9,3.5
			c-0.6,0.6-1.4,1.3-1.5,2c-0.9,5.1-1.2,10.2,1.5,14.9c2.2,3.9,5.2,6.9,9.5,8.5c0.9,0.3,1.9,0.6,2.7,0.4c0.7-0.2,1.6-0.9,1.9-1.6
			c0.2-0.5-0.5-1.5-1-1.9c-0.8-0.6-1.8-1-2.7-1.4c-1.5-0.7-3.1-1.3-4.5-2.1c-3.3-1.8-4.5-4.7-4.3-8.4c0.2-3.5,1.8-6.1,4.9-7.8
			c2.7-1.4,5.6-1.9,8.6-2c4.5-0.2,8.9,0.3,13.2,1.5C80.8,58.9,81.2,59.1,81.9,59.3z"/>
		<path d="M68.3,141.1c1.3-3.4,2.4-6.3,3.5-9.4c0.3-0.9,0.8-1.3,1.8-1.2c2.5,0.1,5,0.1,7.4,0c1,0,1.4,0.3,1.8,1.2
			c1.1,3,2.3,5.9,3.6,9.3c0.7-2.1,1.3-3.8,1.9-5.5c0.5-1.4,0.9-2.8,1.4-4.1c0.1-0.4,0.6-0.9,0.9-0.9c4.4-0.1,8.7,0,13.3,0
			c-0.4,1.3-0.7,2.4-1.1,3.5c-3.1,9.2-6.2,18.4-9.2,27.5c-0.3,1-0.8,1.4-1.9,1.4c-2.7-0.1-5.3-0.1-8,0c-0.9,0-1.3-0.2-1.7-1.1
			c-1.3-3.4-2.6-6.7-4-10.1c-0.2-0.4-0.4-0.8-0.6-1.5c-0.3,0.7-0.5,1.2-0.7,1.7c-1.2,3.3-2.4,6.5-3.6,9.8c-0.3,0.8-0.6,1.2-1.5,1.1
			c-2.8-0.1-5.6,0-8.4,0c-0.8,0-1.2-0.2-1.5-1c-1-2.9-2.2-5.8-3.1-8.8c-2.1-6.8-7.6-6.2-12.1-4.2c-0.4,0.2-0.7,0.7-1,1.2
			c-0.5,1-0.8,2.2-1.4,3.2c-1.1,2-2.6,4-3.5,6.1c-1,2.3-2.8,3-5.1,3c-0.7,0-1.3-0.1-2.1-0.1c-0.3-0.9,0.3-1.2,0.9-1.5
			c0.8-0.5,2-1.1,2.3-1.9c0.9-2.2,1.6-4.6,2.1-6.9c0.4-1.7-0.4-2.3-2-1.6c-1.2,0.5-2.6,1.2-3.5,2.2c-1.6,1.7-3.3,3.1-5.3,4.3
			c-1.5,0.9-3,2-4.4,3.1c-1.9,1.5-4,0.8-6.1,1c-0.3-1.2,0.2-1.6,1.1-1.9c4.6-1.2,6.9-4.8,8.6-8.8c0.1-0.3,0.1-0.9-0.1-1.1
			c-0.2-0.2-0.8-0.1-1.1,0c-2.2,0.8-4,0.3-5.2-1.7c-0.2-0.3-0.1-0.8-0.1-1.2c0.2-1,0.5-1.9,0.7-2.8c0.3-0.2,0.7-0.5,1.1-0.8
			c-0.3-0.3-0.5-0.6-0.9-1c1.6-1.3,1.3-3.3,1.3-5.4c1.2,1.5,2.7,1.4,4.3,1.5c2.3,0.1,2-2.2,3.8-3.1c0.1,0.2,0.2,0.6,0.4,0.9
			c0.9,1.2,1.7,1.3,2.6,0.3c2.1-2.2,4.7-3.1,7.7-3.2c1.8-0.1,3.5-1,5.3-1.4c1.6-0.3,3.3-0.6,4.9-0.6c3.7-0.1,7.3,0,11,0
			c1,0,1.5,0.2,1.8,1.3C66,134.8,67.1,137.7,68.3,141.1z"/>
		<path d="M344.2,106.1c-0.1,0.4-0.1,0.6-0.2,1.1c-0.1-0.5-0.2-0.8-0.2-1.3c-0.6,0.3-1.3,0.5-1.5,0.9c-1.5,2.9-1.9,6.3,0.1,9.3
			c0.3,0.4,0.4,0.5,1,0.2c0.8-0.4,1.8-0.3,2.7-0.4c0.3-0.1,0.5-0.3,0.8-0.4c0.5,0.3,1,0.6,1.6,0.9c-0.1,0.4-0.3,0.9-0.4,1.4
			c1.2,0.8,1.3,1.4,0.2,1.9c-2.9,1.1-3.1,3.7-3.1,6.1c0,4.9,0.4,9.8,0.3,14.7c0,2.2-0.6,4.5-1.3,6.6c-0.8,2.3-1.1,4.6-1.1,7
			c0,1.4,0.1,2.8-1,4.1c-0.7,0.8,0.4,0.8,0.9,0.8c0.7,0.1,1.6-0.4,1.5,0.9c1.4,0.4,3.1,0.1,4.2,1.7c-3,1.9-5.8,0.6-8.5-0.1
			c-2.9-0.8-5.4-2.4-6.4-5.8c-0.7,0.6-1.2,1.1-1.8,1.5c-3.9,3.2-8.4,4.8-13.3,5.1c-4.5,0.3-9,0.4-13.5,0.4c-8.7,0.1-17.3,0-26,0
			c-0.6,0-1.2,0-1.8,0c0-10.8,0-21.5,0-32.2c8.9,0,17.7,0,26.6,0c0,2.6,0,5.3,0,8c-4.1,0-8.2,0-12.3,0c0,1.4,0,2.6,0,4
			c2.8,0,5.6,0,8.5,0c0,2.7,0,5.3,0,8.1c-2.8,0-5.6,0-8.5,0c0,1.4,0,2.6,0,4c0.5,0,0.9,0.1,1.4,0.1c2.5,0,5.1,0.1,7.6,0
			c2.1-0.1,3.5,0.1,4.8,2.4c2.1,3.6,6,4.3,9.9,3.9c4.9-0.4,8.2-3.6,11.1-7.2c3.8-4.8,5.2-10.5,5.6-16.4c0.4-6.4,0.2-12.7-0.6-19
			c-0.7-5,0.9-9.8,3-14.2c2.2-4.5,8.6-5.2,12-1.6c0.6,0.7,0.2,2.4-0.5,3.2c-0.4,0.4-1.3-0.2-1.3,0.8
			C344.5,106.5,344.4,106.4,344.2,106.1z"/>
		<path class="st1" d="M283.2,83c-0.5,0.4-0.9,0.8-1.4,1.2c-0.6-0.8-1.2-1.6-1.9-2.4c-0.6,1.4-0.7,2.8,0.1,4.2
			c1,1.7,2.1,3.4,3.1,5.1c0.2,0.4,0.4,0.7,0.6,1.1c-0.1,0.1-0.2,0.2-0.3,0.3c-0.4-0.2-0.9-0.3-1.3-0.5c-3.1-1.9-6.3-3.8-9.3-5.7
			c-0.6-0.4-1.2-1.2-1.5-1.9c-0.9-1.9-1.9-3.7-2.4-5.7c-0.4-1.7-0.5-3.6-0.3-5.4c0.2-2.1,0.5-4.4,1.5-6.3c0.7-1.4,0.8-3.3,1.9-4.1
			c1.3-0.9,1.4-2.4,2.5-3.1c1.6-1.1,3.2-2.7,5-3c2-0.3,3.8-1.7,5.6-1.4c2.1,0.4,4.4-0.6,6.1,0.3c2.1,1,4.5,0.4,6.4,1.8
			c-0.2,0.1-0.5,0.2-0.7,0.3c1.8,1,3.6,1.9,5.4,2.9c0,0.1-0.1,0.2-0.1,0.3c-0.2,0-0.5,0.1-0.7,0.1c1.4,1.5,2.8,2.9,4.4,4.6
			c-0.6,0.1-0.9,0.1-1.1,0.1c0.1,0.2,0.1,0.3,0.2,0.4c0.6,0.8,1.3,1.6,1.8,2.5c0.2,0.4,1.2,1,0,1.6c0,0,0.1,0.4,0.2,0.6
			c0.3,0.9,0.7,1.8,0.9,2.7c0.2,0.7,1,1.6-0.3,2.2c-0.1,0,0,0.6,0.1,0.9c0.1,1,0.4,2,0.4,3.1c0,0.4,0.6,1.4-0.6,1.3
			c0,0-0.2,0.8-0.1,1.1c0.3,2.4-0.5,4.6-1.5,6.5c-2.6,5.3-10.6,12.2-18.6,10.8c-1.5-0.3-3-0.5-4.5-1c1.9-0.3,3.4-1,4.5-2.6
			c1-1.6,1.3-4.1,0.7-6.8c-0.1,1.4-0.2,2.8-0.3,4.2c-2.6-0.5-4.5-3-4.8-6c-0.4-4.5,2.6-8,6.9-8.1c4.4-0.2,7.5,2.9,7.6,7.5
			c0,2.8-1.1,5.2-2.6,7.4c-0.3,0.4-0.6,0.8-0.9,1.2c0.1,0.1,0.2,0.2,0.3,0.1c4-2.4,7.9-7.9,6.2-13.9c-1.3-4.8-6.3-8.1-11.4-7.4
			c-0.6,0.1-1.2,0.2-1.7,0.3c-1,0.2-1.7,0.6-1.8,1.8c0,0.6-0.6,1.2-1,1.8c-0.7,1.3-1.5,2.5-2.1,3.8c-0.2,0.3,0.2,0.9,0.3,1.3
			C282.9,82.9,283.1,82.9,283.2,83z"/>
		<path class="st2" d="M265.7,126.3c0-5.3,0-10.5,0-15.7c-0.1-0.1-0.2-0.1-0.3-0.2c-1.7,2-3.5,3.9-5.2,6c-1.8-2-3.4-3.9-5.4-6.1
			c0,0.8-0.1,1.3-0.1,1.8c0,4.3,0,8.7,0,13c0,1.1-0.3,1.4-1.4,1.4c-3.8-0.1-7.7,0-11.5,0c-0.4,0-0.8-0.1-1.3-0.1
			c0-10.7,0-21.4,0-32.3c1.9,0,3.8,0,5.7,0c2.3,0,4.6-0.1,6.9,0c0.6,0,1.4,0.4,1.8,0.8c1.7,1.9,3.4,3.8,5.2,5.9
			c1.7-1.9,3.3-3.6,4.8-5.5c0.8-1,1.6-1.3,2.9-1.3c3.5,0.1,7,0,10.6,0c0.5,0,1,0,1.5,0c0,10.8,0,21.5,0,32.2
			C275.1,126.3,270.5,126.3,265.7,126.3z"/>
		<path class="st2" d="M176.8,104.6c0-3.4,0-6.9,0-10.4c4.8,0,9.4,0,14.2,0c0,10.8,0,21.5,0,32.4c-0.4,0-0.9,0.1-1.4,0.1
			c-2.7,0-5.3,0-8,0c-1,0-1.6-0.3-2.2-1.2c-1.6-2.5-3.4-5-5.1-7.5c-0.3-0.4-0.6-0.8-1.1-1.4c0,3.4,0,6.5,0,9.7c-4.8,0-9.5,0-14.2,0
			c0-10.7,0-21.4,0-32.2c3.2,0,6.4,0,9.6,0c0.4,0,0.8,0.5,1.1,0.8c2,2.8,4,5.7,5.9,8.6c0.3,0.4,0.6,0.8,0.8,1.1
			C176.6,104.6,176.7,104.6,176.8,104.6z"/>
		<path d="M159,162.9c0-10.9,0-21.5,0-32.2c0.3,0,0.6-0.1,0.9-0.1c5.6,0,11.3-0.1,16.9,0.1c8,0.2,14.1,5.3,15.6,12.8
			c1.9,9.1-3.9,17.6-13.1,19c-2.5,0.4-5.1,0.3-7.7,0.4C167.5,162.9,163.3,162.9,159,162.9z M173.3,150.6c1.8-0.1,3.6,0.1,4.7-1.6
			c0.8-1.4,0.9-3,0-4.4c-1.1-1.7-2.8-1.7-4.6-1.5C173.3,145.5,173.3,147.9,173.3,150.6z"/>
		<path class="st1" d="M125.5,89.9c-3.1,0-6.1,0-9.2,0c-1.6,0-3.5,0.5-4.6-0.2c-1.1-0.7-1.3-2.8-1.8-4.2c-0.3-0.8-0.6-1.1-1.4-1.1
			c-2.8,0-5.7,0-8.5,0c-0.8,0-1.2,0.3-1.4,1.1c-0.4,1.2-0.8,2.4-1.2,3.6c-0.2,0.4-0.6,0.8-1,0.8c-4.4,0.1-8.8,0-13.5,0
			c0.7-2.1,1.4-4.1,2.1-6.1c2.9-8.3,5.8-16.6,8.6-24.9c0.3-1,0.8-1.4,1.9-1.4c5.9,0.1,11.8,0,17.7,0c0.7,0,1.2,0.1,1.5,0.9
			c3.5,10.3,7.1,20.5,10.7,30.7C125.5,89.4,125.5,89.5,125.5,89.9z M104.5,69.1c-0.1,0-0.3,0-0.4,0c-0.8,2.5-1.7,5-2.5,7.7
			c1.9,0,3.6,0,5.4,0C106.1,74.1,105.3,71.6,104.5,69.1z"/>
		<path class="st2" d="M38.2,94.1c4.7,0,9.2,0,13.7,0c0.3,0,0.7,0.6,0.9,1c1,2.8,1.9,5.6,2.9,8.4c0.1,0.3,0.3,0.7,0.5,1.3
			c0.3-0.8,0.5-1.4,0.7-1.9c0.9-2.6,1.8-5.3,2.7-7.9c0.1-0.4,0.7-0.8,1.1-0.9c4.4-0.1,8.7,0,13.2,0c0,0.4,0,0.7-0.1,0.9
			c-3.4,10.1-6.9,20.3-10.3,30.4c-0.2,0.7-0.6,1-1.3,1c-3.9,0-7.8-0.1-11.8,0c-1,0-1.3-0.5-1.5-1.3c-3-8.8-6-17.6-8.9-26.3
			C39.3,97.3,38.8,95.8,38.2,94.1z"/>
		<path class="st1" d="M155.8,57.6c-1.3,3.9-2.5,7.5-3.7,11.1c-2.3,6.6-4.5,13.3-6.8,19.9c-0.3,0.9-0.7,1.3-1.8,1.3
			c-3.8-0.1-7.6,0-11.4,0c-0.8,0-1.2-0.2-1.4-1c-3.4-10.1-6.9-20.2-10.3-30.3c-0.1-0.3-0.1-0.6-0.2-1c4.5,0,8.9,0,13.3,0
			c0.3,0,0.8,0.6,1,1c1,2.7,1.9,5.5,2.8,8.2c0.2,0.5,0.4,0.9,0.7,1.7c0.9-2.5,1.6-4.7,2.3-6.8c0.4-1.1,0.7-2.2,1.1-3.3
			c0.1-0.4,0.7-0.8,1-0.8C146.8,57.6,151.2,57.6,155.8,57.6z"/>
		<path class="st2" d="M326.1,95.7c-1.2,3.4-2.3,6.7-3.5,10c-1.1-1-1.9-2-3-2.7c-1.3-0.8-2.8-1.3-4.3-1.8c-0.7-0.2-1.5,0-2.2,0.2
			c-1.3,0.5-1.5,2-0.4,2.8c1.1,0.7,2.4,1.3,3.6,1.8c1.8,0.8,3.6,1.5,5.4,2.4c3.4,1.6,5,4.4,4.9,8.2c-0.1,4-1.9,6.9-5.5,8.6
			c-3.4,1.6-7,1.9-10.7,1.8c-4.4-0.1-8.7-0.5-12.9-2c-0.8-0.3-1.2-0.5-0.9-1.5c1.1-3.1,2-6.2,3-9.3c1.3,1.2,2.5,2.4,3.9,3.3
			c1.2,0.8,2.7,1.2,4.1,1.5c1,0.2,2.2-0.2,2.5-1.3c0.4-1.2-0.4-2-1.4-2.5c-0.9-0.5-1.9-0.9-2.8-1.3c-1.3-0.6-2.6-1.1-3.8-1.8
			c-3.2-1.7-4.7-4.5-4.6-8.1c0.1-3.7,1.6-6.8,5.1-8.3c2.3-1,4.9-1.6,7.4-1.9C315.5,93.1,320.8,94,326.1,95.7z"/>
		<path class="st2" d="M123,102.1c-3.7,0-7.3,0.1-10.9,0c-1.3,0-1.7,0.3-1.7,1.6c0.1,3-0.3,2.5,2.5,2.5c2,0,4.1,0,6.2,0
			c0,2.7,0,5.3,0,8c-2.9,0-5.7,0-8.7,0c0,1.2-0.1,2.3,0.1,3.3c0,0.3,0.8,0.7,1.2,0.7c3.2,0.1,6.5,0,9.7,0c0.5,0,1,0,1.5,0
			c0,2.7,0,5.3,0,7.9c-0.4,0-0.9,0.1-1.3,0.1c-8,0-16.1,0-24.1,0c-1,0-1.4-0.2-1.4-1.3c0-9.9,0-19.8,0-29.8c0-0.4,0-0.7,0.1-1.2
			c8.9,0,17.8,0,26.7,0C123,96.8,123,99.4,123,102.1z"/>
		<path class="st2" d="M126.8,108.4c0-4.8,0-9.5,0-14.2c9.6,0,19,0,28.6,0c0,4.7,0,9.4,0,14.2c-2.4,0-4.6,0-7.1,0c0,6,0,12,0,18
			c-4.8,0-9.5,0-14.3,0c0-0.9,0-1.8,0-2.6c0-4.6-0.1-9.1,0-13.7c0-1.4-0.4-1.8-1.8-1.7C130.5,108.4,128.7,108.4,126.8,108.4z"/>
		<path d="M273.4,130.7c0,2.6,0,5.2,0,8c-4,0-8.1,0-12.3,0c0,1.9-0.1,3.6,0.1,5.3c0,0.3,0.7,0.7,1.1,0.7c2.6,0.1,5.1,0,7.8,0
			c0,2.7,0,5.3,0,8c-2.9,0-5.9,0-9,0c0,3.4,0,6.7,0,10.1c-4.8,0-9.5,0-14.3,0c0-10.7,0-21.3,0-32.1
			C255.7,130.7,264.5,130.7,273.4,130.7z"/>
		<path d="M142.3,154.9c4.3,0,8.3,0,12.4,0c0,2.7,0,5.2,0,7.9c-8.9,0-17.8,0-26.8,0c0-10.7,0-21.4,0-32.1c4.8,0,9.5,0,14.3,0
			C142.3,138.7,142.3,146.7,142.3,154.9z"/>
		<path d="M211,154.8c4.3,0,8.4,0,12.5,0c0,2.7,0,5.3,0,8c-8.9,0-17.7,0-26.7,0c0-10.7,0-21.3,0-32.1c4.7,0,9.3,0,14.1,0
			C211,138.6,211,146.6,211,154.8z"/>
		<path class="st2" d="M91.4,94.2c0,10.8,0,21.4,0,32.2c-4.7,0-9.4,0-14.1,0c0-10.8,0-21.4,0-32.2C82,94.2,86.6,94.2,91.4,94.2z"/>
		<path d="M122.1,130.7c0,10.7,0,21.4,0,32.1c-4.7,0-9.4,0-14.1,0c0-10.7,0-21.3,0-32.1C112.6,130.7,117.3,130.7,122.1,130.7z"/>
		<path d="M227.8,162.8c0-10.7,0-21.4,0-32.1c4.7,0,9.4,0,14.1,0c0,10.7,0,21.3,0,32.1C237.3,162.8,232.6,162.8,227.8,162.8z"/>
		<path class="st3" d="M216.5,105.7c0.8,2.5,1.6,5,2.5,7.6c-1.8,0-3.4,0-5.3,0c0.8-2.6,1.7-5.1,2.5-7.6
			C216.2,105.7,216.3,105.7,216.5,105.7z"/>
		<path class="st3" d="M173.3,150.6c0-2.6,0-5,0-7.5c1.8-0.2,3.6-0.2,4.6,1.5c0.9,1.4,0.9,3,0,4.4
			C176.9,150.6,175.1,150.5,173.3,150.6z"/>
		<path class="st4" d="M104.5,69.1c0.8,2.5,1.6,5,2.5,7.7c-1.9,0-3.5,0-5.4,0c0.9-2.7,1.7-5.2,2.5-7.7
			C104.2,69.1,104.4,69.1,104.5,69.1z"/>
	</g>
</g>
<path class="st1" d="M294,95C294,95,294.1,95.1,294,95c0.3-0.4,0.6-0.8,0.9-1.2c1.6-2.2,2.7-4.6,2.6-7.4c-0.1-4.5-3.2-7.6-7.6-7.5
	c-4.3,0.2-7.3,3.6-6.9,8.1c0.3,3,2.2,5.5,4.8,6c0.1-1.4,0.2-2.8,0.3-4.2c0.6,2.7,0.3,5.2-0.7,6.8c-1,1.6-2.6,2.2-4.5,2.6
	C283,98.2,289.6,99.3,294,95z"/>
<path class="st1" d="M220.2,94.1c1.8,0,3.6,0,5.4,0c0.4,0,1,0.4,1.1,0.7c3.7,10.4,7.3,20.9,11,31.5c-0.5,0-0.9,0.1-1.2,0.1
	c-3.9,0-7.9,0-11.8,0c-0.9,0-1.3-0.3-1.6-1.2c-0.5-1.4-0.7-3.3-1.7-4.1c-1-0.7-2.9-0.2-4.3-0.3c-1.7,0-3.3-0.1-5,0
	c-0.4,0-1,0.5-1.2,0.9c-0.5,1.2-0.8,2.5-1.3,3.7c-0.2,0.4-0.7,0.9-1.1,0.9c-4.3,0.1-8.6,0-12.9,0c-0.1,0-0.2-0.1-0.5-0.2
	c0.3-1,0.6-1.9,1-2.9c3.2-9.3,6.5-18.5,9.6-27.8c0.4-1.1,0.9-1.5,2.1-1.5c2.2,0.1,4.3,0,7,0L220.2,94.1z M216.5,105.7
	c-0.1,0-0.2,0-0.3,0c-0.8,2.5-1.6,5-2.5,7.6c1.9,0,3.5,0,5.3,0C218.1,110.6,217.3,108.1,216.5,105.7z"/>
</svg>
