<?xml version="1.0" encoding="utf-8"?>
<!-- Generator: Adobe Illustrator 19.2.0, SVG Export Plug-In . SVG Version: 6.00 Build 0)  -->
<svg version="1.1" id="Layer_1" xmlns="http://www.w3.org/2000/svg" xmlns:xlink="http://www.w3.org/1999/xlink" x="0px" y="0px"
	 viewBox="0 0 360 360" enable-background="new 0 0 360 360" xml:space="preserve">
<path d="M166.8,167.4c0.4,0.1,0.7,0.1,1.1-0.2c-0.5-0.5-0.9-0.8-1.5-1C166.4,166.7,166.6,167.1,166.8,167.4 M238.8,237.2
	c0.2-1.5-0.9-2.3-1.4-3.3c-0.7,0.9-0.7,1-0.2,1.7C237.6,236.2,238.1,236.7,238.8,237.2 M105.4,243.9c-0.9-0.7-2.8-1.7-3.6-1.9
	c0.3,1.2,1.3,1.6,2.3,2C104.4,244.3,104.9,244.4,105.4,243.9 M127.4,154.6c1.1,0.5,2.1,0.2,2.5-0.7c0.2-0.4,0.1-0.9-0.3-1.1
	c-0.4-0.2-0.9-0.3-1.3,0.1C127.8,153.2,127.3,153.7,127.4,154.6 M248.9,232.1c-0.6-0.9-0.8-2-1.3-3c-0.7,1.2-0.4,2.3-0.4,3.4
	c0,0.3,0.1,0.7,0.5,0.8C248.2,233.1,248.6,232.7,248.9,232.1 M122.6,154.1c0.1-1-0.5-1.6-1.5-1.7c-0.4,0-0.7,0.2-0.8,0.5
	c-0.2,0.5,0,1.5,0.4,1.9c0.4,0.4,0.8,0.4,1.3,0.2C122.4,154.9,122.6,154.5,122.6,154.1 M108,148.2c0.6,0.1,1.5-0.5,1.7-1.2
	c0.2-0.7-0.1-1.1-0.8-1c-0.8,0.2-1.5,0.5-2.2,0.8c-0.3,0.1-0.5,0.5-0.4,0.9c0,0.4,0.3,0.5,0.6,0.5
	C107.3,148.1,107.6,148.1,108,148.2 M151,155.1c0.6,0.1,1-0.1,1.3-0.5c0.4-0.4,0.7-0.9,1.2-1.2c0.4-0.2,0.3-0.7,0.1-1
	c-0.3-0.1-0.6,0-0.9,0.1c-0.3,0.1-0.7,0.1-1,0.2c-0.9,0.1-1.2,0.4-1.2,1.3C150.6,154.3,150.6,154.8,151,155.1 M134.3,246.6
	c0.6,0,1.2-0.1,1.7-0.4c0.3-0.2,0.6-0.5,0.5-0.9c-0.1-0.4-0.4-0.8-0.9-0.8c-0.9,0.1-1.7,0.2-2.5,0.7c-0.2,0.1-0.4,0.4-0.3,0.7
	c0.1,0.3,0.3,0.5,0.6,0.6C133.7,246.6,134,246.6,134.3,246.6 M102.1,257.2c0.4-0.7,0.3-1.4,0.6-2c0-0.1,0.1-0.2,0.1-0.4
	c0-0.3,0-0.5-0.2-0.7c-0.6-0.6-2.1-0.2-2.3,0.6c-0.1,0.6-0.1,1.1,0.3,1.5C100.9,256.8,101.2,257.4,102.1,257.2 M146.6,158.3
	c0.2,0.2,0.3,0.2,0.4,0.1c0.9-0.5,1.4-1.3,1.9-2.1c0.2-0.4,0.2-0.8-0.1-1.2c-0.3-0.4-0.8-0.5-1.3-0.3c-0.6,0.2-0.9,0.6-1,1.2
	C146.5,156.8,146.6,157.6,146.6,158.3 M321.4,193.6c0.2,0.3,0.4,0.6,0.7,0.8c0.7,0.5,1.4,0.2,1.7-0.6c0.2-0.8-0.1-1.6-0.9-1.9
	c-1-0.4-2.1-0.2-3.1,0.3c-0.5,0.3-0.6,0.7-0.3,1.2C319.9,194.1,320.2,194.1,321.4,193.6 M252.3,226.5c-0.7-0.1-1.1-0.2-1.6-0.3
	c-0.4-0.1-0.7,0.1-0.7,0.5c-0.4,1.7-0.3,3.4,0.3,5c0.1,0.3,0.3,0.7,0.8,0.7c0.6-0.5,0.4-1.1,0.3-1.7
	C251.4,229.3,251.4,227.9,252.3,226.5 M299.1,197.3c-0.4,0.7-0.2,1.1-0.1,1.5c0.6,1.6,1.8,2.6,3.5,3.1c0.8,0.3,1,0.1,1.7-0.8
	C302.7,199.7,300.6,199.1,299.1,197.3 M239.9,235.9c0.7-1.5,0.4-3.7-0.9-5.8c-0.2-0.1-0.3,0-0.5,0.1c-1.1,0.8-1.4,2.4-0.5,3.5
	c0.5,0.6,1,1.2,1.4,2C239.5,235.7,239.6,235.8,239.9,235.9 M95.5,153.1c0,1,0.3,1.8,0.8,2.2c0.5,0.4,1.4,0.4,1.5-0.1
	c0.2-0.7,0.6-1.2,0.7-1.9c0.2-0.9-0.2-1.9-1-2c-0.9-0.2-1.9,0.5-2,1.4C95.5,152.9,95.5,153,95.5,153.1 M330,182.9c0,0.2,0,0.4,0,0.6
	c0.1,0.7,0.3,1,0.8,1.1c0.5,0.1,0.7-0.1,0.9-0.9c0.2-0.6,0.5-1.2,1-1.6c0.3-0.2,0.5-0.5,0.7-0.7c0.4-0.5,0.4-1,0.2-1.3
	c-0.3-0.4-0.9-0.5-1.4-0.4C331.1,180.2,330,181.7,330,182.9 M210.2,233.7c0.6,0.4,1.1,0.1,1.6-0.2c1.4-0.9,3-1.5,4.7-1.7
	c0.6-0.1,1.1-0.3,1.5-0.8c0.4-0.5,0.5-0.9,0.2-1.2c-0.4-0.4-0.7-0.1-1,0.1c-0.1,0-0.1,0.1-0.2,0.1c-1,0.6-2,0.9-3.2,1.1
	c-1,0.1-1.9,0.6-2.7,1.3C210.7,232.7,210.3,233.1,210.2,233.7 M105.3,149.5c-0.1-0.2-0.1-0.3-0.2-0.4c-0.1-0.1-0.2-0.2-0.3-0.2
	c-1.7-0.2-3.3,0.1-4.7,1.1c-0.4,0.3-0.6,0.6-0.4,1.1c0.1,0.2,0.1,0.4,0.2,0.6c0.2,0.7,0.5,1,1.1,0.8c1.2-0.4,2.3-1.1,3.1-2
	C104.5,150.2,104.8,149.8,105.3,149.5 M85.4,186.3c0,0.3,0,0.5,0,0.8c0,0.3,0.2,0.4,0.5,0.5c0.8,0.2,2.1-0.5,2.3-1.3
	c0.3-1,0.5-1.9,0.8-2.9c0-0.2,0.1-0.3,0-0.5c-0.1-0.7-1-1.2-1.5-0.7C86.4,183.3,85.4,184.5,85.4,186.3 M37.2,229.6
	c-0.1-0.5-0.4-0.7-0.6-0.9c-1-1-1.9-2.1-2.6-3.3c-0.9-1.3-1.7-2.6-2.4-4.1c-0.1-0.2-0.2-0.6-0.7-0.3c-0.2,1.1,0.2,2.1,0.6,3.1
	c0.3,0.8,0.7,1.5,1,2.3c0.6,1.5,1.7,2.5,3.2,3.1C36.2,229.7,36.7,229.9,37.2,229.6 M98.7,241.3c-0.6,0.2-0.9,0.5-1.1,1
	c-0.3,0.6-0.8,0.8-1.5,0.8c-0.6,0-1.3,0-1.9,0c-0.7,0-1.4,0.3-2,0.7c-0.5,0.3-0.5,0.8-0.1,1.2c0.2,0.3,0.5,0.4,0.9,0.4
	c1.2,0,2.5,0,3.7-0.1c0.6,0,1.1-0.3,1.3-0.9c0.1-0.4,0.4-0.7,0.8-0.9c0.6-0.3,0.6-0.8,0.4-1.3C99,241.9,98.9,241.6,98.7,241.3
	 M274.2,190.3c0.1-0.2,0.2-0.2,0.2-0.3c0.6-1.2,0.9-1.3,2-0.6c0.2,0.1,0.4,0.2,0.5,0.3c0.5,0.3,1,0.3,1.5,0.2c0.7-0.2,1.4-0.5,2-1
	c0.8-0.6,0.8-1.2,0-2c-0.5,0-0.7,0.4-1,0.6c-1.3,1-2.2,0.9-3.3-0.3c-0.7-0.7-0.9-0.8-1.7,0c-0.5,0.5-1.1,0.8-1.8,0.7
	c-0.2,0-0.3,0-0.6,0.2C272.4,189.3,273.3,189.7,274.2,190.3 M122.6,147.9c-0.2-0.4-0.6-0.4-1-0.6c-0.4-0.2-0.8-0.1-1,0.2
	c-0.5,0.7-1.2,1-1.9,1.2c-1,0.3-1.9,0.8-2.6,1.5c-0.6,0.5-0.6,0.8,0.1,1.2c0.3,0.3,0.7,0.5,1,0.8c0.9,0.7,1.2,0.7,2-0.2
	c1-1.1,1.9-2.1,2.9-3.2C122.4,148.6,122.7,148.3,122.6,147.9 M224.5,229.1c0.4,0,0.7-0.1,1-0.4c0.5-0.5,1-1,1.5-1.5
	c0.3-0.3,0.5-0.7,0.9-0.7c1.1,0.1,2-0.3,2.8-0.9c0.2-0.2,0.6-0.2,0.8-0.3c0.3-0.1,0.6-0.3,0.8-0.6c0.2-0.3,0.3-0.6,0.2-0.9
	c-0.1-0.4-0.5-0.5-0.8-0.5c-0.5,0-1,0.2-1.4,0.5c-0.6,0.3-1.2,0.6-1.9,0.5c-1.4-0.2-1.7,0-2.2,1.3c-0.4,1-1,1.7-2.1,2
	c-0.1,0-0.3,0.1-0.4,0.1c-0.4,0.2-0.5,0.6-0.2,0.9C223.8,229,224.1,229.1,224.5,229.1 M171.9,172.9c-0.3,1.3-0.3,1.6,0.2,2.2
	c0.9,1.3,1.9,2.5,3.5,3c0.6,0.2,1.2,0.5,1.9,0.4c0.5-1.4,0.1-2.9-1.1-3.6C175,174.1,173.5,173.6,171.9,172.9 M37.9,258.2
	c0.3-0.2,0.6-0.1,0.8-0.1c0.3,0.1,0.7,0.2,0.9-0.1c0.2-0.4,0-0.7-0.2-1c-0.4-0.5-0.7-0.6-1.3-0.4c-0.3,0.1-0.6,0.2-1,0.3
	c-0.9,0.3-1.8,0.3-2.4-0.5c-0.3-0.3-0.7-0.4-1.1-0.3c-1.2,0.2-2.4,0.6-3.3,1.4c-0.2,0.1-0.3,0.3-0.2,0.5c0.1,0.2,0.2,0.2,0.4,0.2
	c0.5,0,0.9-0.1,1.3-0.3c0.4-0.2,0.8-0.5,1.2-0.2c0.4,0.3,0.1,0.7,0,1.1c-0.1,0.3-0.2,0.6,0.2,0.7c0.3-0.1,0.4-0.3,0.6-0.5
	c0.6-0.6,0.9-0.6,1.5,0c0.2,0.2,0.4,0.6,0.7,0.8C36.9,259.6,37.8,259.3,37.9,258.2 M206.3,234.3c-0.1,0-0.2-0.1-0.2-0.1
	c-2.3,0.4-4.7,0.8-6.9,1.4c-0.9,0.3-1.8,0.5-2.7,0.5c-0.7,0-1.3,0.2-1.9,0.5c-0.9,0.4-1.8,0.8-2.9,0.9c-0.1,0-0.2,0.2-0.3,0.3
	c0.1,0.2,0.2,0.3,0.2,0.5c0.2,0.8,0.8,1,1.6,1c0.5,0,1-0.2,1.5-0.4c1-0.4,2-1,3-1.3c2.3-0.7,4.6-1.3,7-1.9c0.4-0.1,0.8-0.2,1.2-0.4
	C206.1,235,206.4,234.8,206.3,234.3 M219.1,180.8c-0.6-0.5-1-0.8-1.4-1.1c-1.3-1-2.6-2.1-3.3-3.6c-0.3-0.6-0.7-1.2-1.1-1.7
	c-0.4-0.5-0.8-1.1-1.6-1.4c0.8,2.9,1.2,5.7,1.4,8.7C215.1,181.5,217,181.2,219.1,180.8 M220.3,223.1c-0.5,0-0.6,0-0.8,0
	c-2.6,0.4-5.2,0.8-7.8,1.1c-0.4,0.1-0.8,0.3-1.1,0.6c-0.9,0.9-1.8,1.8-2.7,2.7c-0.2,0.2-0.4,0.3-0.3,0.6c1.2,0.1,2.2-0.2,3.3-0.6
	c2.4-0.8,4.6-2.1,7-3C218.7,224.3,219.4,223.8,220.3,223.1 M243.8,234.9c0.7-0.4,0.8-1,0.7-1.7c-0.2-1.1,0-2.1,0.1-3.2
	c0-0.3,0.1-0.5,0.3-0.6c0.2,0,0.3,0.1,0.4,0.3c0.1,0.2,0.2,0.4,0.6,0.2c-0.3-1.3,0.4-2.6,0.5-3.9c-0.9-0.2-1.4-0.9-2.2-1.3
	c-0.2,0.5-0.1,0.9-0.2,1.3c0,1-0.2,2-0.6,3c-0.2,0.4-0.4,0.8-1,0.7c-0.2-0.4-0.1-0.7,0-1c0.2-0.9-0.1-1.5-0.7-1.5
	c-0.5,0-0.9,0.4-1,1.2c-0.1,1.3,0.2,2.5,0.9,3.5C242.3,232.9,243.2,233.8,243.8,234.9 M172,142.3c-0.2-0.1-0.3-0.2-0.4-0.2
	c-2.5-0.5-4.9-1.3-7.3-2.2c-0.7-0.3-1.3-0.2-2-0.2c-1.1,0.1-1.4,0.9-0.8,1.8c0.2,0.3,0.4,0.4,0.7,0.6c0.8,0.5,1.5,0.9,2.3,1.4
	c0.3,0.2,0.6,0.3,0.9,0.4c2,0.3,3.9-0.1,5.8-0.7C171.5,142.9,171.9,142.8,172,142.3 M152.7,242.8c-1.4,0.1-2.7-0.1-4.1,0.1
	c-1.8,0.3-3.6,0.5-5.4,0.4c-1.1,0-2.2,0-3.3,0.2c-0.4,0.1-0.8,0.2-1.2,0.3c-0.3,0.1-0.7,0.3-0.6,0.7c0,0.4,0.4,0.5,0.8,0.5
	c0.4,0,0.8,0,1.1,0c1.2-0.1,2.5,0,3.6,0.5c0.7,0.3,1.4,0.2,2-0.1c1-0.5,2.1-0.5,3.2-0.4c1,0.1,1.9,0.1,2.9,0
	c0.6-0.1,1.2-0.1,1.5-0.7C153.6,243.7,153,243.3,152.7,242.8 M327,178.7c-0.1,0-0.1,0-0.1,0c-0.1,0.1-0.2,0.2-0.3,0.3
	c-0.6,0.8-1.4,1.2-2.3,1.4c-0.9,0.2-1.8,0.4-2.7,0.6c-0.7,0.2-1.4,0.2-2,0.1c-1.9-0.4-3.8-0.1-5.6-0.8c-0.2-0.1-0.4,0-0.6,0.2
	c-0.2,0.2-0.1,0.4,0,0.6c0.2,0.4,0.6,0.7,1.1,0.9c0.5,0.1,1,0.3,1.5,0.3c2.6,0.2,5.2,0.4,7.9,0.3c1-0.1,1.9,0.1,2.6,0.9
	c0.3,0.3,0.7,0.8,1.4,0.6c0.5-1.3,1.2-2.6,1.8-3.9c-0.4-0.1-0.5,0.1-0.6,0.2c-0.3,0.4-0.6,0.8-1.1,0.6c-0.5-0.2-0.6-0.7-0.7-1.1
	C327.2,179.3,327.3,179,327,178.7 M119.2,238.2c0.1,0.4,0.4,0.5,0.6,0.6c1.3,0.8,2.6,1.5,3.9,2.4c0.6,0.4,1.2,0.5,1.9,0.2
	c0.3-0.2,0.6-0.2,0.9-0.4c1-0.6,2.1-1,3.1-1.3c0.3-0.1,0.6-0.1,0.7-0.5c-0.6-0.8-1.1-1.6-1.9-2.3
	C125.4,237.2,122.3,237.7,119.2,238.2 M157.4,235.9c3.5-1.7,7-2.5,10.9-2.2c0.2-1,0.7-1.9,0.7-3c-2.1,0.3-4.1,0.6-6.1,0.9
	c-2,0.3-4.1,0.5-6.1,1C156.7,233.7,157.1,234.7,157.4,235.9 M109.3,170.3c-3.4,0.7-7.9,4.5-8.8,7.4c2.5-0.4,4.9-0.7,7.4-1.1
	C108.2,174.4,108.8,172.4,109.3,170.3 M144.3,237.1c0.8,0.2,1.4,0.2,2.1,0c0.8-0.2,1.6-0.4,2.5-0.7c0.7-0.2,1.3-0.4,2-0.4
	c1.6,0,3.2-0.6,4.9-0.3c0,0,0.1,0,0.2-0.1c-0.2-0.9-0.3-1.9-0.8-2.9c-4,0.6-7.9,1.1-11.9,1.8C143.6,235.5,144,236.3,144.3,237.1
	 M154.7,241.8c0,0.4-0.1,0.6-0.1,0.8c0,1.5,0.5,2.1,2,2.2c0.2,0,0.3,0,0.5,0c2.3,0.1,4.6-0.3,6.8-0.9c1-0.3,2-0.5,3-0.9
	c0.2-0.1,0.4-0.2,0.4-0.4c0-0.3-0.2-0.5-0.4-0.6c-0.2-0.1-0.4-0.1-0.6-0.2c-1-0.2-2.1-0.3-3.2-0.3c-0.9,0-1.9,0.1-2.8-0.2
	c-0.7-0.2-1.5-0.2-2.2,0C157.2,241.5,156,241.8,154.7,241.8 M143,237.6c-0.5-1-0.8-1.9-1.3-2.9c-3.8,0.6-7.6,1.1-11.4,1.7
	c-0.1,0.4,0.2,0.6,0.3,0.8c0.7,0.9,1.3,1.8,2.6,1.6c0.2,0,0.4,0.1,0.6,0.2c0.5,0.2,0.9,0.2,1.4,0c1.2-0.4,2.5-0.5,3.7-0.6
	C140.4,238.3,141.7,238.1,143,237.6 M160.5,145.2c1.3,0.2,2.7,0.7,4.1,0.6c0.2-0.7-0.2-1-0.6-1.3c-1.6-1.1-3.3-2-5.1-2.8
	c-0.7-0.3-1.3-0.2-2,0c-1,0.3-2.1,0.6-3.2,1c-0.3,0.1-0.6,0.1-0.8,0.4c1.2,1.9,3.1,3,5.1,3.7c1.1,0.4,1.9-0.1,2.3-1.3
	C160.3,145.5,160.4,145.4,160.5,145.2 M260.6,174.5c-1-1.2-9.9-7.6-11.1-8.1c1.7,2.9,2.8,5.9,3.6,9.2
	C255.6,175.2,258.1,174.9,260.6,174.5 M169.6,233.8c0.4,0.3,0.7,0.2,0.9,0.1c1.9-0.3,3.7-0.7,5.7-0.7c1,0,2-0.1,3-0.4
	c0.5-0.1,0.8-0.3,0.9-0.7c0.4-0.9,0.8-1.7,1.1-2.6c0.1-0.2,0.3-0.4,0-0.8c-3.5,0.5-7.1,1.1-10.7,1.6
	C170.2,231.7,169.9,232.7,169.6,233.8 M91.2,256.5c0.5-0.1,0.7-0.6,1.1-0.9c0.3-0.2,0.6-0.5,1-0.2c0.4,0.3,0.3,0.7,0.2,1
	c-0.1,0.3-0.5,0.5-0.4,0.9c0.6,0.2,1.1,0,1.7,0.1c0.6,0.1,1.2,0.4,1.9,0.3c0.1,0,0.3,0,0.4,0c0.8-0.1,1.1-0.3,0.9-1.1
	c-0.2-0.6-0.1-1.2,0-1.9c0.1-0.5,0.1-0.9,0.1-1.4c0-0.5-0.2-0.9-0.7-1.1c-0.6-0.2-1.2-0.5-1.6-1c-0.2-0.2-0.5-0.3-0.8-0.1
	c-0.5,0.4-1,0.7-1.4,1.1c0.2,0.7,0.9,0.3,1.2,0.8c0,0.4-0.2,0.6-0.7,0.7c-0.4,0-0.8-0.1-1.2-0.3c-0.7-0.4-1.4-0.8-2.2-0.3
	c-0.6,0.3-1,0-1.2-0.7c-0.1-0.2-0.1-0.3-0.1-0.4c-0.8-0.4-0.8-0.3-1.6-0.1c-0.1,0.4,0.5,0.6,0.5,1c-0.8,0.9-0.7,1.2,0.2,1.9
	c0.4,0.3,0.8,0.3,1.2,0.3c0.5,0,0.9-0.2,1.4,0C91.3,255.7,90.9,256.1,91.2,256.5 M89.1,200.8c2-0.3,3.9-0.6,5.8-0.9
	c0.3,0,0.5-0.2,0.7-0.5c0.2-0.5,0.2-0.9,0-1.3c-1.1-2.7-3.5-4.6-6.8-4.6C88.4,195,88.5,198.6,89.1,200.8 M68.1,234.7
	c-0.1-0.1-0.2-0.2-0.3-0.2c-3-1.6-6-3.4-8.7-5.5c-0.4-0.3-0.7-0.3-1.2-0.3c-2,0.3-4,0.6-6,1c-0.7,0.1-1.4,0.1-2.2,0.5
	c1.7,0.9,3.3,1.7,5.1,1.9c2.1,0.2,4.2,0.5,6.2,1.4C63.3,234.3,65.7,234.5,68.1,234.7 M208.6,224.9c-0.2-0.2-0.4-0.1-0.5-0.1
	c-1.4,0.2-2.8,0.4-4.3,0.6c-2,0.3-3.9,0.6-5.9,0.9c-0.7,0.1-1.1,0.4-1.5,0.9c-0.7,1-1.5,2-2.2,2.9c-0.2,0.2-0.5,0.4-0.4,0.9
	c1.6-0.2,3.2-0.1,4.7-0.7c1.8-0.7,3.7-1.6,5.6-2.1c1.5-0.4,2.4-1.2,3.4-2.2C207.9,225.7,208.4,225.4,208.6,224.9 M195,226.8
	c-4.1,0.6-8,1.2-11.8,1.8c-0.3,0.8-0.7,1.4-1,2.1c-0.3,0.7-0.7,1.3-0.8,2.1c0.9,0.1,1.6-0.1,2.3-0.3c1.9-0.5,3.8-1,5.9-1
	c0.5,0,1.1-0.2,1.6-0.3c0.3,0,0.5-0.2,0.7-0.5C193,229.5,194,228.3,195,226.8 M143.7,145.1c0.3,2.5,0.6,4.8,0.9,7.2
	c1.7,0.1,3.1-0.3,3.7-1.9c0-0.1,0.1-0.1,0.1-0.2c0.3-0.9,0.9-1.7,1.6-2.2c1-0.8,1.8-1.7,2.5-2.8c-0.4-0.6-0.9-1.2-1.5-1.7
	C148.7,144,146.3,144.5,143.7,145.1 M136.2,153.7c0.3-0.9,0.1-1.5-0.5-2c0.1-0.4,0.3-0.6,0.6-0.7c0.8-0.4,1.6-0.6,2.5-0.5
	c0.6,0.1,1,0.4,1.1,0.9c0.1,0.5-0.1,1-0.7,1.3c-0.3,0.2-0.8,0.1-1,0.7c1.8-0.2,3.4-0.5,5.2-0.8c-0.3-2.4-0.5-4.8-0.9-7.2
	c-0.9,0.2-1.7,0.3-2.6,0.5c-0.6,0.2-1.1,0.4-1.6,0.6c-2.2,1.1-4.2,2.5-5,4.9c-0.1,0.4-0.4,0.8-0.5,1.2c-0.2,0.5-0.5,1-0.5,1.6
	C133.5,154.2,134.9,154,136.2,153.7 M269.5,202.3c0.4,0.5,0.9,0.6,1.5,0.7c1.9,0.4,3.7,0.7,5.5,1.6c0.7,0.4,1.5,0.5,2.3,0.5
	c2.2-0.1,4.5,0.1,6.7,0.2c1,0,1.9,0.2,2.7,0.9c0.5,0.4,1,0.6,1.5,1c0.3,0.2,0.7,0.4,1,0.4c1,0.2,2,0.5,2.9,0.9
	c0.3,0.1,0.6,0.2,0.9,0.2c0.6,0,0.9-0.3,0.7-0.9c-0.3-0.8-0.8-1.5-1.7-1.8c-0.6-0.2-1.2-0.3-1.9-0.4c-1.1-0.3-2.3-0.3-3.3-0.9
	c-1.4-0.7-3-1.2-4.5-1.8c-1-0.4-2-0.7-2.7-1.6c-0.4-0.5-0.8-0.5-1.3-0.1c-0.3,0.3-0.6,0.6-0.9,0.9c-0.6,0.9-1.4,1.1-2.4,0.9
	c-0.8-0.2-1.6-0.5-2.4-0.9c-1-0.4-2-0.7-3.1-0.7C270.5,201.5,270,201.6,269.5,202.3 M122.9,242.3c-2-1.3-3.9-2.4-5.7-3.6
	c-0.4-0.2-0.7-0.1-1.1-0.1c-4.3,0.6-8.6,1.3-12.8,1.9c-0.2,0-0.3,0.1-0.3,0.3c0.5,0.3,1.1,0.2,1.7,0.2c0.8-0.1,1.6,0,2.3,0.5
	c1,0.7,2.1,1,3.3,1c1-0.1,2.1,0.1,3,0.6c1.1,0.6,2.3,0.5,3.5,0.3c1.2-0.3,2.3-0.4,3.5-0.3C121.1,243.1,121.9,242.8,122.9,242.3
	 M146.9,169.1c0.7,0,1.2-0.2,1.6-0.5c0.8-0.5,1.6-1,2.3-1.5c0.8-0.5,1.5-0.6,2.2,0c1.6,1.2,3.5,1.5,5.4,1.6c1.8,0.1,3.5-0.3,5.2-0.6
	c0.5-0.1,1.1,0,1.7-0.4c-0.4-0.9-0.6-1.8-1.1-2.5c-1.2-0.3-2.4-0.2-3.5,0.2c-0.4,0.1-0.7,0.2-1.1,0.3c-1.2,0.4-2.3,0.3-3.3-0.4
	c-0.4-0.3-0.8-0.5-1.2-0.8c-0.5-0.4-0.9-0.5-1.5-0.5c-0.8,0.1-1.5-0.1-2.2-0.4c-0.3-0.1-0.6-0.3-1.1-0.2c-0.5,0.6-1.4,1.1-1.8,2
	c-0.3,0.7-0.7,1.3-1.3,1.9C146.8,167.7,146.6,168.3,146.9,169.1 M210.6,255.5c0.3,0.4,0.6,0.3,0.9,0.3c1.1,0,2.2,0,3.3-0.1
	c1.4,0,2.7-0.3,4-1.1c1.7-1,3.5-1.7,5.6-1.2c0.7,0.1,1.4,0.1,2.2,0.1c2.5-0.2,4.8-0.9,6.5-2.9c0.8-0.9,1.4-1.8,1.9-2.9
	c0.1-0.2,0.4-0.4,0.1-0.6c-0.9,0.4-1.9,0.8-2.8,1.2c-2,0.8-4.1,1.5-6.1,2.5c-0.7,0.3-1.5,0.6-2.3,0.8c-3,0.7-5.9,1.4-8.9,2.1
	c-0.9,0.2-1.9,0.5-2.8,0.8C211.5,254.5,210.9,254.7,210.6,255.5 M222.7,152.2c-1,0.5-1.2,0.9-1,1.7c0.1,0.6,0.6,0.8,1.1,1
	c0.9,0.3,1.5,0.9,1.7,1.9c0.1,0.3,0.1,0.7,0.3,0.8c0.8,0.3,1.4,0.9,2.3,0.7c2.1-0.3,4.3-0.6,6.4-1c0.6-0.1,1.3,0,1.9-0.4
	c-1.7-1.5-10.6-6.5-12.1-6.7C223.3,150.9,222.8,151.5,222.7,152.2 M188.6,174.8c0,0.1,0,0.2-0.1,0.4c-0.2,1.2-0.5,1.5-1.7,1.6
	c-0.5,0.1-1,0.3-1.4,0.6c-1.1,0.7-2.3,1.1-3.6,1c-0.3,0-0.7,0-1,0.1c-0.2,0.1-0.5,0.2-0.5,0.5c0,0.3,0.1,0.5,0.4,0.6
	c0.4,0.1,0.7,0.3,1.1,0.4c0.6,0.2,1.2,0.3,1.9,0.4c0.9,0.1,1.2,0.5,1.1,1.3c0,0.5-0.2,0.9-0.4,1.3c-0.5,0.9-0.9,1.7-1.5,2.5
	c-0.2,0.2-0.4,0.5-0.3,0.9c2.6-0.4,5.2-0.8,8-1.2C190.3,181.6,189.8,178.2,188.6,174.8 M77.6,253.3c0-0.1,0.1-0.2,0-0.2
	c0-0.1-0.1-0.3-0.2-0.3c-0.8-0.7-2.5-0.2-2.7,0.8c-0.1,0.7-0.1,1.4,0.4,1.9c0.5,0.5,1.1,0.4,1.8,0.2c1-0.3,1.2-0.2,1.5,0.9
	c0.1,0.2,0.1,0.5,0.1,0.8c0.2,0.8,0.4,1.6,1,2.2c0.5,0.5,0.8,0.6,1.5,0.2c0.2-0.1,0.3-0.3,0.5-0.4c0.8-0.6,1.6-1,2.5-1.5
	c0.7-0.3,1.4-0.2,1.8,0.2c0.3,0.4,0.2,0.9-0.4,1.6c-0.5,0.6-1,1.1-1.6,1.7c-0.3,0.3-0.6,0.6-0.4,1.1c0.4,0.2,0.8,0,1-0.3
	c0.6-1,1.5-1,2.5-0.8c0.2,0,0.3,0.1,0.5,0.1c0.5,0,0.7-0.4,0.4-0.8c-0.2-0.3-0.6-0.5-0.5-1c0.5-0.6,1,0.3,1.5,0
	c0.3-0.6,0.2-1.3,0.1-1.9c-1.1-0.3-1.7-1.1-2.2-2c-0.4-0.7-0.8-1.4-1.3-2c-0.9,1.1-1,1.1-1.8-0.2c-0.2-0.3-0.4-0.6-0.7-0.8
	c-0.2-0.2-0.5-0.2-0.8,0c-0.2,0.7-0.2,1.4-0.7,2.2c-0.5-0.8-0.9-1.5-1.4-2.3c-0.7,0.7-1.6,1.1-2.5,1.5c-0.7,0.3-1,0.1-1.4-0.7
	C76.5,253.3,77.1,253.7,77.6,253.3 M224.2,168c-0.6,0.3-1.1,0.3-1.7,0.2c-0.6-0.1-1.1,0-1.5,0.5c-0.2,0.2-0.4,0.4-0.6,0.6
	c-0.7,0.7-0.7,0.9,0.1,1.4c0.1,0.1,0.3,0.2,0.4,0.2c1.2,0.5,1.6,1.5,1.7,2.6c0.1,0.9,0,1.9,0,2.8c0,0.8-0.2,0.9-1,1
	c-0.6,0-1.2-0.1-1.7,0.1c0,0.2-0.1,0.3,0,0.3c0.4,1,1.3,1.7,2,2.5c0.2,0.2,0.5,0.2,0.7,0.2c1.1-0.3,2.4,0,3.2-1.1
	c0.1-0.1,0.3-0.2,0.4-0.2c1.3-0.4,1.8-1.3,2-2.5c0.2-1,0.5-2,1.4-2.6c-1-3.1-2.4-6-4.3-8.6C224.3,165.9,224.6,167.1,224.2,168
	 M161.5,210.9c0.1-0.4,0-0.5-0.1-0.6c-1.1-1-1.7-2.4-2.3-3.8c-0.3-0.6-0.4-1.2-0.2-1.8c0.4-1.1,0.3-2.2,0-3.4
	c-0.4-1.6-1.1-3.1-1.8-4.6c-0.5-1.1-1.2-2-2.1-2.8c-1.1-1-2.9-1.8-4.8-0.8c0.9,6.3,1.9,12.7,2.9,19.2
	C155.9,211.7,158.7,211.3,161.5,210.9 M120.2,197.4c0.5,0.5,0.9,1,1.3,1.5c0.8,1.1,2,1.7,3.3,2.1c0.7,0.2,1.3,0.5,1.8,0.9
	c0.7,0.5,1.1,1.1,1.1,2c0,0.8-0.1,1.5-0.4,2.2c-0.5,1-0.7,2-0.8,3.1c-0.2,1.9-0.8,3.3-2.6,4.1c-1,0.4-1.2,1.3-1.1,2.3
	c0.1,0.5,0.2,0.9,0.5,1.3c3.7-0.6,7.3-1.2,11.1-1.8c-2-6.3-3.7-12.6-5-19.1C126.2,196.4,123.2,196.9,120.2,197.4 M99.7,222.1
	c0,0.3,0.1,0.4,0.2,0.6c4.9,5.5,10.6,10,16.7,14.1c0.4,0.3,0.8,0.3,1.2,0.2c3-0.5,6-0.9,8.9-1.3c0.2,0,0.5,0,0.7-0.4
	c-2.6-3.5-5.2-7.1-7.5-10.9c-0.7,0.1-1.1,0.4-1.2,1c-0.2,0.9-0.3,1.8-0.4,2.8c-0.1,0.9,0.1,1.7,0.5,2.5c0.6,1.1,1.1,2.2,2,3.1
	c0.1,0.1,0.3,0.3,0.4,0.5c0.3,0.6,0.1,1.1-0.6,1.1c-0.4,0.1-0.8,0-1.3-0.1c-1.3-0.3-2.4-0.9-3.4-1.7c-1.1-1-2.3-2.1-3.2-3.3
	c-1.3-1.7-2.6-3.2-4.1-4.7c-0.8-0.7-1.1-1.6-1-2.6c0-0.7,0.2-1.3-0.1-2.1C104.8,221.3,102.2,221.6,99.7,222.1 M89.3,202.1
	c0.9,6.3,4.5,13,8.7,18.2c0.4,0.4,0.7,0.5,1.2,0.4c2.1-0.3,4.3-0.7,6.4-1c0.5-0.1,1,0,1.5-0.4c-0.3-1.1-0.7-2.1-1.2-3.1
	c-0.5-1-1.2-1.6-2.2-1.9c-1.1-0.3-2-0.9-2.9-1.6c-0.6-0.5-1.2-0.9-1.8-1.4c-1.4-1.3-2.7-2.6-3.7-4.2c-0.8-1.3-1.3-2.6-1.2-4.1
	c0-0.5,0.3-1,0.3-1.6C92.7,201.6,91,201.9,89.3,202.1 M93.6,183.6c-0.4-0.6-0.7-0.9-1.1-1.1c-0.5-0.3-1-0.1-1.1,0.5
	c-0.1,1.1-0.2,2.3,0.2,3.4c0.5,1.2,1,2.4,1.2,3.6c0.2,1.2,0.9,1.9,2,2.3c2,0.7,3.7,0.9,5.5-0.5c1.3-1,2.9-1.3,4.6-1.2
	c0.9,0.1,1.6,0.4,2.4,0.7c0.2-0.4,0.1-0.8,0.1-1.2c-0.3-3.4-0.3-6.8,0-10.2c0.1-0.6,0.3-1.2,0-1.9c-0.3,0-0.6,0-0.9,0.1
	c-1.8,0.3-3.6,0.6-5.4,0.8c-0.8,0.1-1.5,0.3-2.1,0.8c-0.2,0.2-0.6,0.3-0.9,0.4c-1.2,0.4-1.6,1.5-1.8,2.6c-0.1,0.6,0.2,1,0.8,1.1
	c0.3,0.1,0.7,0.2,1,0.2c0.8,0.1,1.4,0.7,1.8,1.3c0.5,0.6,0.9,1.3,0.8,2.2c-0.8,0.6-1.5,0.1-2.1-0.3c-1.5-1-3.1-1.4-4.8-1.2
	c-0.4,0-0.8,0.1-1.1,0c-0.6-0.1-1-0.9-0.6-1.2C92.5,184.6,92.7,183.7,93.6,183.6 M150.8,137.1c-2.6,0.1-4.6,0.2-6.6,0.5
	c-5.5,0.8-10.8,2.1-16.1,3.8c-0.8,0.3-1.6,0.6-2.3,1c-0.5,0.3-0.9,0.6-1.3,1c-0.7,0.8-0.6,1.3,0.3,1.7c1.8,0.8,3.8,1,5.7,0.6
	c0.4-0.1,0.8-0.3,1.2-0.5c0.4-0.2,0.7-0.4,1.1-0.6c1-0.5,2.1-0.6,3.2-0.3c0.3,0.1,0.7,0.2,1,0.3c0.6,0.2,1.2,0.2,1.9,0.1
	c3.2-0.6,6.4-1.4,9.5-2.1c2.6-0.6,5.1-1.2,7.6-2c0.6-0.2,1.3-0.5,1.9-0.8c0.4-0.2,0.7-0.5,0.7-1c0-0.5-0.5-0.6-0.9-0.8
	c-0.3-0.1-0.6-0.2-0.9-0.2C154.7,137.3,152.5,137.2,150.8,137.1 M257.2,203.2c0.3-0.2,0.6-0.5,0.7-0.8c0.1-0.3,0.4-0.6,0.7-0.8
	c0.5-0.3,0.9-0.8,1.1-1.3c0.6-1,1.1-2.1,1.7-3.1c0.1-0.2,0.4-0.4,0.2-0.7c-0.1,0-0.2-0.1-0.2,0c-3.4,0.5-6.9,1.1-10.3,1.6
	c-0.3,0-0.5,0.2-0.6,0.4c-0.6,1.1-1.4,2.2-1.9,3.3c-0.5,1.2-1.3,2-2.5,2.4c-1.5,0.4-2.5,1.3-3.5,2.4c-0.6,0.7-1.2,1.4-1.4,2.4
	c-0.1,0.4-0.3,0.8-0.6,1.1c-0.4,0.6-0.8,0.8-1.6,0.4c-1.1,1.2-2.2,2.4-3.4,3.5c-1.2,1.1-2.4,2.2-3.7,3.4c0.3,0,0.4,0,0.6,0
	c3.2-1,6.4-1.6,9.4-3.1c1.6-0.8,3.2-1.5,4.8-2.3c0.4-0.2,0.9-0.4,0.9-0.7c0.1-0.8-0.6-0.7-0.7-1.1c0-0.2,0.2-0.3,0.4-0.5
	c1.2-0.8,2.4-1.4,3.7-2c0.7-0.3,1.4-0.6,2.1-1c1-0.5,1.6-1.3,1.6-2.5c0-0.5,0-0.9,0.2-1.4c0.3-0.6,0.9-0.8,1.5-0.4
	C256.6,202.6,256.9,202.8,257.2,203.2 M191.9,185c6.7-1,13.2-2,19.7-3c0.2-2.3-0.7-7.7-1.6-9.2c-0.6,0-1.2-0.1-1.9-0.1
	c-1.3-0.1-2.2,0.4-2.9,1.5c-0.4,0.7-0.8,1.5-1.4,2c-0.9,0.8-1.5,1.8-2.1,2.8c-0.4,0.7-0.7,0.8-1.4,0.6c-0.5-0.1-0.9-0.3-1.2-0.7
	c-1-1-2-2.1-2.6-3.4c-0.4-0.9-0.8-1.8-1.3-2.6c-1.2-1.8-3.9-2.5-6-1.6C190.6,175.7,191.6,180.2,191.9,185 M144.1,192.2
	c-1.8-0.5-3.4-1.2-4.6-2.6c-0.8-1-1.6-1.9-2.6-2.5c-0.1-0.1-0.2-0.2-0.4-0.4c-0.5-0.5-0.6-1.3-0.9-2c-0.2-0.5,0.2-0.9,0.4-1.3
	c0.3-0.7,0.6-1.3,0.7-2c0.1-1.1,0.4-2.2,0.3-3.3c0-1.1,0.3-2.1,1.1-2.9c0.5-0.5,0.8-1.2,0.6-1.9c-1.2-0.1-9.2,1.2-10.1,1.6
	c-0.4,3.3,0.9,16.7,1.9,19.5C135,193.7,139.5,193.1,144.1,192.2 M251.8,177.4c-0.3-0.2-0.7-0.1-1,0c-2.2,0.3-4.4,0.7-6.7,1
	c-1.5,0.2-2.9,0.5-4.4,0.7c-0.9,0.1-1.7,0.3-1.9,1.4c-0.1,0.4-0.4,0.6-0.8,0.8c-0.6,0.2-1,0-1.1-0.6c0-0.3,0.2-0.6-0.2-0.8
	c-0.5,0.1-1.1,0.2-1.7,0.3c0.1,1,0.2,2,0.3,3c0.1,1.1,0.1,1.2-0.9,1.6c-0.3,0.1-0.7,0.3-1.1,0.4c-0.2,1.7-0.4,3.5-0.8,5.1
	c-0.4,1.7-0.8,3.3-1.3,5.1c1.3-0.4,2.3-1,3.3-1.6c1.3-0.8,2.7-1.5,3.4-3c0.1-0.2,0.4-0.5,0.6-0.6c1-0.4,1.8-1,2.6-1.5
	c1.1-0.7,2.4-0.6,3.2,0.6c0.3,0.4,0.6,0.9,0.9,1.3c0.5,0.7,1.1,0.7,1.7,0.1c0.5-0.5,0.8-1,0.8-1.7c0-0.4,0-0.9,0.1-1.3
	c0.1-0.7,0.4-1,0.9-1.1c0.5-0.1,0.9,0.2,1.1,0.8c0.1,0.4,0.2,0.7,0.3,1.1c0.2,0.8,0.4,1.6,0.8,2.4
	C251.6,188.6,252.8,180.8,251.8,177.4 M181.4,188c-0.4,0.5-0.4,1-0.4,1.5c0,1.7-0.7,3.1-2,4.3c-0.1,0.1-0.2,0.2-0.4,0.4
	c-0.4,0.4-0.5,0.9-0.2,1.4c0.1,0.3,0.3,0.5,0.4,0.8c1.4,2.7,1.1,5.5-0.8,7.8c-0.5,0.6-1.1,1.2-1.6,1.8c-0.6,0.7-0.9,1.5-0.7,2.5
	c1.7-0.2,3.3-0.4,5-0.8c-0.2-0.9-0.5-1.7-0.6-2.5c-0.3-1.2-0.3-2.5,0.5-3.5c0.9-1.1,1.8-2.1,2.8-3.1c0.4-0.4,0.8-0.7,1.4-0.9
	c0.8,0.4,1.2,1.1,1.3,1.9c0.2,1,0,1.9-0.5,2.8c-0.4,0.8-0.8,1.6-1.1,2.4c-0.3,0.7-0.4,1.4-0.1,2.2c1.5-0.1,3-0.4,4.5-0.7
	c0.3-1.9,0.7-3.8,1-5.7c0.6-4.2,0.9-8.3,0.8-12.6c0-0.5,0-1-0.3-1.5C187.4,187.1,184.4,187.6,181.4,188 M56.2,184.3
	c0.3,0.2,0.6,0.1,0.9,0c2.1-0.3,4.1-0.6,6.2-0.9c2.7-0.4,5.4-0.8,8.2-1.3c0.8-0.1,1.2-0.6,1.3-1.3c0-0.3,0-0.6,0-0.9
	c-0.1-0.9-0.3-1.8-0.4-2.6c-0.4-1.7,0.1-2.5,1.7-3.2c0.2-0.1,0.3-0.1,0.5-0.2c1-0.2,1.5-0.9,1.8-1.8c0.2-0.5,0.3-1,0.5-1.6
	c0.2-0.9,0.7-1.6,1.3-2.3c0.5-0.5,0.8-1.1,1.2-1.6c0.3-0.5,0.3-1,0-1.4c-0.3-0.5-0.8-0.5-1.3-0.4c-0.8,0.1-1.5,0.4-2.1,0.9
	c-0.4,0.3-0.9,0.6-1.5,0.8c-2.2,0.5-3.9,1.9-5.6,3.2c-0.9,0.7-1.8,1.4-2.8,2c-0.9,0.6-1.8,1.3-2.4,2.2c-2.5,3.1-4.8,6.4-7.1,9.6
	C56.4,183.8,56.1,184,56.2,184.3 M140.7,171.1c0.1-0.6-0.1-0.9-0.4-1.2c-0.4-0.5-0.7-0.9-1-1.5c-0.3-0.6-0.4-1.3,0.1-1.8
	c0.8-1,1.5-2.2,2.6-2.9c0.5-0.3,0.9-0.7,1.3-1.2c0.6-0.7,0.3-1.5-0.5-1.9c-0.5-0.3-1-0.2-1.6,0.1c-0.8,0.4-1.3,0.3-1.8-0.3
	c-0.4-0.6-0.6-1.2-0.6-1.9c0.1-0.6,0.5-0.9,1.1-0.7c0.2,0.1,0.3,0.3,0.6,0.3c0.1-0.8,0.1-1.6,0.7-2.2c1.3,0.6,1.7,2,2.6,2.9
	c0.1-1.1-0.1-3.4-0.5-4.7c-0.3-0.1-0.6,0-0.9,0c-1.6,0.2-3.2,0.5-4.8,0.7c-1.8,0.3-3.6,0.5-5.4,0.8c-0.6,0.1-1,0.3-1.1,1
	c0,0.1-0.1,0.2-0.1,0.4c-1.5,5-2.3,10.2-2.4,15.4c0,0.3-0.1,0.6,0.2,0.8c0.3,0,0.6,0,0.8-0.1c3-0.5,5.9-0.9,8.9-1.4
	C139.4,171.7,140,171.5,140.7,171.1 M212.8,222.6c0.5,0,0.7,0,0.9,0c3.5-0.5,7-1,10.6-1.6c0.5-0.1,1-0.3,1.4-0.6
	c4.4-3.4,8.6-7,12.4-11.1c0.2-0.2,0.5-0.4,0.4-0.9c-0.8-1.5-2.2-2.5-4-2.9c-1.7-0.4-3.3-0.1-4.8,0.6c-1.6,0.8-3.3,1.7-5.2,1
	C221.2,212.7,217.3,217.7,212.8,222.6 M253.3,177c0.1,0.9,0.2,1.6,0.2,2.3c0.2,4-0.5,7.9-1.8,11.7c-0.2,0.4-0.4,0.9-0.4,1.3
	c0.1,1.3-0.2,2.5-0.5,3.8c0,0.1,0,0.2,0.1,0.4c0.1,0,0.3,0.1,0.4,0.1c3.4-0.6,6.9-1.1,10.3-1.6c0.9-0.1,1.4-0.6,1.7-1.5
	c0.3-1,0.5-2,0.8-3c0.5-2.1,0.8-4.3,1.6-6.4c0.2-0.4,0.2-0.9,0.2-1.4c0.1-2.2-0.8-4-2-5.8c-0.7-1-1.6-1.4-2.8-1.2
	c-1.3,0.2-2.6,0.4-3.9,0.6C255.9,176.6,254.6,176.8,253.3,177 M171,228.8c0.4,0.2,0.6,0.1,0.8,0.1c3.1-0.5,6.2-1,9.3-1.4
	c0.8-0.1,1.2-0.4,1.5-1.1c2.3-5.7,4.3-11.6,5.8-17.6c0.1-0.2,0.2-0.5-0.1-0.8c-0.9,0.1-1.9,0.3-2.8,0.4c-0.3,0-0.6,0.1-0.9,0.2
	c-0.4,0-0.6,0.2-0.8,0.5c-0.7,0.8-1.3,1-2.2,0.4c-0.4-0.2-0.7-0.4-1-0.3c-1.7,0.3-3.3,0.6-5,0.8c-0.3,1-0.5,1.9-1.3,2.6
	c-0.5,0.5-0.7,1-0.7,1.7c-0.2,2.8-0.7,5.6-1.2,8.3C172,224.7,171.5,226.7,171,228.8 M117.9,165.7c-0.3,0.5-0.7,0.4-1.1,0.4
	c-1.4,0.1-2.6,0.7-3.5,1.8c-0.7,0.9-1.4,1.7-2.5,2.1c-0.6,2.1-1.2,4.1-1.5,6.4c6-0.9,11.9-1.8,17.8-2.7c0.2-3,0.3-6,0.8-8.9
	c0.4-2.9,1.1-5.7,1.9-8.5c-1,0-1-0.1-1.6,0.4c-0.9,0.6-1.8,0.9-2.9,0.9c-0.8,0-1.5-0.1-2.3-0.2c-1.4-0.2-2.8-0.4-3.8,0.9
	c-0.1,0.1-0.2,0.1-0.3,0.2c-1.9,1-2.4,2.6-2.4,4.6c0,0.7,0.2,1.3,0.8,1.8C117.6,164.9,117.9,165.2,117.9,165.7 M134.8,216.5
	c-4.1,0.7-8.1,1.3-12,1.9c-0.3,0.8-0.1,1.5-0.3,2.1c-0.3,0.7-0.6,1.3-1.1,1.9c-0.5,0.7-0.4,1.2,0,1.8c2.2,3.5,4.6,6.8,7,10.1
	c0.5,0.7,1,0.9,1.8,0.7c2.6-0.4,5.1-0.8,7.7-1.2c1-0.2,2.1-0.3,3.2-0.5C138.9,227.8,136.7,222.3,134.8,216.5 M87.2,193.2
	c-1.9-0.3-3.6-0.9-5.2-1.8c-0.8-0.4-1.4-1.1-2.3-1.4c-0.7-0.3-1.3-0.7-1.9-1.2c-0.5-0.4-1-0.8-1.5-1.2c-1.2-0.9-2.1-2-2.6-3.4
	c-0.1-0.3-0.2-0.7-0.7-0.9c-1.7,2.9-3,6-3.8,9.3c-0.9,3.7-1.2,7.4-0.5,11.3c2.2-0.3,4.3-0.6,6.4-0.9c2.1-0.3,4.2-0.6,6.3-1
	c2.1-0.3,4.2-0.5,6.3-1C87.2,198.3,87.2,195.8,87.2,193.2 M98.1,239.9c-0.3-0.5-0.7-0.6-1.1-0.9c-6.2-3.8-12.1-8-17.3-13.1
	c-0.6-0.6-1.2-0.5-1.9-0.4c-4.7,0.7-9.4,1.5-14.1,2.3c-1.1,0.2-2.1,0.3-3.2,0.6c0.1,0.1,0.1,0.2,0.2,0.3c0.3,0.2,0.5,0.4,0.8,0.6
	c3.8,2.8,8.1,4.9,12.4,6.8c0.3,0.2,0.7,0.2,1.1,0.3c2.3,0.6,4.6,1.1,6.9,1.9c2,0.7,4,1.4,6.2,1.3c1.5,0,3,0.2,4.3,0.9
	c0.2,0.1,0.5,0.2,0.7,0.1C94.8,240.4,96.4,240.2,98.1,239.9 M136.1,216.3c2,5.8,4.1,11.4,6.5,17c4.1-0.6,8.2-1.2,12.3-1.8
	c-1.2-5.9-2.1-11.7-3.1-17.6C146.6,214.6,141.5,215.4,136.1,216.3 M169.4,229.2c1.1-2.7,2.9-12.7,2.6-14.5c-0.1,0.1-0.2,0.1-0.3,0.2
	c-1.3,1.1-2.8,1.6-4.4,2c-1.3,0.3-2.4,0-3.3-1.1c-0.5-0.7-0.9-1.5-1.3-2.3c-0.2-0.4-0.2-0.9-0.7-1.3c-2.8,0.5-5.8,0.9-8.8,1.4
	c0.9,5.9,1.9,11.7,3,17.6C160.7,230.6,165.1,229.9,169.4,229.2 M184,226.9c0.4,0.2,0.7,0.1,1,0.1c3.5-0.5,7-1,10.4-1.5
	c0.6-0.1,1-0.4,1.4-0.9c4-5.8,7.4-11.9,10.1-18.3c0.1-0.3,0.3-0.6,0.2-1.1c-5.6,0.9-11.2,1.8-16.9,2.7c-0.6,2.2-1.2,4.3-1.8,6.5
	c-0.6,2.2-1.3,4.3-2.1,6.4C185.5,222.7,184.7,224.8,184,226.9 M81,225.1c2.8,3.5,12.1,10.3,18.3,13.8c0.9,0.5,1.7,0.7,2.7,0.5
	c3.8-0.6,7.7-1.2,11.6-1.8c0.4-0.1,0.9-0.1,1.3-0.4c-0.3-0.2-0.4-0.3-0.6-0.5c-5.8-4-11.2-8.5-15.9-13.9c-0.4-0.5-0.9-0.5-1.5-0.4
	c-3,0.5-6,1-9,1.4C85.6,224.3,83.4,224.7,81,225.1 M198.3,224.8c0.1,0,0.3,0.1,0.4,0c3.6-0.5,7.1-1.1,10.7-1.6
	c0.9-0.1,1.5-0.5,2-1.1c3-3.3,5.9-6.7,8.5-10.3c1.6-2.3,3.1-4.6,4.5-7.1c0.5-0.8,0.6-1.7-0.1-2.5c-0.3,0-0.5,0-0.8,0.1
	c-4.6,0.7-9.2,1.5-13.8,2.2c-0.7,0.1-1,0.4-1.2,1c-2.6,6.5-5.9,12.6-9.8,18.4C198.6,224.2,198.3,224.4,198.3,224.8 M46.7,208.7
	c-2,0.3-4,0.6-5.9,0.9c-0.4,0.1-0.6,0.3-0.8,0.6c-1.9,2.9-3.9,5.6-6.3,8.1c-0.4,0.4-0.6,0.9-0.5,1.5c0.3,1.4,0.8,2.8,1.8,3.8
	c1.3,1.2,2.4,2.6,3.6,3.9c1,1.2,2.3,1.8,3.9,1.7c1.1,0,2.3-0.4,3.4-0.1c0.1,0,0.3,0,0.5-0.1c3.1-0.5,6.3-1,9.4-1.5
	c0.4-0.1,0.8,0,1.2-0.4C51.5,222.2,47.8,216.2,46.7,208.7 M230.9,184.9c-0.9-0.3-1.7-0.1-2.4-0.5c-0.8-0.4-1.7-0.6-2.6-0.7
	c-1.5-0.2-1.7-0.4-1.5-2c0-0.1-0.1-0.1-0.1-0.3c-1.5,0.3-3.1,0.4-4.7,0.8c0.8,0.9,2,1.2,2.4,2.3c0.4,1,0.7,2.1,0.4,3.1
	c-0.3,0.1-0.5,0.1-0.7,0c-0.8-0.4-1.6-0.9-2.5-1.3c-0.5-0.2-0.8-0.6-1.2-0.9c-0.8-0.8-1.1-1.8-1.6-2.8c-1.1,0.2-2.2,0.2-3.3,0.6
	c0,0.5,0,0.9,0,1.4c0,2.6-0.3,5.2-0.8,7.8c-0.6,3.3-1.4,6.5-2.5,9.6c-0.1,0.3-0.3,0.7-0.2,1.1c4.7-0.8,9.3-1.5,14-2.2
	c0.8-2.4,2.2-4.1,4.7-4.7C229.8,192.6,230.7,188.9,230.9,184.9 M151.7,212.4c-1-6.5-1.9-12.9-2.9-19.4c-3.1,0.5-6.1,0.9-9,1.4
	c-3,0.5-6,0.9-9,1.4c0.2,3.3,4,17.5,5.1,19.1C141.1,214.1,146.3,213.3,151.7,212.4 M109.2,192.1c1,0.5,2,0.8,3,1.1
	c0.7,0.2,1.5,0.5,2.1,1c1,0.8,2.2,1.3,3.3,1.9c0.4,0.2,0.7,0.2,1.1,0.2c3.2-0.5,6.4-1,9.5-1.5c0.3,0,0.6-0.1,0.8-0.5
	c-0.5-3.1-1-6.4-1.3-9.6c-0.3-3.2-0.4-6.5-0.5-9.8c-3.1,0.5-6.1,0.9-9,1.4c-3,0.5-6,0.9-8.9,1.4
	C108.3,181.4,108.4,189.6,109.2,192.1 M251.7,175.8c-0.2-0.7-0.3-1.2-0.4-1.7c-0.9-3.5-2.5-6.6-4.6-9.6c-0.4-0.6-0.9-1-1.4-1.4
	c-2.2-1.4-4.3-2.8-6.4-4.3c-0.9-0.6-1.8-0.8-2.9-0.6c-2.6,0.4-5.2,0.8-7.8,1.2c-1,0.1-1.9,0.3-2.9,0.5c-0.8,0.1-0.9,0.3-0.8,1.1
	c0,0.7,0.4,1.2,0.8,1.7c3.2,4.1,5.5,8.6,6.5,13.8c0.1,0.4,0.1,0.8,0.2,1.2c0.1,0.5,0.4,0.9,1,0.9c1.1,0,2.1-0.1,3.1-0.5
	c0.5-0.2,0.9-0.4,1.4-0.2c0.3,0.1,0.7,0,1,0c3.2-0.5,6.4-1,9.7-1.5C249.3,176.2,250.4,176,251.7,175.8 M211.8,183.4
	c-6.6,1-13.1,2-19.7,3c0.3,6.7-0.3,13.2-1.7,19.8c6-0.9,11.7-1.8,17.5-2.8C210.3,197,211.8,190.4,211.8,183.4 M71.2,183.6
	c-0.6,0.1-1,0.1-1.3,0.1c-4.8,0.7-9.5,1.5-14.3,2.2c-0.6,0.1-1,0.4-1.3,0.8c-1,1.6-2,3.1-3.1,4.6c-1,1.3-1.6,2.7-2.1,4.3
	c-0.9,3.3-1.4,6.6-1.3,9.9c0,0.5-0.1,1,0.4,1.5c6.4-1,12.7-2,19.2-2.9C66.2,196.9,67.8,190.1,71.2,183.6 M87.8,202.4
	c-3.2,0.3-6.4,0.9-9.5,1.4c-3.1,0.5-6.3,0.9-9.4,1.5c1.1,6.4,5.6,13.4,10.2,18.1c0.4,0.4,0.7,0.4,1.2,0.3c4.6-0.8,9.3-1.5,13.9-2.2
	c0.8-0.1,1.6-0.1,2.5-0.5C92.4,215.5,89.2,209.4,87.8,202.4 M48.1,208.5c0,0.8,0.1,1.4,0.3,2c1.4,6.6,5.1,11.9,10.1,16.3
	c0.3,0.3,0.7,0.4,1.1,0.3c1.3-0.2,2.6-0.4,3.9-0.6c4.4-0.7,8.9-1.4,13.3-2.1c0.3-0.1,0.7,0,1-0.4c-2.4-2.6-4.6-5.4-6.4-8.5
	c-1.8-3.1-3.1-6.4-3.9-9.9C61,206.5,54.6,207.5,48.1,208.5 M46.3,199.7c-1.4,2.6-2.9,5.2-4.6,7.8c-0.1,0.1-0.2,0.3,0,0.5
	c1.6-0.2,3.2-0.4,4.9-0.8c-0.2-1.7-0.1-3.4,0-5.1c0-0.6,0.4-2.7,0.3-3.2C46.9,198.6,46.4,199.6,46.3,199.7 M115.4,147.1
	c-3.2,1.6-6.4,3.4-9.4,5.3c-0.3,0.2-0.6,0.3-0.8,0.7c1.8,0.6,3.5,0.5,4.9-0.7c2.1-1.9,4.3-3.8,6.4-5.6
	C116.5,146.7,115.8,146.9,115.4,147.1 M322.1,172.9c-0.4-0.9-0.5-1.9-1.2-2.5c-0.3,0-0.5,0.1-0.7,0.2c-0.8,0.5-1.6,1.1-2.4,1.6
	c-1,0.6-1.3,1.6-1.9,2.5c0.2,0.8,0.8,1.3,1.2,1.9c0.1,0.1,0.2,0.2,0.3,0.3c0.3,0.5,0.8,0.6,1.3,0.5c0.6-0.1,1.1-0.3,1.7-0.5
	c0.6-0.2,1.2,0.1,1.7-0.2c0.1-0.5,0.1-1.1,0-1.2c-0.7-0.1-3.1,1.1-3.9,0.8c0.8-0.5,3.3-2,4.3-1.6C322.6,174,322.4,173.5,322.1,172.9
	 M302.2,260.8c-0.8,0.3-1.6,0.7-2.4,1.1c-1.8,1.1-4.4,0.3-5.3-1.6c-0.3-0.7-0.8-1-1.6-1.1c-1.2-0.1-2.3,0.1-3,1.2
	c-1.1,1.6-2.8,2.3-4.7,2.7c-3.7,0.7-7.3,0.6-11-0.3c-1.6-0.4-2.7-1.3-3.4-2.8c-0.1-0.3-0.3-0.5-0.4-0.8c-1-1.9-2.4-3.2-4.4-3.8
	c-1.4-0.4-2.4-1.1-3.4-2.1c-0.9-1-1.6-2.1-1.9-3.4c-0.3-1.1-0.6-2.2-1-3.3c-0.5-1.4-1.3-2.6-2.5-3.5c-1-0.8-1.9-1.7-2.2-3
	c0.1-1.5,0.1-4.6,0-4.6c-0.3,0.7-0.4,1.5-0.3,2.2c0.1,0.8-0.2,1.6-0.1,2.4c-0.1,0.7-0.5,1.2-1,1.6c-3.9,3.5-8,6.7-12.7,9
	c-2.4,1.2-4.9,2-7.4,3.1c-1.8,0.8-3.6,1.6-5.6,2.1c-0.5,0.1-1,0.3-1.5,0.4c-3.8,0.6-7.5,1.7-11.3,2.5c-1.3,0.2-2.6,0.4-3.9,0.4
	c-3.1,0-6.3,0-9.4,0c-0.9,0-1.7,0.1-2.5,0.2c-2.3,0.5-4.7,0.5-7.1,0.5c-1.6,0-3.1,0.2-4.7,0.5c-4.1,1-8.3,1.5-12.6,1.8
	c-6.3,0.5-12.6,0.8-18.9,0.6c-6.2-0.2-12.4-0.7-18.5-1.2c-2-0.2-3.9-0.8-5.5-2c-0.8-0.6-1.6-0.8-2.6-0.6c-1,0.2-2-0.1-2.8-0.8
	c-0.4-0.4-0.8-0.5-1.4-0.4c-0.8,0.2-1.6,0.1-2.4,0.1c-0.7,0-1.5,0-2.1,0.3c-2.1,0.9-4.3,1.6-6.5,1.5c-0.3,0.3-0.3,0.5-0.4,0.8
	c-0.1,1.2-0.4,2.4-0.4,3.7c0.1,1.1,0,2.2,0,3.3c0,0.8-0.1,1.6-0.9,2c-0.8,0.4-1.5-0.1-2.1-0.5c-0.6-0.4-1.2-1-1.7-1.5
	c-1.6-1.9-3.3-3.6-5.2-5.3c-0.8-0.8-1.8-1.4-2.9-1.8c-0.8-0.3-1.4-0.2-2.1,0.2c-0.1,0.1-0.2,0.1-0.3,0.2c-1.5,1.5-3.3,2.3-5.2,3.2
	c-1.3,0.7-2.5,1.6-3.6,2.7c-0.8,0.8-1.3,1.7-1.8,2.7c-0.4-0.7-0.5-1.6-1-2.3c-0.2-0.2-0.3-0.6-0.7-0.4c-0.2,0.5,0,0.9,0.1,1.4
	c0.2,0.7,0.3,1.5,0.2,2.3c0,0.5-0.2,0.7-0.7,0.8c-0.5-0.5-0.6-1.2-0.6-1.9c0.1-0.9-0.1-1.8-0.5-2.6c-0.2-0.5-0.5-0.7-1-0.8
	c-1.6-0.4-3.1-0.5-4.7-0.1c-2.4,0.7-5,0.4-7.5,0.3c-0.9,0-1.7-0.4-2.6-0.7c-1.2-0.6-2.3-1.2-3.4-1.9c-1.6-1-2.8-2.3-4-3.7
	c-0.2-0.2-0.3-0.5-0.6-0.6c-1.1,0.4-2.3,1-3.5,1.3c-4.3,1.1-8.5,2.2-12.9,2.7c-2.1,0.3-4.2,0.8-6.2,1.2c-3.3,0.6-6.7,1.2-10.1,1.4
	c-0.7,0-1.4,0-2,0c-1.5,0-3-0.1-4.4,0.2c-0.5,0.1-1.1,0.1-1.7,0c-2.1-0.2-3.4-2.6-2.5-4.4c0.4-0.8,1.1-1.2,2-1.5
	c2.3-0.6,4.5-1.2,6.8-1.7c1-0.2,2-0.6,2.9-1.1c1-0.6,2.1-1.2,3.1-1.7c0.6-0.3,1.2-0.6,1.6-1c1.4-1.2,3.1-2.1,4.5-3.4
	c0.7-0.6,1.1-1.4,1.9-1.8c0.6,0.1,1.1-0.2,1.7,0.2c-0.1,0.5-0.6,0.9-0.5,1.4c0,0.3,0,0.5,0.3,0.6c0.3,0.1,0.5,0,0.7-0.2
	c0.4-0.3,0.4-0.8,0.4-1.3c-0.1-0.7,0.2-0.9,0.8-0.7c0.5,0.1,1,0.3,1.3,0c0.7-0.6,1.4-0.9,2.4-0.9c-0.7-0.8-0.9-1.7-1.6-2.3
	c-0.7,0.8-0.6,2-1.7,2.5c-0.2-0.8-0.8-1.3-0.9-2c1.4-1.4,2.9-2.7,4.1-4.4c0.6-0.9,1.5-1.6,2.2-2.4c1.6-1.7,1.3-3.2-0.1-4.8
	c-0.4-0.4-0.7-0.6-1.2-0.4c-1.4,0.6-2.5-0.1-3.4-1.1c-0.3-0.3-0.6-0.6-0.9-0.9c-1.1-1.1-2.5-1.2-3.9-0.6c-1.4,0.6-2.7,0.5-4-0.1
	c-0.9-0.4-1.9-0.8-2.8-1.3c-3.6-1.7-5.7-4.6-7.1-8.1c-0.4-1.1-0.2-1.5,0.8-2c0.8-0.4,1.5-0.8,2.1-1.4c1.3-1,2.6-1.9,3.9-2.9
	c0.8-0.6,1.4-1.2,2-1.9c3.5-4.4,6.5-9.1,9.2-14c1.1-1.9,2-3.8,3-5.7c0.5-1,1.1-1.9,1.7-2.8c4.4-6.7,9-13.3,14-19.7
	c3-3.8,6.5-7.1,10.4-10.1c9.9-7.5,20.7-13.3,32.3-17.7c9.5-3.6,19.2-6,29.2-7.7c8.1-1.4,16.3-1.7,24.5-1.5
	c19.8,0.4,39,3.9,57.7,10.5c5.8,2.1,11.3,4.9,16.5,8.1c10.3,6.3,20.1,13.3,29.7,20.6c1.7,1.3,2.7,3,3.4,5c0.1,0.3,0.2,0.6,0.3,1
	c1.1-0.6,2.4-0.8,3.6-0.9c0.5,0,1-0.2,1.5-0.4c0.2,0.4-0.5,0.7-0.1,1.2c0.5,0.2,0.9,0,1.3-0.3c0.3-0.2,0.7-0.5,1-0.8
	c0.6-0.6,1.3-0.7,2.1-0.4c0.8,0.4,1.5,0.2,2.1-0.4c0.2-0.1,0.3-0.3,0.6-0.2c0.2,0.5,0,1,0.1,1.5c0.1,0.3,0.2,0.6,0.5,0.6
	c0.3,0,0.4-0.2,0.6-0.4c0.3-0.5,0.4-1.1,0.6-1.7c0.2-0.5,0.4-1,1-1.2c0.4,0.3,0.3,0.7,0.4,1.1c0.2,0.6,0.5,1.1,1.2,1.2
	c1.5,0,3-0.1,3.9-1.5c0.1-0.2,0.3-0.4,0.6-0.4c0.4,0.2,0.2,0.7,0.7,1c1-0.9-0.3-1.8-0.1-2.7c0.5-0.5,0.9-0.2,1.4-0.2
	c1,0.2,1.9,0.2,2.8-0.5c1.8-1.4,3.8-2.3,6-3.1c2.3-0.9,4.7-1.7,7-2.5c1.7-0.6,3.3-1.2,4.9-2c2.3-1.1,4.7-2.2,7-3.2
	c0.7-0.3,1.5-0.6,2.3-0.8c1.2-0.3,2.5-0.6,3.7-0.7c1.3-0.1,2.2-0.8,2.8-1.9c0.2-0.1,0.4-0.2,0.6-0.2c0.5,0.6,1.1,0.6,1.8,0.3
	c0.4-0.2,0.8-0.3,1.2-0.2c0.3,0,0.6,0.1,0.6,0.5c0,0.3-0.2,0.5-0.4,0.6c-0.3,0.2-0.7,0.4-0.9,0.6c-0.9,0.7-0.9,1.4,0,2
	c1,0.7,2,1.4,3.2,1.8c1.4,0.5,2.5,1.5,3.9,2c0.1,0,0.2,0.1,0.3,0.2c0.8,0.6,0.9,1.3,0.3,2.1c-0.5,0.6-0.6,1.1-0.2,1.7
	c0.1,0.2,0.3,0.4,0.1,0.9c-0.5,0.1-1.1,0.3-1.6,0.5c-0.4,0.1-0.6,0.4-0.5,0.8c0,0.4,0.2,0.6,0.6,0.8c0.3,0.1,0.7,0.1,1-0.1
	c0.2-0.1,0.4-0.3,0.6-0.4c0.3-0.1,0.6-0.2,0.8,0c0.2,0.2,0.2,0.5,0.2,0.7c0,0.1-0.1,0.2-0.1,0.4c-0.4,0.8-0.4,1.7-0.2,2.6
	c0.1,0.6,0.5,1.1,0.2,1.7c-0.3,0.1-0.6,0.2-0.9,0.4c-0.6,0.4-1,0.9-1.2,1.6c0,0.2,0,0.4,0.2,0.5c0.2,0.1,0.3,0,0.5-0.1
	c0.4-0.2,0.6-0.6,0.8-1c0.4-0.8,1.1-1.3,2.1-1.1c0.3,0.1,0.6,0.1,0.9-0.1c0.4-0.9-0.1-1.8-0.3-2.6c0.9-0.6,1-0.6,1.5-0.1
	c0.3,0.3,0.6,0.7,0.9,1.1c0.7,1,0.4,1.9,0,2.9c-0.5,0.9-1.2,1.4-2.2,1.2c-0.1,0-0.2,0-0.3,0c-0.9,0-1,0-1.3,0.9
	c-0.2,0.7-0.5,1.2-1,1.7c-0.3,0.3-0.6,0.6-0.8,1c-1.7,2.1-3.8,3.9-5.8,5.7c-0.2,0.2-0.4,0.3-0.7,0.4c-1.1,0.3-1.8,1-2.6,1.7
	c-0.7,0.6-1.5,1.2-2.3,1.8c-0.5,0.4-1,0.7-1.7,0.9c-0.6,0.2-1.1,0.5-1.6,0.9c-1.1,0.9-2,1.9-2.8,3.1c-2,2-4.3,3.6-6.5,5.2
	c-0.8,0.6-1.6,1.3-2.3,2c-0.7,0.6-1.4,1.2-2.2,1.8c-1,0.7-2,1.2-3.3,1.3c-0.2,0.5-0.4,1-0.8,1.2c-0.5,0.3-1,0.4-1.6,0.5
	c-3.8,0.3-7.4,1.6-10.9,2.9c-1.4,0.5-2.7,1.1-4.1,1.6c-2.6,1-5.3,1.2-8.1,0.6c0.1,0.2,0.1,0.3,0.2,0.5c-0.1,0.2,0.1,0.5-0.2,0.8
	c-0.3-0.3-0.9-0.3-1-0.8c-0.1-0.5-0.6-0.7-0.9-1c-0.5-0.3-0.9-0.6-1.2-1.1c-0.2-0.2-0.4-0.5-0.1-0.8c0.3-0.2,0.6,0.2,0.9,0
	c0,0,0.1-0.1,0.1-0.1c0-0.3,0-0.6,0-0.9c0.1-1.8-0.8-3-2.3-3.8c-1.2-0.7-2.4-1.5-3.4-2.5c-0.8-0.7-1.5-1.5-2.3-2.2
	c-0.6-0.5-1.2-0.9-2-1.1c-0.8-0.3-1.8-0.4-2.5-0.9c-1.3-0.8-2.5-1.2-3.9-0.4c-1.5,0.1-2,1.4-2.7,2.3c0.5,0.5,0.9,0.8,1.2,1.3
	c0.3,0.5-0.3,1-0.2,1.5c0.5,0,0.8-0.8,1.3-0.1c-0.4,0.9-1.4,1.3-2.2,2c0.7,0.2,1.1,0.1,1.5-0.1c0.5-0.2,1-0.2,1.5-0.2
	c0.4,0,0.8-0.1,1,0.3c0.2,0.5-0.2,0.7-0.5,1c-0.2,0.2-0.4,0.4-0.6,0.7c-0.2,0.2-0.2,0.5,0,0.7c0.1,0,0.2,0.1,0.2,0.1
	c0.4,0.1,0.7-0.1,1-0.2c1.3-0.3,1.3-0.3,0.9-1.5c-0.1-0.2-0.1-0.4-0.1-0.6c0-0.4,0.1-0.7,0.5-0.8c0.3-0.2,0.6,0,0.8,0.2
	c0.1,0.1,0.2,0.2,0.3,0.3c0.4,0.7,1.2,1,1.9,1.2c0.6,0.2,1.1,0.3,1.7,0.5c0.4,0.1,0.8,0.3,1.1,0.7c0.2,0.3,0.1,0.7-0.3,0.8
	c-0.2,0.1-0.3,0.1-0.5,0.1c-1.7,0.2-3.1,1.4-3.6,3.1c1.4,0.2,1.9,0,2.4-1.1c0.4-0.9,1.2-1.3,2.1-1.4c0.9-0.1,1.4,0.5,1.3,1.3
	c-0.1,0.4-0.3,0.7-0.4,1.1c-0.2,0.6-0.2,1.2,0.2,1.7c0.1,0.1,0.2,0.3,0.3,0.4c0.6,1,0.2,1.8-0.9,2.1c-0.2,0.1-0.5,0-0.6,0.3
	c0.2,0.4,0.4,0.7,0.5,1.1c0.2,0.4,0.1,0.8,0.2,1.3c0,0.3,0.2,0.6,0.6,0.6c0.3-0.1,0.4-0.4,0.5-0.7c0.5-0.7,1.2-0.6,1.6,0.2
	c0.1,0.2,0.1,0.5,0.2,0.7c0.2,0.6,0.3,1.1,0.7,1.6c0.4,0.4,0.2,0.7-0.2,1c-0.5,0.3-1.2,0.3-1.7,0.8c0.9,1.1,0.8,1.2-0.5,1.7
	c0,0-0.1,0-0.1,0c-1,0.6-1.6,1.3-1.8,2.5c0.7,0.2,0.9-0.3,1.2-0.6c0.3-0.3,0.5-0.7,0.8-1c0.5-0.5,1.1-0.8,1.8-0.6
	c0.6,0.8-0.7,1.4-0.1,2.1c0.6-0.1,0.5-0.6,0.8-1c0.5-0.6,1.1-0.7,1.6-0.1c0.4,0.4,0.9,0.8,1.3,1.2c-0.4,0.7-1,1-1.7,1.1
	c-0.5,0.1-1.1,0.1-1.6,0.2c-0.6,0-1.2,0.2-1.7,0.5c-0.8,0.4-1.1,1.1-0.7,1.9c0.3,0.5,0.7,1,1.1,1.4c0.5,0.5,1,0.6,1.6,0.3
	c0.3-0.1,0.5-0.3,0.8-0.4c0.5-0.1,1,0.2,1.1,0.6c0.1,0.4-0.1,0.8-0.6,1c-0.2,0.1-0.4,0.1-0.6,0.2c-0.4,0.1-0.8,0.2-1.2,0.4
	c-0.4,0.3-0.8,0.2-1.1-0.2c-0.1-0.2-0.3-0.3-0.5-0.3c-0.6,0.3-0.7,0.8-0.6,1.4c0,0.9,0.2,1.1,1.1,1.1c0.4,0,0.8-0.1,1.1-0.1
	c0.9-0.2,1.5-0.8,2.1-1.4c0.6-0.6,1.4-0.6,1.9-0.2c0.5,0.4,0.5,1-0.1,1.2c-0.5,0.2-0.7,0.5-0.9,0.9c-0.2,0.4-0.5,0.8-0.9,1.1
	c-0.2,0.2-0.5,0.4-0.4,0.7c0.2,0.3,0.5,0.3,0.8,0.3c1.7,0.3,2.8,1.2,3.4,2.8c0.1,0.2,0.2,0.3,0.4,0.2c0-0.4,0.1-0.9,0.1-1.4
	c0.1-0.1,0.1-0.3,0.2-0.4c0.5-0.7,0.9-1.6,2-1.6c0.3,0.1,0.6,0.4,0.8-0.1c0.3-0.7,0.8-0.5,1.3-0.4c0.4,0.1,0.8,0.4,1,0.7
	c0.4,0.9,1.1,1.5,1.7,2.2c0.9,1,1.4,2.2,1.8,3.4c-0.4,0.3-0.8-0.3-1.1,0.2c0.3,0.7,0.4,0.9,0.7,0.9c1.2,0.3,2.5,0.6,3.8,0.3
	c0-0.8-0.5-1.1-1-1.3c-0.5-0.2-1-0.4-1.5-0.7c-0.3-0.1-0.5-0.3-0.5-0.7c0.1-0.3,0.4-0.3,0.7-0.3c2.2-0.1,3.7,1,5,2.6
	c0.5,0.7,1,1.5,1.6,2.1c0.2,0.2,0.5,0.5,0.9,0.4c0.3-0.4,0.2-0.9-0.1-1.3c-0.3-0.5-0.7-0.9-1-1.3c-0.4-0.6-0.5-1.2-0.2-1.5
	c0.3-0.3,0.9-0.1,1.5,0.5c0.7,0.7,1,1.6,1.4,2.4c0.6,1.2,1.5,2,2.7,2.6c0.6,0.3,1.3,0.7,1.9,1c0.6,0.3,1,0.8,1,1.5
	c0,0.3,0,0.5-0.3,0.7c-0.3,0.1-0.5,0.1-0.7-0.1c-0.3-0.2-0.5-0.5-0.8-0.8c-0.7-0.6-1.4-0.4-1.6,0.5c-0.1,0.5-0.1,1.1-0.1,1.6
	c0,1.3,0.2,1.5,1.5,1.7C302,260.7,302.1,260.8,302.2,260.8"/>
<path d="M283.6,295.5c-0.2,0.5-0.6,0.4-0.9,0.4c-1.6-0.2-3.2-0.2-4.8,0c-0.3,0-0.8,0.1-0.9-0.4c0.2-0.4,0.6-0.3,0.9-0.4
	c1-0.3,1.1-0.5,1.2-1.5c0-0.5,0-1,0-1.5c0-1.2,0-2.5,0-3.7c0-1.2-0.1-1.2-1.2-1.6c-0.2-0.1-0.5-0.1-0.6-0.6c0.6-0.4,1.5-0.5,2.2-0.7
	c0.8-0.3,1.4-0.8,2.2-1c0.3,0.5,0,1,0.2,1.5c0.5,0,0.8-0.4,1.2-0.6c1.3-0.8,2.7-1,4.2-0.6c1.6,0.5,2.5,1.6,2.5,3.2
	c0,1.4,0,2.8,0,4.2c0,0.4,0,0.8,0,1.1c0.1,1.1,0.3,1.5,1.5,1.7c0.2,0,0.4,0.1,0.6,0.2c0,0,0,0.1,0.1,0.1c0,0.3-0.2,0.4-0.5,0.5
	c-0.2,0-0.4,0-0.6,0c-1.4-0.2-2.9-0.1-4.3,0c-0.4,0-0.8,0.2-1.1-0.2c0-0.5,0.4-0.5,0.7-0.5c0.7-0.2,1.1-0.6,1.1-1.3
	c0-1.9,0.1-3.7,0-5.6c0-1.1-0.7-1.8-1.8-2c-0.8-0.2-1.6-0.1-2.4,0.3c-0.8,0.4-1.3,0.9-1.3,2c0.1,1.6,0,3.1,0,4.7
	c0,1.5,0.1,1.5,1.5,2.1C283.4,295.3,283.5,295.4,283.6,295.5"/>
<path d="M141.9,285.4c1.7,0,3.2-0.4,4.7-0.5c0.3,0.5,0.2,0.9,0.2,1.3c0,2.2,0,4.4,0,6.6c0,1.6,0,1.5,1.5,2c0.1,0,0.2,0.1,0.2,0.2
	c0.1,0.2,0,0.4-0.1,0.4c-1.4,0.3-2.8,0.4-4.1,1.1c-0.5-0.5,0-1.1-0.3-1.6c-0.5,0.3-0.9,0.6-1.4,0.8c-1.3,0.7-2.7,0.9-4.2,0.4
	c-1.5-0.5-2.3-1.6-2.3-3.1c0-1.1,0-2.3,0-3.4c0-0.6,0-1.1,0-1.7c0-1.4-0.2-1.6-1.7-1.8c-0.2,0-0.3-0.1-0.4-0.1
	c-0.1-0.4,0-0.6,0.3-0.6c1.4-0.1,2.9-0.4,4.2-0.5c0.3,0.3,0.2,0.7,0.2,1c0,1.4,0,2.8,0,4.2c0,0.6,0,1.3,0,1.9c0,1.2,0.2,2.2,1.5,2.7
	c1.2,0.4,3,0,3.8-0.9c0.2-0.2,0.3-0.5,0.3-0.8c0-1.8,0-3.6,0-5.3c0-0.9-0.4-1.6-1.6-1.6C142.2,286.1,142.2,286,141.9,285.4"/>
<path d="M63.8,285.4c1.6-0.1,3.1-0.3,4.6-0.6c0.3,0.5,0.2,0.9,0.2,1.3c0,2.2,0,4.5,0,6.7c0,1.5,0,1.5,1.5,1.9c0.1,0,0.2,0.1,0.3,0.2
	c0.1,0.3-0.1,0.4-0.2,0.4c-1.3,0.1-2.7,0.4-3.9,1c-0.5-0.5-0.1-1-0.4-1.5c-0.5,0.3-1,0.6-1.5,0.9c-1.2,0.6-2.4,0.8-3.7,0.4
	c-1.7-0.4-2.7-1.6-2.7-3.4c0-1.4,0-2.8,0-4.2c0-0.3,0-0.5,0-0.8c0-1.5-0.2-1.6-1.7-1.8c-0.2,0-0.4,0-0.5-0.3
	c-0.1-0.2,0.1-0.4,0.2-0.4c1.5-0.1,2.9-0.4,4.4-0.6c0.3,0.4,0.2,0.9,0.2,1.3c0,1.7,0,3.4,0,5.1c0,0.3,0,0.5,0,0.8
	c0,1.1,0.2,2.2,1.5,2.7c1.2,0.4,3,0,3.8-0.9c0.3-0.3,0.3-0.6,0.3-0.9c0-1.7,0-3.4,0-5.1c0-1.3-0.3-1.6-1.6-1.7
	C63.9,286,63.9,286,63.8,285.4"/>
<path d="M205.1,290.6c-1.2,0.1-2.2,0.5-3.1,1.1c-0.3,0.2-0.6,0.5-0.7,0.9c-0.4,0.9,0,2.2,0.8,2.4c1,0.3,2,0,2.8-0.7
	c0.1-0.1,0.2-0.3,0.2-0.4C205.1,292.8,205.3,291.7,205.1,290.6 M210.2,294.5c-0.1,1-0.8,1.2-1.5,1.5c-1.3,0.5-2.5,0.3-3.4-0.9
	c-0.4,0-0.6,0.3-0.9,0.4c-1.2,0.7-2.5,0.8-3.8,0.7c-0.6-0.1-1.1-0.3-1.6-0.7c-0.9-0.9-1-2.1-0.2-3.1c0.6-0.7,1.4-1.1,2.2-1.5
	c1-0.5,2.1-0.8,3.2-1.1c0.3-0.1,0.6-0.2,1-0.3c0.2-0.7,0.1-1.5,0.1-2.2c0-0.9-0.5-1.5-1.3-1.7c-0.8-0.2-1.9,0.1-2.4,0.6
	c-0.3,0.3-0.2,0.7-0.3,1.1c-0.3,0.8-0.9,1.3-1.7,1.2c-0.9,0-1.3-0.8-0.8-1.5c0.2-0.3,0.5-0.6,0.8-0.8c1.2-0.9,2.6-1.4,4.1-1.6
	c0.7-0.1,1.3-0.1,2,0.1c1.5,0.4,2.2,1.4,2.2,2.9c0,1.7-0.1,3.4-0.2,5.1c0,0.4-0.1,0.8,0,1.3c0.2,0.7,0.6,1,1.3,0.8
	C209.4,294.7,209.7,294.4,210.2,294.5"/>
<path d="M233.7,290.7c-1,0-1.8,0.4-2.7,0.8c-0.4,0.2-0.8,0.5-1.1,0.9c-0.5,0.7-0.5,1.3-0.1,2c0.3,0.7,0.9,0.8,1.6,0.7
	c0.6,0,1.2-0.2,1.7-0.6c0.2-0.2,0.5-0.4,0.5-0.7C233.7,292.8,234,291.7,233.7,290.7 M238.8,294.5c-0.1,1-0.8,1.2-1.5,1.5
	c-1.3,0.5-2.2,0.3-3.5-0.9c-1.2,0.9-2.6,1.3-4.1,1.2c-0.7,0-1.3-0.2-1.8-0.6c-1.2-0.9-1.4-2.3-0.4-3.4c0.5-0.5,1.1-0.9,1.8-1.2
	c1.1-0.5,2.2-0.9,3.3-1.2c0.4-0.1,0.8-0.2,1.2-0.4c0.1-0.7,0.1-1.5,0.1-2.3c-0.1-0.8-0.6-1.4-1.4-1.6c-0.8-0.2-1.9,0.2-2.3,0.8
	c-0.2,0.3-0.1,0.6-0.2,0.9c-0.2,0.9-1,1.4-1.9,1.3c-0.7-0.1-1.1-0.7-0.7-1.4c0.1-0.3,0.3-0.5,0.6-0.7c1.6-1.2,3.4-2,5.4-1.9
	c0.5,0,0.9,0.1,1.4,0.3c1.2,0.5,1.8,1.3,1.8,2.8c0,1.6-0.1,3.2-0.1,4.8c0,0.4,0,0.8,0,1.1c0.1,1.1,0.5,1.4,1.6,1.1
	C238.2,294.6,238.4,294.4,238.8,294.5"/>
<path d="M271,290.5c-1.4,0.3-2.7,0.6-3.6,1.6c-0.5,0.6-0.6,1.6-0.2,2.3c0.4,0.6,1.1,0.8,2.2,0.6c1-0.2,1.7-0.7,1.7-1.5
	C271.1,292.6,271,291.7,271,290.5 M276.1,294.6c-0.8,1.9-3.2,2.2-5,0.5c-0.4,0-0.6,0.3-0.9,0.4c-1.2,0.7-2.5,0.8-3.8,0.7
	c-0.7-0.1-1.2-0.4-1.7-0.8c-0.8-0.8-0.9-2-0.1-2.9c0.4-0.5,0.9-0.9,1.5-1.2c1.2-0.7,2.5-1.1,3.8-1.4c0.4-0.1,0.7-0.2,1.2-0.3
	c0.2-0.8,0.2-1.6,0.1-2.4c-0.1-1-0.8-1.6-1.8-1.6c-1.1,0-1.8,0.5-2.1,1.4c-0.3,1.1-1,1.7-2,1.5c-0.7-0.1-1-0.7-0.7-1.3
	c0.2-0.4,0.6-0.7,0.9-1c1.2-0.9,2.6-1.4,4.1-1.6c0.5-0.1,1.1-0.1,1.6,0.1c1.7,0.4,2.5,1.4,2.5,3.2c0,1.5-0.1,3-0.2,4.6
	c0,0.3,0,0.6,0,0.9c0,1.5,0.5,1.8,1.9,1.2C275.7,294.5,275.8,294.4,276.1,294.6"/>
<path d="M105.3,288.3c1.4,0,2.9,0.1,4.3,0c1.2-0.1,1.5-0.8,0.8-1.8c-0.2-0.3-0.5-0.6-0.9-0.7C107.8,284.9,105.4,285.9,105.3,288.3
	 M113.4,289.1h-8.3c-0.2,1.4-0.3,2.8,0.5,4c0.4,0.7,1.1,1.2,1.9,1.4c1.6,0.5,3.2,0.3,4.6-0.7c0.3-0.2,0.6-0.5,0.9-0.7
	c0.5,0.2,0.4,0.6,0.1,0.9c-1,1.2-2.3,2-3.9,2.3c-1.6,0.3-3.1,0.1-4.5-0.8c-2-1.3-3-3.2-2.7-5.6c0.3-2.4,1.7-4.1,4-4.8
	c2.4-0.8,4.7-0.5,6.5,1.5C113.1,287.2,113.5,287.9,113.4,289.1"/>
<path d="M310.4,288.4c1.8-0.2,3.7,0.2,5.5-0.4c0.1-1.6-0.7-2.5-2.2-2.6C312,285.3,310.7,286.5,310.4,288.4 M310.2,289.1
	c-0.2,0.8-0.2,1.5-0.1,2.1c0.2,2,1.5,3.3,3.5,3.5c1.5,0.1,2.9-0.3,4-1.2c0.2-0.2,0.3-0.4,0.6-0.3c0.3,0.2,0.2,0.4,0.1,0.7
	c-1.9,2.4-4.9,3.1-7.7,2c-2.6-1.1-4-3.7-3.4-6.5c0.6-2.9,3.6-4.9,6.7-4.6c1.5,0.2,2.9,0.8,3.8,2c0.5,0.7,1,1.4,0.7,2.4
	c-1.4,0.2-2.8,0.1-4.2,0.1C313,289.1,311.6,289.1,310.2,289.1"/>
<path d="M246.3,295.5c0,0.2,0,0.4-0.2,0.4c-0.3,0.1-0.6,0.1-0.9,0.1c-1.6-0.2-3.1-0.2-4.7,0c-0.4,0-0.9,0.2-1.1-0.2
	c0-0.4,0.2-0.4,0.5-0.5c1.5-0.4,1.7-0.6,1.7-2.2c0-2.8,0-5.5,0-8.3c0-1.1,0-2.2,0-3.3c0-1.3-0.1-1.4-1.3-1.8
	c-0.2-0.1-0.4-0.1-0.5-0.5c0.6-0.5,1.4-0.5,2.2-0.7c0.8-0.3,1.4-0.7,2.1-1c0.4,0.2,0.3,0.6,0.3,0.8c-0.3,4.6-0.1,9.2-0.2,13.9
	c0,0.3,0,0.5,0,0.8c0,1.7,0.2,1.8,1.8,2.3C246.1,295.2,246.3,295.3,246.3,295.5"/>
<path d="M211.2,279c0.8-0.2,1.5-0.5,2.3-0.7c0.7-0.2,1.3-0.8,2.1-0.9c0.3,0.3,0.2,0.7,0.2,1c-0.4,4.8-0.1,9.7-0.2,14.5
	c0,1.7,0.1,1.8,1.8,2.3c0.2,0.1,0.3,0.1,0.4,0.3c0,0.3-0.2,0.4-0.5,0.4c-0.2,0-0.4,0-0.6,0c-1.6-0.2-3.2-0.2-4.8,0
	c-0.4,0-0.8,0.2-1-0.4c0.3-0.5,0.7-0.4,1-0.5c0.7-0.2,1.1-0.7,1.1-1.4c0-0.3,0-0.6,0-0.9c0-3.7,0-7.5,0-11.2c0-0.3,0-0.5,0-0.8
	c0-0.6-0.3-1-1-1.2C211.7,279.6,211.2,279.7,211.2,279"/>
<path d="M247.5,279.1c0.8-0.3,1.6-0.5,2.3-0.7c0.8-0.2,1.3-0.9,2.1-0.9c0.3,0.3,0.2,0.5,0.2,0.8c-0.3,2.5-0.2,4.9-0.2,7.4
	c0,2.2,0,4.5,0,6.7c0,0.4,0,0.9,0,1.3c0.1,0.9,0.3,1.2,1.2,1.4c0.3,0.1,0.6,0.2,0.8,0.3c0,0,0.1,0.1,0.1,0.1
	c0.1,0.3-0.1,0.5-0.4,0.5c-0.3,0-0.5,0-0.8,0c-1.5-0.1-3-0.1-4.6,0c-0.4,0-0.9,0.2-1.2-0.3c0.2-0.5,0.6-0.4,0.9-0.5
	c1-0.3,1.2-0.6,1.3-1.6c0-0.2,0-0.4,0-0.6c0-3.7,0-7.5,0-11.2c0-0.3,0-0.5,0-0.8c0-0.7-0.3-1.1-1-1.2
	C248.1,279.6,247.8,279.6,247.5,279.1"/>
<path d="M98.2,277.4c0.4,0.2,0.4,0.4,0.4,0.6c-0.3,3.9-0.1,7.9-0.2,11.8c0,1.1,0,2.2,0,3.3c0,1.5,0.2,1.7,1.7,2.1
	c0.2,0,0.3,0.1,0.4,0.2c0,0.2,0,0.4-0.2,0.4c-0.2,0.1-0.4,0.1-0.6,0.1c-1.7-0.2-3.5-0.2-5.2,0c-0.3,0-0.7,0.1-0.9-0.3
	c0.2-0.5,0.6-0.4,1-0.5c0.7-0.2,1.1-0.6,1.2-1.3c0-0.3,0.1-0.7,0.1-1c0-3.7,0-7.4,0-11.1c0-0.2,0-0.3,0-0.5c-0.1-1-0.2-1.2-1.2-1.5
	c-0.2-0.1-0.5-0.1-0.6-0.6c0.7-0.4,1.5-0.4,2.2-0.7C96.9,278.1,97.6,277.8,98.2,277.4"/>
<path d="M161.2,285.1c2.1,0.1,4.2,0.1,6.3,0c0.2,0.5,0.1,0.7-0.3,0.8c-1.4,0.4-1.5,0.6-0.9,1.9c0.7,1.6,1.5,3.2,2.2,4.7
	c0.4,0,0.4-0.2,0.5-0.3c0.7-1.4,1.4-2.8,2.1-4.2c0.1-0.3,0.3-0.6,0.4-0.9c0.2-0.5,0-0.8-0.5-1c-0.3-0.1-0.6-0.1-0.9-0.2
	c-0.2-0.1-0.3-0.3-0.2-0.5c0.5-0.1,4.9-0.2,5.5-0.1c0.2,0.3,0.1,0.6-0.2,0.6c-1.4,0.1-2,1.1-2.6,2.2c-1.2,2.4-2.4,4.9-3.7,7.3
	c-0.2,0.4-0.3,0.9-0.8,1.1c-0.5,0-0.6-0.4-0.8-0.8c-1.1-2.3-2.2-4.6-3.3-6.9c-0.2-0.3-0.3-0.7-0.5-1c-0.5-0.9-1.1-1.6-2.1-1.8
	C161.2,285.8,161,285.6,161.2,285.1"/>
<path d="M190,296.3c-0.6-0.2-0.6-0.7-0.8-1c-1-2.2-2.1-4.4-3.1-6.6c-0.2-0.5-0.5-1-0.7-1.5c-0.4-0.7-1-1.3-1.8-1.4
	c-0.4-0.1-0.7-0.1-0.5-0.7h6.4c0.2,0.4,0.1,0.6-0.3,0.7c-1.5,0.4-1.5,0.6-0.9,1.9c0.7,1.6,1.5,3.2,2.2,4.8c0.5,0,0.5-0.3,0.6-0.5
	c0.6-1.3,1.3-2.6,1.9-3.9c0.1-0.2,0.2-0.4,0.3-0.6c0.4-1.1,0.4-1.3-0.8-1.6c-0.2,0-0.3-0.1-0.5-0.1c-0.1-0.1-0.2-0.3-0.1-0.5
	c0.1,0,0.2-0.1,0.3-0.1c1.7,0.1,3.5,0,5.1,0c0.2,0.4,0.1,0.7-0.2,0.7c-1.4,0.1-2,1.1-2.6,2.2c-1.2,2.4-2.4,4.9-3.7,7.3
	C190.7,295.6,190.6,296.1,190,296.3"/>
<path d="M47.1,286.5c-0.5-0.3-1,0-1.6-0.3c0.5-0.9,1.5-1.2,2.2-1.8c0.7-0.6,1.1-1.5,2.1-1.8c0.3,0.8,0,1.7,0.2,2.5
	c1.4,0.3,2.9-0.1,4.3,0.2c0.2,0.2,0.2,0.4,0.2,0.6c0,0.2-0.1,0.3-0.1,0.5c-1.4,0.3-2.9-0.1-4.3,0c-0.3,0.2-0.3,0.5-0.3,0.7
	c0,1.8,0,3.6,0,5.5c0,0.3,0,0.6,0.1,0.9c0.2,0.8,0.7,1.2,1.5,1.3c0.6,0.1,1.3,0,1.9-0.2c0.3-0.1,0.5-0.3,0.8,0
	c0.1,0.4-0.2,0.6-0.4,0.7c-1.4,0.9-2.9,1.1-4.5,0.6c-1.4-0.4-2.1-1.5-2.1-3c0-1.7,0-3.4,0-5.1C47.2,287.4,47.4,286.9,47.1,286.5"/>
<path d="M123.6,293.2c0.5-0.3,0.7-0.1,0.9,0.2c0.2,0.4,0.5,0.8,0.8,1.1c0.8,0.7,1.7,1.1,2.8,1c0.4,0,0.8-0.2,1.2-0.4
	c1-0.7,1-2.1-0.1-2.8c-0.5-0.3-1.1-0.6-1.7-0.8c-0.8-0.3-1.6-0.6-2.3-1.1c-2-1.3-2-3.6,0-4.9c0.7-0.4,1.4-0.7,2.2-0.8
	c0.9-0.1,2.7,0.1,3.8,0.5c0,0.8,0.1,1.5,0.2,2.4c-0.4,0.2-0.7,0.2-0.9-0.2c-0.1-0.2-0.1-0.3-0.2-0.5c-0.7-1.3-2-1.8-3.3-1.2
	c-1.1,0.5-1.3,1.7-0.5,2.5c0.6,0.5,1.3,0.8,2,1.1c0.9,0.4,1.7,0.7,2.5,1.3c1.7,1.1,1.9,2.9,0.4,4.3c-0.9,0.9-2,1.3-3.3,1.4
	c-1.4,0.1-2.7-0.3-4.1-0.5C124,294.9,123.8,294,123.6,293.2"/>
<path d="M304.3,293.8c0.4,0.5,0.1,0.7-0.2,0.9c-0.9,0.8-2,1.3-3.2,1.5c-1.7,0.3-3.3,0-4.8-0.9c-3.3-2-3.8-6.8-0.6-9.2
	c2.5-1.9,5.2-1.9,8-0.8c0.4,0.1,0.7,0.4,0.9,0.7c0.5,0.7,0.1,1.5-0.7,1.6c-0.6,0.1-1.1-0.1-1.5-0.6c-0.1-0.1-0.2-0.2-0.2-0.3
	c-0.4-0.8-1-1.3-2-1.3c-1.1,0-2,0.3-2.7,1.2c-1.2,1.5-1.3,4.8-0.3,6.4c0.8,1.2,1.9,1.8,3.3,1.9C301.7,295,302.5,294.8,304.3,293.8"
	/>
<path d="M87.4,286.5c0,2.3-0.1,4.4,0,6.5c0,1.4,0.9,2,2.3,1.9c0.7,0,1.3-0.3,1.9-0.4c0.2,0.5,0,0.7-0.2,0.9c-1.4,0.9-3,1.2-4.6,0.6
	c-1.2-0.4-2-1.4-2-2.8c0-1.7,0-3.5,0-5.2c0-0.4,0.1-0.8-0.1-1.3c-0.4-0.5-1.1,0-1.5-0.4c-0.1-0.2,0-0.4,0.2-0.5
	c1.3-0.7,2.4-1.7,3.4-2.8c0.1-0.2,0.3-0.3,0.6-0.2c0.6,0.7-0.1,1.6,0.3,2.5c1.4,0.2,2.8,0,4.2,0.1c0.4,0.4,0.3,0.7,0.2,1.2
	C90.5,286.7,89.1,286.4,87.4,286.5"/>
<path d="M150.3,286.4c0.1-0.1,0.1-0.2,0.2-0.3c1.4-0.3,2.7-1,4.1-1.5c0,0,0.1,0,0.1,0.1c0.3,0.4-0.1,0.9,0.1,1.3
	c0.5,0,0.7-0.4,1.1-0.6c0.6-0.4,1.3-0.7,2-0.8c0.5-0.1,1,0,1.5,0.3c0.5,0.3,0.7,0.8,0.6,1.3c-0.1,0.5-0.6,0.8-1.1,0.9
	c-0.3,0-0.7,0-1-0.2c-1.2-0.7-2.2-0.4-3.1,0.6c0,1.9,0,3.8,0,5.8c0,1.1,0.4,1.4,1.5,1.8c0.3,0.1,0.8,0,1,0.4c0,0.2,0,0.4-0.2,0.4
	c-0.3,0-0.7,0.1-1,0c-1.6-0.1-3.2-0.2-4.8,0c-0.4,0-0.9,0.3-1.2-0.3c0.2-0.5,0.7-0.4,1-0.5c0.7-0.2,1.1-0.6,1.2-1.3c0-2,0-3.9,0-5.9
	c0-0.6-0.3-1-0.9-1.1C150.9,286.8,150.5,286.8,150.3,286.4"/>
<path d="M72.2,286.1c1.5-0.4,2.9-0.8,4.2-1.6c0.6,0.5,0.1,1.1,0.5,1.5c0.4-0.1,0.7-0.4,1.1-0.6c0.6-0.4,1.2-0.6,1.9-0.7
	c0.5-0.1,0.9,0,1.4,0.2c0.6,0.3,0.8,0.8,0.7,1.4c-0.1,0.5-0.6,0.9-1.3,0.9c-0.3,0-0.6-0.1-0.9-0.2c-1.2-0.7-2.2-0.4-3.1,0.6
	c0,1.9,0,3.8,0,5.8c0,1.2,0.4,1.5,1.5,1.9c0.3,0.1,0.7,0,0.9,0.4c0,0.1,0,0.3-0.1,0.3c-0.1,0.1-0.3,0.1-0.5,0.1c-2-0.1-4-0.2-6,0
	c-0.3,0-0.6,0-0.6-0.5c0.3-0.3,0.7-0.3,1-0.3c0.7-0.2,1-0.6,1-1.3c0-0.4,0-0.9,0-1.3c0-1.4,0-2.9,0-4.3c0-1-0.1-1.1-1.1-1.4
	C72.6,286.7,72.3,286.7,72.2,286.1"/>
<path d="M176.1,295.3c0.3-0.1,0.6-0.1,0.9-0.2c0.9-0.3,1.1-0.5,1.2-1.4c0-1.9,0-3.7,0-5.6c0-0.8-0.2-1-1-1.2
	c-0.2-0.1-0.4-0.1-0.6-0.2c-0.1,0-0.1-0.1-0.2-0.3c0.6-0.6,1.5-0.5,2.3-0.9c0.7-0.3,1.4-0.6,2.3-1c0.2,1.2,0,2.2,0,3.3
	c-0.1,1.7-0.1,3.5-0.1,5.2c0,0.2,0,0.3,0,0.5c0.1,1.2,0.3,1.3,1.4,1.6c0.3,0.1,0.6,0,0.8,0.4c0,0.3-0.1,0.4-0.3,0.4
	c-0.3,0-0.7,0-1,0c-1.4-0.1-2.8-0.1-4.2,0c-0.3,0-0.7,0.1-1,0C176.1,295.9,176,295.7,176.1,295.3"/>
<path d="M262.3,295.6c-0.1,0.1-0.2,0.3-0.3,0.2c-2.1-0.1-4.2-0.1-6.3,0c-0.1,0-0.2-0.2-0.3-0.2c0-0.5,0.5-0.5,0.8-0.5
	c1.2-0.2,1.3-0.7,1.4-1.7c0.1-1.3,0-2.6,0-3.9c0-0.5,0-0.9,0-1.4c0-0.7-0.3-1.2-1.1-1.3c-0.2,0-0.4-0.1-0.6-0.3c0-0.1,0-0.2-0.1-0.2
	c0-0.1,0.1-0.2,0.1-0.2c1.4-0.5,2.9-0.8,4.1-1.6c0.4,0.4,0.3,0.7,0.3,1c-0.3,2.6-0.2,5.2-0.2,7.8c0,1.5,0.4,1.8,1.5,1.9
	c0.2,0,0.4,0,0.6,0.2C262.2,295.4,262.2,295.5,262.3,295.6"/>
<path d="M179.5,279c0.8,0,1.4,0.6,1.4,1.3c0,0.8-0.7,1.3-1.5,1.3c-0.9,0-1.5-0.6-1.5-1.4C177.9,279.5,178.7,278.9,179.5,279"/>
<path d="M258.8,281.6c-0.9,0-1.5-0.5-1.5-1.3c0-0.7,0.6-1.2,1.5-1.3c0.8,0,1.5,0.5,1.5,1.2C260.3,281,259.7,281.6,258.8,281.6"/>
<path d="M219.1,180.8c-2.1,0.4-4,0.7-6,0.9c-0.2-3-0.6-5.8-1.4-8.7c0.8,0.4,1.2,0.9,1.6,1.4c0.4,0.5,0.8,1.1,1.1,1.7
	c0.7,1.6,2,2.6,3.3,3.6C218.1,180,218.5,180.3,219.1,180.8"/>
<path d="M153.5,123.6c-0.3-0.4-0.3-0.6-0.3-0.8c-0.2-4.6-0.7-9.1-1.5-13.6c-0.1-0.7,0.2-1.2,1-1.4c0.8-0.1,1.5-0.1,2.3,0
	c0.7,0.1,1.1,0.6,1.3,1.2c0.5,1.1,1.1,2.2,1.7,3.3c1.7,2.8,3.8,5.2,6.5,7c2.1,1.4,4.5,2.2,7,2.7c3.8,0.8,7.6,1,11.4,0.7
	c3.1-0.2,6.1-0.8,8.8-2.4c2.3-1.4,4-3.3,4.7-5.9c0.7-2.8,0.2-5.3-1.9-7.5c-1.5-1.5-3.2-2.6-5.1-3.6c-3.2-1.7-6.5-3.1-9.9-4.4
	c-3.8-1.5-7.7-2.9-11.4-4.6c-2.8-1.3-5.6-2.6-8.2-4.3c-1.8-1.2-3.3-2.5-4.5-4.3c-2.4-3.6-2.3-7.3-0.4-11c1.5-3,4.1-5.1,6.9-6.8
	c3.9-2.3,8.2-3.6,12.7-4.3c3.6-0.5,7.2-0.6,10.8-0.4c2.9,0.1,5.7,0.4,8.6,0.9c1.2,0.2,2.4,0.3,3.5,0.3c1.6,0.1,3.1,0.2,4.7,0.3
	c0.1,0,0.2,0.1,0.4,0.1c0.4,1.3,0.4,2.6,0.6,3.9c0.4,2.9,0.9,5.8,1.4,8.6c0,0.2,0.1,0.5,0.1,0.7c0.1,0.7-0.1,1-0.8,1.2
	c-0.5,0.1-0.9,0.2-1.4,0.2c-1.8-0.2-1.9-0.5-2.4-1.8c-0.8-2.2-2-4.3-3.6-6.1c-1.9-2.1-4.3-3.3-6.9-4c-1.9-0.5-3.9-0.8-5.9-0.8
	c-1.6,0-3.1,0-4.7,0.1c-3,0.2-5.9,0.9-8.5,2.5c-1.1,0.7-2.1,1.4-2.9,2.5c-2.4,3.5-2.4,7,1.2,9.9c1.2,1,2.5,1.8,3.9,2.5
	c3.9,2,8,3.6,12,5.2c5.2,2,10.4,4,15.3,6.6c1.9,1,3.7,2.1,5.3,3.5c1.8,1.6,3.2,3.4,3.6,5.8c0.4,1.9,0.3,3.9-0.2,5.8
	c-1.1,4.4-3.8,7.6-7.6,10c-3.7,2.4-7.8,3.7-12.1,4.3c-3.1,0.5-6.1,0.8-9.2,0.7c-2.9,0-5.8-0.3-8.7-0.7c-3.4-0.4-6.8-1.1-10.2-1.5
	c-1.2-0.1-2.4-0.4-3.7-0.4C155.9,123.8,154.7,123.5,153.5,123.6"/>
<path d="M51.9,64c4.2,0.5,8.2,0.6,12.3,0.8c3,0.1,5.9,0.1,8.9,0.2c11.5,0.4,23,0.3,34.5,0.2c4.4,0,8.8-0.1,13.2-0.2
	c3.3-0.1,6.6-0.3,9.9-0.5c1.2-0.1,2.4-0.3,3.5-0.4c0.2,0,0.4-0.1,0.7,0.1c0.3,1.5,0.7,3.1,1,4.6c0.8,3.1,1.7,6.2,2.6,9.3
	c0.5,1.4,0.1,2-1.5,2.2c-0.3,0-0.6,0-0.9,0c-0.9,0.1-1.5-0.3-1.9-1.2c-0.3-0.6-0.6-1.2-1-1.8c-2.4-4-5.9-6.4-10.3-7.5
	c-2.6-0.6-5.3-1-8-1.1c-2.2,0-4.4-0.2-6.6-0.2c-1.9,0-3.7,0.1-5.6,0.2c-0.2,0-0.4,0-0.6,0.1c-1.7,0.4-2.2,1-2.2,2.7
	c0,0.3,0,0.5,0,0.8c0,14.1,0,28.1,0,42.2c0,0.9,0.1,1.7,0.2,2.5c0.2,1.2,0.9,2.1,2,2.7c1.4,0.7,2.9,1.1,4.4,1.3
	c2.2,0.4,4.4,0.6,6.6,0.8c1.3,0.1,1.9,1.1,1.5,2.2c-0.2,0.5-0.6,0.8-1.1,0.9c-0.2,0-0.4,0-0.6,0c-3.4,0-6.7,0.1-10.1-0.1
	c-5.8-0.3-11.5-0.3-17.3-0.1c-3.5,0.1-7,0.2-10.4,0.2c-0.7,0-1.4,0-2.2,0c-1.4,0-2-0.8-1.6-2.2c0.2-0.6,0.7-0.9,1.3-0.9
	c1.7-0.1,3.4-0.3,5-0.5c1.5-0.2,3-0.5,4.5-0.9c2.5-0.7,3.7-2.3,3.7-5.1c0-1.6,0-3.2,0-4.8c0-12.6,0-25.2,0-37.8c0-0.6,0-1.1,0-1.7
	c0-1-0.6-1.6-1.4-1.9c-0.5-0.2-1-0.3-1.6-0.3c-3.8-0.1-7.6-0.2-11.3,0.1c-5.6,0.4-11,1.7-15.9,4.4c-2,1.1-3.8,2.5-5.2,4.4
	c-0.4,0.5-0.6,1-0.9,1.5c-0.4,0.7-1,1.1-1.7,1.1c-0.6,0-1.3,0-1.9-0.2c-0.9-0.4-1.1-0.8-0.6-1.7c0.7-1.2,1.4-2.5,2-3.7
	c1.7-3.2,3.2-6.5,4.6-9.8C51.6,64.6,51.7,64.3,51.9,64"/>
<path d="M274.9,97.6c-3.6-6.8-7.1-13.5-10.7-20.2c-0.5,0.3-0.7,0.7-0.9,1.1c-1.6,2.8-3.2,5.6-4.8,8.4c-1.8,3.2-3.6,6.3-5.4,9.5
	c-0.2,0.4-0.6,0.8-0.5,1.2C254,97.9,273.8,97.8,274.9,97.6 M276.8,101.2h-26.4c-0.7,1.2-1.4,2.4-2.1,3.6c-1.8,3.1-3.6,6.3-5.3,9.4
	c-0.5,0.9-0.9,1.8-1.2,2.8c-0.4,1.4-0.1,2.4,1.2,3.1c0.7,0.4,1.4,0.7,2.1,0.8c2,0.5,4.1,0.8,6.2,0.8c0.5,0,0.9,0,1.3,0.4
	c0.5,0.6,0.6,1.2,0.3,1.9c-0.2,0.7-0.7,0.9-1.4,0.9c-3.3-0.1-6.6,0-9.9-0.2c-1.9-0.2-3.7-0.1-5.6-0.1c-2.3,0-4.6-0.1-6.9,0.1
	c-2.5,0.2-5,0.2-7.5,0.2c-0.5,0-0.9,0-1.4,0c-0.9,0-1.4-0.3-1.5-1c-0.1-0.7,0.2-1.5,0.9-1.8c0.4-0.2,0.9-0.2,1.4-0.3
	c1.9-0.2,3.9-0.4,5.7-1c2.8-0.8,4.9-2.5,6.7-4.6c1.5-1.8,2.7-3.8,4-5.8c3.6-5.8,7.2-11.5,10.8-17.3c5.9-9.5,11.8-18.9,17.7-28.4
	c0.6-0.9,1.3-1.4,2.4-1.3c0.2,0,0.4,0,0.6,0c1,0,1.7,0.4,2.1,1.3c1.2,2.2,2.4,4.5,3.7,6.7c6.6,12,13.2,23.9,19.7,35.9
	c1.1,2.1,2.3,4.2,3.4,6.2c2.1,3.8,5.4,6.1,9.6,7.2c2.1,0.5,4.3,0.9,6.5,1c0.4,0,0.8,0.1,1.1,0.3c0.6,0.4,0.9,1.1,0.7,1.7
	c-0.2,0.7-0.6,1.1-1.4,1.1c-2,0-4,0-6,0c-6.1-0.3-12.1-0.4-18.2-0.2c-4.8,0.1-9.5,0.3-14.2,0.3c-0.4,0-0.8,0-1.1,0
	c-0.8-0.1-1.1-0.5-1.2-1.2c0-0.3,0-0.5,0-0.8c0.1-0.7,0.5-1.1,1.2-1.1c1.4,0,2.9-0.2,4.3-0.3c1.4-0.1,2.7-0.3,4-0.8
	c0.4-0.2,0.9-0.3,1.3-0.6c0.9-0.6,1.1-1.3,0.8-2.3c-0.2-0.7-0.5-1.4-0.8-2c-2.4-4.6-4.7-9.1-7.1-13.7
	C277.2,101.9,277,101.5,276.8,101.2"/>
<path d="M227.2,186.3c0.3,0,0.5,0,0.8,0.1c0.7,0.2,0.9,0.7,0.4,1.2c-0.3,0.4-0.5,0.9-1.1,1c-0.8,0.1-1.6,0.1-2.3-0.4
	c-0.5-0.4-0.5-0.8,0-1.2C225.6,186.4,226.4,186.3,227.2,186.3"/>
<path d="M250.9,185.4c-1.6-0.7-3.2-0.4-4.8-0.6c-0.6-0.1-1.2-0.2-1.7-0.3c-0.8-0.2-1.4-0.6-1.9-1.1c-0.4-0.5-0.8-1-1.4-1.3
	c-0.4-0.2-0.4-0.7,0-1c0.2-0.2,0.5-0.3,0.8-0.4c1.5-0.6,3-0.7,4.4,0c0.3,0.1,0.5,0.3,0.8,0.4C249.2,181.6,250,183.5,250.9,185.4"/>
<path d="M238.3,187.4c-1,0.7-3.1,1.4-4,1.4c-0.1,0-0.4-0.3-0.4-0.4c0.7-0.5,1.3-1,1.6-1.9c0.2-0.5,0.6-0.6,1.1-0.3
	C237.2,186.6,237.7,187,238.3,187.4"/>
<path d="M204.2,178.9c0.2,0,1.2,0.7,1.7,1c0.6,0.4,0.8,0.8,0.7,1.2c-0.2,0.6-0.7,0.9-1.3,1c-0.6,0.1-1.2-0.2-1.4-0.7
	c-0.2-0.7-0.3-1.5-0.1-2.2C203.9,179,204.1,178.9,204.2,178.9"/>
</svg>
