<?xml version="1.0" encoding="utf-8"?>
<!-- Generator: Adobe Illustrator 16.0.0, SVG Export Plug-In . SVG Version: 6.00 Build 0)  -->
<!DOCTYPE svg PUBLIC "-//W3C//DTD SVG 1.1//EN" "http://www.w3.org/Graphics/SVG/1.1/DTD/svg11.dtd">
<svg version="1.1" id="Layer_1" xmlns="http://www.w3.org/2000/svg" xmlns:xlink="http://www.w3.org/1999/xlink" x="0px" y="0px"
	 width="300px" height="58.922px" viewBox="0 0 300 58.922" enable-background="new 0 0 300 58.922" xml:space="preserve">
<path opacity="0.5" fill="#FFFFFF" d="M59.109,50.049c2.507,0,4.455,2.012,4.455,4.508c0,2.482-1.948,4.492-4.455,4.492
	c-2.497,0-4.432-2.01-4.432-4.492C54.677,52.061,56.612,50.049,59.109,50.049 M59.109,57.904c1.846,0,3.258-1.489,3.258-3.348
	c0-1.861-1.413-3.363-3.258-3.363c-1.835,0-3.248,1.502-3.248,3.363C55.861,56.415,57.274,57.904,59.109,57.904"/>
<polygon opacity="0.5" fill="#FFFFFF" points="71.991,50.15 71.991,51.258 68.057,51.258 68.057,54.059 71.176,54.059 
	71.176,55.167 68.057,55.167 68.057,58.922 66.874,58.922 66.874,50.15 "/>
<polygon opacity="0.5" fill="#FFFFFF" points="85.128,50.15 85.128,51.258 81.117,51.258 81.117,54.059 84.619,54.059 
	84.619,55.167 81.117,55.167 81.117,57.814 85.255,57.814 85.255,58.922 79.934,58.922 79.934,50.15 "/>
<polygon opacity="0.5" fill="#FFFFFF" points="93.672,58.922 89.674,52.313 89.674,58.922 88.49,58.922 88.49,50.15 89.662,50.15 
	93.621,56.708 93.621,50.15 94.806,50.15 94.806,58.922 "/>
<path opacity="0.5" fill="#FFFFFF" d="M98.674,58.922V50.15h3.4c2.496,0,3.946,1.91,3.946,4.406c0,2.482-1.45,4.365-3.946,4.365
	H98.674z M102.074,57.814c1.821,0,2.763-1.412,2.763-3.258c0-1.848-0.942-3.299-2.763-3.299h-2.215v6.557H102.074z"/>
<path opacity="0.5" fill="#FFFFFF" d="M110.138,56.693l-0.854,2.229h-1.26l3.336-8.772h1.274l3.322,8.772h-1.248l-0.852-2.229
	H110.138z M113.45,55.625L112,51.729l-1.453,3.896H113.45z"/>
<polygon opacity="0.5" fill="#FFFFFF" points="123.907,58.922 119.909,52.313 119.909,58.922 118.725,58.922 118.725,50.15 
	119.897,50.15 123.855,56.708 123.855,50.15 125.04,50.15 125.04,58.922 "/>
<path opacity="0.5" fill="#FFFFFF" d="M134.886,51.997c-0.561-0.498-1.298-0.813-2.114-0.813c-1.832,0-3.247,1.516-3.247,3.373
	c0,1.858,1.415,3.36,3.247,3.36c1.579,0,2.726-0.916,2.801-2.367h-2.494v-1.03h3.844c0,3.08-1.643,4.53-4.151,4.53
	c-2.494,0-4.43-2.01-4.43-4.493c0-2.494,1.936-4.507,4.43-4.507c1.159,0,2.203,0.445,2.967,1.158L134.886,51.997z"/>
<polygon opacity="0.5" fill="#FFFFFF" points="145.209,50.15 145.209,51.258 141.197,51.258 141.197,54.059 144.7,54.059 
	144.7,55.167 141.197,55.167 141.197,57.814 145.336,57.814 145.336,58.922 140.015,58.922 140.015,50.15 "/>
<path opacity="0.5" fill="#FFFFFF" d="M154.594,58.922h-1.439l-2.264-3.283h-1.122v3.283h-1.196V50.15h3.374
	c1.848,0,2.598,1.375,2.598,2.748c0,1.302-0.65,2.562-2.291,2.701L154.594,58.922z M149.768,51.258v3.271h2.087
	c1.072,0,1.465-0.816,1.465-1.631c0-0.801-0.394-1.642-1.412-1.642L149.768,51.258L149.768,51.258z"/>
<polygon opacity="0.5" fill="#FFFFFF" points="163.137,50.15 163.137,51.258 159.125,51.258 159.125,54.059 162.627,54.059 
	162.627,55.167 159.125,55.167 159.125,57.814 163.264,57.814 163.264,58.922 157.941,58.922 157.941,50.15 "/>
<path opacity="0.5" fill="#FFFFFF" d="M166.5,58.922V50.15h3.398c2.496,0,3.944,1.91,3.944,4.406c0,2.482-1.448,4.365-3.944,4.365
	H166.5z M169.898,57.814c1.819,0,2.764-1.412,2.764-3.258c0-1.848-0.943-3.299-2.764-3.299h-2.215v6.557H169.898z"/>
<path opacity="0.5" fill="#FFFFFF" d="M183.137,56.693l-0.854,2.229h-1.26l3.334-8.772h1.274l3.322,8.772h-1.248l-0.853-2.229
	H183.137z M186.447,55.625l-1.451-3.896l-1.451,3.896H186.447z"/>
<polygon opacity="0.5" fill="#FFFFFF" points="196.904,58.922 192.906,52.313 192.906,58.922 191.723,58.922 191.723,50.15 
	192.896,50.15 196.854,56.708 196.854,50.15 198.039,50.15 198.039,58.922 "/>
<rect x="201.904" y="50.15" opacity="0.5" fill="#FFFFFF" width="1.186" height="8.771"/>
<polygon opacity="0.5" fill="#FFFFFF" points="214.818,50.15 215.9,50.15 216.971,58.922 215.799,58.922 214.998,52.327 
	212.26,57.956 211.215,57.956 208.453,52.327 207.65,58.922 206.479,58.922 207.547,50.15 208.631,50.15 211.725,56.592 "/>
<path opacity="0.5" fill="#FFFFFF" d="M221.619,56.693l-0.854,2.229h-1.261l3.336-8.772h1.272l3.322,8.772h-1.248l-0.852-2.229
	H221.619z M224.93,55.625l-1.451-3.896l-1.451,3.896H224.93z"/>
<polygon opacity="0.5" fill="#FFFFFF" points="231.389,50.15 231.389,57.814 234.967,57.814 234.967,58.922 230.205,58.922 
	230.205,50.15 "/>
<path opacity="0.5" fill="#FFFFFF" d="M240.441,57.943c1.119,0,1.67-0.625,1.77-1.286c0.078-0.943-0.699-1.39-1.49-1.566
	l-1.133-0.278c-1.857-0.474-2.137-1.527-2.137-2.293c0-1.476,1.348-2.472,2.838-2.472c1.604,0,2.826,0.996,2.826,2.574h-1.184
	c0-0.881-0.701-1.44-1.656-1.44c-0.853,0-1.642,0.522-1.642,1.325c0,0.384,0.14,0.955,1.246,1.224l1.146,0.278
	c1.644,0.421,2.521,1.349,2.343,2.75c-0.152,1.263-1.209,2.291-2.929,2.291c-1.795,0-3.065-1.284-3.065-2.659h1.183
	C238.57,57.152,239.334,57.943,240.441,57.943"/>
<rect x="23.09" y="54.191" opacity="0.5" fill="#FFFFFF" width="21.804" height="0.58"/>
<path fill="#FFFFFF" d="M29.409,12.214H40.15v4.1c0.476-1.366,1.204-2.465,2.184-3.298c0.981-0.832,2.465-1.248,4.458-1.248
	c4.605,0,6.909,2.48,6.909,7.444v13.416h2.495v0.802H43.583v-0.802h1.828V18.143c0-1.783-0.12-2.935-0.357-3.456
	c-0.238-0.519-0.669-0.779-1.293-0.779c-0.951,0-1.791,0.624-2.519,1.871c-0.728,1.248-1.091,2.764-1.091,4.547v12.302h1.917v0.802
	H29.409v-0.802h2.451V13.017h-2.451V12.214z"/>
<path fill="#FFFFFF" d="M70.807,33.43l-0.49-3.121c-1.011,2.379-3.061,3.566-6.151,3.566c-2.556,0-4.54-0.92-5.951-2.764
	c-1.412-1.841-2.117-4.589-2.117-8.244c0-7.4,2.941-11.099,8.825-11.099c2.614,0,4.338,0.728,5.17,2.184V0.804h-2.718V0.002h11.143
	v32.626h2.183v0.802H70.807z M65.19,30.421c0.327,1.026,0.929,1.54,1.806,1.54c0.876,0,1.633-0.389,2.272-1.16
	s0.96-1.917,0.96-3.432v-9.717c0-1.276-0.255-2.362-0.759-3.253c-0.506-0.892-1.247-1.338-2.228-1.338
	c-0.981,0-1.649,0.655-2.005,1.962s-0.537,3.596-0.537,6.865v2.316C64.7,27.324,64.863,29.396,65.19,30.421"/>
<path fill="#FFFFFF" d="M83.617,30.911c-1.917-1.975-2.875-4.725-2.875-8.245c0-3.522,1.075-6.219,3.231-8.091
	c2.153-1.871,4.896-2.807,8.223-2.807c6.746,0,9.985,3.388,9.716,10.162H89.343v1.739c0,2.912,0.372,5.111,1.115,6.597
	c0.742,1.484,2.035,2.229,3.877,2.229c3.447,0,5.707-1.843,6.776-5.528l0.8,0.133c-0.563,2.139-1.582,3.804-3.052,4.994
	c-1.471,1.188-3.677,1.782-6.619,1.782C88.408,33.875,85.533,32.889,83.617,30.911 M89.389,21.039h4.59v-2.185
	c0-2.406-0.141-4.047-0.423-4.923c-0.283-0.876-0.847-1.316-1.694-1.316c-0.847,0-1.472,0.469-1.872,1.406
	c-0.4,0.934-0.602,2.547-0.602,4.833L89.389,21.039L89.389,21.039z"/>
<path fill="#FFFFFF" d="M117.112,13.462c-1.1,0-2.065,0.713-2.898,2.14c-0.831,1.425-1.248,3.119-1.248,5.08v11.946h3.165v0.802
	h-13.905v-0.802h2.451V13.017h-2.451v-0.802h10.74v4.279c0.387-1.516,1.13-2.683,2.229-3.5c1.1-0.816,2.348-1.225,3.746-1.225
	c1.396,0,2.532,0.394,3.408,1.182c0.876,0.787,1.316,1.902,1.316,3.342c0,1.441-0.328,2.548-0.98,3.32
	c-0.654,0.774-1.658,1.159-3.008,1.159c-1.354,0-2.348-0.445-2.987-1.338c-0.639-0.891-0.721-2.123-0.245-3.697h1.605
	C118.791,14.221,118.478,13.462,117.112,13.462"/>
<path fill="#FFFFFF" d="M134.54,27.056v-14.04h-2.452v-0.801h2.452V6.463l8.29-2.049v7.801h5.794v0.801h-5.794v15.021
	c0,1.397,0.141,2.421,0.424,3.076c0.282,0.652,0.87,0.979,1.762,0.979c0.891,0,1.671-0.445,2.338-1.337
	c0.669-0.891,1.107-2.109,1.316-3.656l0.757,0.088c-0.237,2.052-0.892,3.679-1.96,4.881c-1.07,1.205-2.838,1.808-5.304,1.808
	c-2.467,0-4.354-0.492-5.661-1.474C135.192,31.424,134.54,29.641,134.54,27.056"/>
<path fill="#FFFFFF" d="M148.812,0.002h10.741v16.313c0.475-1.366,1.203-2.467,2.184-3.299c0.982-0.831,2.468-1.249,4.457-1.249
	c4.607,0,6.91,2.483,6.91,7.445v13.417h2.494v0.803h-12.613v-0.803h1.828V18.143c0-1.784-0.119-2.935-0.356-3.454
	c-0.235-0.52-0.668-0.782-1.291-0.782c-0.951,0-1.793,0.625-2.521,1.873c-0.729,1.248-1.092,2.764-1.092,4.546V32.63h1.916v0.804
	h-12.657V32.63h2.45V0.803h-2.45V0.002L148.812,0.002z"/>
<path fill="#FFFFFF" d="M178.148,30.911c-1.916-1.975-2.875-4.725-2.875-8.245c0-3.522,1.076-6.219,3.229-8.091
	c2.156-1.871,4.896-2.807,8.224-2.807c6.746,0,9.987,3.388,9.717,10.162h-12.568v1.739c0,2.912,0.373,5.111,1.115,6.597
	c0.742,1.484,2.035,2.229,3.877,2.229c3.447,0,5.707-1.843,6.775-5.528l0.801,0.133c-0.564,2.139-1.582,3.804-3.051,4.994
	c-1.474,1.188-3.681,1.782-6.619,1.782C182.941,33.875,180.064,32.889,178.148,30.911 M183.92,21.039h4.59v-2.185
	c0-2.406-0.141-4.047-0.422-4.923c-0.283-0.876-0.846-1.316-1.693-1.316c-0.847,0-1.473,0.469-1.873,1.406
	c-0.399,0.934-0.602,2.547-0.602,4.833V21.039z"/>
<path fill="#FFFFFF" d="M220.111,32.939c1.484,0,2.803-0.399,3.945-1.205c1.143-0.801,1.717-2.011,1.717-3.631
	s-0.619-2.859-1.851-3.721c-1.233-0.861-2.987-1.612-5.262-2.251c-2.271-0.639-3.923-1.195-4.945-1.67
	c-1.026-0.477-2-1.102-2.92-1.873c-1.844-1.546-2.767-3.938-2.767-7.176c0-2.644,0.943-4.918,2.832-6.82
	c1.886-1.902,4.464-2.854,7.732-2.854c1.574,0,3.217,0.232,4.926,0.692c1.711,0.462,2.771,0.69,3.188,0.69s0.787-0.294,1.112-0.891
	h0.49l0.313,9.003h-0.713c-1.427-2.584-2.92-4.658-4.479-6.218c-1.562-1.559-3.252-2.34-5.082-2.34
	c-1.826,0-3.246,0.423-4.254,1.271c-1.011,0.847-1.517,1.977-1.517,3.388c0,1.412,0.603,2.496,1.803,3.253
	c1.205,0.758,2.685,1.375,4.438,1.85c1.752,0.475,2.902,0.802,3.455,0.981c0.549,0.179,1.229,0.424,2.049,0.733
	c0.816,0.313,1.486,0.641,2.006,0.981c0.518,0.344,1.07,0.773,1.648,1.294c0.58,0.519,1.03,1.092,1.36,1.716
	c0.802,1.427,1.201,3.119,1.201,5.082c0,3.209-1.002,5.787-3.008,7.731c-2.007,1.948-4.644,2.922-7.912,2.922
	c-1.693,0-3.634-0.226-5.815-0.67c-2.187-0.444-3.396-0.667-3.634-0.667c-0.416,0-0.817,0.445-1.203,1.337h-0.622l-0.445-10.61
	h0.758c1.307,2.584,2.979,4.843,5.012,6.775C215.705,31.977,217.852,32.939,220.111,32.939"/>
<polygon fill="#FFFFFF" points="246.066,33.43 246.066,32.629 248.117,32.629 243.08,22.287 242.232,22.51 242.232,32.629 
	244.283,32.629 244.283,33.43 231.492,33.43 231.492,32.629 233.943,32.629 233.943,0.803 231.313,0.803 231.313,0 242.232,0 
	242.232,21.619 242.947,21.351 252.975,13.017 248.785,13.017 248.785,12.214 257.564,12.214 257.564,13.017 254.445,13.017 
	249.143,17.519 256.852,32.629 258.455,32.629 258.455,33.43 "/>
<path fill="#FFFFFF" d="M258.84,12.214h10.92v20.414h2.496v0.802h-13.238v-0.802h2.451V13.017h-2.629V12.214z M265.57,9.138
	c-1.574,0-2.697-0.402-3.365-1.204c-0.67-0.803-1.002-1.796-1.002-2.985s0.363-2.17,1.092-2.942c0.727-0.772,1.834-1.159,3.32-1.159
	s2.615,0.348,3.387,1.046c0.773,0.698,1.158,1.694,1.158,2.988c0,1.291-0.371,2.325-1.113,3.097
	C268.305,8.753,267.146,9.138,265.57,9.138"/>
<path fill="#FFFFFF" d="M272.957,12.214h10.738v4.1c0.477-1.366,1.205-2.465,2.186-3.298c0.98-0.832,2.465-1.248,4.457-1.248
	c4.605,0,6.91,2.48,6.91,7.444v13.416h2.494v0.802h-12.613v-0.802h1.828V18.143c0-1.783-0.119-2.935-0.357-3.456
	c-0.235-0.519-0.668-0.779-1.291-0.779c-0.951,0-1.793,0.624-2.52,1.871c-0.729,1.248-1.094,2.764-1.094,4.547v12.302h1.918v0.802
	h-12.656v-0.802h2.449V13.017h-2.449V12.214L272.957,12.214z"/>
<rect x="252.924" y="54.191" opacity="0.5" fill="#FFFFFF" width="21.803" height="0.58"/>
<path fill="#FFFFFF" d="M19.646,33.657c-0.147-0.132-0.337-0.205-0.533-0.21l-0.914-0.016c-0.087,0.002-0.399-0.08-0.477-0.119
	l-0.22-0.125c-0.078-0.035-0.289-0.018-0.296,0.112l-0.007,0.132c-0.003,0.065,0,0.135,0.012,0.2
	c0.015,0.091,0.028,0.199,0.021,0.269c-0.012,0.111-0.059,0.352-0.074,0.44c-0.023,0.136,0.005,0.261,0.197,0.313l0.167-0.004
	c0.106,0,0.21-0.027,0.306-0.074c0.135-0.066,0.369-0.119,0.52-0.115l0.829-0.123c0.08,0.002,0.158-0.014,0.232-0.043l0.169-0.07
	c0.096-0.041,0.158-0.137,0.155-0.238C19.734,33.984,19.757,33.729,19.646,33.657"/>
<path fill="#FFFFFF" d="M22.601,32.473c-0.092-0.231-0.218-0.302-0.442-0.146c-0.224,0.155-0.575,0.354-1.212,0.489
	c-0.64,0.136-0.723,0.195-0.649,0.429c0.024,0.075,0.053,0.073,0.08,0.221c0.021,0.111,0.082,0.503,0.249,0.507
	c0.248,0.006,0.36-0.185,0.514-0.275c0.154-0.092,0.657-0.229,0.962-0.254c0.281-0.023,0.833-0.322,0.674-0.603
	C22.686,32.678,22.693,32.704,22.601,32.473"/>
<path fill="#FFFFFF" d="M10.617,31.172c0.422-0.41,0.735-0.965,0.634-1.52c-0.212-1.198-0.738-1.549-1.416-1.564
	c-0.058-0.001-0.117,0-0.179,0.003c-0.007,0-0.017,0-0.024,0c-0.756-0.016-0.752-3.208-0.855-4.493
	c-0.101-1.3,0.509-5.763,0.55-7.708c0.004-0.207,0.011-0.424,0.02-0.649l2.385,2.151v-0.814V3.517h2.817V2.329H0.529H0.257v1.188
	h0.272h2.385v5.106v0.816l1.539,1.388c-0.001,1.63,0.014,3.235-0.024,4.657c-0.103,3.839-0.01,7.1,0.028,8.207
	c0.023,0.706-0.226,1.29-0.263,1.334c-0.649,0.798-0.307,2.005,0.642,2.4l0.3,0.08c0.063-0.233,0.162-0.412,0.265-0.596
	c0.193-0.342,0.419-0.825,0.483-2.02c-0.124-0.301-0.239-0.531-0.281-0.705c-0.112-0.48-0.086-3.62,0.099-7.167
	c0.08-1.521,0.052-3.206,0.007-5.056l1.146,1.031c-0.174,2.718-0.507,7.115-0.313,10.56c0.248,4.384-0.997,3.432-0.788,5.139
	c0.092,0.763,0.287,0.854,0.501,0.859c0.064,0.001,0.131-0.005,0.196-0.003c0.205,0.004,0.407,0.087,0.533,0.727
	c0.27,1.375,1.465,1.424,1.553,1.429c0.003,0,0.004,0,0.004,0c0.148,0.01,0.286,0.016,0.416,0.019
	C9.654,31.734,10.139,31.639,10.617,31.172"/>
<path fill="#FFFFFF" d="M16.029,32.938c-0.126-0.03-0.672-0.305-0.765-0.367c-0.119-0.082-0.16-0.223-0.242-0.342
	c-0.137-0.201-0.382-0.347-0.645-0.483c-0.103-0.052-0.225-0.122-0.349-0.24c-0.12-0.114-0.268-0.284-0.271-0.45
	c-0.007-0.336-0.161-0.66-0.737-1.01c-0.796-0.479-1.009,0.083-1.063,0.499c-0.052,0.392-0.277,0.785-0.531,1.084
	c-0.614,0.729-1.467,0.956-2.265,0.8c0,0-0.437-0.033-0.234,0.57c0.203,0.604,0.74,0.838,1.412,0.602
	c0.67-0.238,0.826,0.387,1.692,0.691c0.613,0.211,2.135,0.396,2.135,0.396c0.435,0.024,1.135-0.023,1.483,0.006
	c0.374,0.035,0.555,0.166,0.624-0.144C16.456,33.752,16.645,33.092,16.029,32.938"/>
<path fill="#FFFFFF" d="M25,30.367c-0.132-0.083-0.253-0.221-0.379-0.292c-0.282-0.167-0.53,0.317-0.596,0.518
	c-0.066,0.205-0.507,0.815-0.792,0.907c-0.284,0.09-0.188,0.48,0.084,0.712c0,0,0.024,0.024,0.153,0.14
	c0.128,0.114,0.549,0.031,0.539-0.166c-0.011-0.195,0.385-0.774,0.725-0.976c0.108-0.065,0.199-0.151,0.27-0.239
	C25.155,30.785,25.25,30.523,25,30.367"/>
<path fill="#FFFFFF" d="M22.832,2.337v1.189h2.682v20.58c0,1.998-0.29,3.665-0.86,4.972l1.14,1.007l0.069-0.116
	c0.757-1.625,1.142-3.693,1.142-6.167V3.527h2.384v-1.19H22.832z"/>
</svg>
